<svg width="187" height="149" viewBox="0 0 187 149" fill="none" xmlns="http://www.w3.org/2000/svg">
<path fill-rule="evenodd" clip-rule="evenodd" d="M27.1623 116.12C27.2166 114.313 27.9219 113.235 34.6305 104.05C36.9358 100.846 38.8061 98.0659 38.8096 97.8372C38.7836 97.5782 38.0699 95.7895 37.1825 93.8266C33.6988 85.9162 29.6688 74.6435 28.6564 69.8094C26.9766 61.7254 29.7472 58.0687 36.0004 60.2317C38.1322 60.9834 50.6845 68.027 57.3356 72.2324L58.5526 73.0271L60.5816 71.0521C61.6829 69.9803 64.5846 66.9844 67.0246 64.3843C71.2925 59.8333 76.4444 55.5003 78.0231 55.1491C79.4274 54.855 80.5537 55.9042 81.379 58.2118C81.845 59.5121 81.9987 60.6606 81.7399 60.9125C81.4783 61.167 81.531 61.4537 81.8435 61.6001C82.7515 62.0143 82.0447 72.9306 80.5585 80.4755C79.5402 85.5913 79.2916 84.9858 83.8772 87.8117C86.0575 89.1331 89.4002 91.0823 91.2706 92.0831C96.0324 94.566 98.3793 96.3528 99.0111 97.996C100.332 101.457 98.407 103.894 92.8935 105.758C89.5611 106.909 80.2067 109.46 76.1657 110.287L73.9881 110.771L72.3284 116.683C71.392 119.965 70.1207 124.763 69.4794 127.361C66.4941 139.702 64.8983 143.175 62.1847 143.22C59.3546 143.261 57.29 140.019 51.406 126.48C49.3888 121.889 47.6194 117.963 47.4217 117.759C47.2241 117.554 44.8186 117.863 42.01 118.451C36.2489 119.649 30.9546 120.286 29.8152 119.925C28.255 119.406 27.0804 117.782 27.1623 116.12ZM35.3282 114.667C36.0437 114.534 38.3948 114.053 40.6311 113.63C42.838 113.177 44.7878 112.69 44.9613 112.521C45.2228 112.267 43.3782 107.567 41.9894 104.847C41.406 103.779 40.9993 104.116 37.207 109.33C33.0935 114.975 33.0313 115.149 35.3282 114.667ZM61.7533 134.029C62.1002 133.691 67.6885 113.679 67.7335 112.675C67.7672 112.417 64.8989 113.004 59.8258 114.273C57.7043 114.815 55.3515 115.41 54.5212 115.596L53.0895 115.916L54.6663 119.295C55.5519 121.2 56.8518 124.06 57.6011 125.648C61.628 134.601 61.4614 134.313 61.7533 134.029ZM57.7472 109.624C61.3032 108.759 65.2025 107.79 66.4084 107.523C67.6417 107.229 68.8172 106.814 69.0209 106.616C69.3403 106.305 73.2248 89.1904 73.2448 88.0446C73.2465 87.9303 70.2731 86.1366 66.6472 84.0715C60.3283 80.5027 60.0158 80.3563 59.2917 81.061C58.3336 81.9935 50.0937 92.159 47.6185 95.4745L45.6342 98.0817L48.1692 104.314C49.5441 107.776 50.8423 110.75 50.9563 110.923C51.1246 111.098 54.1636 110.516 57.7472 109.624ZM49.5507 84.6099C52.6086 80.7861 55.1142 77.6126 55.1159 77.4983C55.1194 77.2696 51.0688 74.942 40.0175 68.7493C37.8622 67.5698 35.6519 66.444 35.0822 66.2637L34.0594 65.9021L34.5419 67.9159C35.374 71.397 39.6164 83.879 41.3521 88.0628C42.5916 91.1473 43.1206 92.0483 43.496 91.7955C43.7585 91.658 46.4937 88.3737 49.5507 84.6099ZM77.1955 104.763C79.8901 104.174 90.6521 101.101 92.0305 100.548C92.7779 100.271 93.3563 99.8794 93.3561 99.7079C93.3863 99.5069 90.8383 97.9211 87.7501 96.1801C84.6619 94.439 81.3752 92.5533 80.4395 91.9944C79.5074 91.3784 78.6832 90.99 78.5648 91.1052C78.4767 91.1909 77.7751 94.1909 77.0087 97.7044C76.2718 101.248 75.5408 104.218 75.4224 104.333C74.9074 104.845 75.8179 105.085 77.1955 104.763ZM68.2126 78.6484C70.3385 79.7974 72.3229 80.9769 72.6309 81.2403C74.0394 82.4654 74.4511 81.7857 75.3022 76.6075C76.3042 70.7728 76.8367 62.0643 76.1504 62.0564C75.749 62.0502 64.2415 75.0044 64.03 75.7198C63.879 76.1993 64.0748 76.3466 68.2126 78.6484Z" fill="#E3C327"/>
<path fill-rule="evenodd" clip-rule="evenodd" d="M101.598 55.7872C107.049 51.279 116.958 43.6038 126.567 36.4074C128.01 35.3481 130.513 33.4408 132.178 32.1788C137.887 27.8902 142.918 24.2912 144.263 23.5826C146.37 22.5021 148.389 23.3468 148.171 25.2534C148.096 26.1639 147.782 26.4792 145.144 28.3682C141.805 30.7335 135.357 35.6579 125.404 43.4398C121.639 46.3659 106.854 57.0426 102.105 60.25C99.981 61.7035 98.1551 62.3396 97.603 61.87C97.4876 61.7719 97.3369 61.302 97.3196 60.8531C97.2242 59.8484 98.4432 58.4052 101.598 55.7872Z" fill="#E3C327"/>
<path fill-rule="evenodd" clip-rule="evenodd" d="M95.8766 72.5267C97.2328 71.9542 109.79 65.8985 110.711 65.3996C111.742 64.8578 121.194 60.1249 129.73 55.8912C133.847 53.8293 141.465 50.0382 146.664 47.4386C170.935 35.3865 178.318 31.9581 179.735 32.2051C180.107 32.289 180.678 32.7161 181.026 33.2311C181.6 34.0658 181.567 34.1972 180.488 35.0883C179.861 35.6366 177.185 37.1068 174.6 38.3935C171.989 39.6498 163.753 43.8301 156.35 47.6383C140.766 55.6313 127.324 62.0521 106.806 71.2812C104.422 72.339 102.148 73.4082 101.701 73.6433C101.31 73.8828 100.896 73.9865 100.795 73.8702C100.694 73.7538 100.334 73.9133 99.9132 74.1789C98.8666 74.9926 96.027 75.9858 95.0022 75.9608C93.2748 75.9314 92.8692 74.4862 94.2824 73.4051C94.5439 73.181 95.2682 72.8057 95.8766 72.5267Z" fill="#E3C327"/>
<path fill-rule="evenodd" clip-rule="evenodd" d="M114.642 75.0499C116.278 74.6173 130.763 71.7906 133.376 71.3994C134.783 71.1982 138.429 70.6117 141.535 70.1159C148.032 69.0277 148.959 69.049 149.568 70.3684C150.146 71.6204 149.796 72.3985 148.389 73.0524C147.255 73.579 133.417 76.2729 128.621 76.8983C127.316 77.0525 125.3 77.3732 124.146 77.5818C118.474 78.6571 111.429 79.4659 110.835 79.1648C110.16 78.7809 109.908 77.7905 110.339 77.0952C110.587 76.6451 113.056 75.4979 114.642 75.0499Z" fill="#E3C327"/>
</svg>
