<svg width="111" height="86" viewBox="0 0 111 86" fill="none" xmlns="http://www.w3.org/2000/svg">
<path d="M71.665 25.0664C72.2563 23.4189 73.0634 22.6692 74.0693 22.8789C75.2005 23.1297 78.8922 26.2241 81.9502 29.4736C83.6984 31.3301 85.7773 33.469 86.5664 34.2344L88.0205 35.6445L88.8926 35.0771C93.6579 32.0745 102.651 27.0449 104.179 26.5078C108.659 24.9634 110.645 27.5748 109.441 33.3467C108.716 36.7984 105.828 44.8478 103.332 50.4961C102.696 51.897 102.185 53.1736 102.166 53.3594C102.168 53.5226 103.508 55.5083 105.16 57.7959C109.967 64.3539 110.473 65.124 110.512 66.4141C110.57 67.6007 109.728 68.7599 108.61 69.1309C107.793 69.3882 104 68.9338 99.873 68.0781C97.8623 67.6586 96.14 67.4386 95.9961 67.584C95.8545 67.73 94.5859 70.5334 93.1406 73.8115C88.9248 83.4786 87.4457 85.7936 85.418 85.7646C83.4737 85.7324 82.3304 83.2517 80.1914 74.4404C79.7319 72.5853 78.8213 69.1589 78.1504 66.8154L76.9609 62.5947L75.4004 62.249C72.5048 61.658 65.8027 59.8369 63.415 59.0146C59.4647 57.6838 58.086 55.9442 59.0322 53.4727C59.4852 52.2995 61.1668 51.0236 64.5781 49.251C65.9183 48.5364 68.3129 47.1446 69.875 46.2012C73.1606 44.1834 72.9826 44.6157 72.2529 40.9629C71.1882 35.5764 70.6819 27.7834 71.332 27.4854C71.5559 27.3808 71.5937 27.1759 71.4062 26.9941C71.2213 26.8137 71.3314 25.9942 71.665 25.0664ZM87.1084 65.0947C83.4738 64.1887 81.4186 63.77 81.4424 63.9541C81.4746 64.6709 85.479 78.9601 85.7275 79.2012C85.9363 79.4039 85.8179 79.6074 88.7021 73.2168C89.239 72.083 90.1702 70.0413 90.8047 68.6807L91.9346 66.2686L90.9092 66.04C90.3143 65.9073 88.6284 65.4814 87.1084 65.0947ZM103.314 61.5664C100.597 57.8432 100.306 57.6027 99.8877 58.3652C98.8926 60.3069 97.5714 63.663 97.7588 63.8447C97.8849 63.9655 99.2812 64.3124 100.861 64.6357C102.464 64.9376 104.148 65.2818 104.661 65.377C106.306 65.7208 106.261 65.5965 103.314 61.5664ZM87.4912 41.3809C86.9724 40.8777 86.748 40.9822 82.2207 43.5303C79.6254 45.0033 77.4963 46.2832 77.4932 46.3672C77.5075 47.1852 80.2899 59.4021 80.5195 59.6279C80.6655 59.7695 81.5079 60.0655 82.3916 60.2754C83.2556 60.4662 86.0498 61.1577 88.5977 61.7754C91.1652 62.4122 93.3423 62.8274 93.4629 62.7031C93.5455 62.5773 94.4754 60.4551 95.46 57.9844L97.2764 53.5342L95.8545 51.6729C94.0812 49.3056 88.1785 42.0477 87.4912 41.3809ZM73.6816 48.5527C73.5968 48.4705 73.0057 48.7476 72.3379 49.1875C71.6672 49.5868 69.313 50.9338 67.1006 52.1768C64.8879 53.4199 63.0624 54.5518 63.084 54.6953C63.0839 54.8178 63.4977 55.0971 64.0332 55.2949C65.0208 55.6898 72.7324 57.8835 74.6631 58.3047C75.6496 58.5342 76.3018 58.3634 75.9336 57.998C75.8488 57.9158 75.3249 55.7951 74.7969 53.2646C74.2479 50.7563 73.7449 48.6145 73.6816 48.5527ZM104.837 30.8154C104.429 30.9442 102.845 31.7477 101.301 32.5898C93.3848 37.0103 90.4817 38.6728 90.4824 38.8369C90.4837 38.9185 92.2797 41.1848 94.4707 43.915C96.661 46.6024 98.6205 48.9477 98.8086 49.0459C99.0776 49.2259 99.4569 48.5824 100.345 46.3809C101.588 43.3936 104.627 34.481 105.224 31.9951L105.569 30.5566L104.837 30.8154ZM75.4111 27.8115C74.9199 27.8199 75.3018 34.036 76.0195 38.2012C76.6293 41.8984 76.9244 42.3835 77.9336 41.5088C78.1553 41.3202 79.5762 40.4782 81.0986 39.6582C84.0629 38.0149 84.2038 37.9096 84.0957 37.5674C83.9442 37.0566 75.6987 27.8071 75.4111 27.8115ZM22.8066 33.7461C23.2428 32.8041 23.9078 32.7884 28.5625 33.5654C30.7882 33.9194 33.4004 34.3388 34.4082 34.4824C36.2806 34.7618 46.6585 36.7799 47.8311 37.0889C48.9668 37.4087 50.7362 38.2273 50.9141 38.5488C51.2228 39.0453 51.0427 39.7532 50.5586 40.0273C50.1322 40.2421 45.0849 39.6642 41.0215 38.8965C40.1947 38.7475 38.7499 38.5184 37.8145 38.4082C34.3783 37.9616 24.4637 36.0382 23.6514 35.6621C22.643 35.1953 22.3928 34.64 22.8066 33.7461ZM1.18945 6.49609C2.20509 6.31968 7.49513 8.76751 24.8857 17.373C28.6105 19.2292 34.0693 21.936 37.0186 23.4082C43.1343 26.4309 49.9058 29.811 50.6455 30.1982C51.3054 30.5545 60.3025 34.8782 61.2744 35.2871C61.7103 35.4863 62.2296 35.7541 62.417 35.9141C63.4293 36.6859 63.1388 37.7181 61.9014 37.7393C61.1671 37.7571 59.1317 37.0479 58.3818 36.4668C58.0807 36.2773 57.8225 36.163 57.75 36.2461C57.6772 36.3289 57.3813 36.2549 57.1016 36.084C56.7814 35.9161 55.1516 35.1528 53.4434 34.3975C38.7425 27.8076 29.1109 23.2228 17.9453 17.5156C12.6406 14.7966 6.74007 11.8122 4.86914 10.915C3.0174 9.99624 1.09909 8.94614 0.650391 8.55469C-0.122725 7.91851 -0.146268 7.82445 0.264648 7.22852C0.513873 6.86098 0.922693 6.55608 1.18945 6.49609ZM23.8047 1.53223C23.6489 0.171191 25.0961 -0.43161 26.6055 0.339844C27.5692 0.846224 31.174 3.41575 35.2637 6.47754C36.4569 7.37867 38.2508 8.7407 39.2842 9.49707C46.169 14.6355 53.2687 20.116 57.1738 23.335C59.4346 25.2043 60.3086 26.2347 60.2402 26.9521C60.2278 27.2722 60.1197 27.6072 60.0371 27.6777C59.6415 28.013 58.3327 27.5593 56.8105 26.5215C53.4084 24.2313 42.8149 16.6081 40.1172 14.5186C32.9863 8.96212 28.3656 5.44573 25.9736 3.75684C24.0831 2.40809 23.8585 2.18233 23.8047 1.53223Z" fill="#80C11E"/>
</svg>
