<svg width="129" height="62" viewBox="0 0 129 62" fill="none" xmlns="http://www.w3.org/2000/svg">
<path d="M11.9834 28.3717C11.9834 28.3717 4.19595 25.0766 1.08095 29.0308C-2.03405 32.985 1.70406 38.916 10.7372 36.9387C10.7372 36.9387 11.6716 47.8123 23.8203 49.1305C35.9685 50.4488 39.0835 43.1995 39.0835 43.1995C39.0835 43.1995 40.4515 57.5881 56.8391 60.6632C72.2834 63.5613 78.6441 48.8012 78.6441 48.8012C78.6441 48.8012 85.2872 55.6418 96.1897 52.676C107.092 49.7102 108.548 42.8702 108.548 42.8702C108.548 42.8702 124.177 47.6279 127.549 35.6209C131.178 22.6989 113.22 19.4755 113.22 19.4755C113.22 19.4755 113.763 7.29137 102.007 3.65924C93.3976 0.999421 87.9891 10.2494 87.9891 10.2494C87.9891 10.2494 81.3077 3.60704 72.1254 7.79389C64.193 11.4105 64.004 18.1572 64.004 18.1572C64.004 18.1572 62.6859 2.56421 47.1109 0.257555C31.5359 -2.0491 27.559 11.8969 27.559 11.8969C27.559 11.8969 12.6066 10.2488 11.9834 28.3717Z" fill="#B5E4FE"/>
<path d="M126.995 37.1052C119.836 43.6203 109.33 39.9482 109.33 39.9482C113.446 37.771 114.238 30.7372 114.238 30.7372C114.238 30.7372 111.863 35.9285 105.689 37.4361C99.5144 38.9432 95.5564 33.2493 95.5564 33.2493C97.1396 38.6083 102.047 40.4508 102.047 40.4508C102.047 40.4508 96.6645 46.9821 88.907 47.8194C81.1494 48.6568 77.3499 44.8048 77.3499 44.8048C81.4659 43.13 83.3662 39.278 83.3662 39.278C87.4828 38.7755 89.0655 35.426 89.0655 35.426C80.8328 38.9426 75.6086 34.9234 75.6086 34.9234C76.8753 37.2679 80.6748 38.7755 80.6748 38.7755C80.6748 38.7755 80.0418 41.1199 74.3419 42.6275C68.6427 44.1345 63.4179 40.785 63.4179 40.785C66.4258 44.9719 72.2837 46.1441 72.2837 46.1441C72.2837 46.1441 64.8426 54.0153 54.3937 51.838C43.9447 49.6608 42.045 39.6128 42.045 39.6128C46.003 38.7755 49.328 34.5886 49.328 34.5886C35.8706 40.1154 28.7466 31.2391 28.7466 31.2391C29.8548 36.5982 32.8627 38.4406 32.8627 38.4406C32.8627 38.4406 28.5881 43.7997 20.8305 41.9573C13.0729 40.1154 12.5979 32.4113 12.5979 32.4113C12.5979 32.4113 8.95635 35.928 4.04868 34.2532C1.96729 33.543 0.831315 32.1098 0.206635 30.6949C-0.932487 34.4259 2.91008 38.6516 10.7385 36.938C10.7385 36.938 11.6729 47.8116 23.8216 49.1299C35.9698 50.4481 39.0848 43.1989 39.0848 43.1989C39.0848 43.1989 40.4528 57.5875 56.8404 60.6626C72.2847 63.5607 78.6454 48.8006 78.6454 48.8006C78.6454 48.8006 85.2885 55.6412 96.191 52.6754C107.094 49.7096 108.549 42.8696 108.549 42.8696C108.549 42.8696 122.775 47.1708 126.995 37.1052Z" fill="#ABD4F4"/>
<path d="M113.222 19.4755C113.222 19.4755 113.765 7.29137 102.008 3.65924C93.3994 0.99942 87.9909 10.2494 87.9909 10.2494C87.9909 10.2494 81.3095 3.60705 72.1272 7.79391C64.1948 11.411 64.0059 18.1572 64.0059 18.1572C64.0059 18.1572 62.6877 2.56421 47.1127 0.257554C31.5377 -2.0491 27.5608 11.8969 27.5608 11.8969C27.5608 11.8969 16.8914 10.7225 13.2031 21.2829C14.863 19.5271 18.5523 16.0599 21.9502 15.8928C26.5088 15.6684 28.9466 17.6869 28.9466 17.6869C28.9466 17.6869 31.491 8.82785 43.046 8.82785C54.601 8.82785 57.1449 23.1814 57.1449 23.1814C57.1449 23.1814 61.2793 19.1445 66.2615 20.3778C71.2437 21.6111 72.1981 23.1814 72.1981 23.1814C72.1981 23.1814 71.88 15.8927 78.1346 13.7621C84.3893 11.6315 87.6754 16.1171 87.6754 16.1171C87.6754 16.1171 84.1772 17.1266 82.5872 21.2751C82.5872 21.2751 89.5836 16.0049 95.7322 19.481C95.7322 19.481 93.1878 16.2292 90.644 16.1171C90.644 16.1171 93.4004 8.82839 100.079 9.38868C106.758 9.94952 110.997 21.6116 110.997 21.6116C110.997 21.6116 116.435 21.2207 121.976 22.846C117.882 20.3167 113.222 19.4755 113.222 19.4755Z" fill="#ABD4F4"/>
</svg>
