<svg width="180" height="86" viewBox="0 0 180 86" fill="none" xmlns="http://www.w3.org/2000/svg">
<path d="M163.153 46.0264C163.153 46.0264 174.101 50.6688 178.48 45.0978C182.86 39.5268 177.604 31.1706 164.905 33.9565C164.905 33.9565 163.591 18.6368 146.511 16.7795C129.432 14.9223 125.053 25.1357 125.053 25.1357C125.053 25.1357 123.13 4.86377 100.091 0.531189C78.378 -3.55183 69.4356 17.2435 69.4356 17.2435C69.4356 17.2435 60.0961 7.60587 44.7685 11.7843C29.4409 15.9628 27.3944 25.5996 27.3944 25.5996C27.3944 25.5996 5.42101 18.8965 0.680801 35.813C-4.42104 54.0188 20.8254 58.5602 20.8254 58.5602C20.8254 58.5602 20.0623 75.7263 36.5907 80.8436C48.694 84.5909 56.2976 71.5588 56.2976 71.5588C56.2976 71.5588 65.691 80.9171 78.6001 75.0183C89.7521 69.9229 90.0178 60.4175 90.0178 60.4175C90.0178 60.4175 91.8709 82.3863 113.768 85.6362C135.664 88.886 141.255 69.2376 141.255 69.2376C141.255 69.2376 162.277 71.5596 163.153 46.0264Z" fill="#B5E4FE"/>
<path d="M1.45984 33.7221C11.5248 24.543 26.2945 29.7166 26.2945 29.7166C20.5078 32.7841 19.3949 42.6939 19.3949 42.6939C19.3949 42.6939 22.7336 35.3799 31.414 33.2558C40.0944 31.1326 45.659 39.1547 45.659 39.1547C43.4332 31.6043 36.5336 29.0085 36.5336 29.0085C36.5336 29.0085 44.1011 19.8067 55.0073 18.6269C65.9136 17.4471 71.2552 22.8742 71.2552 22.8742C65.4685 25.2338 62.7969 30.6608 62.7969 30.6608C57.0095 31.3688 54.7844 36.0879 54.7844 36.0879C66.3586 31.1334 73.7032 36.7959 73.7032 36.7959C71.9224 33.4929 66.5807 31.3688 66.5807 31.3688C66.5807 31.3688 67.4707 28.0658 75.484 25.9418C83.4965 23.8185 90.8419 28.5376 90.8419 28.5376C86.6131 22.6388 78.3777 20.9872 78.3777 20.9872C78.3777 20.9872 88.8389 9.89759 103.529 12.9651C118.219 16.0327 120.89 30.1891 120.89 30.1891C115.325 31.3689 110.651 37.2677 110.651 37.2677C129.57 29.4811 139.586 41.9867 139.586 41.9867C138.028 34.4364 133.799 31.8406 133.799 31.8406C133.799 31.8406 139.809 24.2903 150.715 26.886C161.621 29.4811 162.289 40.3352 162.289 40.3352C162.289 40.3352 167.408 35.3807 174.308 37.7402C177.234 38.7408 178.831 40.76 179.71 42.7534C181.311 37.4969 175.909 31.5433 164.903 33.9576C164.903 33.9576 163.589 18.6379 146.51 16.7806C129.431 14.9233 125.051 25.1367 125.051 25.1367C125.051 25.1367 123.128 4.86482 100.089 0.532238C78.3762 -3.55078 69.4338 17.2445 69.4338 17.2445C69.4338 17.2445 60.0944 7.60691 44.7667 11.7854C29.4391 15.9638 27.3926 25.6007 27.3926 25.6007C27.3926 25.6007 7.39267 19.5407 1.45984 33.7221Z" fill="#ABD4F4"/>
<path d="M20.8263 58.5612C20.8263 58.5612 20.0632 75.7273 36.5916 80.8445C48.6949 84.5919 56.2985 71.5597 56.2985 71.5597C56.2985 71.5597 65.6919 80.9181 78.6011 75.0192C89.7531 69.9231 90.0187 60.4185 90.0187 60.4185C90.0187 60.4185 91.8719 82.3873 113.768 85.6371C135.665 88.887 141.256 69.2386 141.256 69.2386C141.256 69.2386 156.256 70.8932 161.441 56.0147C159.108 58.4885 153.921 63.3734 149.144 63.6089C142.735 63.9249 139.308 61.0811 139.308 61.0811C139.308 61.0811 135.731 73.5625 119.486 73.5625C103.241 73.5625 99.6645 53.3399 99.6645 53.3399C99.6645 53.3399 93.8519 59.0275 86.8475 57.2899C79.8431 55.5524 78.5014 53.3399 78.5014 53.3399C78.5014 53.3399 78.9487 63.6089 70.1553 66.6107C61.362 69.6125 56.7421 63.2928 56.7421 63.2928C56.7421 63.2928 61.6601 61.8705 63.8956 56.0257C63.8956 56.0257 54.0594 63.4508 45.4152 58.5534C45.4152 58.5534 48.9923 63.1348 52.5687 63.2928C52.5687 63.2928 48.6934 73.5618 39.3045 72.7724C29.9148 71.9822 23.954 55.5516 23.954 55.5516C23.954 55.5516 16.309 56.1023 8.52007 53.8124C14.275 57.376 20.8263 58.5612 20.8263 58.5612Z" fill="#ABD4F4"/>
</svg>
