<svg width="54" height="34" viewBox="0 0 54 34" fill="none" xmlns="http://www.w3.org/2000/svg">
<path d="M12.5295 29.3321C12.5295 29.3321 5.90809 31.6751 2.21713 26.9996C-1.77302 21.9456 0.1395 13.2705 3.87449 10.9051C7.92568 8.33945 10.4426 10.2055 10.4426 10.2055C10.4426 10.2055 10.8251 2.83381 16.4583 0.71976C23.0878 -1.76817 25.4206 3.6741 25.4206 3.6741C25.4206 3.6741 28.7353 -1.45723 34.2601 0.408398C39.7845 2.27445 39.9076 10.3606 39.9076 10.3606C39.9076 10.3606 44.8183 9.11638 47.642 12.2266C50.4658 15.3364 49.6063 20.1572 49.6063 20.1572C49.6063 20.1572 52.43 19.069 53.6575 22.3342C54.8849 25.5995 52.6752 28.8652 49.2377 28.2433C49.2377 28.2433 47.6417 34.1525 40.2755 33.997C32.9092 33.8415 32.541 25.9109 32.541 25.9109C32.541 25.9109 30.5768 29.9539 27.262 29.7985C23.9473 29.643 22.7195 25.5999 22.7195 25.5999C22.7195 25.5999 23.5711 30.4436 19.5889 32.2087C14.6779 34.3861 12.5295 29.3321 12.5295 29.3321Z" fill="#B5E4FE"/>
<path d="M53.6257 25.9759C51.1531 27.5821 47.7644 26.2222 47.7644 26.2222C49.6058 25.4449 49.2376 23.3456 49.2376 23.3456C49.2376 23.3456 48.9307 24.7453 47.0893 25.0562C45.2478 25.3671 44.2655 23.5011 44.2655 23.5011C45.0637 26.1445 46.0456 26.2222 46.0456 26.2222C46.0456 26.2222 45.1864 31.1208 39.6617 30.5762C34.1369 30.0321 33.9528 23.6565 33.9528 23.6565C38.004 23.1901 38.6794 18.447 38.6794 18.447C38.6794 18.447 37.4516 20.7795 34.0141 21.0127C30.5767 21.2459 29.042 18.1361 29.042 18.1361C29.2262 21.2463 31.8658 22.8788 31.8658 22.8788C31.8658 22.8788 30.9452 26.1445 27.2619 26.4554C23.579 26.7664 22.2285 22.5678 22.2285 22.5678C22.2285 22.5678 21.492 28.2437 17.5019 28.7879C13.512 29.332 12.8366 25.0558 12.8366 25.0558C15.4149 24.5894 16.1514 21.8678 16.1514 21.8678C16.1514 21.8678 14.6167 23.5007 11.9771 23.112C9.33745 22.7233 8.84648 19.4576 8.84648 19.4576C8.53963 22.9565 10.3197 24.1225 10.3197 24.1225C10.3197 24.1225 8.04865 27.3882 3.6289 25.1331C1.35349 23.9721 0.449593 20.8978 0.128393 18.1424C-0.268187 21.1864 0.264478 24.5256 2.21703 26.9991C5.90832 31.6746 12.5294 29.3316 12.5294 29.3316C12.5294 29.3316 14.6778 34.3856 19.5885 32.2082C23.5706 30.4427 22.7191 25.5995 22.7191 25.5995C22.7191 25.5995 23.9469 29.6425 27.2616 29.798C30.5763 29.9535 32.5406 25.9104 32.5406 25.9104C32.5406 25.9104 32.9088 33.8411 40.275 33.9965C47.6413 34.152 49.2373 28.2429 49.2373 28.2429C51.3102 28.6185 52.9302 27.5758 53.6257 25.9759Z" fill="#ABD4F4"/>
<path d="M47.6405 12.2268C44.8167 9.11652 39.906 10.3607 39.906 10.3607C39.906 10.3607 39.7833 2.27459 34.2585 0.408538C28.7341 -1.45752 25.419 3.67424 25.419 3.67424C25.419 3.67424 23.0865 -1.76846 16.4571 0.719899C10.8242 2.83395 10.4413 10.2056 10.4413 10.2056C10.4413 10.2056 7.92444 8.33959 3.87325 10.9053C3.27421 11.2846 2.72887 11.8402 2.24023 12.5035C3.59408 11.8875 5.66103 11.144 7.14462 11.5107C9.53277 12.1009 11.2805 14.6834 11.3389 14.2407C11.3973 13.7979 11.6884 4.57495 17.0474 3.54201C22.4064 2.50907 23.6299 7.00965 23.6299 7.00965C23.6299 7.00965 20.8922 7.96866 21.2417 12.1744C21.2417 12.1744 22.5816 7.82122 25.6108 8.41141C28.64 9.00161 28.7564 12.1744 28.7564 12.1744C28.7564 12.1744 29.4555 8.26397 26.3679 6.71435C26.3679 6.71435 28.2901 1.32826 33.1835 3.02533C38.0765 4.72239 38.6009 12.3957 38.6009 12.3957C38.6009 12.3957 41.4553 10.4773 44.8921 12.1004C47.908 13.525 49.3982 17.1067 49.7181 17.9631C49.6561 16.2913 49.2378 13.9859 47.6405 12.2268Z" fill="#ABD4F4"/>
</svg>
