<svg width="401" height="50" viewBox="0 0 401 50" fill="none" xmlns="http://www.w3.org/2000/svg">
<path d="M180.605 14.2649C180.605 14.2649 187.12 15.22 186.637 11.0458C186.161 6.9251 179.493 8.47043 179.493 8.47043C179.493 8.47043 177.201 3.50308 169.333 2.28961C159.59 0.786755 155.362 5.63766 155.362 5.63766C155.362 5.63766 153.616 3.19121 148.853 2.80488C144.091 2.41854 141.074 5.50922 141.074 5.50922C141.074 5.50922 138.693 1.90377 130.914 2.03222C123.135 2.16116 120.437 7.44088 120.437 7.44088C120.437 7.44088 117.833 4.56213 112.975 5.25183C106.764 6.13345 106.784 10.7889 106.784 10.7889C106.784 10.7889 97.8937 10.7889 99.0052 15.5534C100.117 20.3178 107.101 17.7424 107.101 17.7424C107.101 17.7424 106.474 24.2166 115.674 26.6276C121.191 28.0735 124.882 26.4986 124.882 26.4986C124.882 26.4986 127.739 39.6335 144.249 40.2772C160.76 40.9209 163.935 27.7866 163.935 27.7866C163.935 27.7866 168.698 29.7183 172.666 26.7565C176.635 23.7948 175.365 20.3178 175.365 20.3178C175.365 20.3178 182.828 19.6736 180.605 14.2649Z" fill="#B5E4FE"/>
<path d="M99.2532 13.4512C104.084 11.1067 107.25 13.9945 107.25 13.9945C107.25 13.9945 108.607 9.90622 113.55 8.88416C118.494 7.8621 120.044 12.1078 120.044 12.1078C117.815 14.7811 118.881 17.6114 118.881 17.6114C118.881 17.6114 118.784 15.2529 123.049 13.0514C127.314 10.8498 130.997 12.3437 130.997 12.3437C126.926 9.90622 124.309 10.6924 124.309 10.6924C124.309 10.6924 125.182 6.99697 131.385 6.05388C137.589 5.11029 139.818 9.82775 139.818 9.82775C139.818 9.82775 141.563 6.21131 146.603 5.81798C151.643 5.42465 154.26 8.96263 154.26 8.96263C151.159 9.19853 149.705 12.2647 149.705 12.2647C158.234 9.04109 162.984 13.7586 162.984 13.7586C161.627 9.74878 158.525 9.04109 158.525 9.04109C158.525 9.04109 160.27 5.03133 169.284 5.50312C178.299 5.97492 179.171 11.7144 179.171 11.7144C179.171 11.7144 180.431 9.90622 184.211 10.1421C185.471 10.2206 186.218 10.7568 186.663 11.4321C186.662 11.3081 186.654 11.1797 186.638 11.0452C186.162 6.9245 179.494 8.46984 179.494 8.46984C179.494 8.46984 177.202 3.50249 169.334 2.28901C159.591 0.78616 155.363 5.63706 155.363 5.63706C155.363 5.63706 153.617 3.19062 148.854 2.80428C144.091 2.41795 141.075 5.50862 141.075 5.50862C141.075 5.50862 138.694 1.90318 130.915 2.03162C123.136 2.16057 120.438 7.44028 120.438 7.44028C120.438 7.44028 117.834 4.56153 112.976 5.25123C106.765 6.13285 106.785 10.7883 106.785 10.7883C106.785 10.7883 100.761 10.7903 99.2532 13.4512Z" fill="#FBFBFB"/>
<path d="M107.685 20.732C108.543 22.7607 110.63 25.3041 115.677 26.6265C121.194 28.0724 124.884 26.4975 124.884 26.4975C124.884 26.4975 127.742 39.6324 144.252 40.2761C160.762 40.9198 163.937 27.7855 163.937 27.7855C163.937 27.7855 168.7 29.7172 172.669 26.7554C174.21 25.6049 174.957 24.379 175.299 23.3069C173.966 24.5329 171.846 26.0557 169.479 26.1027C165.505 26.1812 162.403 24.373 162.403 24.373C162.403 24.373 159.398 31.9207 150.966 33.2571C142.533 34.5936 139.237 27.9894 139.237 27.9894C139.237 27.9894 144.374 26.7314 145.925 23.036C145.925 23.036 140.497 25.552 135.263 24.9227C130.029 24.294 128.091 21.2273 128.091 21.2273C128.091 21.2273 128.672 25.1586 132.162 26.3376C132.162 26.3376 126.055 25.8658 123.632 21.6991C123.632 21.6991 114.568 24.1236 107.685 20.732Z" fill="#ABD4F4"/>
<path d="M302.101 8.17813C302.101 8.17813 314.924 5.07707 322.072 11.2652C329.8 17.9544 326.096 29.436 318.863 32.5667C311.017 35.9625 306.143 33.4927 306.143 33.4927C306.143 33.4927 305.402 43.2494 294.493 46.0474C281.654 49.3402 277.137 42.1372 277.137 42.1372C277.137 42.1372 270.717 48.9287 260.018 46.4595C249.32 43.9897 249.081 33.2875 249.081 33.2875C249.081 33.2875 239.571 34.9342 234.103 30.8177C228.634 26.7018 230.299 20.3213 230.299 20.3213C230.299 20.3213 224.83 21.7617 222.453 17.44C220.076 13.1183 224.355 8.796 231.012 9.61908C231.012 9.61908 234.103 1.79819 248.369 2.00396C262.634 2.20973 263.347 12.7062 263.347 12.7062C263.347 12.7062 267.151 7.35506 273.57 7.56083C279.99 7.7666 282.367 13.1177 282.367 13.1177C282.367 13.1177 280.718 6.707 288.43 4.37086C297.941 1.48898 302.101 8.17813 302.101 8.17813Z" fill="#B5E4FE"/>
<path d="M222.515 12.6201C227.304 10.4942 233.866 12.2941 233.866 12.2941C230.3 13.323 231.013 16.1014 231.013 16.1014C231.013 16.1014 231.608 14.2489 235.174 13.8374C238.74 13.4259 240.642 15.8956 240.642 15.8956C239.097 12.397 237.195 12.2941 237.195 12.2941C237.195 12.2941 238.859 5.81075 249.558 6.5315C260.257 7.25169 260.614 15.6899 260.614 15.6899C252.768 16.3072 251.46 22.5848 251.46 22.5848C251.46 22.5848 253.838 19.4977 260.495 19.1891C267.152 18.8804 270.124 22.9963 270.124 22.9963C269.768 18.8798 264.656 16.7193 264.656 16.7193C264.656 16.7193 266.438 12.397 273.571 11.9855C280.704 11.5739 283.319 17.1308 283.319 17.1308C283.319 17.1308 284.745 9.61859 292.473 8.8984C300.199 8.17821 301.507 13.838 301.507 13.838C296.514 14.4553 295.088 18.0573 295.088 18.0573C295.088 18.0573 298.06 15.8962 303.172 16.4106C308.284 16.925 309.235 21.2473 309.235 21.2473C309.829 16.6164 306.382 15.0731 306.382 15.0731C306.382 15.0731 310.78 10.7509 319.339 13.7356C323.746 15.2722 325.496 19.3412 326.118 22.988C326.886 18.9592 325.855 14.5397 322.073 11.2659C314.925 5.0777 302.102 8.17876 302.102 8.17876C302.102 8.17876 297.942 1.48961 288.432 4.37148C280.72 6.70819 282.369 13.1183 282.369 13.1183C282.369 13.1183 279.991 7.76723 273.572 7.56146C267.153 7.35569 263.349 12.7068 263.349 12.7068C263.349 12.7068 262.636 2.21036 248.37 2.00459C234.105 1.79882 231.014 9.6197 231.014 9.6197C227 9.12262 223.862 10.5026 222.515 12.6201Z" fill="#ABD4F4"/>
<path d="M234.106 30.8175C239.575 34.934 249.085 33.2873 249.085 33.2873C249.085 33.2873 249.322 43.9895 260.022 46.4593C270.72 48.9291 277.14 42.137 277.14 42.137C277.14 42.137 281.657 49.3406 294.496 46.0472C305.404 43.2492 306.146 33.4925 306.146 33.4925C306.146 33.4925 311.02 35.9623 318.866 32.5666C320.026 32.0644 321.082 31.3291 322.028 30.4513C319.406 31.2665 315.403 32.2506 312.53 31.7653C307.905 30.9841 304.521 27.566 304.408 28.152C304.295 28.738 303.731 40.9449 293.352 42.312C282.974 43.6792 280.605 37.7225 280.605 37.7225C280.605 37.7225 285.907 36.4532 285.23 30.8869C285.23 30.8869 282.635 36.6484 276.769 35.8672C270.902 35.0861 270.677 30.8869 270.677 30.8869C270.677 30.8869 269.323 36.0624 275.302 38.1134C275.302 38.1134 271.58 45.242 262.103 42.9959C252.628 40.7498 251.612 30.5939 251.612 30.5939C251.612 30.5939 246.084 33.133 239.429 30.9847C233.588 29.0992 230.702 24.3587 230.083 23.2253C230.203 25.4379 231.013 28.4892 234.106 30.8175Z" fill="#ABD4F4"/>
<path d="M81.2144 8.17817C81.2144 8.17817 68.3913 5.0771 61.2434 11.2652C53.5161 17.9544 57.2199 29.4361 64.453 32.5667C72.2985 35.9625 77.1728 33.4927 77.1728 33.4927C77.1728 33.4927 77.9137 43.2494 88.8228 46.0474C101.661 49.3402 106.179 42.1372 106.179 42.1372C106.179 42.1372 112.598 48.9287 123.298 46.4595C133.996 43.9897 134.235 33.2875 134.235 33.2875C134.235 33.2875 143.745 34.9342 149.213 30.8177C154.682 26.7018 153.017 20.3213 153.017 20.3213C153.017 20.3213 158.486 21.7617 160.863 17.44C163.24 13.1183 158.96 8.79603 152.303 9.6191C152.303 9.6191 149.212 1.79823 134.947 2.00399C120.682 2.20976 119.968 12.7062 119.968 12.7062C119.968 12.7062 116.165 7.35509 109.745 7.56086C103.326 7.76663 100.948 13.1177 100.948 13.1177C100.948 13.1177 102.597 6.70703 94.8856 4.37089C85.3748 1.48901 81.2144 8.17817 81.2144 8.17817Z" fill="#B5E4FE"/>
<path d="M160.8 12.6202C156.012 10.4943 149.449 12.2942 149.449 12.2942C153.015 13.323 152.302 16.1015 152.302 16.1015C152.302 16.1015 151.708 14.249 148.142 13.8375C144.575 13.4259 142.673 15.8957 142.673 15.8957C144.219 12.3971 146.12 12.2942 146.12 12.2942C146.12 12.2942 144.456 5.81082 133.757 6.53157C123.058 7.25176 122.701 15.6899 122.701 15.6899C130.547 16.3073 131.855 22.5849 131.855 22.5849C131.855 22.5849 129.477 19.4978 122.82 19.1891C116.163 18.8805 113.191 22.9964 113.191 22.9964C113.548 18.8799 118.66 16.7193 118.66 16.7193C118.66 16.7193 116.877 12.3971 109.744 11.9856C102.612 11.574 99.9962 17.1309 99.9962 17.1309C99.9962 17.1309 98.57 9.61866 90.8427 8.89847C83.116 8.17828 81.808 13.838 81.808 13.838C86.8011 14.4553 88.2273 18.0574 88.2273 18.0574C88.2273 18.0574 85.2553 15.8963 80.1434 16.4107C75.0315 16.9251 74.0807 21.2474 74.0807 21.2474C73.4864 16.6165 76.9338 15.0732 76.9338 15.0732C76.9338 15.0732 72.5356 10.7509 63.9763 13.7357C59.5698 15.2723 57.8193 19.3412 57.1973 22.988C56.4292 18.9593 57.4608 14.5398 61.2421 11.2659C68.3906 5.07777 81.2131 8.17883 81.2131 8.17883C81.2131 8.17883 85.3735 1.48969 94.8836 4.37156C102.595 6.70826 100.946 13.1184 100.946 13.1184C100.946 13.1184 103.324 7.7673 109.743 7.56153C116.163 7.35576 119.967 12.7069 119.967 12.7069C119.967 12.7069 120.68 2.21043 134.945 2.00466C149.211 1.79889 152.301 9.61977 152.301 9.61977C156.316 9.12269 159.453 10.5027 160.8 12.6202Z" fill="#ABD4F4"/>
<path d="M149.21 30.8175C143.741 34.934 134.231 33.2873 134.231 33.2873C134.231 33.2873 133.994 43.9895 123.294 46.4593C112.596 48.9291 106.176 42.137 106.176 42.137C106.176 42.137 101.659 49.3406 88.8202 46.0472C77.9117 43.2492 77.1702 33.4925 77.1702 33.4925C77.1702 33.4925 72.296 35.9623 64.4505 32.5666C63.2904 32.0644 62.2343 31.3292 61.288 30.4513C63.9098 31.2665 67.9127 32.2506 70.7858 31.7653C75.4107 30.9842 78.7954 27.5661 78.9084 28.152C79.0214 28.738 79.5853 40.9449 89.9636 42.312C100.342 43.6792 102.711 37.7225 102.711 37.7225C102.711 37.7225 97.4092 36.4532 98.0862 30.8869C98.0862 30.8869 100.681 36.6484 106.547 35.8672C112.414 35.0861 112.639 30.8869 112.639 30.8869C112.639 30.8869 113.993 36.0624 108.014 38.1134C108.014 38.1134 111.736 45.242 121.213 42.9959C130.688 40.7498 131.704 30.5939 131.704 30.5939C131.704 30.5939 137.232 33.133 143.887 30.9847C149.728 29.0993 152.614 24.3588 153.233 23.2253C153.113 25.4379 152.303 28.4892 149.21 30.8175Z" fill="#ABD4F4"/>
<path d="M161.84 40.8218C161.84 40.8218 149.017 43.9229 141.869 37.7347C134.142 31.0455 137.846 19.5639 145.079 16.4332C152.924 13.0374 157.799 15.5072 157.799 15.5072C157.799 15.5072 158.539 5.75051 169.449 2.9525C182.287 -0.340358 186.805 6.86267 186.805 6.86267C186.805 6.86267 193.224 0.0711799 203.924 2.54041C214.622 5.01019 214.861 15.7124 214.861 15.7124C214.861 15.7124 224.371 14.0657 229.839 18.1822C235.308 22.2981 233.643 28.6786 233.643 28.6786C233.643 28.6786 239.112 27.2383 241.489 31.56C243.866 35.8817 239.586 40.2039 232.929 39.3809C232.929 39.3809 229.838 47.2018 215.573 46.996C201.307 46.7902 200.594 36.2938 200.594 36.2938C200.594 36.2938 196.79 41.6449 190.371 41.4391C183.952 41.2333 181.574 35.8822 181.574 35.8822C181.574 35.8822 183.223 42.2929 175.511 44.6291C166.001 47.511 161.84 40.8218 161.84 40.8218Z" fill="#B5E4FE"/>
<path d="M241.426 36.379C236.638 38.5049 230.075 36.705 230.075 36.705C233.641 35.6762 232.928 32.8977 232.928 32.8977C232.928 32.8977 232.334 34.7502 228.768 35.1618C225.202 35.5733 223.299 33.1035 223.299 33.1035C224.845 36.6021 226.747 36.705 226.747 36.705C226.747 36.705 225.083 43.1884 214.383 42.4677C203.684 41.7475 203.328 33.3093 203.328 33.3093C211.173 32.692 212.481 26.4143 212.481 26.4143C212.481 26.4143 210.103 29.5014 203.446 29.8101C196.789 30.1187 193.817 26.0028 193.817 26.0028C194.174 30.1193 199.286 32.2799 199.286 32.2799C199.286 32.2799 197.503 36.6021 190.37 37.0137C183.238 37.4252 180.622 31.8683 180.622 31.8683C180.622 31.8683 179.196 39.3806 171.469 40.1008C163.742 40.821 162.434 35.1612 162.434 35.1612C167.427 34.5439 168.853 30.9418 168.853 30.9418C168.853 30.9418 165.881 33.103 160.769 32.5885C155.658 32.0741 154.707 27.7518 154.707 27.7518C154.112 32.3828 157.56 33.926 157.56 33.926C157.56 33.926 153.162 38.2483 144.602 35.2635C140.196 33.727 138.445 29.658 137.823 26.0112C137.055 30.0399 138.087 34.4595 141.868 37.7333C149.017 43.9215 161.839 40.8204 161.839 40.8204C161.839 40.8204 166 47.5096 175.51 44.6277C183.222 42.291 181.572 35.8808 181.572 35.8808C181.572 35.8808 183.95 41.2319 190.369 41.4377C196.789 41.6435 200.593 36.2924 200.593 36.2924C200.593 36.2924 201.306 46.7888 215.571 46.9946C229.837 47.2004 232.928 39.3795 232.928 39.3795C236.942 39.8766 240.079 38.4966 241.426 36.379Z" fill="#ABD4F4"/>
<path d="M229.837 18.1824C224.368 14.0659 214.858 15.7126 214.858 15.7126C214.858 15.7126 214.62 5.01038 203.921 2.54059C193.222 0.0708053 186.802 6.86286 186.802 6.86286C186.802 6.86286 182.285 -0.340733 169.447 2.95269C158.538 5.7507 157.797 15.5074 157.797 15.5074C157.797 15.5074 152.922 13.0376 145.077 16.4333C143.917 16.9355 142.861 17.6708 141.914 18.5486C144.536 17.7334 148.539 16.7493 151.412 17.2346C156.037 18.0158 159.422 21.4339 159.535 20.8479C159.648 20.2619 160.212 8.05497 170.59 6.68784C180.968 5.32071 183.338 11.2774 183.338 11.2774C183.338 11.2774 178.036 12.5467 178.713 18.113C178.713 18.113 181.307 12.3515 187.174 13.1327C193.04 13.9138 193.266 18.113 193.266 18.113C193.266 18.113 194.62 12.9375 188.64 10.8865C188.64 10.8865 192.363 3.75787 201.839 6.004C211.315 8.25012 212.33 18.406 212.33 18.406C212.33 18.406 217.858 15.8669 224.514 18.0152C230.355 19.9007 233.241 24.6412 233.86 25.7746C233.74 23.562 232.93 20.5107 229.837 18.1824Z" fill="#ABD4F4"/>
<path d="M339.631 32.6985C339.631 32.6985 330.151 34.991 324.867 30.4164C319.155 25.4716 321.893 16.9839 327.24 14.6695C333.04 12.1593 336.643 13.985 336.643 13.985C336.643 13.985 337.191 6.77249 345.255 4.7041C354.746 2.26989 358.085 7.59464 358.085 7.59464C358.085 7.59464 362.831 2.57411 370.74 4.39946C378.649 6.22522 378.825 14.1367 378.825 14.1367C378.825 14.1367 385.855 12.9194 389.898 15.9625C393.94 19.0051 392.71 23.7218 392.71 23.7218C392.71 23.7218 396.752 22.6571 398.51 25.8518C400.267 29.0466 397.103 32.2418 392.182 31.6333C392.182 31.6333 389.897 37.4148 379.352 37.2627C368.806 37.1106 368.279 29.3512 368.279 29.3512C368.279 29.3512 365.467 33.307 360.722 33.1549C355.976 33.0028 354.219 29.047 354.219 29.047C354.219 29.047 355.438 33.7861 349.737 35.513C342.706 37.6434 339.631 32.6985 339.631 32.6985Z" fill="#B5E4FE"/>
<path d="M398.463 29.4148C394.924 30.9864 390.072 29.6558 390.072 29.6558C392.708 28.8953 392.181 26.8413 392.181 26.8413C392.181 26.8413 391.742 28.2107 389.106 28.515C386.469 28.8192 385.063 26.9934 385.063 26.9934C386.206 29.5798 387.612 29.6558 387.612 29.6558C387.612 29.6558 386.382 34.4486 378.472 33.9158C370.563 33.3834 370.299 27.1455 370.299 27.1455C376.099 26.6892 377.066 22.0485 377.066 22.0485C377.066 22.0485 375.308 24.3306 370.387 24.5588C365.466 24.787 363.269 21.7443 363.269 21.7443C363.533 24.7874 367.312 26.3846 367.312 26.3846C367.312 26.3846 365.994 29.5798 360.721 29.884C355.448 30.1882 353.515 26.0803 353.515 26.0803C353.515 26.0803 352.46 31.6337 346.748 32.1661C341.036 32.6985 340.069 28.5146 340.069 28.5146C343.76 28.0582 344.815 25.3954 344.815 25.3954C344.815 25.3954 342.618 26.993 338.839 26.6127C335.06 26.2325 334.357 23.0373 334.357 23.0373C333.918 26.4606 336.466 27.6015 336.466 27.6015C336.466 27.6015 333.215 30.7967 326.887 28.5902C323.63 27.4543 322.336 24.4464 321.876 21.7505C321.308 24.7287 322.071 27.9958 324.866 30.416C330.151 34.9905 339.63 32.6981 339.63 32.6981C339.63 32.6981 342.705 37.6429 349.735 35.5126C355.436 33.7852 354.217 29.0465 354.217 29.0465C354.217 29.0465 355.975 33.0023 360.72 33.1544C365.466 33.3065 368.278 29.3508 368.278 29.3508C368.278 29.3508 368.805 37.1101 379.35 37.2623C389.896 37.4144 392.181 31.6329 392.181 31.6329C395.149 32.0003 397.468 30.9802 398.463 29.4148Z" fill="#ABD4F4"/>
<path d="M389.896 15.9626C385.854 12.9195 378.823 14.1368 378.823 14.1368C378.823 14.1368 378.648 6.22535 370.738 4.39959C362.83 2.57383 358.084 7.59478 358.084 7.59478C358.084 7.59478 354.745 2.26961 345.254 4.70423C337.19 6.77263 336.642 13.9851 336.642 13.9851C336.642 13.9851 333.038 12.1594 327.239 14.6697C326.381 15.0408 325.6 15.5844 324.901 16.2333C326.839 15.6307 329.798 14.9032 331.922 15.262C335.341 15.8394 337.843 18.3662 337.926 17.933C338.01 17.4998 338.427 8.47604 346.099 7.4654C353.771 6.45476 355.522 10.8582 355.522 10.8582C355.522 10.8582 351.603 11.7965 352.103 15.9114C352.103 15.9114 354.022 11.6522 358.358 12.2297C362.695 12.8071 362.862 15.9114 362.862 15.9114C362.862 15.9114 363.862 12.0854 359.442 10.5692C359.442 10.5692 362.194 5.29945 369.199 6.95988C376.204 8.6203 376.955 16.1279 376.955 16.1279C376.955 16.1279 381.041 14.2509 385.962 15.839C390.279 17.2328 392.413 20.7372 392.871 21.5751C392.782 19.9394 392.183 17.6838 389.896 15.9626Z" fill="#ABD4F4"/>
<path d="M364.042 40.8218C364.042 40.8218 376.865 43.9229 384.013 37.7347C391.74 31.0456 388.036 19.5639 380.803 16.4332C372.957 13.0375 368.083 15.5072 368.083 15.5072C368.083 15.5072 367.342 5.75057 356.433 2.95256C343.595 -0.340295 339.077 6.86273 339.077 6.86273C339.077 6.86273 332.658 0.0712429 321.958 2.54047C311.26 5.01025 311.021 15.7125 311.021 15.7125C311.021 15.7125 301.511 14.0658 296.043 18.1822C290.574 22.2982 292.239 28.6787 292.239 28.6787C292.239 28.6787 286.77 27.2383 284.393 31.56C282.016 35.8817 286.296 40.204 292.953 39.3809C292.953 39.3809 296.043 47.2018 310.309 46.996C324.574 46.7902 325.287 36.2938 325.287 36.2938C325.287 36.2938 329.091 41.6449 335.511 41.4391C341.93 41.2334 344.308 35.8823 344.308 35.8823C344.308 35.8823 342.659 42.293 350.37 44.6291C359.881 47.511 364.042 40.8218 364.042 40.8218Z" fill="#B5E4FE"/>
<path d="M284.456 36.3776C289.244 38.5035 295.807 36.7036 295.807 36.7036C292.241 35.6748 292.954 32.8963 292.954 32.8963C292.954 32.8963 293.548 34.7488 297.114 35.1603C300.68 35.5719 302.583 33.1021 302.583 33.1021C301.037 36.6007 299.135 36.7036 299.135 36.7036C299.135 36.7036 300.799 43.187 311.498 42.4663C322.198 41.7461 322.554 33.3079 322.554 33.3079C314.709 32.6906 313.401 26.4129 313.401 26.4129C313.401 26.4129 315.778 29.5 322.435 29.8087C329.092 30.1173 332.064 26.0014 332.064 26.0014C331.708 30.1179 326.596 32.2785 326.596 32.2785C326.596 32.2785 328.379 36.6007 335.512 37.0123C342.644 37.4238 345.259 31.8669 345.259 31.8669C345.259 31.8669 346.686 39.3792 354.413 40.0994C362.14 40.8195 363.448 35.1598 363.448 35.1598C358.455 34.5425 357.028 30.9404 357.028 30.9404C357.028 30.9404 360 33.1015 365.112 32.5871C370.224 32.0727 371.175 27.7504 371.175 27.7504C371.769 32.3814 368.322 33.9246 368.322 33.9246C368.322 33.9246 372.72 38.2469 381.279 35.2621C385.686 33.7256 387.436 29.6566 388.058 26.0098C388.826 30.0385 387.795 34.458 384.014 37.7319C376.865 43.9201 364.043 40.819 364.043 40.819C364.043 40.819 359.882 47.5081 350.372 44.6263C342.66 42.2896 344.309 35.8794 344.309 35.8794C344.309 35.8794 341.932 41.2305 335.512 41.4363C329.093 41.6421 325.289 36.291 325.289 36.291C325.289 36.291 324.576 46.7874 310.311 46.9932C296.045 47.1989 292.954 39.378 292.954 39.378C288.94 39.8751 285.802 38.4951 284.456 36.3776Z" fill="#ABD4F4"/>
<path d="M296.046 18.1824C301.514 14.0659 311.024 15.7126 311.024 15.7126C311.024 15.7126 311.262 5.01044 321.961 2.54065C332.66 0.0708684 339.08 6.86291 339.08 6.86291C339.08 6.86291 343.597 -0.340669 356.435 2.95275C367.344 5.75076 368.085 15.5074 368.085 15.5074C368.085 15.5074 372.96 13.0377 380.805 16.4334C381.965 16.9355 383.021 17.6708 383.968 18.5487C381.346 17.7334 377.343 16.7493 374.47 17.2347C369.845 18.0158 366.46 21.4339 366.347 20.8479C366.234 20.2619 365.67 8.05503 355.292 6.6879C344.914 5.32077 342.545 11.2774 342.545 11.2774C342.545 11.2774 347.846 12.5467 347.169 18.1131C347.169 18.1131 344.575 12.3516 338.708 13.1327C332.842 13.9138 332.616 18.1131 332.616 18.1131C332.616 18.1131 331.263 12.9376 337.242 10.8866C337.242 10.8866 333.519 3.75793 324.043 6.00405C314.567 8.25017 313.552 18.4061 313.552 18.4061C313.552 18.4061 308.024 15.867 301.368 18.0152C295.528 19.9007 292.642 24.6412 292.022 25.7746C292.142 23.562 292.952 20.5107 296.046 18.1824Z" fill="#ABD4F4"/>
<path d="M22.9708 40.7518C22.9708 40.7518 10.8315 43.6875 4.06473 37.8293C-3.25054 31.4968 0.255751 20.6274 7.10323 17.6636C14.5304 14.449 19.1447 16.7871 19.1447 16.7871C19.1447 16.7871 19.8461 7.55064 30.1736 4.90183C42.3276 1.78456 46.6044 8.60349 46.6044 8.60349C46.6044 8.60349 52.6814 2.17415 62.8101 4.51171C72.9382 6.84979 73.1639 16.9813 73.1639 16.9813C73.1639 16.9813 82.1669 15.4224 87.3438 19.3194C92.5206 23.2159 90.9448 29.2561 90.9448 29.2561C90.9448 29.2561 96.1217 27.8926 98.372 31.9838C100.622 36.0751 96.5712 40.1669 90.2691 39.3877C90.2691 39.3877 87.3431 46.7915 73.8383 46.5967C60.3336 46.4019 59.6585 36.4652 59.6585 36.4652C59.6585 36.4652 56.0574 41.531 49.9804 41.3362C43.9034 41.1414 41.6525 36.0756 41.6525 36.0756C41.6525 36.0756 43.2136 42.1445 35.913 44.356C26.9094 47.0842 22.9708 40.7518 22.9708 40.7518Z" fill="#B5E4FE"/>
<path d="M98.3133 36.5466C93.7804 38.5592 87.5676 36.8552 87.5676 36.8552C90.9436 35.8812 90.2686 33.251 90.2686 33.251C90.2686 33.251 89.706 35.0047 86.3299 35.3943C82.9539 35.7838 81.1531 33.4458 81.1531 33.4458C82.6164 36.7578 84.4166 36.8552 84.4166 36.8552C84.4166 36.8552 82.8414 42.9929 72.7126 42.3106C62.5839 41.6288 62.2464 33.6406 62.2464 33.6406C69.6735 33.0562 70.9118 27.1133 70.9118 27.1133C70.9118 27.1133 68.6609 30.0358 62.3589 30.328C56.0568 30.6202 53.2434 26.7237 53.2434 26.7237C53.5809 30.6207 58.4203 32.666 58.4203 32.666C58.4203 32.666 56.7325 36.7578 49.9798 37.1474C43.2278 37.537 40.7518 32.2765 40.7518 32.2765C40.7518 32.2765 39.4016 39.3881 32.0864 40.0699C24.7717 40.7517 23.5335 35.3937 23.5335 35.3937C28.2603 34.8093 29.6105 31.3993 29.6105 31.3993C29.6105 31.3993 26.797 33.4452 21.9576 32.9582C17.1183 32.4712 16.2182 28.3795 16.2182 28.3795C15.6556 32.7634 18.9191 34.2244 18.9191 34.2244C18.9191 34.2244 14.7555 38.3162 6.65262 35.4906C2.48103 34.036 0.823887 30.184 0.235021 26.7316C-0.492042 30.5455 0.48451 34.7294 4.06418 37.8287C10.8316 43.6869 22.9703 40.7512 22.9703 40.7512C22.9703 40.7512 26.9089 47.0836 35.9119 44.3554C43.2125 42.1433 41.6513 36.075 41.6513 36.075C41.6513 36.075 43.9022 41.1407 49.9792 41.3355C56.0562 41.5303 59.6573 36.4646 59.6573 36.4646C59.6573 36.4646 60.3324 46.4013 73.8372 46.5961C87.342 46.7909 90.2679 39.387 90.2679 39.387C94.0684 39.8576 97.0384 38.5512 98.3133 36.5466Z" fill="#ABD4F4"/>
<path d="M87.3409 19.3196C82.1641 15.4226 73.1611 16.9815 73.1611 16.9815C73.1611 16.9815 72.936 6.84997 62.8073 4.51188C52.6792 2.17379 46.6015 8.60366 46.6015 8.60366C46.6015 8.60366 42.3254 1.7842 30.1714 4.902C19.8445 7.55081 19.1425 16.7872 19.1425 16.7872C19.1425 16.7872 14.5282 14.4491 7.10104 17.6638C6.0028 18.1392 5.00301 18.8352 4.10718 19.6663C6.58922 18.8945 10.3786 17.9629 13.0985 18.4224C17.4768 19.1618 20.681 22.3977 20.7881 21.8429C20.8951 21.2882 21.4289 9.73221 31.2537 8.43798C41.0786 7.14375 43.3215 12.7828 43.3215 12.7828C43.3215 12.7828 38.3024 13.9844 38.9432 19.2539C38.9432 19.2539 41.3996 13.7996 46.9532 14.5391C52.5067 15.2786 52.7201 19.2539 52.7201 19.2539C52.7201 19.2539 54.0018 14.3544 48.3412 12.4128C48.3412 12.4128 51.8653 5.66425 60.8365 7.7906C69.807 9.91695 70.7683 19.5313 70.7683 19.5313C70.7683 19.5313 76.0014 17.1276 82.3023 19.1613C87.8314 20.9462 90.5635 25.434 91.1499 26.5069C91.0362 24.4123 90.2694 21.5237 87.3409 19.3196Z" fill="#ABD4F4"/>
<path d="M366.892 15.3259C366.892 15.3259 362.027 16.4703 359.316 14.1867C356.385 11.7183 357.79 7.48136 360.534 6.32607C363.51 5.07298 365.359 5.98438 365.359 5.98438C365.359 5.98438 365.64 2.38399 369.778 1.35147C374.648 0.136351 376.362 2.79439 376.362 2.79439C376.362 2.79439 378.797 0.288216 382.856 1.1994C386.914 2.1108 387.004 6.0601 387.004 6.0601C387.004 6.0601 390.612 5.45244 392.686 6.9715C394.761 8.49035 394.129 10.8449 394.129 10.8449C394.129 10.8449 396.204 10.3133 397.105 11.9081C398.007 13.5029 396.384 15.0979 393.858 14.7942C393.858 14.7942 392.686 17.6802 387.275 17.6043C381.863 17.5284 381.593 13.655 381.593 13.655C381.593 13.655 380.15 15.6296 377.715 15.5537C375.28 15.4778 374.378 13.5031 374.378 13.5031C374.378 13.5031 375.003 15.8688 372.078 16.7309C368.47 17.7943 366.892 15.3259 366.892 15.3259Z" fill="#B5E4FE"/>
<path d="M397.111 13.7295C395.292 14.511 392.798 13.8493 392.798 13.8493C394.153 13.4711 393.882 12.4497 393.882 12.4497C393.882 12.4497 393.656 13.1307 392.301 13.282C390.947 13.4333 390.224 12.5254 390.224 12.5254C390.811 13.8115 391.534 13.8493 391.534 13.8493C391.534 13.8493 390.901 16.2327 386.836 15.9677C382.771 15.703 382.636 12.601 382.636 12.601C385.617 12.3741 386.114 10.0664 386.114 10.0664C386.114 10.0664 385.21 11.2012 382.681 11.3147C380.152 11.4281 379.023 9.9151 379.023 9.9151C379.158 11.4284 381.1 12.2226 381.1 12.2226C381.1 12.2226 380.423 13.8115 377.713 13.9628C375.003 14.1141 374.009 12.0713 374.009 12.0713C374.009 12.0713 373.467 14.8329 370.532 15.0976C367.596 15.3624 367.099 13.2818 367.099 13.2818C368.996 13.0549 369.538 11.7307 369.538 11.7307C369.538 11.7307 368.409 12.5252 366.466 12.3361C364.524 12.147 364.163 10.5581 364.163 10.5581C363.937 12.2604 365.247 12.8277 365.247 12.8277C365.247 12.8277 363.576 14.4166 360.324 13.3194C358.65 12.7546 357.985 11.2588 357.748 9.91818C357.457 11.3992 357.848 13.0238 359.285 14.2273C362.001 16.5021 366.873 15.3622 366.873 15.3622C366.873 15.3622 368.454 17.8211 372.067 16.7617C374.997 15.9028 374.37 13.5463 374.37 13.5463C374.37 13.5463 375.274 15.5134 377.713 15.5891C380.152 15.6647 381.597 13.6976 381.597 13.6976C381.597 13.6976 381.868 17.5562 387.288 17.6318C392.708 17.7075 393.882 14.8325 393.882 14.8325C395.407 15.0152 396.599 14.5079 397.111 13.7295Z" fill="#FBFBFB"/>
<path d="M392.685 6.97156C390.611 5.45251 387.003 6.06017 387.003 6.06017C387.003 6.06017 386.913 2.11087 382.855 1.19947C378.796 0.288078 376.361 2.79446 376.361 2.79446C376.361 2.79446 374.647 0.136213 369.777 1.35154C365.639 2.38406 365.358 5.98445 365.358 5.98445C365.358 5.98445 363.509 5.07305 360.533 6.32614C360.093 6.51143 359.692 6.78277 359.333 7.10672C360.328 6.80588 361.846 6.44272 362.936 6.62182C364.69 6.91008 365.974 8.17142 366.017 7.95518C366.06 7.73893 366.274 3.23437 370.211 2.72988C374.148 2.22538 375.046 4.4235 375.046 4.4235C375.046 4.4235 373.035 4.89189 373.292 6.94598C373.292 6.94598 374.276 4.81987 376.502 5.10813C378.727 5.39638 378.813 6.94598 378.813 6.94598C378.813 6.94598 379.326 5.03612 377.058 4.27927C377.058 4.27927 378.47 1.64867 382.065 2.47753C385.659 3.30639 386.045 7.0541 386.045 7.0541C386.045 7.0541 388.141 6.11712 390.666 6.90987C392.882 7.60564 393.977 9.35497 394.212 9.77322C394.166 8.95674 393.859 7.83076 392.685 6.97156Z" fill="#FBFBFB"/>
<path d="M287.085 46.3022C287.085 46.3022 280.192 47.9239 276.349 44.6878C272.195 41.1896 274.186 35.1852 278.075 33.548C282.292 31.7722 284.913 33.0637 284.913 33.0637C284.913 33.0637 285.311 27.9614 291.176 26.4982C298.077 24.7762 300.506 28.543 300.506 28.543C300.506 28.543 303.957 24.9914 309.709 26.2827C315.46 27.5743 315.588 33.1711 315.588 33.1711C315.588 33.1711 320.701 32.3099 323.64 34.4627C326.58 36.6151 325.685 39.9518 325.685 39.9518C325.685 39.9518 328.625 39.1986 329.903 41.4587C331.181 43.7187 328.88 45.9791 325.302 45.5486C325.302 45.5486 323.64 49.6386 315.971 49.531C308.302 49.4234 307.919 43.9342 307.919 43.9342C307.919 43.9342 305.874 46.7326 302.423 46.625C298.972 46.5174 297.694 43.719 297.694 43.719C297.694 43.719 298.581 47.0715 294.435 48.2932C289.322 49.8003 287.085 46.3022 287.085 46.3022Z" fill="#B5E4FE"/>
<path d="M329.911 44.0398C327.333 45.1473 323.799 44.2096 323.799 44.2096C325.719 43.6736 325.335 42.2262 325.335 42.2262C325.335 42.2262 325.015 43.1913 323.095 43.4056C321.175 43.62 320.151 42.3334 320.151 42.3334C320.983 44.156 322.007 44.2096 322.007 44.2096C322.007 44.2096 321.111 47.5872 315.35 47.2117C309.589 46.8365 309.397 42.4406 309.397 42.4406C313.622 42.119 314.326 38.8486 314.326 38.8486C314.326 38.8486 313.046 40.4569 309.461 40.6177C305.877 40.7784 304.277 38.6342 304.277 38.6342C304.469 40.7787 307.221 41.9043 307.221 41.9043C307.221 41.9043 306.261 44.156 302.421 44.3704C298.58 44.5848 297.172 41.6899 297.172 41.6899C297.172 41.6899 296.404 45.6035 292.244 45.9787C288.083 46.3539 287.379 43.4054 287.379 43.4054C290.067 43.0838 290.835 41.2072 290.835 41.2072C290.835 41.2072 289.235 42.3331 286.483 42.0651C283.73 41.7971 283.218 39.5454 283.218 39.5454C282.898 41.9579 284.755 42.7619 284.755 42.7619C284.755 42.7619 282.386 45.0136 277.778 43.4587C275.405 42.6582 274.463 40.5384 274.128 38.6386C273.714 40.7374 274.27 43.0398 276.306 44.7453C280.155 47.9691 287.059 46.3536 287.059 46.3536C287.059 46.3536 289.299 49.8383 294.419 48.337C298.572 47.1197 297.684 43.7803 297.684 43.7803C297.684 43.7803 298.964 46.568 302.42 46.6752C305.877 46.7824 307.925 43.9947 307.925 43.9947C307.925 43.9947 308.309 49.4629 315.99 49.5701C323.671 49.6773 325.335 45.6029 325.335 45.6029C327.496 45.8619 329.186 45.1429 329.911 44.0398Z" fill="#FBFBFB"/>
<path d="M323.639 34.4627C320.699 32.31 315.586 33.1712 315.586 33.1712C315.586 33.1712 315.459 27.5744 309.707 26.2828C303.956 24.9912 300.504 28.5431 300.504 28.5431C300.504 28.5431 298.076 24.776 291.174 26.4983C285.31 27.9615 284.911 33.0638 284.911 33.0638C284.911 33.0638 282.291 31.7723 278.074 33.5481C277.45 33.8107 276.882 34.1952 276.373 34.6543C277.783 34.2279 279.935 33.7133 281.479 33.9671C283.966 34.3756 285.785 36.1631 285.846 35.8567C285.907 35.5502 286.21 29.1666 291.789 28.4516C297.368 27.7367 298.642 30.8517 298.642 30.8517C298.642 30.8517 295.792 31.5155 296.155 34.4265C296.155 34.4265 297.55 31.4135 300.704 31.822C303.858 32.2305 303.979 34.4265 303.979 34.4265C303.979 34.4265 304.707 31.7199 301.492 30.6473C301.492 30.6473 303.493 26.9194 308.588 28.094C313.682 29.2686 314.228 34.5797 314.228 34.5797C314.228 34.5797 317.199 33.2519 320.777 34.3753C323.917 35.3613 325.469 37.8404 325.802 38.4331C325.737 37.2761 325.302 35.6804 323.639 34.4627Z" fill="#FBFBFB"/>
<path d="M24.2963 42.3127C24.2963 42.3127 13.6042 45.1334 7.64411 39.5046C1.20094 33.4201 4.28923 22.9763 10.3204 20.1286C16.8621 17.0398 20.9263 19.2863 20.9263 19.2863C20.9263 19.2863 21.5441 10.4116 30.6403 7.86651C41.3454 4.87131 45.1123 11.4232 45.1123 11.4232C45.1123 11.4232 50.4648 5.24564 59.386 7.49167C68.3067 9.7382 68.5055 19.473 68.5055 19.473C68.5055 19.473 76.4351 17.9751 80.9949 21.7195C85.5546 25.4634 84.1666 31.2672 84.1666 31.2672C84.1666 31.2672 88.7263 29.957 90.7084 33.888C92.6904 37.8191 89.1222 41.7506 83.5715 41.002C83.5715 41.002 80.9943 48.1159 69.0995 47.9287C57.2048 47.7416 56.6101 38.1939 56.6101 38.1939C56.6101 38.1939 53.4384 43.0613 48.0859 42.8742C42.7333 42.687 40.7508 37.8196 40.7508 37.8196C40.7508 37.8196 42.1258 43.6508 35.6956 45.7758C27.7653 48.3972 24.2963 42.3127 24.2963 42.3127Z" fill="#B5E4FE"/>
<path d="M90.7204 38.3773C86.7216 40.3036 81.2408 38.6726 81.2408 38.6726C84.2191 37.7404 83.6235 35.2227 83.6235 35.2227C83.6235 35.2227 83.1273 36.9013 80.149 37.2742C77.1707 37.6471 75.5821 35.4092 75.5821 35.4092C76.873 38.5794 78.4611 38.6726 78.4611 38.6726C78.4611 38.6726 77.0715 44.5474 68.1361 43.8944C59.2008 43.2418 58.903 35.5956 58.903 35.5956C65.4551 35.0363 66.5475 29.3479 66.5475 29.3479C66.5475 29.3479 64.5618 32.1453 59.0023 32.4249C53.4428 32.7046 50.9608 28.975 50.9608 28.975C51.2586 32.7051 55.5278 34.6629 55.5278 34.6629C55.5278 34.6629 54.0389 38.5794 48.0818 38.9523C42.1253 39.3252 39.9411 34.29 39.9411 34.29C39.9411 34.29 38.75 41.097 32.2967 41.7496C25.8438 42.4022 24.7515 37.2737 24.7515 37.2737C28.9214 36.7144 30.1125 33.4504 30.1125 33.4504C30.1125 33.4504 27.6305 35.4087 23.3613 34.9426C19.0922 34.4764 18.2981 30.5599 18.2981 30.5599C17.8018 34.7561 20.6808 36.1545 20.6808 36.1545C20.6808 36.1545 17.0078 40.071 9.85963 37.3665C6.17955 35.9741 4.71766 32.2871 4.19818 28.9826C3.55678 32.6332 4.41827 36.6379 7.57617 39.6044C13.5462 45.2117 24.2546 42.4017 24.2546 42.4017C24.2546 42.4017 27.7292 48.463 35.6714 45.8516C42.1118 43.7342 40.7346 37.9258 40.7346 37.9258C40.7346 37.9258 42.7203 42.7746 48.0813 42.9611C53.4423 43.1475 56.619 38.2987 56.619 38.2987C56.619 38.2987 57.2146 47.8099 69.1282 47.9963C81.0418 48.1828 83.623 41.096 83.623 41.096C86.9756 41.5465 89.5957 40.296 90.7204 38.3773Z" fill="#FBFBFB"/>
<path d="M80.9924 21.7197C76.4327 17.9753 68.503 19.4732 68.503 19.4732C68.503 19.4732 68.3048 9.73837 59.3836 7.49184C50.4629 5.2453 45.1098 11.4234 45.1098 11.4234C45.1098 11.4234 41.3435 4.87097 30.6384 7.86668C21.5427 10.4118 20.9244 19.2865 20.9244 19.2865C20.9244 19.2865 16.8602 17.04 10.3185 20.1288C9.35115 20.5855 8.47055 21.2543 7.68152 22.0528C9.86766 21.3113 13.2053 20.4161 15.601 20.8576C19.4573 21.5681 22.2795 24.6773 22.3738 24.1442C22.468 23.6112 22.9382 12.5078 31.5917 11.2642C40.2453 10.0206 42.2208 15.4389 42.2208 15.4389C42.2208 15.4389 37.8001 16.5934 38.3645 21.6566C38.3645 21.6566 40.528 16.4159 45.4195 17.1264C50.311 17.837 50.499 21.6566 50.499 21.6566C50.499 21.6566 51.6279 16.9489 46.6421 15.0834C46.6421 15.0834 49.746 8.59908 57.6477 10.6422C65.5488 12.6853 66.3955 21.9231 66.3955 21.9231C66.3955 21.9231 71.0048 19.6135 76.5544 21.5676C81.4244 23.2827 83.8308 27.5947 84.3473 28.6256C84.2471 26.613 83.5717 23.8376 80.9924 21.7197Z" fill="#FBFBFB"/>
<path d="M14.2336 16.3259C14.2336 16.3259 9.36928 17.4703 6.65781 15.1867C3.72655 12.7183 5.13153 8.48136 7.87535 7.32607C10.8514 6.07298 12.7004 6.98438 12.7004 6.98438C12.7004 6.98438 12.9815 3.38399 17.1197 2.35147C21.9899 1.13635 23.7036 3.79439 23.7036 3.79439C23.7036 3.79439 26.1387 1.28822 30.1973 2.1994C34.2557 3.1108 34.3461 7.0601 34.3461 7.0601C34.3461 7.0601 37.9537 6.45244 40.0281 7.9715C42.1025 9.49035 41.471 11.8449 41.471 11.8449C41.471 11.8449 43.5454 11.3133 44.4471 12.9081C45.3488 14.5029 43.7255 16.0979 41.2003 15.7942C41.2003 15.7942 40.0278 18.6802 34.6164 18.6043C29.205 18.5284 28.9345 14.655 28.9345 14.655C28.9345 14.655 27.4915 16.6296 25.0564 16.5537C22.6213 16.4778 21.7194 14.5031 21.7194 14.5031C21.7194 14.5031 22.3449 16.8688 19.4196 17.7309C15.8118 18.7943 14.2336 16.3259 14.2336 16.3259Z" fill="#B5E4FE"/>
<path d="M44.4527 14.7295C42.6334 15.511 40.14 14.8493 40.14 14.8493C41.4949 14.4711 41.224 13.4497 41.224 13.4497C41.224 13.4497 40.9982 14.1307 39.6433 14.282C38.2884 14.4333 37.5656 13.5254 37.5656 13.5254C38.1529 14.8115 38.8754 14.8493 38.8754 14.8493C38.8754 14.8493 38.2432 17.2327 34.1782 16.9677C30.1131 16.703 29.9776 13.601 29.9776 13.601C32.9584 13.3741 33.4554 11.0664 33.4554 11.0664C33.4554 11.0664 32.552 12.2012 30.0228 12.3147C27.4936 12.4281 26.3644 10.9151 26.3644 10.9151C26.4999 12.4284 28.4421 13.2226 28.4421 13.2226C28.4421 13.2226 27.7647 14.8115 25.0546 14.9628C22.3448 15.1141 21.3511 13.0713 21.3511 13.0713C21.3511 13.0713 20.8092 15.8329 17.8733 16.0976C14.9377 16.3624 14.4407 14.2818 14.4407 14.2818C16.3378 14.0549 16.8796 12.7307 16.8796 12.7307C16.8796 12.7307 15.7505 13.5252 13.8083 13.3361C11.8661 13.147 11.5048 11.5581 11.5048 11.5581C11.279 13.2604 12.5888 13.8277 12.5888 13.8277C12.5888 13.8277 10.9178 15.4166 7.66578 14.3194C5.99157 13.7546 5.32649 12.2588 5.09016 10.9182C4.79836 12.3992 5.19029 14.0238 6.62694 15.2273C9.34295 17.5021 14.2147 16.3622 14.2147 16.3622C14.2147 16.3622 15.7954 18.8211 19.4086 17.7617C22.3386 16.9028 21.7121 14.5463 21.7121 14.5463C21.7121 14.5463 22.6155 16.5134 25.0544 16.5891C27.4933 16.6647 28.9386 14.6976 28.9386 14.6976C28.9386 14.6976 29.2095 18.5562 34.6295 18.6318C40.0495 18.7075 41.2238 15.8325 41.2238 15.8325C42.749 16.0152 43.941 15.5079 44.4527 14.7295Z" fill="#FBFBFB"/>
<path d="M40.0271 7.97156C37.9527 6.45251 34.3451 7.06017 34.3451 7.06017C34.3451 7.06017 34.255 3.11087 30.1963 2.19947C26.1379 1.28808 23.7026 3.79446 23.7026 3.79446C23.7026 3.79446 21.9891 1.13621 17.119 2.35154C12.9809 3.38406 12.6997 6.98445 12.6997 6.98445C12.6997 6.98445 10.8507 6.07305 7.87458 7.32614C7.43451 7.51143 7.03389 7.78277 6.67493 8.10672C7.66949 7.80588 9.18793 7.44272 10.2778 7.62182C12.0322 7.91008 13.3161 9.17142 13.359 8.95518C13.4019 8.73893 13.6158 4.23437 17.5527 3.72988C21.4895 3.22538 22.3883 5.4235 22.3883 5.4235C22.3883 5.4235 20.3771 5.89189 20.6339 7.94598C20.6339 7.94598 21.6182 5.81987 23.8435 6.10813C26.0688 6.39638 26.1543 7.94598 26.1543 7.94598C26.1543 7.94598 26.6679 6.03612 24.3997 5.27927C24.3997 5.27927 25.8118 2.64867 29.4066 3.47753C33.0011 4.30639 33.3863 8.0541 33.3863 8.0541C33.3863 8.0541 35.4833 7.11712 38.008 7.90987C40.2236 8.60564 41.3183 10.355 41.5533 10.7732C41.5078 9.95674 41.2005 8.83076 40.0271 7.97156Z" fill="#FBFBFB"/>
<path d="M24.2336 44.326C24.2336 44.326 19.3693 45.4703 16.6578 43.1868C13.7265 40.7184 15.1315 36.4814 17.8753 35.3261C20.8514 34.073 22.7004 34.9844 22.7004 34.9844C22.7004 34.9844 22.9815 31.3841 27.1197 30.3515C31.9899 29.1364 33.7036 31.7945 33.7036 31.7945C33.7036 31.7945 36.1387 29.2883 40.1973 30.1995C44.2557 31.1109 44.3461 35.0602 44.3461 35.0602C44.3461 35.0602 47.9537 34.4525 50.0281 35.9716C52.1025 37.4904 51.471 39.8449 51.471 39.8449C51.471 39.8449 53.5454 39.3134 54.4471 40.9082C55.3488 42.503 53.7255 44.098 51.2003 43.7942C51.2003 43.7942 50.0278 46.6803 44.6164 46.6044C39.205 46.5284 38.9345 42.655 38.9345 42.655C38.9345 42.655 37.4915 44.6297 35.0564 44.5538C32.6213 44.4778 31.7194 42.5032 31.7194 42.5032C31.7194 42.5032 32.3449 44.8688 29.4196 45.7309C25.8118 46.7944 24.2336 44.326 24.2336 44.326Z" fill="#B5E4FE"/>
<path d="M54.4527 42.7295C52.6334 43.511 50.14 42.8494 50.14 42.8494C51.4949 42.4712 51.224 41.4498 51.224 41.4498C51.224 41.4498 50.9982 42.1308 49.6433 42.2821C48.2884 42.4333 47.5656 41.5254 47.5656 41.5254C48.1529 42.8116 48.8754 42.8494 48.8754 42.8494C48.8754 42.8494 48.2432 45.2327 44.1782 44.9678C40.1131 44.703 39.9776 41.6011 39.9776 41.6011C42.9584 41.3741 43.4554 39.0664 43.4554 39.0664C43.4554 39.0664 42.552 40.2013 40.0228 40.3147C37.4936 40.4282 36.3644 38.9152 36.3644 38.9152C36.4999 40.4284 38.4421 41.2227 38.4421 41.2227C38.4421 41.2227 37.7647 42.8116 35.0546 42.9628C32.3448 43.1141 31.3511 41.0714 31.3511 41.0714C31.3511 41.0714 30.8092 43.8329 27.8733 44.0977C24.9377 44.3624 24.4407 42.2819 24.4407 42.2819C26.3378 42.0549 26.8796 40.7308 26.8796 40.7308C26.8796 40.7308 25.7505 41.5252 23.8083 41.3361C21.8661 41.147 21.5048 39.5581 21.5048 39.5581C21.279 41.2605 22.5888 41.8278 22.5888 41.8278C22.5888 41.8278 20.9178 43.4167 17.6658 42.3195C15.9916 41.7546 15.3265 40.2588 15.0902 38.9182C14.7984 40.3992 15.1903 42.0239 16.6269 43.2274C19.3429 45.5022 24.2147 44.3622 24.2147 44.3622C24.2147 44.3622 25.7954 46.8212 29.4086 45.7618C32.3386 44.9028 31.7121 42.5464 31.7121 42.5464C31.7121 42.5464 32.6155 44.5135 35.0544 44.5891C37.4933 44.6648 38.9386 42.6977 38.9386 42.6977C38.9386 42.6977 39.2095 46.5563 44.6295 46.6319C50.0495 46.7075 51.2238 43.8325 51.2238 43.8325C52.749 44.0153 53.941 43.508 54.4527 42.7295Z" fill="#FBFBFB"/>
<path d="M50.0271 35.9716C47.9527 34.4526 44.3451 35.0602 44.3451 35.0602C44.3451 35.0602 44.255 31.1109 40.1963 30.1995C36.1379 29.2881 33.7026 31.7945 33.7026 31.7945C33.7026 31.7945 31.9891 29.1363 27.119 30.3516C22.9809 31.3841 22.6997 34.9845 22.6997 34.9845C22.6997 34.9845 20.8507 34.0731 17.8746 35.3262C17.4345 35.5115 17.0339 35.7828 16.6749 36.1068C17.6695 35.8059 19.1879 35.4428 20.2778 35.6219C22.0322 35.9101 23.3161 37.1715 23.359 36.9552C23.4019 36.739 23.6158 32.2344 27.5527 31.7299C31.4895 31.2254 32.3883 33.4236 32.3883 33.4236C32.3883 33.4236 30.3771 33.8919 30.6339 35.946C30.6339 35.946 31.6182 33.8199 33.8435 34.1082C36.0688 34.3964 36.1543 35.946 36.1543 35.946C36.1543 35.946 36.6679 34.0362 34.3997 33.2793C34.3997 33.2793 35.8118 30.6487 39.4066 31.4776C43.0011 32.3064 43.3863 36.0542 43.3863 36.0542C43.3863 36.0542 45.4833 35.1172 48.008 35.9099C50.2236 36.6057 51.3183 38.355 51.5533 38.7733C51.5078 37.9568 51.2005 36.8308 50.0271 35.9716Z" fill="#FBFBFB"/>
<path d="M73.2336 45.326C73.2336 45.326 68.3693 46.4703 65.6578 44.1868C62.7265 41.7184 64.1315 37.4814 66.8753 36.3261C69.8514 35.073 71.7004 35.9844 71.7004 35.9844C71.7004 35.9844 71.9815 32.3841 76.1197 31.3515C80.9899 30.1364 82.7036 32.7945 82.7036 32.7945C82.7036 32.7945 85.1387 30.2883 89.1973 31.1995C93.2557 32.1109 93.3461 36.0602 93.3461 36.0602C93.3461 36.0602 96.9537 35.4525 99.0281 36.9716C101.102 38.4904 100.471 40.8449 100.471 40.8449C100.471 40.8449 102.545 40.3134 103.447 41.9082C104.349 43.503 102.726 45.098 100.2 44.7942C100.2 44.7942 99.0278 47.6803 93.6164 47.6044C88.205 47.5284 87.9345 43.655 87.9345 43.655C87.9345 43.655 86.4915 45.6297 84.0564 45.5538C81.6213 45.4778 80.7194 43.5032 80.7194 43.5032C80.7194 43.5032 81.3449 45.8688 78.4196 46.7309C74.8118 47.7944 73.2336 45.326 73.2336 45.326Z" fill="#B5E4FE"/>
<path d="M103.453 43.7295C101.633 44.511 99.14 43.8494 99.14 43.8494C100.495 43.4712 100.224 42.4498 100.224 42.4498C100.224 42.4498 99.9982 43.1308 98.6433 43.2821C97.2884 43.4333 96.5656 42.5254 96.5656 42.5254C97.1529 43.8116 97.8754 43.8494 97.8754 43.8494C97.8754 43.8494 97.2432 46.2327 93.1782 45.9678C89.1131 45.703 88.9776 42.6011 88.9776 42.6011C91.9584 42.3741 92.4554 40.0664 92.4554 40.0664C92.4554 40.0664 91.552 41.2013 89.0228 41.3147C86.4936 41.4282 85.3644 39.9152 85.3644 39.9152C85.4999 41.4284 87.4421 42.2227 87.4421 42.2227C87.4421 42.2227 86.7647 43.8116 84.0546 43.9628C81.3448 44.1141 80.3511 42.0714 80.3511 42.0714C80.3511 42.0714 79.8092 44.8329 76.8733 45.0977C73.9377 45.3624 73.4407 43.2819 73.4407 43.2819C75.3378 43.0549 75.8796 41.7308 75.8796 41.7308C75.8796 41.7308 74.7505 42.5252 72.8083 42.3361C70.8661 42.147 70.5048 40.5581 70.5048 40.5581C70.279 42.2605 71.5888 42.8278 71.5888 42.8278C71.5888 42.8278 69.9178 44.4167 66.6658 43.3195C64.9916 42.7546 64.3265 41.2588 64.0902 39.9182C63.7984 41.3992 64.1903 43.0239 65.6269 44.2274C68.3429 46.5022 73.2147 45.3622 73.2147 45.3622C73.2147 45.3622 74.7954 47.8212 78.4086 46.7618C81.3386 45.9028 80.7121 43.5464 80.7121 43.5464C80.7121 43.5464 81.6155 45.5135 84.0544 45.5891C86.4933 45.6648 87.9386 43.6977 87.9386 43.6977C87.9386 43.6977 88.2095 47.5563 93.6295 47.6319C99.0495 47.7075 100.224 44.8325 100.224 44.8325C101.749 45.0153 102.941 44.508 103.453 43.7295Z" fill="#FBFBFB"/>
<path d="M99.0271 36.9716C96.9527 35.4526 93.3451 36.0602 93.3451 36.0602C93.3451 36.0602 93.255 32.1109 89.1963 31.1995C85.1379 30.2881 82.7026 32.7945 82.7026 32.7945C82.7026 32.7945 80.9891 30.1363 76.119 31.3516C71.9809 32.3841 71.6997 35.9845 71.6997 35.9845C71.6997 35.9845 69.8507 35.0731 66.8746 36.3262C66.4345 36.5115 66.0339 36.7828 65.6749 37.1068C66.6695 36.8059 68.1879 36.4428 69.2778 36.6219C71.0322 36.9101 72.3161 38.1715 72.359 37.9552C72.4019 37.739 72.6158 33.2344 76.5527 32.7299C80.4895 32.2254 81.3883 34.4236 81.3883 34.4236C81.3883 34.4236 79.3771 34.8919 79.6339 36.946C79.6339 36.946 80.6182 34.8199 82.8435 35.1082C85.0688 35.3964 85.1543 36.946 85.1543 36.946C85.1543 36.946 85.6679 35.0362 83.3997 34.2793C83.3997 34.2793 84.8118 31.6487 88.4066 32.4776C92.0011 33.3064 92.3863 37.0542 92.3863 37.0542C92.3863 37.0542 94.4833 36.1172 97.008 36.9099C99.2236 37.6057 100.318 39.355 100.553 39.7733C100.508 38.9568 100.2 37.8308 99.0271 36.9716Z" fill="#FBFBFB"/>
<path d="M76.2336 15.326C76.2336 15.326 71.3693 16.4703 68.6578 14.1868C65.7265 11.7184 67.1315 7.48142 69.8753 6.32613C72.8514 5.07305 74.7004 5.98444 74.7004 5.98444C74.7004 5.98444 74.9815 2.38405 79.1197 1.35154C83.9899 0.136412 85.7036 2.79446 85.7036 2.79446C85.7036 2.79446 88.1387 0.288277 92.1973 1.19946C96.2557 2.11086 96.3461 6.06016 96.3461 6.06016C96.3461 6.06016 99.9537 5.4525 102.028 6.97156C104.102 8.49041 103.471 10.8449 103.471 10.8449C103.471 10.8449 105.545 10.3134 106.447 11.9082C107.349 13.503 105.726 15.098 103.2 14.7942C103.2 14.7942 102.028 17.6803 96.6164 17.6044C91.205 17.5284 90.9345 13.655 90.9345 13.655C90.9345 13.655 89.4915 15.6297 87.0564 15.5538C84.6213 15.4778 83.7194 13.5032 83.7194 13.5032C83.7194 13.5032 84.3449 15.8688 81.4196 16.7309C77.8118 17.7944 76.2336 15.326 76.2336 15.326Z" fill="#B5E4FE"/>
<path d="M106.453 13.7295C104.633 14.511 102.14 13.8494 102.14 13.8494C103.495 13.4712 103.224 12.4498 103.224 12.4498C103.224 12.4498 102.998 13.1308 101.643 13.2821C100.288 13.4333 99.5656 12.5254 99.5656 12.5254C100.153 13.8116 100.875 13.8494 100.875 13.8494C100.875 13.8494 100.243 16.2327 96.1782 15.9678C92.1131 15.703 91.9776 12.6011 91.9776 12.6011C94.9584 12.3741 95.4554 10.0664 95.4554 10.0664C95.4554 10.0664 94.552 11.2013 92.0228 11.3147C89.4936 11.4282 88.3644 9.91516 88.3644 9.91516C88.4999 11.4284 90.4421 12.2227 90.4421 12.2227C90.4421 12.2227 89.7647 13.8116 87.0546 13.9628C84.3448 14.1141 83.3511 12.0714 83.3511 12.0714C83.3511 12.0714 82.8092 14.8329 79.8733 15.0977C76.9377 15.3624 76.4407 13.2819 76.4407 13.2819C78.3378 13.0549 78.8796 11.7308 78.8796 11.7308C78.8796 11.7308 77.7505 12.5252 75.8083 12.3361C73.8661 12.147 73.5048 10.5581 73.5048 10.5581C73.279 12.2605 74.5888 12.8278 74.5888 12.8278C74.5888 12.8278 72.9178 14.4167 69.6658 13.3195C67.9916 12.7546 67.3265 11.2588 67.0902 9.91824C66.7984 11.3992 67.1903 13.0239 68.6269 14.2274C71.3429 16.5022 76.2147 15.3622 76.2147 15.3622C76.2147 15.3622 77.7954 17.8212 81.4086 16.7618C84.3386 15.9028 83.7121 13.5464 83.7121 13.5464C83.7121 13.5464 84.6155 15.5135 87.0544 15.5891C89.4933 15.6648 90.9386 13.6977 90.9386 13.6977C90.9386 13.6977 91.2095 17.5563 96.6295 17.6319C102.049 17.7075 103.224 14.8325 103.224 14.8325C104.749 15.0153 105.941 14.508 106.453 13.7295Z" fill="#FBFBFB"/>
<path d="M102.027 6.97163C99.9527 5.45257 96.3451 6.06023 96.3451 6.06023C96.3451 6.06023 96.255 2.11093 92.1963 1.19953C88.1379 0.288139 85.7026 2.79452 85.7026 2.79452C85.7026 2.79452 83.9891 0.136274 79.119 1.3516C74.9809 2.38412 74.6997 5.98451 74.6997 5.98451C74.6997 5.98451 72.8507 5.07311 69.8746 6.3262C69.4345 6.51149 69.0339 6.78283 68.6749 7.10678C69.6695 6.80594 71.1879 6.44278 72.2778 6.62188C74.0322 6.91014 75.3161 8.17148 75.359 7.95524C75.4019 7.739 75.6158 3.23444 79.5527 2.72994C83.4895 2.22544 84.3883 4.42356 84.3883 4.42356C84.3883 4.42356 82.3771 4.89195 82.6339 6.94604C82.6339 6.94604 83.6182 4.81994 85.8435 5.10819C88.0688 5.39644 88.1543 6.94604 88.1543 6.94604C88.1543 6.94604 88.6679 5.03618 86.3997 4.27933C86.3997 4.27933 87.8118 1.64873 91.4066 2.47759C95.0011 3.30645 95.3863 7.05416 95.3863 7.05416C95.3863 7.05416 97.4833 6.11718 100.008 6.90993C102.224 7.6057 103.318 9.35503 103.553 9.77328C103.508 8.9568 103.2 7.83082 102.027 6.97163Z" fill="#FBFBFB"/>
<path d="M174.234 32.326C174.234 32.326 169.369 33.4703 166.658 31.1868C163.727 28.7184 165.132 24.4814 167.875 23.3261C170.851 22.073 172.7 22.9844 172.7 22.9844C172.7 22.9844 172.981 19.3841 177.12 18.3515C181.99 17.1364 183.704 19.7945 183.704 19.7945C183.704 19.7945 186.139 17.2883 190.197 18.1995C194.256 19.1109 194.346 23.0602 194.346 23.0602C194.346 23.0602 197.954 22.4525 200.028 23.9716C202.102 25.4904 201.471 27.8449 201.471 27.8449C201.471 27.8449 203.545 27.3134 204.447 28.9082C205.349 30.503 203.726 32.098 201.2 31.7942C201.2 31.7942 200.028 34.6803 194.616 34.6044C189.205 34.5284 188.934 30.655 188.934 30.655C188.934 30.655 187.491 32.6297 185.056 32.5538C182.621 32.4778 181.719 30.5032 181.719 30.5032C181.719 30.5032 182.345 32.8688 179.42 33.7309C175.812 34.7944 174.234 32.326 174.234 32.326Z" fill="#B5E4FE"/>
<path d="M204.453 30.7295C202.633 31.511 200.14 30.8494 200.14 30.8494C201.495 30.4712 201.224 29.4498 201.224 29.4498C201.224 29.4498 200.998 30.1308 199.643 30.2821C198.288 30.4333 197.566 29.5254 197.566 29.5254C198.153 30.8116 198.875 30.8494 198.875 30.8494C198.875 30.8494 198.243 33.2327 194.178 32.9678C190.113 32.703 189.978 29.6011 189.978 29.6011C192.958 29.3741 193.455 27.0664 193.455 27.0664C193.455 27.0664 192.552 28.2013 190.023 28.3147C187.494 28.4282 186.364 26.9152 186.364 26.9152C186.5 28.4284 188.442 29.2227 188.442 29.2227C188.442 29.2227 187.765 30.8116 185.055 30.9628C182.345 31.1141 181.351 29.0714 181.351 29.0714C181.351 29.0714 180.809 31.8329 177.873 32.0977C174.938 32.3624 174.441 30.2819 174.441 30.2819C176.338 30.0549 176.88 28.7308 176.88 28.7308C176.88 28.7308 175.75 29.5252 173.808 29.3361C171.866 29.147 171.505 27.5581 171.505 27.5581C171.279 29.2605 172.589 29.8278 172.589 29.8278C172.589 29.8278 170.918 31.4167 167.666 30.3195C165.992 29.7546 165.326 28.2588 165.09 26.9182C164.798 28.3992 165.19 30.0239 166.627 31.2274C169.343 33.5022 174.215 32.3622 174.215 32.3622C174.215 32.3622 175.795 34.8212 179.409 33.7618C182.339 32.9028 181.712 30.5464 181.712 30.5464C181.712 30.5464 182.615 32.5135 185.054 32.5891C187.493 32.6648 188.939 30.6977 188.939 30.6977C188.939 30.6977 189.209 34.5563 194.629 34.6319C200.049 34.7075 201.224 31.8325 201.224 31.8325C202.749 32.0153 203.941 31.508 204.453 30.7295Z" fill="#FBFBFB"/>
<path d="M200.027 23.9716C197.953 22.4526 194.345 23.0602 194.345 23.0602C194.345 23.0602 194.255 19.1109 190.196 18.1995C186.138 17.2881 183.703 19.7945 183.703 19.7945C183.703 19.7945 181.989 17.1363 177.119 18.3516C172.981 19.3841 172.7 22.9845 172.7 22.9845C172.7 22.9845 170.851 22.0731 167.875 23.3262C167.435 23.5115 167.034 23.7828 166.675 24.1068C167.669 23.8059 169.188 23.4428 170.278 23.6219C172.032 23.9101 173.316 25.1715 173.359 24.9552C173.402 24.739 173.616 20.2344 177.553 19.7299C181.49 19.2254 182.388 21.4236 182.388 21.4236C182.388 21.4236 180.377 21.8919 180.634 23.946C180.634 23.946 181.618 21.8199 183.843 22.1082C186.069 22.3964 186.154 23.946 186.154 23.946C186.154 23.946 186.668 22.0362 184.4 21.2793C184.4 21.2793 185.812 18.6487 189.407 19.4776C193.001 20.3064 193.386 24.0542 193.386 24.0542C193.386 24.0542 195.483 23.1172 198.008 23.9099C200.224 24.6057 201.318 26.355 201.553 26.7733C201.508 25.9568 201.2 24.8308 200.027 23.9716Z" fill="#FBFBFB"/>
<path d="M212.234 22.326C212.234 22.326 207.369 23.4703 204.658 21.1868C201.727 18.7184 203.132 14.4814 205.875 13.3261C208.851 12.073 210.7 12.9844 210.7 12.9844C210.7 12.9844 210.981 9.38405 215.12 8.35154C219.99 7.13641 221.704 9.79446 221.704 9.79446C221.704 9.79446 224.139 7.28828 228.197 8.19946C232.256 9.11086 232.346 13.0602 232.346 13.0602C232.346 13.0602 235.954 12.4525 238.028 13.9716C240.102 15.4904 239.471 17.8449 239.471 17.8449C239.471 17.8449 241.545 17.3134 242.447 18.9082C243.349 20.503 241.726 22.098 239.2 21.7942C239.2 21.7942 238.028 24.6803 232.616 24.6044C227.205 24.5284 226.934 20.655 226.934 20.655C226.934 20.655 225.491 22.6297 223.056 22.5538C220.621 22.4778 219.719 20.5032 219.719 20.5032C219.719 20.5032 220.345 22.8688 217.42 23.7309C213.812 24.7944 212.234 22.326 212.234 22.326Z" fill="#B5E4FE"/>
<path d="M242.453 20.7295C240.633 21.511 238.14 20.8494 238.14 20.8494C239.495 20.4712 239.224 19.4498 239.224 19.4498C239.224 19.4498 238.998 20.1308 237.643 20.2821C236.288 20.4333 235.566 19.5254 235.566 19.5254C236.153 20.8116 236.875 20.8494 236.875 20.8494C236.875 20.8494 236.243 23.2327 232.178 22.9678C228.113 22.703 227.978 19.6011 227.978 19.6011C230.958 19.3741 231.455 17.0664 231.455 17.0664C231.455 17.0664 230.552 18.2013 228.023 18.3147C225.494 18.4282 224.364 16.9152 224.364 16.9152C224.5 18.4284 226.442 19.2227 226.442 19.2227C226.442 19.2227 225.765 20.8116 223.055 20.9628C220.345 21.1141 219.351 19.0714 219.351 19.0714C219.351 19.0714 218.809 21.8329 215.873 22.0977C212.938 22.3624 212.441 20.2819 212.441 20.2819C214.338 20.0549 214.88 18.7308 214.88 18.7308C214.88 18.7308 213.75 19.5252 211.808 19.3361C209.866 19.147 209.505 17.5581 209.505 17.5581C209.279 19.2605 210.589 19.8278 210.589 19.8278C210.589 19.8278 208.918 21.4167 205.666 20.3195C203.992 19.7546 203.326 18.2588 203.09 16.9182C202.798 18.3992 203.19 20.0239 204.627 21.2274C207.343 23.5022 212.215 22.3622 212.215 22.3622C212.215 22.3622 213.795 24.8212 217.409 23.7618C220.339 22.9028 219.712 20.5464 219.712 20.5464C219.712 20.5464 220.615 22.5135 223.054 22.5891C225.493 22.6648 226.939 20.6977 226.939 20.6977C226.939 20.6977 227.209 24.5563 232.629 24.6319C238.049 24.7075 239.224 21.8325 239.224 21.8325C240.749 22.0153 241.941 21.508 242.453 20.7295Z" fill="#FBFBFB"/>
<path d="M238.027 13.9716C235.953 12.4526 232.345 13.0602 232.345 13.0602C232.345 13.0602 232.255 9.11093 228.196 8.19953C224.138 7.28814 221.703 9.79452 221.703 9.79452C221.703 9.79452 219.989 7.13627 215.119 8.3516C210.981 9.38412 210.7 12.9845 210.7 12.9845C210.7 12.9845 208.851 12.0731 205.875 13.3262C205.435 13.5115 205.034 13.7828 204.675 14.1068C205.669 13.8059 207.188 13.4428 208.278 13.6219C210.032 13.9101 211.316 15.1715 211.359 14.9552C211.402 14.739 211.616 10.2344 215.553 9.72994C219.49 9.22544 220.388 11.4236 220.388 11.4236C220.388 11.4236 218.377 11.8919 218.634 13.946C218.634 13.946 219.618 11.8199 221.843 12.1082C224.069 12.3964 224.154 13.946 224.154 13.946C224.154 13.946 224.668 12.0362 222.4 11.2793C222.4 11.2793 223.812 8.64873 227.407 9.47759C231.001 10.3064 231.386 14.0542 231.386 14.0542C231.386 14.0542 233.483 13.1172 236.008 13.9099C238.224 14.6057 239.318 16.355 239.553 16.7733C239.508 15.9568 239.2 14.8308 238.027 13.9716Z" fill="#FBFBFB"/>
<path d="M261.234 24.326C261.234 24.326 256.369 25.4703 253.658 23.1868C250.727 20.7184 252.132 16.4814 254.875 15.3261C257.851 14.073 259.7 14.9844 259.7 14.9844C259.7 14.9844 259.981 11.3841 264.12 10.3515C268.99 9.13641 270.704 11.7945 270.704 11.7945C270.704 11.7945 273.139 9.28828 277.197 10.1995C281.256 11.1109 281.346 15.0602 281.346 15.0602C281.346 15.0602 284.954 14.4525 287.028 15.9716C289.102 17.4904 288.471 19.8449 288.471 19.8449C288.471 19.8449 290.545 19.3134 291.447 20.9082C292.349 22.503 290.726 24.098 288.2 23.7942C288.2 23.7942 287.028 26.6803 281.616 26.6044C276.205 26.5284 275.934 22.655 275.934 22.655C275.934 22.655 274.491 24.6297 272.056 24.5538C269.621 24.4778 268.719 22.5032 268.719 22.5032C268.719 22.5032 269.345 24.8688 266.42 25.7309C262.812 26.7944 261.234 24.326 261.234 24.326Z" fill="#B5E4FE"/>
<path d="M291.453 22.7295C289.633 23.511 287.14 22.8494 287.14 22.8494C288.495 22.4712 288.224 21.4498 288.224 21.4498C288.224 21.4498 287.998 22.1308 286.643 22.2821C285.288 22.4333 284.566 21.5254 284.566 21.5254C285.153 22.8116 285.875 22.8494 285.875 22.8494C285.875 22.8494 285.243 25.2327 281.178 24.9678C277.113 24.703 276.978 21.6011 276.978 21.6011C279.958 21.3741 280.455 19.0664 280.455 19.0664C280.455 19.0664 279.552 20.2013 277.023 20.3147C274.494 20.4282 273.364 18.9152 273.364 18.9152C273.5 20.4284 275.442 21.2227 275.442 21.2227C275.442 21.2227 274.765 22.8116 272.055 22.9628C269.345 23.1141 268.351 21.0714 268.351 21.0714C268.351 21.0714 267.809 23.8329 264.873 24.0977C261.938 24.3624 261.441 22.2819 261.441 22.2819C263.338 22.0549 263.88 20.7308 263.88 20.7308C263.88 20.7308 262.75 21.5252 260.808 21.3361C258.866 21.147 258.505 19.5581 258.505 19.5581C258.279 21.2605 259.589 21.8278 259.589 21.8278C259.589 21.8278 257.918 23.4167 254.666 22.3195C252.992 21.7546 252.326 20.2588 252.09 18.9182C251.798 20.3992 252.19 22.0239 253.627 23.2274C256.343 25.5022 261.215 24.3622 261.215 24.3622C261.215 24.3622 262.795 26.8212 266.409 25.7618C269.339 24.9028 268.712 22.5464 268.712 22.5464C268.712 22.5464 269.615 24.5135 272.054 24.5891C274.493 24.6648 275.939 22.6977 275.939 22.6977C275.939 22.6977 276.209 26.5563 281.629 26.6319C287.049 26.7075 288.224 23.8325 288.224 23.8325C289.749 24.0153 290.941 23.508 291.453 22.7295Z" fill="#FBFBFB"/>
<path d="M289.352 15.9716C287.278 14.4526 283.67 15.0602 283.67 15.0602C283.67 15.0602 283.58 11.1109 279.521 10.1995C275.463 9.28814 273.028 11.7945 273.028 11.7945C273.028 11.7945 271.314 9.13627 266.444 10.3516C262.306 11.3841 262.025 14.9845 262.025 14.9845C262.025 14.9845 260.176 14.0731 257.2 15.3262C256.76 15.5115 256.359 15.7828 256 16.1068C256.995 15.8059 258.513 15.4428 259.603 15.6219C261.357 15.9101 262.641 17.1715 262.684 16.9552C262.727 16.739 262.941 12.2344 266.878 11.7299C270.815 11.2254 271.713 13.4236 271.713 13.4236C271.713 13.4236 269.702 13.8919 269.959 15.946C269.959 15.946 270.943 13.8199 273.169 14.1082C275.394 14.3964 275.479 15.946 275.479 15.946C275.479 15.946 275.993 14.0362 273.725 13.2793C273.725 13.2793 275.137 10.6487 278.732 11.4776C282.326 12.3064 282.711 16.0542 282.711 16.0542C282.711 16.0542 284.808 15.1172 287.333 15.9099C289.549 16.6057 290.643 18.355 290.878 18.7733C290.833 17.9568 290.526 16.8308 289.352 15.9716Z" fill="#FBFBFB"/>
<path d="M238.234 47.326C238.234 47.326 233.369 48.4703 230.658 46.1868C227.727 43.7184 229.132 39.4814 231.875 38.3261C234.851 37.073 236.7 37.9844 236.7 37.9844C236.7 37.9844 236.981 34.3841 241.12 33.3515C245.99 32.1364 247.704 34.7945 247.704 34.7945C247.704 34.7945 250.139 32.2883 254.197 33.1995C258.256 34.1109 258.346 38.0602 258.346 38.0602C258.346 38.0602 261.954 37.4525 264.028 38.9716C266.102 40.4904 265.471 42.8449 265.471 42.8449C265.471 42.8449 267.545 42.3134 268.447 43.9082C269.349 45.503 267.726 47.098 265.2 46.7942C265.2 46.7942 264.028 49.6803 258.616 49.6044C253.205 49.5284 252.934 45.655 252.934 45.655C252.934 45.655 251.491 47.6297 249.056 47.5538C246.621 47.4778 245.719 45.5032 245.719 45.5032C245.719 45.5032 246.345 47.8688 243.42 48.7309C239.812 49.7944 238.234 47.326 238.234 47.326Z" fill="#B5E4FE"/>
<path d="M268.453 45.7295C266.633 46.511 264.14 45.8494 264.14 45.8494C265.495 45.4712 265.224 44.4498 265.224 44.4498C265.224 44.4498 264.998 45.1308 263.643 45.2821C262.288 45.4333 261.566 44.5254 261.566 44.5254C262.153 45.8116 262.875 45.8494 262.875 45.8494C262.875 45.8494 262.243 48.2327 258.178 47.9678C254.113 47.703 253.978 44.6011 253.978 44.6011C256.958 44.3741 257.455 42.0664 257.455 42.0664C257.455 42.0664 256.552 43.2013 254.023 43.3147C251.494 43.4282 250.364 41.9152 250.364 41.9152C250.5 43.4284 252.442 44.2227 252.442 44.2227C252.442 44.2227 251.765 45.8116 249.055 45.9628C246.345 46.1141 245.351 44.0714 245.351 44.0714C245.351 44.0714 244.809 46.8329 241.873 47.0977C238.938 47.3624 238.441 45.2819 238.441 45.2819C240.338 45.0549 240.88 43.7308 240.88 43.7308C240.88 43.7308 239.75 44.5252 237.808 44.3361C235.866 44.147 235.505 42.5581 235.505 42.5581C235.279 44.2605 236.589 44.8278 236.589 44.8278C236.589 44.8278 234.918 46.4167 231.666 45.3195C229.992 44.7546 229.326 43.2588 229.09 41.9182C228.798 43.3992 229.19 45.0239 230.627 46.2274C233.343 48.5022 238.215 47.3622 238.215 47.3622C238.215 47.3622 239.795 49.8212 243.409 48.7618C246.339 47.9028 245.712 45.5464 245.712 45.5464C245.712 45.5464 246.615 47.5135 249.054 47.5891C251.493 47.6648 252.939 45.6977 252.939 45.6977C252.939 45.6977 253.209 49.5563 258.629 49.6319C264.049 49.7075 265.224 46.8325 265.224 46.8325C266.749 47.0153 267.941 46.508 268.453 45.7295Z" fill="#FBFBFB"/>
<path d="M266.352 38.9716C264.278 37.4526 260.67 38.0602 260.67 38.0602C260.67 38.0602 260.58 34.1109 256.521 33.1995C252.463 32.2881 250.028 34.7945 250.028 34.7945C250.028 34.7945 248.314 32.1363 243.444 33.3516C239.306 34.3841 239.025 37.9845 239.025 37.9845C239.025 37.9845 237.176 37.0731 234.2 38.3262C233.76 38.5115 233.359 38.7828 233 39.1068C233.995 38.8059 235.513 38.4428 236.603 38.6219C238.357 38.9101 239.641 40.1715 239.684 39.9552C239.727 39.739 239.941 35.2344 243.878 34.7299C247.815 34.2254 248.713 36.4236 248.713 36.4236C248.713 36.4236 246.702 36.8919 246.959 38.946C246.959 38.946 247.943 36.8199 250.169 37.1082C252.394 37.3964 252.479 38.946 252.479 38.946C252.479 38.946 252.993 37.0362 250.725 36.2793C250.725 36.2793 252.137 33.6487 255.732 34.4776C259.326 35.3064 259.711 39.0542 259.711 39.0542C259.711 39.0542 261.808 38.1172 264.333 38.9099C266.549 39.6057 267.643 41.355 267.878 41.7733C267.833 40.9568 267.526 39.8308 266.352 38.9716Z" fill="#FBFBFB"/>
<path d="M370.234 45.326C370.234 45.326 365.369 46.4703 362.658 44.1868C359.727 41.7184 361.132 37.4814 363.875 36.3261C366.851 35.073 368.7 35.9844 368.7 35.9844C368.7 35.9844 368.981 32.3841 373.12 31.3515C377.99 30.1364 379.704 32.7945 379.704 32.7945C379.704 32.7945 382.139 30.2883 386.197 31.1995C390.256 32.1109 390.346 36.0602 390.346 36.0602C390.346 36.0602 393.954 35.4525 396.028 36.9716C398.102 38.4904 397.471 40.8449 397.471 40.8449C397.471 40.8449 399.545 40.3134 400.447 41.9082C401.349 43.503 399.726 45.098 397.2 44.7942C397.2 44.7942 396.028 47.6803 390.616 47.6044C385.205 47.5284 384.934 43.655 384.934 43.655C384.934 43.655 383.491 45.6297 381.056 45.5538C378.621 45.4778 377.719 43.5032 377.719 43.5032C377.719 43.5032 378.345 45.8688 375.42 46.7309C371.812 47.7944 370.234 45.326 370.234 45.326Z" fill="#B5E4FE"/>
<path d="M400.453 43.7295C398.633 44.511 396.14 43.8494 396.14 43.8494C397.495 43.4712 397.224 42.4498 397.224 42.4498C397.224 42.4498 396.998 43.1308 395.643 43.2821C394.288 43.4333 393.566 42.5254 393.566 42.5254C394.153 43.8116 394.875 43.8494 394.875 43.8494C394.875 43.8494 394.243 46.2327 390.178 45.9678C386.113 45.703 385.978 42.6011 385.978 42.6011C388.958 42.3741 389.455 40.0664 389.455 40.0664C389.455 40.0664 388.552 41.2013 386.023 41.3147C383.494 41.4282 382.364 39.9152 382.364 39.9152C382.5 41.4284 384.442 42.2227 384.442 42.2227C384.442 42.2227 383.765 43.8116 381.055 43.9628C378.345 44.1141 377.351 42.0714 377.351 42.0714C377.351 42.0714 376.809 44.8329 373.873 45.0977C370.938 45.3624 370.441 43.2819 370.441 43.2819C372.338 43.0549 372.88 41.7308 372.88 41.7308C372.88 41.7308 371.75 42.5252 369.808 42.3361C367.866 42.147 367.505 40.5581 367.505 40.5581C367.279 42.2605 368.589 42.8278 368.589 42.8278C368.589 42.8278 366.918 44.4167 363.666 43.3195C361.992 42.7546 361.326 41.2588 361.09 39.9182C360.798 41.3992 361.19 43.0239 362.627 44.2274C365.343 46.5022 370.215 45.3622 370.215 45.3622C370.215 45.3622 371.795 47.8212 375.409 46.7618C378.339 45.9028 377.712 43.5464 377.712 43.5464C377.712 43.5464 378.615 45.5135 381.054 45.5891C383.493 45.6648 384.939 43.6977 384.939 43.6977C384.939 43.6977 385.209 47.5563 390.629 47.6319C396.049 47.7075 397.224 44.8325 397.224 44.8325C398.749 45.0153 399.941 44.508 400.453 43.7295Z" fill="#FBFBFB"/>
<path d="M398.352 36.9716C396.278 35.4526 392.67 36.0602 392.67 36.0602C392.67 36.0602 392.58 32.1109 388.521 31.1995C384.463 30.2881 382.028 32.7945 382.028 32.7945C382.028 32.7945 380.314 30.1363 375.444 31.3516C371.306 32.3841 371.025 35.9845 371.025 35.9845C371.025 35.9845 369.176 35.0731 366.2 36.3262C365.76 36.5115 365.359 36.7828 365 37.1068C365.995 36.8059 367.513 36.4428 368.603 36.6219C370.357 36.9101 371.641 38.1715 371.684 37.9552C371.727 37.739 371.941 33.2344 375.878 32.7299C379.815 32.2254 380.713 34.4236 380.713 34.4236C380.713 34.4236 378.702 34.8919 378.959 36.946C378.959 36.946 379.943 34.8199 382.169 35.1082C384.394 35.3964 384.479 36.946 384.479 36.946C384.479 36.946 384.993 35.0362 382.725 34.2793C382.725 34.2793 384.137 31.6487 387.732 32.4776C391.326 33.3064 391.711 37.0542 391.711 37.0542C391.711 37.0542 393.808 36.1172 396.333 36.9099C398.549 37.6057 399.643 39.355 399.878 39.7733C399.833 38.9568 399.526 37.8308 398.352 36.9716Z" fill="#FBFBFB"/>
<path d="M235.484 24.1994C235.484 24.1994 240.043 24.0663 240.885 20.4706C241.727 16.8749 238.001 15.9428 238.001 15.9428C238.001 15.9428 238.777 10.489 233.469 8.88455C227.41 7.05276 224.34 12.6133 224.34 12.6133C224.34 12.6133 223.935 9.81665 220.21 9.01765C216.483 8.21865 214.951 11.8143 214.951 11.8143C214.951 11.8143 213.725 7.01996 208.062 7.15344C202.399 7.28693 201.829 11.8143 201.829 11.8143C201.829 11.8143 195.205 10.4825 193.391 15.41C191.577 20.3375 197.784 22.6014 197.784 22.6014C197.784 22.6014 197.217 30.6635 205.757 32.7226C213.003 34.4693 216.826 27.3958 216.826 27.3958C216.826 27.3958 217.78 29.6902 219.857 29.6597C222.429 29.6223 223.044 26.863 223.044 26.863C223.044 26.863 224.246 32.8271 229.791 32.3229C237.114 31.657 235.484 24.1994 235.484 24.1994Z" fill="#B5E4FE"/>
<path d="M193.646 15.1049C194.377 14.338 195.577 13.4435 197.513 12.8385C201.536 11.5815 202.889 14.5847 202.889 14.5847C202.889 14.5847 204.341 10.1146 207.855 10.7433C211.369 11.372 211.212 14.9342 211.212 14.9342C207.192 15.3531 206.246 18.9156 206.246 18.9156C206.246 18.9156 207.472 17.309 211.207 16.3312C214.942 15.3534 216.731 16.6105 216.731 16.6105C215.803 15.4931 213.508 15.0738 213.508 15.0738C213.508 15.0738 214.522 12.3498 217.971 11.372C221.419 10.3942 222.411 13.6771 222.411 13.6771C219.537 14.7247 219.167 17.6585 219.167 17.6585C219.167 17.6585 222.982 14.3756 226.567 15.4233C229.525 16.2875 229.841 17.6723 229.861 18.1315C230.029 14.2813 228.082 13.188 228.082 13.188C228.082 13.188 231.394 10.2542 234.616 12.28C237.783 14.2717 235.47 17.7406 235.392 17.8568C235.46 17.759 236.076 17.0505 238.756 18.3567C240.182 19.0521 240.467 20.4231 240.394 21.6242C240.607 21.2675 240.778 20.862 240.885 20.3974C241.724 16.7808 238.012 15.8433 238.012 15.8433C238.012 15.8433 238.785 10.3578 233.497 8.74395C227.459 6.90151 224.4 12.4944 224.4 12.4944C224.4 12.4944 223.997 9.68148 220.285 8.87783C216.572 8.07418 215.045 11.6908 215.045 11.6908C215.045 11.6908 213.824 6.86852 208.181 7.00278C202.538 7.13704 201.971 11.6908 201.971 11.6908C201.971 11.6908 195.56 10.3934 193.646 15.1049Z" fill="#E6F3F9"/>
<path d="M197.818 24.1973C198.127 26.6294 199.544 31.2409 205.774 32.7234C213.071 34.4603 216.922 27.4266 216.922 27.4266C216.922 27.4266 217.883 29.708 219.974 29.6777C222.565 29.6405 223.184 26.8968 223.184 26.8968C223.184 26.8968 224.395 32.8273 229.98 32.3259C233.794 31.9835 235.194 29.8362 235.659 27.8414C234.296 29.0941 232.2 30.4661 230.179 30.2614C226.771 29.9162 225.481 25.6347 225.481 25.6347C225.481 25.6347 228.02 25.5656 228.324 21.906C228.324 21.906 226.864 24.3919 224.615 24.3919C222.366 24.3919 220.632 22.5966 220.631 22.8727C220.63 23.1488 221.493 25.2205 222.507 25.7037C222.507 25.7037 221.121 27.568 219.31 26.8774C217.499 26.1868 216.422 23.2868 216.422 23.2868C216.422 23.2868 214.166 25.2892 211.483 25.0131C208.8 24.737 207.572 23.4939 207.572 23.4939C207.572 23.4939 209.732 27.7061 214.159 27.2225C214.159 27.2225 212.548 31.1586 206.965 30.468C201.382 29.7775 201.478 23.4248 201.478 23.4248C201.478 23.4248 199.958 24.7598 197.818 24.1973Z" fill="#FBFBFB"/>
<path d="M349.124 27.2497C349.124 27.2497 344.932 27.3745 344.157 30.7451C343.383 34.1157 346.809 34.9895 346.809 34.9895C346.809 34.9895 346.095 40.1019 350.977 41.606C356.55 43.3231 359.374 38.1106 359.374 38.1106C359.374 38.1106 359.745 40.7322 363.172 41.4812C366.599 42.2302 368.009 38.8596 368.009 38.8596C368.009 38.8596 369.136 43.3538 374.344 43.2287C379.553 43.1036 380.077 38.8596 380.077 38.8596C380.077 38.8596 386.17 40.108 387.838 35.4889C389.507 30.8699 383.798 28.7477 383.798 28.7477C383.798 28.7477 384.32 21.1902 376.466 19.26C369.802 17.6226 366.285 24.2534 366.285 24.2534C366.285 24.2534 365.408 22.1026 363.498 22.1312C361.132 22.1663 360.567 24.7529 360.567 24.7529C360.567 24.7529 359.461 19.1621 354.361 19.6347C347.626 20.2589 349.124 27.2497 349.124 27.2497Z" fill="#B5E4FE"/>
<path d="M387.603 35.775C386.932 36.4938 385.827 37.3324 384.047 37.8994C380.346 39.0778 379.103 36.2626 379.103 36.2626C379.103 36.2626 377.767 40.4529 374.535 39.8635C371.303 39.2742 371.448 35.935 371.448 35.935C375.145 35.5423 376.016 32.2028 376.016 32.2028C376.016 32.2028 374.888 33.7087 371.453 34.6253C368.017 35.5419 366.371 34.3636 366.371 34.3636C367.226 35.4111 369.336 35.8041 369.336 35.8041C369.336 35.8041 368.403 38.3576 365.231 39.2742C362.06 40.1908 361.147 37.1134 361.147 37.1134C363.791 36.1313 364.131 33.3812 364.131 33.3812C364.131 33.3812 360.622 36.4585 357.325 35.4765C354.605 34.6663 354.314 33.3682 354.296 32.9378C354.141 36.547 355.932 37.5718 355.932 37.5718C355.932 37.5718 352.886 40.322 349.923 38.423C347.009 36.556 349.137 33.3042 349.209 33.1953C349.146 33.2869 348.58 33.9511 346.116 32.7267C344.804 32.0748 344.542 30.7896 344.608 29.6637C344.413 29.9981 344.256 30.3782 344.157 30.8137C343.385 34.2039 346.799 35.0827 346.799 35.0827C346.799 35.0827 346.088 40.2249 350.952 41.7377C356.504 43.4648 359.318 38.222 359.318 38.222C359.318 38.222 359.688 40.8589 363.103 41.6122C366.518 42.3656 367.923 38.9753 367.923 38.9753C367.923 38.9753 369.045 43.4958 374.235 43.3699C379.425 43.244 379.947 38.9753 379.947 38.9753C379.947 38.9753 385.843 40.1915 387.603 35.775Z" fill="#E6F3F9"/>
<path d="M383.768 27.2516C383.484 24.9718 382.18 20.6489 376.451 19.2592C369.739 17.6311 366.197 24.2245 366.197 24.2245C366.197 24.2245 365.313 22.0858 363.39 22.1143C361.007 22.1491 360.438 24.7211 360.438 24.7211C360.438 24.7211 359.324 19.1618 354.187 19.6318C350.68 19.9528 349.392 21.9657 348.964 23.8356C350.218 22.6614 352.146 21.3752 354.004 21.5671C357.139 21.8907 358.325 25.9042 358.325 25.9042C358.325 25.9042 355.99 25.9689 355.71 29.3995C355.71 29.3995 357.053 27.0692 359.121 27.0692C361.19 27.0692 362.785 28.7521 362.785 28.4933C362.786 28.2345 361.993 26.2924 361.061 25.8395C361.061 25.8395 362.335 24.0919 364 24.7393C365.666 25.3866 366.657 28.1051 366.657 28.1051C366.657 28.1051 368.732 26.2281 371.199 26.4869C373.667 26.7457 374.797 27.911 374.797 27.911C374.797 27.911 372.81 23.9625 368.738 24.4158C368.738 24.4158 370.22 20.726 375.355 21.3734C380.489 22.0208 380.401 27.9757 380.401 27.9757C380.401 27.9757 381.799 26.7244 383.768 27.2516Z" fill="#FBFBFB"/>
<path d="M313.364 15.416C313.364 15.416 310.612 15.4979 310.103 17.7108C309.595 19.9236 311.844 20.4973 311.844 20.4973C311.844 20.4973 311.376 23.8536 314.58 24.841C318.239 25.9683 320.093 22.5463 320.093 22.5463C320.093 22.5463 320.337 24.2674 322.587 24.7591C324.837 25.2508 325.762 23.038 325.762 23.038C325.762 23.038 326.502 25.9885 329.921 25.9064C333.341 25.8242 333.685 23.038 333.685 23.038C333.685 23.038 337.685 23.8576 338.78 20.8251C339.876 17.7927 336.128 16.3995 336.128 16.3995C336.128 16.3995 336.47 11.4379 331.314 10.1707C326.939 9.09575 324.63 13.4489 324.63 13.4489C324.63 13.4489 324.055 12.0369 322.801 12.0557C321.248 12.0787 320.876 13.7768 320.876 13.7768C320.876 13.7768 320.151 10.1064 316.802 10.4167C312.381 10.8265 313.364 15.416 313.364 15.416Z" fill="#B5E4FE"/>
<path d="M338.626 21.0129C338.185 21.4848 337.46 22.0353 336.291 22.4076C333.862 23.1813 333.045 21.333 333.045 21.333C333.045 21.333 332.169 24.084 330.047 23.6971C327.925 23.3102 328.02 21.118 328.02 21.118C330.447 20.8602 331.019 18.6677 331.019 18.6677C331.019 18.6677 330.278 19.6564 328.023 20.2582C325.768 20.8599 324.687 20.0863 324.687 20.0863C325.248 20.774 326.634 21.032 326.634 21.032C326.634 21.032 326.021 22.7084 323.939 23.3102C321.857 23.9119 321.258 21.8916 321.258 21.8916C322.993 21.2469 323.216 19.4413 323.216 19.4413C323.216 19.4413 320.913 21.4617 318.748 20.817C316.963 20.2851 316.772 19.4328 316.759 19.1503C316.658 21.5198 317.833 22.1926 317.833 22.1926C317.833 22.1926 315.833 23.9981 313.888 22.7514C311.976 21.5257 313.372 19.3908 313.42 19.3193C313.379 19.3795 313.007 19.8155 311.389 19.0117C310.528 18.5837 310.356 17.7399 310.4 17.0008C310.271 17.2203 310.168 17.4699 310.103 17.7558C309.596 19.9815 311.838 20.5585 311.838 20.5585C311.838 20.5585 311.371 23.9343 314.564 24.9275C318.209 26.0614 320.057 22.6194 320.057 22.6194C320.057 22.6194 320.3 24.3505 322.541 24.8451C324.783 25.3397 325.705 23.114 325.705 23.114C325.705 23.114 326.442 26.0817 329.85 25.999C333.257 25.9164 333.599 23.114 333.599 23.114C333.599 23.114 337.47 23.9124 338.626 21.0129Z" fill="#E6F3F9"/>
<path d="M336.108 15.4172C335.921 13.9205 335.065 11.0825 331.304 10.1702C326.898 9.10126 324.573 13.4299 324.573 13.4299C324.573 13.4299 323.993 12.0259 322.73 12.0445C321.166 12.0674 320.792 13.756 320.792 13.756C320.792 13.756 320.06 10.1062 316.688 10.4148C314.386 10.6255 313.54 11.947 313.259 13.1746C314.082 12.4037 315.348 11.5593 316.568 11.6853C318.626 11.8977 319.405 14.5327 319.405 14.5327C319.405 14.5327 317.871 14.5752 317.688 16.8274C317.688 16.8274 318.57 15.2975 319.927 15.2975C321.285 15.2975 322.332 16.4024 322.333 16.2325C322.334 16.0625 321.813 14.7875 321.201 14.4902C321.201 14.4902 322.037 13.3429 323.131 13.7679C324.224 14.1929 324.874 15.9776 324.874 15.9776C324.874 15.9776 326.237 14.7453 327.857 14.9152C329.477 15.0851 330.218 15.8502 330.218 15.8502C330.218 15.8502 328.914 13.2579 326.241 13.5555C326.241 13.5555 327.214 11.1331 330.585 11.5581C333.956 11.9831 333.897 15.8926 333.897 15.8926C333.897 15.8926 334.816 15.0711 336.108 15.4172Z" fill="#FBFBFB"/>
<path d="M152.571 25.7642C152.571 25.7642 158.751 25.5803 159.892 20.6122C161.034 15.6441 155.984 14.3562 155.984 14.3562C155.984 14.3562 157.036 6.82073 149.841 4.60382C141.627 2.07285 137.464 9.75586 137.464 9.75586C137.464 9.75586 136.916 5.8917 131.866 4.78773C126.814 3.68376 124.736 8.65188 124.736 8.65188C124.736 8.65188 123.075 2.02754 115.398 2.21197C107.721 2.39641 106.949 8.65188 106.949 8.65188C106.949 8.65188 97.9679 6.81176 95.5088 13.62C93.0497 20.4283 101.464 23.5563 101.464 23.5563C101.464 23.5563 100.695 34.6956 112.271 37.5407C122.093 39.9541 127.277 30.1807 127.277 30.1807C127.277 30.1807 128.57 33.3508 131.385 33.3087C134.872 33.257 135.706 29.4445 135.706 29.4445C135.706 29.4445 137.335 37.685 144.852 36.9884C154.78 36.0683 152.571 25.7642 152.571 25.7642Z" fill="#B5E4FE"/>
<path d="M95.8548 13.1985C96.845 12.1389 98.4727 10.9029 101.097 10.0671C106.551 8.3302 108.384 12.4797 108.384 12.4797C108.384 12.4797 110.353 6.30339 115.116 7.1721C119.88 8.0408 119.667 12.9626 119.667 12.9626C114.217 13.5414 112.934 18.4637 112.934 18.4637C112.934 18.4637 114.597 16.244 119.66 14.8929C124.724 13.5419 127.15 15.2788 127.15 15.2788C125.891 13.7348 122.779 13.1555 122.779 13.1555C122.779 13.1555 124.155 9.39183 128.83 8.04081C133.504 6.68978 134.85 11.2257 134.85 11.2257C130.953 12.6732 130.451 16.7268 130.451 16.7268C130.451 16.7268 135.624 12.1909 140.483 13.6384C144.492 14.8325 144.921 16.7459 144.949 17.3803C145.176 12.0605 142.537 10.5499 142.537 10.5499C142.537 10.5499 147.027 6.49633 151.394 9.29537C155.688 12.0472 152.552 16.8402 152.446 17.0008C152.539 16.8657 153.373 15.8867 157.006 17.6914C158.94 18.6524 159.326 20.5467 159.227 22.2062C159.515 21.7133 159.747 21.153 159.893 20.5112C161.031 15.5141 155.998 14.2187 155.998 14.2187C155.998 14.2187 157.047 6.63944 149.878 4.40964C141.693 1.86395 137.546 9.59165 137.546 9.59165C137.546 9.59165 137 5.70501 131.967 4.59462C126.934 3.48422 124.863 8.48125 124.863 8.48125C124.863 8.48125 123.209 1.81836 115.559 2.00387C107.91 2.18938 107.14 8.48125 107.14 8.48125C107.14 8.48125 98.4492 6.68873 95.8548 13.1985Z" fill="#E6F3F9"/>
<path d="M101.509 25.7615C101.927 29.1218 103.849 35.4935 112.294 37.5418C122.186 39.9417 127.407 30.2232 127.407 30.2232C127.407 30.2232 128.709 33.3755 131.544 33.3336C135.056 33.2823 135.896 29.4912 135.896 29.4912C135.896 29.4912 137.537 37.6854 145.108 36.9926C150.278 36.5195 152.176 33.5526 152.807 30.7965C150.96 32.5272 148.117 34.423 145.378 34.14C140.758 33.6632 139.01 27.7474 139.01 27.7474C139.01 27.7474 142.452 27.652 142.864 22.5955C142.864 22.5955 140.885 26.0303 137.836 26.0303C134.788 26.0303 132.437 23.5497 132.435 23.9312C132.434 24.3126 133.603 27.1752 134.978 27.8427C134.978 27.8427 133.1 30.4187 130.645 29.4645C128.19 28.5103 126.73 24.5034 126.73 24.5034C126.73 24.5034 123.671 27.27 120.034 26.8886C116.397 26.5071 114.732 24.7895 114.732 24.7895C114.732 24.7895 117.66 30.6094 123.661 29.9413C123.661 29.9413 121.477 35.3798 113.909 34.4256C106.341 33.4714 106.472 24.6941 106.472 24.6941C106.472 24.6941 104.41 26.5385 101.509 25.7615Z" fill="#FBFBFB"/>
<path d="M132.234 44.326C132.234 44.326 127.369 45.4703 124.658 43.1868C121.727 40.7184 123.132 36.4814 125.875 35.3261C128.851 34.073 130.7 34.9844 130.7 34.9844C130.7 34.9844 130.981 31.3841 135.12 30.3515C139.99 29.1364 141.704 31.7945 141.704 31.7945C141.704 31.7945 144.139 29.2883 148.197 30.1995C152.256 31.1109 152.346 35.0602 152.346 35.0602C152.346 35.0602 155.954 34.4525 158.028 35.9716C160.102 37.4904 159.471 39.8449 159.471 39.8449C159.471 39.8449 161.545 39.3134 162.447 40.9082C163.349 42.503 161.726 44.098 159.2 43.7942C159.2 43.7942 158.028 46.6803 152.616 46.6044C147.205 46.5284 146.934 42.655 146.934 42.655C146.934 42.655 145.491 44.6297 143.056 44.5538C140.621 44.4778 139.719 42.5032 139.719 42.5032C139.719 42.5032 140.345 44.8688 137.42 45.7309C133.812 46.7944 132.234 44.326 132.234 44.326Z" fill="#B5E4FE"/>
<path d="M162.453 42.7295C160.633 43.511 158.14 42.8494 158.14 42.8494C159.495 42.4712 159.224 41.4498 159.224 41.4498C159.224 41.4498 158.998 42.1308 157.643 42.2821C156.288 42.4333 155.566 41.5254 155.566 41.5254C156.153 42.8116 156.875 42.8494 156.875 42.8494C156.875 42.8494 156.243 45.2327 152.178 44.9678C148.113 44.703 147.978 41.6011 147.978 41.6011C150.958 41.3741 151.455 39.0664 151.455 39.0664C151.455 39.0664 150.552 40.2013 148.023 40.3147C145.494 40.4282 144.364 38.9152 144.364 38.9152C144.5 40.4284 146.442 41.2227 146.442 41.2227C146.442 41.2227 145.765 42.8116 143.055 42.9628C140.345 43.1141 139.351 41.0714 139.351 41.0714C139.351 41.0714 138.809 43.8329 135.873 44.0977C132.938 44.3624 132.441 42.2819 132.441 42.2819C134.338 42.0549 134.88 40.7308 134.88 40.7308C134.88 40.7308 133.75 41.5252 131.808 41.3361C129.866 41.147 129.505 39.5581 129.505 39.5581C129.279 41.2605 130.589 41.8278 130.589 41.8278C130.589 41.8278 128.918 43.4167 125.666 42.3195C123.992 41.7546 123.326 40.2588 123.09 38.9182C122.798 40.3992 123.19 42.0239 124.627 43.2274C127.343 45.5022 132.215 44.3622 132.215 44.3622C132.215 44.3622 133.795 46.8212 137.409 45.7618C140.339 44.9028 139.712 42.5464 139.712 42.5464C139.712 42.5464 140.615 44.5135 143.054 44.5891C145.493 44.6648 146.939 42.6977 146.939 42.6977C146.939 42.6977 147.209 46.5563 152.629 46.6319C158.049 46.7075 159.224 43.8325 159.224 43.8325C160.749 44.0153 161.941 43.508 162.453 42.7295Z" fill="#FBFBFB"/>
<path d="M158.027 35.9716C155.953 34.4526 152.345 35.0602 152.345 35.0602C152.345 35.0602 152.255 31.1109 148.196 30.1995C144.138 29.2881 141.703 31.7945 141.703 31.7945C141.703 31.7945 139.989 29.1363 135.119 30.3516C130.981 31.3841 130.7 34.9845 130.7 34.9845C130.7 34.9845 128.851 34.0731 125.875 35.3262C125.435 35.5115 125.034 35.7828 124.675 36.1068C125.669 35.8059 127.188 35.4428 128.278 35.6219C130.032 35.9101 131.316 37.1715 131.359 36.9552C131.402 36.739 131.616 32.2344 135.553 31.7299C139.49 31.2254 140.388 33.4236 140.388 33.4236C140.388 33.4236 138.377 33.8919 138.634 35.946C138.634 35.946 139.618 33.8199 141.843 34.1082C144.069 34.3964 144.154 35.946 144.154 35.946C144.154 35.946 144.668 34.0362 142.4 33.2793C142.4 33.2793 143.812 30.6487 147.407 31.4776C151.001 32.3064 151.386 36.0542 151.386 36.0542C151.386 36.0542 153.483 35.1172 156.008 35.9099C158.224 36.6057 159.318 38.355 159.553 38.7733C159.508 37.9568 159.2 36.8308 158.027 35.9716Z" fill="#FBFBFB"/>
</svg>
