<svg width="81" height="43" viewBox="0 0 81 43" fill="none" xmlns="http://www.w3.org/2000/svg">
<path d="M18.7943 37.0964C18.7943 37.0964 8.86213 40.0597 3.32569 34.1465C-2.65953 27.7547 0.20925 16.7833 5.81173 13.7918C11.8885 10.547 15.6639 12.907 15.6639 12.907C15.6639 12.907 16.2377 3.58393 24.6875 0.910284C34.6317 -2.23622 38.1308 4.64666 38.1308 4.64666C38.1308 4.64666 43.1029 -1.84297 51.3901 0.516504C59.6767 2.87652 59.8614 13.1031 59.8614 13.1031C59.8614 13.1031 67.2274 11.5295 71.4631 15.4631C75.6987 19.3961 74.4094 25.493 74.4094 25.493C74.4094 25.493 78.645 24.1166 80.4862 28.2462C82.3273 32.3759 79.0127 36.506 73.8565 35.7195C73.8565 35.7195 71.4626 43.1928 60.4132 42.9962C49.3638 42.7996 48.8115 32.7696 48.8115 32.7696C48.8115 32.7696 45.8651 37.8829 40.8931 37.6863C35.921 37.4897 34.0793 32.3764 34.0793 32.3764C34.0793 32.3764 35.3566 38.5022 29.3834 40.7345C22.0168 43.4883 18.7943 37.0964 18.7943 37.0964Z" fill="#B5E4FE"/>
<path d="M80.4395 32.8525C76.7307 34.884 71.6475 33.164 71.6475 33.164C74.4097 32.1809 73.8574 29.526 73.8574 29.526C73.8574 29.526 73.3971 31.2961 70.6349 31.6894C67.8727 32.0826 66.3993 29.7226 66.3993 29.7226C67.5965 33.0657 69.0694 33.164 69.0694 33.164C69.0694 33.164 67.7806 39.3593 59.4935 38.6706C51.2063 37.9824 50.9301 29.9192 50.9301 29.9192C57.0069 29.3294 58.02 23.3307 58.02 23.3307C58.02 23.3307 56.1784 26.2806 51.0222 26.5756C45.866 26.8705 43.564 22.9375 43.564 22.9375C43.8402 26.871 47.7997 28.9356 47.7997 28.9356C47.7997 28.9356 46.4188 33.0657 40.8939 33.459C35.3694 33.8522 33.3437 28.5423 33.3437 28.5423C33.3437 28.5423 32.239 35.7207 26.2538 36.4089C20.2691 37.097 19.2559 31.6888 19.2559 31.6888C23.1233 31.099 24.228 27.657 24.228 27.657C24.228 27.657 21.9261 29.7221 17.9666 29.2305C14.0072 28.739 13.2707 24.6088 13.2707 24.6088C12.8104 29.0339 15.4806 30.5086 15.4806 30.5086C15.4806 30.5086 12.074 34.6387 5.44433 31.7866C2.03121 30.3183 0.675366 26.4302 0.193566 22.9455C-0.401304 26.7952 0.397694 31.0183 3.32652 34.1466C8.86346 40.0597 18.7951 37.0965 18.7951 37.0965C18.7951 37.0965 22.0176 43.4884 29.3837 40.7346C35.3569 38.5017 34.0796 32.3765 34.0796 32.3765C34.0796 32.3765 35.9213 37.4897 40.8934 37.6864C45.8655 37.883 48.8118 32.7697 48.8118 32.7697C48.8118 32.7697 49.3642 42.7996 60.4135 42.9963C71.4629 43.1929 73.8569 35.7196 73.8569 35.7196C76.9663 36.1946 79.3963 34.8759 80.4395 32.8525Z" fill="#E6F4F7"/>
<path d="M71.4617 15.4642C67.2261 11.5307 59.86 13.1042 59.86 13.1042C59.86 13.1042 59.6759 2.87767 51.3887 0.517657C43.1021 -1.84235 38.1295 4.64781 38.1295 4.64781C38.1295 4.64781 34.6308 -2.2356 24.6866 0.911437C16.2373 3.58508 15.663 12.9081 15.663 12.9081C15.663 12.9081 11.8876 10.5481 5.81085 13.7929C4.91229 14.2727 4.09428 14.9753 3.36133 15.8142C5.39209 15.0352 8.49252 14.0948 10.7179 14.5586C14.3001 15.305 16.9218 18.5712 17.0093 18.0112C17.0969 17.4513 17.5336 5.78694 25.5721 4.48057C33.6106 3.17421 35.4458 8.86613 35.4458 8.86613C35.4458 8.86613 31.3392 10.079 31.8636 15.398C31.8636 15.398 33.8733 9.89252 38.4171 10.6389C42.961 11.3854 43.1356 15.398 43.1356 15.398C43.1356 15.398 44.1842 10.4525 39.5528 8.49265C39.5528 8.49265 42.4361 1.68083 49.7762 3.82712C57.1158 5.97341 57.9023 15.6779 57.9023 15.6779C57.9023 15.6779 62.1839 13.2517 67.3391 15.3045C71.8629 17.1061 74.0983 21.6359 74.5781 22.719C74.4851 20.6047 73.8577 17.6891 71.4617 15.4642Z" fill="#E6F4F7"/>
</svg>
