<svg width="10" height="6" viewBox="0 0 10 6" fill="none" xmlns="http://www.w3.org/2000/svg">
<path d="M0.220115 0.229439C0.361098 0.0825295 0.552285 0 0.751634 0C0.950983 0 1.14217 0.0825295 1.28315 0.229439L5.00454 4.10846L8.72592 0.229439C8.86771 0.086693 9.05762 0.0077061 9.25474 0.00949156C9.45186 0.011277 9.64042 0.0936919 9.77981 0.238985C9.91919 0.384278 9.99826 0.580825 9.99997 0.786293C10.0017 0.991761 9.92591 1.18971 9.78896 1.33751L5.53606 5.77056C5.39507 5.91747 5.20389 6 5.00454 6C4.80519 6 4.614 5.91747 4.47302 5.77056L0.220115 1.33751C0.0791756 1.19055 0 0.991266 0 0.783473C0 0.57568 0.0791756 0.376394 0.220115 0.229439Z" fill="#FBFBFB"/>
</svg>
