<svg width="26" height="26" viewBox="0 0 26 26" fill="none" xmlns="http://www.w3.org/2000/svg">
<path d="M19.0461 2.80162C18.6683 3.12912 18.3799 3.5477 18.2083 4.0177C18.0368 4.48769 17.9876 4.99354 18.0656 5.4873C18.0844 5.63174 18.0457 5.76559 17.9398 5.87055L17.9205 5.88981C17.8807 5.93069 17.8331 5.96318 17.7806 5.98537C17.7281 6.00755 17.6717 6.01898 17.6148 6.01898C17.5578 6.01898 17.5015 6.00755 17.4491 5.98537C17.3967 5.96318 17.3492 5.93069 17.3096 5.88981L11.7356 0.288322C11.6458 0.196989 11.5388 0.124473 11.4208 0.0749794C11.3028 0.0254859 11.1761 0 11.048 0C10.92 0 10.7932 0.0254859 10.6749 0.0749794C10.5566 0.124473 10.4493 0.196989 10.3591 0.288322L7.36262 3.28984C7.23967 3.41263 7.14201 3.55846 7.07524 3.71899C7.00846 3.87951 6.97388 4.05158 6.97346 4.22535C6.97304 4.39912 7.00679 4.57119 7.07279 4.73171C7.13879 4.89223 7.23574 5.03806 7.3581 5.16085L7.38687 5.18011C7.64367 5.44011 8.00641 5.58359 8.37915 5.56433C8.82364 5.54311 9.26687 5.62365 9.67521 5.79984C10.0835 5.97603 10.4463 6.24325 10.7358 6.58121C11.195 7.11762 11.4466 7.80183 11.4449 8.50952C11.4432 9.21721 11.1883 9.90141 10.7265 10.4378C10.4621 10.7441 10.1378 10.9927 9.77372 11.1681C9.40965 11.3435 9.01363 11.4419 8.61034 11.4572C8.20704 11.4726 7.80512 11.4046 7.4296 11.2573C7.05408 11.1101 6.71301 10.8869 6.42763 10.6015C6.13654 10.3026 5.91105 9.9459 5.76562 9.55424C5.62018 9.16258 5.55799 8.7446 5.58303 8.32704C5.61275 7.95245 5.46957 7.57883 5.20316 7.31979C5.08141 7.19658 4.93649 7.09879 4.77674 7.03206C4.61699 6.96532 4.44557 6.93097 4.27236 6.93097C4.09915 6.93097 3.92757 6.96532 3.7675 7.03206C3.60743 7.09879 3.46203 7.19658 3.33968 7.31979L0.32489 10.3415C0.233624 10.432 0.161092 10.5396 0.111483 10.6582C0.0618743 10.7768 0.0361724 10.904 0.0358622 11.0324C0.035552 11.1609 0.0606396 11.2881 0.109676 11.4067C0.158712 11.5253 0.230724 11.6329 0.321554 11.7234L5.91568 17.3547C5.95642 17.3947 5.98875 17.4425 6.01078 17.4952C6.03281 17.548 6.04408 17.6046 6.04394 17.6619C6.0438 17.7191 6.03226 17.7758 6.00997 17.8285C5.98769 17.8813 5.95513 17.9291 5.9142 17.9691C5.86529 18.0192 5.80455 18.056 5.73764 18.0762C5.67074 18.0964 5.59985 18.0993 5.53162 18.0846C5.03707 17.9998 4.5288 18.0434 4.05524 18.2113C3.58167 18.3792 3.15858 18.6658 2.8263 19.0437C2.36156 19.5801 2.104 20.2655 2.10053 20.9751C2.09705 21.6847 2.34788 22.3713 2.80736 22.91C3.07014 23.2169 3.39351 23.4658 3.75717 23.6412C4.12083 23.8165 4.51691 23.9145 4.92054 23.929C5.32417 23.9435 5.72663 23.8741 6.10263 23.7252C6.47864 23.5764 6.82007 23.3513 7.10547 23.064C7.4333 22.7352 7.67913 22.3334 7.82292 21.8916C7.96671 21.4498 8.00439 20.9805 7.93288 20.5219C7.92182 20.4523 7.92746 20.3811 7.94934 20.3141C7.97121 20.2471 8.0087 20.1863 8.05869 20.1367L8.07794 20.1174C8.11778 20.0765 8.16536 20.044 8.21787 20.0219C8.27038 19.9997 8.32677 19.9882 8.38371 19.9882C8.44065 19.9882 8.49698 19.9997 8.54939 20.0219C8.6018 20.044 8.64922 20.0765 8.68886 20.1174L14.2446 25.7122C14.3344 25.8033 14.4413 25.8757 14.5593 25.9251C14.6772 25.9746 14.8038 26 14.9317 26C15.0596 26 15.1864 25.9746 15.3045 25.9251C15.4227 25.8757 15.53 25.8033 15.6202 25.7122L18.6167 22.7078C18.7395 22.585 18.837 22.4392 18.9037 22.2788C18.9704 22.1183 19.0049 21.9464 19.0053 21.7727C19.0058 21.5991 18.972 21.4271 18.9061 21.2667C18.8402 21.1062 18.7434 20.9605 18.6212 20.8377L18.602 20.8184C18.4726 20.6886 18.3175 20.5873 18.1466 20.5212C17.9757 20.455 17.7929 20.4254 17.6097 20.4342C17.1652 20.4554 16.722 20.3749 16.3137 20.1987C15.9053 20.0225 15.5426 19.7553 15.2531 19.4173C14.7939 18.8809 14.5423 18.1967 14.544 17.489C14.5457 16.7813 14.8006 16.0971 15.2624 15.5607C15.5268 15.2544 15.8511 15.0059 16.2152 14.8305C16.5792 14.6551 16.9753 14.5567 17.3785 14.5413C17.7818 14.526 18.1838 14.594 18.5593 14.7412C18.9348 14.8884 19.2759 15.1117 19.5613 15.397C20.1803 16.021 20.4655 16.8463 20.4059 17.6619C20.3858 18.0365 20.5194 18.4005 20.7857 18.6691C20.9075 18.7923 21.0524 18.8901 21.2122 18.9569C21.3719 19.0236 21.5433 19.058 21.7165 19.058C21.8898 19.058 22.0613 19.0236 22.2214 18.9569C22.3815 18.8901 22.5269 18.7923 22.6492 18.6691L25.6746 15.6378C25.7659 15.5473 25.8384 15.4397 25.888 15.3211C25.9376 15.2025 25.9633 15.0753 25.9636 14.9468C25.9639 14.8184 25.9389 14.6912 25.8898 14.5726C25.8408 14.454 25.7688 14.3464 25.6779 14.2559L20.0934 8.63422C20.0527 8.59422 20.0203 8.54644 19.9983 8.49369C19.9763 8.44093 19.965 8.38428 19.9651 8.32704C19.9653 8.2698 19.9768 8.21314 19.9991 8.16039C20.0214 8.10764 20.0539 8.05986 20.0949 8.01986C20.2008 7.91393 20.344 7.87541 20.4775 7.9043C20.9393 7.98458 21.4139 7.9525 21.8614 7.81074C22.3089 7.66898 22.7161 7.42168 23.0489 7.08965C23.3352 6.80254 23.5596 6.45947 23.7079 6.08187C23.8563 5.70427 23.9254 5.30024 23.9111 4.89504C23.8968 4.48983 23.7992 4.09215 23.6246 3.72682C23.4499 3.36149 23.2019 3.03638 22.896 2.77177C21.7907 1.85119 20.1386 1.85119 19.047 2.80066" fill="#DD5E8D"/>
</svg>
