<svg width="22" height="20" viewBox="0 0 22 20" fill="none" xmlns="http://www.w3.org/2000/svg">
<path d="M7.35046 0.0875358C7.4224 0.129063 7.48515 0.183846 7.53512 0.248755C7.58509 0.313664 7.62131 0.387428 7.6417 0.465833C7.6621 0.544237 7.66627 0.625746 7.65398 0.705705C7.64168 0.785663 7.61317 0.862503 7.57006 0.931837L4.31937 6.15395H16.1092L12.8572 0.931837C12.7702 0.791803 12.7445 0.624181 12.7856 0.465844C12.8268 0.307507 12.9316 0.171425 13.0768 0.0875358C13.2221 0.0036465 13.396 -0.0211789 13.5603 0.0185207C13.7245 0.0582204 13.8657 0.159193 13.9527 0.299226L17.5979 6.15395H19.1518C19.4904 6.15395 19.8152 6.28362 20.0546 6.51443C20.2941 6.74524 20.4286 7.05829 20.4286 7.38471V8.61547C20.4286 8.94188 20.2941 9.25493 20.0546 9.48574C19.8152 9.71656 19.4904 9.84622 19.1518 9.84622V15.3846C19.1518 16.2007 18.8155 16.9833 18.2169 17.5603C17.6183 18.1374 16.8064 18.4615 15.9598 18.4615H4.46875C3.62219 18.4615 2.8103 18.1374 2.21169 17.5603C1.61308 16.9833 1.27679 16.2007 1.27679 15.3846V9.84622C0.938161 9.84622 0.613406 9.71656 0.373962 9.48574C0.134518 9.25493 0 8.94188 0 8.61547V7.38471C0 7.05829 0.134518 6.74524 0.373962 6.51443C0.613406 6.28362 0.938161 6.15395 1.27679 6.15395H2.83063L6.4733 0.299226C6.51638 0.229878 6.57322 0.16939 6.64055 0.121219C6.70789 0.0730468 6.78441 0.0381344 6.86575 0.0184761C6.94708 -0.00118214 7.03164 -0.00520125 7.11459 0.00664818C7.19754 0.0184976 7.27853 0.0459835 7.35046 0.0875358ZM2.55357 9.84622V15.3846C2.55357 15.8743 2.75535 16.3438 3.11451 16.6901C3.47368 17.0363 3.96081 17.2308 4.46875 17.2308H15.9598C16.4678 17.2308 16.9549 17.0363 17.3141 16.6901C17.6732 16.3438 17.875 15.8743 17.875 15.3846V9.84622H2.55357ZM1.27679 7.38471V8.61547H19.1518V7.38471H1.27679ZM5.10714 11.077C5.27646 11.077 5.43883 11.1418 5.55855 11.2572C5.67828 11.3726 5.74554 11.5292 5.74554 11.6924V15.3846C5.74554 15.5478 5.67828 15.7044 5.55855 15.8198C5.43883 15.9352 5.27646 16 5.10714 16C4.93783 16 4.77545 15.9352 4.65573 15.8198C4.53601 15.7044 4.46875 15.5478 4.46875 15.3846V11.6924C4.46875 11.5292 4.53601 11.3726 4.65573 11.2572C4.77545 11.1418 4.93783 11.077 5.10714 11.077ZM7.66071 11.077C7.83003 11.077 7.9924 11.1418 8.11213 11.2572C8.23185 11.3726 8.29911 11.5292 8.29911 11.6924V15.3846C8.29911 15.5478 8.23185 15.7044 8.11213 15.8198C7.9924 15.9352 7.83003 16 7.66071 16C7.4914 16 7.32902 15.9352 7.2093 15.8198C7.08958 15.7044 7.02232 15.5478 7.02232 15.3846V11.6924C7.02232 11.5292 7.08958 11.3726 7.2093 11.2572C7.32902 11.1418 7.4914 11.077 7.66071 11.077ZM10.2143 11.077C10.3836 11.077 10.546 11.1418 10.6657 11.2572C10.7854 11.3726 10.8527 11.5292 10.8527 11.6924V15.3846C10.8527 15.5478 10.7854 15.7044 10.6657 15.8198C10.546 15.9352 10.3836 16 10.2143 16C10.045 16 9.8826 15.9352 9.76287 15.8198C9.64315 15.7044 9.57589 15.5478 9.57589 15.3846V11.6924C9.57589 11.5292 9.64315 11.3726 9.76287 11.2572C9.8826 11.1418 10.045 11.077 10.2143 11.077ZM12.7679 11.077C12.9372 11.077 13.0995 11.1418 13.2193 11.2572C13.339 11.3726 13.4062 11.5292 13.4062 11.6924V15.3846C13.4062 15.5478 13.339 15.7044 13.2193 15.8198C13.0995 15.9352 12.9372 16 12.7679 16C12.5985 16 12.4362 15.9352 12.3164 15.8198C12.1967 15.7044 12.1295 15.5478 12.1295 15.3846V11.6924C12.1295 11.5292 12.1967 11.3726 12.3164 11.2572C12.4362 11.1418 12.5985 11.077 12.7679 11.077ZM15.3214 11.077C15.4907 11.077 15.6531 11.1418 15.7728 11.2572C15.8926 11.3726 15.9598 11.5292 15.9598 11.6924V15.3846C15.9598 15.5478 15.8926 15.7044 15.7728 15.8198C15.6531 15.9352 15.4907 16 15.3214 16C15.1521 16 14.9897 15.9352 14.87 15.8198C14.7503 15.7044 14.683 15.5478 14.683 15.3846V11.6924C14.683 11.5292 14.7503 11.3726 14.87 11.2572C14.9897 11.1418 15.1521 11.077 15.3214 11.077Z" fill="#DD5E8D"/>
</svg>
