<svg width="22" height="20" viewBox="0 0 22 20" fill="none" xmlns="http://www.w3.org/2000/svg">
<path d="M11 10C12.4587 10 13.8576 9.47322 14.8891 8.53553C15.9205 7.59785 16.5 6.32608 16.5 5C16.5 3.67392 15.9205 2.40215 14.8891 1.46447C13.8576 0.526784 12.4587 0 11 0C9.54131 0 8.14236 0.526784 7.11091 1.46447C6.07946 2.40215 5.5 3.67392 5.5 5C5.5 6.32608 6.07946 7.59785 7.11091 8.53553C8.14236 9.47322 9.54131 10 11 10ZM14.6667 5C14.6667 5.88406 14.2804 6.7319 13.5927 7.35702C12.9051 7.98214 11.9725 8.33333 11 8.33333C10.0275 8.33333 9.09491 7.98214 8.40728 7.35702C7.71964 6.7319 7.33333 5.88406 7.33333 5C7.33333 4.11595 7.71964 3.2681 8.40728 2.64298C9.09491 2.01786 10.0275 1.66667 11 1.66667C11.9725 1.66667 12.9051 2.01786 13.5927 2.64298C14.2804 3.2681 14.6667 4.11595 14.6667 5ZM22 18.3333C22 20 20.1667 20 20.1667 20H1.83333C1.83333 20 0 20 0 18.3333C0 16.6667 1.83333 11.6667 11 11.6667C20.1667 11.6667 22 16.6667 22 18.3333ZM20.1667 18.3267C20.1648 17.9167 19.8843 16.6833 18.6413 15.5533C17.446 14.4667 15.1965 13.3333 11 13.3333C6.80167 13.3333 4.554 14.4667 3.35867 15.5533C2.11567 16.6833 1.837 17.9167 1.83333 18.3267H20.1667Z" fill="#DD5E8D"/>
</svg>
