<svg width="22" height="20" viewBox="0 0 22 20" fill="none" xmlns="http://www.w3.org/2000/svg">
<path d="M21.2667 18.4H19.8V11.2001L20.0145 11.4341C20.1523 11.5842 20.3392 11.6684 20.534 11.6683C20.7288 11.6681 20.9155 11.5835 21.0531 11.4331C21.1907 11.2827 21.2679 11.0789 21.2677 10.8664C21.2676 10.6539 21.19 10.4502 21.0522 10.3001L12.0367 0.468252C11.7617 0.168425 11.3888 0 11 0C10.6112 0 10.2383 0.168425 9.96325 0.468252L0.947833 10.3001C0.810352 10.4502 0.733164 10.6538 0.73325 10.866C0.733336 11.0782 0.810688 11.2816 0.948292 11.4316C1.08589 11.5816 1.27248 11.6658 1.46699 11.6657C1.66151 11.6656 1.84802 11.5812 1.9855 11.4311L2.2 11.2001V18.4H0.733333C0.538841 18.4 0.352315 18.4843 0.214788 18.6343C0.0772617 18.7844 0 18.9878 0 19.2C0 19.4122 0.0772617 19.6157 0.214788 19.7657C0.352315 19.9157 0.538841 20 0.733333 20H21.2667C21.4612 20 21.6477 19.9157 21.7852 19.7657C21.9227 19.6157 22 19.4122 22 19.2C22 18.9878 21.9227 18.7844 21.7852 18.6343C21.6477 18.4843 21.4612 18.4 21.2667 18.4ZM3.66667 9.60013L11 1.60024L18.3333 9.60013V18.4H13.9333V12.8001C13.9333 12.5879 13.8561 12.3844 13.7185 12.2344C13.581 12.0844 13.3945 12.0001 13.2 12.0001H8.8C8.60551 12.0001 8.41898 12.0844 8.28146 12.2344C8.14393 12.3844 8.06667 12.5879 8.06667 12.8001V18.4H3.66667V9.60013ZM12.4667 18.4H9.53333V13.6001H12.4667V18.4Z" fill="#DD5E8D"/>
</svg>
