<svg width="75" height="74" viewBox="0 0 75 74" fill="none" xmlns="http://www.w3.org/2000/svg">
<path d="M55.1606 7.97383C54.0827 8.90594 53.2599 10.0973 52.7703 11.435C52.2807 12.7726 52.1405 14.2123 52.3629 15.6176C52.4167 16.0287 52.3061 16.4097 52.0039 16.7084L51.949 16.7633C51.8353 16.8796 51.6996 16.9721 51.5497 17.0352C51.3999 17.0984 51.239 17.1309 51.0766 17.1309C50.9141 17.1309 50.7534 17.0984 50.6039 17.0352C50.4544 16.9721 50.3191 16.8796 50.206 16.7633L34.3038 0.820606C34.0477 0.560659 33.7425 0.354268 33.4058 0.213402C33.069 0.0725366 32.7075 0 32.3422 0C31.9769 0 31.6151 0.0725366 31.2776 0.213402C30.9402 0.354268 30.634 0.560659 30.3766 0.820606L21.8271 9.36337C21.4763 9.71286 21.1977 10.1279 21.0072 10.5848C20.8166 11.0416 20.7179 11.5314 20.7167 12.026C20.7155 12.5205 20.8118 13.0103 21.0001 13.4671C21.1883 13.924 21.4649 14.3391 21.814 14.6885L21.8961 14.7434C22.6287 15.4833 23.6636 15.8917 24.7271 15.8369C25.9952 15.7765 27.2598 16.0057 28.4247 16.5072C29.5897 17.0087 30.6245 17.7692 31.4506 18.7311C32.7606 20.2578 33.4783 22.2051 33.4733 24.2193C33.4683 26.2335 32.741 28.1809 31.4236 29.7076C30.6692 30.5793 29.7439 31.2868 28.7051 31.7859C27.6664 32.2851 26.5365 32.5653 25.3859 32.609C24.2353 32.6527 23.0886 32.459 22.0172 32.04C20.9458 31.621 19.9728 30.9856 19.1586 30.1735C18.3282 29.3227 17.6849 28.3075 17.27 27.1928C16.8551 26.078 16.6778 24.8884 16.7493 23.7C16.8341 22.6338 16.4256 21.5704 15.6656 20.8332C15.3183 20.4825 14.9048 20.2042 14.449 20.0143C13.9933 19.8243 13.5042 19.7265 13.01 19.7265C12.5159 19.7265 12.0263 19.8243 11.5696 20.0143C11.1129 20.2042 10.6981 20.4825 10.349 20.8332L1.74729 29.4335C1.4869 29.6909 1.27995 29.9972 1.13839 30.3347C0.996844 30.6722 0.923499 31.0343 0.922597 31.4C0.921696 31.7656 0.993256 32.1277 1.13314 32.4652C1.27303 32.8027 1.47847 33.109 1.7376 33.3664L17.6972 49.394C17.8134 49.5079 17.9056 49.6439 17.9685 49.794C18.0313 49.9441 18.0635 50.1054 18.0631 50.2683C18.0627 50.4312 18.0297 50.5925 17.9661 50.7426C17.9026 50.8927 17.8096 51.0287 17.6929 51.1426C17.5533 51.2851 17.38 51.3901 17.1891 51.4476C16.9982 51.5051 16.796 51.5133 16.6013 51.4715C15.1904 51.2301 13.7403 51.3543 12.3891 51.8321C11.038 52.31 9.83089 53.1256 8.88281 54.2012C7.55682 55.7278 6.82192 57.6784 6.81191 59.6981C6.8019 61.7177 7.51745 63.672 8.82828 65.2051C9.57796 66.0786 10.5005 66.7871 11.538 67.2862C12.5756 67.7853 13.7056 68.0642 14.8572 68.1054C16.0087 68.1466 17.157 67.9491 18.2297 67.5255C19.3025 67.1018 20.2767 66.4611 21.091 65.6436C22.0263 64.7076 22.7277 63.5642 23.138 62.3068C23.5483 61.0494 23.6559 59.7135 23.4519 58.4082C23.4204 58.2103 23.4365 58.0076 23.4989 57.8169C23.5613 57.6263 23.6683 57.4531 23.8109 57.3119L23.8658 57.2571C23.9795 57.1407 24.1152 57.0483 24.2651 56.9851C24.4149 56.922 24.5758 56.8894 24.7382 56.8894C24.9007 56.8894 25.0614 56.922 25.2109 56.9851C25.3604 57.0483 25.4957 57.1407 25.6088 57.2571L41.459 73.1806C41.715 73.4401 42.0201 73.6461 42.3565 73.7867C42.693 73.9274 43.0542 73.9998 43.4192 73.9998C43.7842 73.9998 44.1457 73.9274 44.4829 73.7867C44.82 73.6461 45.1261 73.4401 45.3834 73.1806L53.9329 64.6296C54.2833 64.2801 54.5616 63.8653 54.7519 63.4086C54.9422 62.952 55.0407 62.4626 55.042 61.9683C55.0432 61.4741 54.947 60.9847 54.759 60.5281C54.5709 60.0715 54.2947 59.6566 53.9461 59.3071L53.8914 59.2523C53.5222 58.8827 53.0796 58.5945 52.5921 58.4062C52.1046 58.2179 51.5829 58.1336 51.0604 58.1588C49.7922 58.2192 48.5277 57.9899 47.3627 57.4885C46.1978 56.987 45.163 56.2265 44.3368 55.2646C43.0269 53.7379 42.3092 51.7905 42.3142 49.7763C42.3191 47.7622 43.0464 45.8148 44.3639 44.2881C45.1182 43.4164 46.0436 42.7089 47.0824 42.2097C48.1211 41.7106 49.251 41.4304 50.4016 41.3867C51.5522 41.343 52.6989 41.5367 53.7702 41.9557C54.8416 42.3747 55.8147 43.01 56.6288 43.8222C58.3948 45.5981 59.2084 47.9469 59.0383 50.2683C58.9808 51.3344 59.362 52.3704 60.1219 53.1351C60.4693 53.4858 60.8827 53.7641 61.3385 53.954C61.7943 54.1439 62.2833 54.2417 62.7775 54.2417C63.2717 54.2417 63.7612 54.1439 64.2179 53.954C64.6746 53.7641 65.0894 53.4858 65.4385 53.1351L74.0704 44.5073C74.3308 44.25 74.5378 43.9437 74.6793 43.6062C74.8209 43.2686 74.8942 42.9066 74.8951 42.5409C74.896 42.1752 74.8245 41.8132 74.6846 41.4756C74.5447 41.1381 74.3393 40.8318 74.0801 40.5744L58.1479 24.5742C58.0317 24.4604 57.9394 24.3244 57.8766 24.1743C57.8138 24.0241 57.7816 23.8629 57.782 23.7C57.7824 23.5371 57.8154 23.3758 57.879 23.2257C57.9425 23.0755 58.0354 22.9395 58.1522 22.8257C58.4544 22.5242 58.863 22.4146 59.2438 22.4968C60.5615 22.7253 61.9156 22.634 63.1922 22.2305C64.4689 21.827 65.6308 21.1232 66.5803 20.1782C67.3973 19.361 68.0374 18.3846 68.4607 17.3099C68.884 16.2352 69.0813 15.0853 69.0404 13.932C68.9996 12.7787 68.7213 11.6468 68.2231 10.6071C67.7249 9.5673 67.0173 8.64197 66.1447 7.88887C62.9914 5.26876 58.2777 5.26876 55.1633 7.97109" fill="#EDA4BF"/>
</svg>
