<svg width="48" height="42" viewBox="0 0 48 42" fill="none" xmlns="http://www.w3.org/2000/svg">
<rect x="1" y="1" width="46" height="40" rx="4" fill="#FBFBFB" stroke="#DD5E8D" stroke-width="2"/>
<path d="M23.0169 29.0338C27.9969 29.0338 32.0338 24.9969 32.0338 20.0169C32.0338 15.0369 27.9969 11 23.0169 11C18.0369 11 14 15.0369 14 20.0169C14 24.9969 18.0369 29.0338 23.0169 29.0338Z" stroke="#DD5E8D" stroke-width="2" stroke-linejoin="round"/>
<path d="M26.0174 16.486C25.6237 16.0915 25.156 15.7786 24.641 15.5654C24.1261 15.3521 23.5742 15.2426 23.0169 15.2432C22.4595 15.2426 21.9076 15.3521 21.3927 15.5654C20.8778 15.7786 20.41 16.0915 20.0164 16.486M29.4995 26.4995L34 31" stroke="#DD5E8D" stroke-width="2" stroke-linecap="round" stroke-linejoin="round"/>
</svg>
