<svg width="330" height="464" viewBox="0 0 330 464" fill="none" xmlns="http://www.w3.org/2000/svg">
<rect width="330" height="464" rx="30" fill="#FFF2C3"/>
<path d="M292.962 174.317C297.298 114.012 258.001 56.4844 202.759 43.8038C169.887 36.2578 119.862 31.4077 71.8969 79.0774C6.37088 144.196 37.4213 256.967 109.764 284.749C212.491 324.199 288.115 241.726 292.962 174.317Z" fill="#E3C327"/>
<path d="M292 147.19C291.625 144.544 291.161 141.925 290.629 139.324C280.577 147.38 264.43 158.742 242.816 168.885C225.55 176.986 199.65 183.864 173.784 185.747C166.078 152.244 181.402 126.58 203.835 109.347C223.648 94.1287 248.548 85.4492 264.848 84.0222C263.354 82.1481 261.823 80.3056 260.229 78.5309C243.718 81.9087 209.082 91.7217 186.878 117.3C169.49 137.328 164.96 162.942 170.33 185.977C154.094 186.876 138.035 185.715 124.279 181.597C124.254 180.603 124.195 179.646 124.178 178.639C123.187 111.167 164.593 64.7485 199.473 43.0768C196.483 42.431 193.361 41.8258 190.13 41.2839C177.323 50.6273 163.277 63.9987 153.84 76.169C130.716 105.996 120.023 143.022 120.567 180.391C119.964 180.179 119.348 179.976 118.753 179.754C109.849 176.386 101.969 172.949 94.9708 169.481C98.8263 161.872 101.931 153.341 103.859 143.79C110.751 109.618 106.162 78.8606 100.476 56.5837C99.2776 57.3018 98.0796 58.0514 96.8817 58.8236C102.699 83.1417 110.013 130.576 90.8665 167.385C70.0621 156.489 52.2612 141.121 41.5216 129.407C40.9015 131.439 40.3236 133.48 39.809 135.535C49.3253 144.535 66.6369 159.419 88.5043 171.648C75.3307 193.939 57.7913 204.501 42.7786 209.428C43.7193 212.323 44.7443 215.186 45.8663 217.999C59.2255 210.86 79.3591 197.05 92.6002 173.884C101.37 178.526 110.814 182.658 120.723 185.81C121.731 208.895 127 231.98 136.276 253.458C140.844 264.039 154.317 285.182 161.096 294.982C164.217 295.013 167.297 294.923 170.338 294.733C153.596 279.113 127.561 245.682 124.465 186.957C131.661 189.035 139.081 190.574 146.669 191.36C154.655 192.187 163.163 192.322 171.932 191.866C179.829 217.047 199.811 238.113 227.896 243.604C237.956 245.569 249.687 246.3 263.308 245.284C264.51 243.803 265.687 242.304 266.822 240.782C235.425 244.079 192.893 238.732 175.729 191.636C219.029 188.556 267.771 171.134 292 147.19Z" fill="#FBFBFB"/>
<path opacity="0.5" d="M258.828 190.701C241.525 199.281 223.142 203.128 204.253 205.039C185.693 206.913 159.616 209.862 141.823 203.309C110.039 191.604 76.4573 158.958 61.993 99.7598C53.7716 111.375 48.1065 123.978 44.7573 136.962C30.1031 193.789 59.6223 257.843 111.41 277.18C128.687 283.629 145.168 286.537 160.636 286.627C162.125 286.636 163.606 286.613 165.074 286.573C165.103 286.573 165.129 286.573 165.154 286.568C166.614 286.523 168.065 286.455 169.503 286.361C237.383 281.926 283.72 222.736 287.563 172.556C287.66 171.273 287.736 169.991 287.791 168.713C279.127 177.388 269.783 185.263 258.828 190.701Z" fill="#F3DF7C"/>
<path opacity="0.45" d="M253.825 108.611C257.744 131.909 237.964 150.776 212.634 150.857C190.075 150.929 170.81 135.756 167.452 116.907C164.082 97.9763 177.475 79.4567 199.494 75.2117C224.238 70.4339 249.885 85.1873 253.825 108.611Z" fill="#FFF2C3"/>
<path d="M278.73 284.971C278.73 284.971 146.393 202.584 69.5653 325.796C69.5653 325.796 68.9392 328.893 88.4599 340.364C107.981 351.832 154.314 378.308 198.297 365.65C213.852 361.172 228.641 353.9 240.81 343.269C250.66 334.666 257.827 323.721 264.749 312.816C265.893 311.012 272.064 300.688 276.262 293.481C278.607 289.454 280.222 285.841 278.73 284.971Z" fill="#FBFBFB"/>
<path d="M240.598 267.847C234.873 265.928 228.661 264.117 222.072 262.582C230.514 275.419 240.626 286.535 238.93 344.856C239.561 344.333 240.19 343.81 240.805 343.271C244.145 340.356 247.17 337.166 249.986 333.805C251.917 303.719 248.182 287.358 240.598 267.847Z" fill="#E3C327"/>
<path d="M116.821 355.273C121.754 357.474 127.031 359.605 132.565 361.502C139.494 313.5 129.315 291.398 116.56 276.805C111.455 280.015 106.414 283.708 101.472 287.932C120.523 305.291 118.142 336.165 116.821 355.273Z" fill="#E3C327"/>
<path d="M74.5042 331.194C76.1343 330.839 77.7568 330.46 79.369 330.027C88.7997 327.486 97.5968 323.348 106.913 320.473C126.681 314.37 145.596 307.596 165.444 301.667C185.483 295.679 206.984 292.145 227.769 291.247C238.311 290.792 257.873 291.556 278.301 289.604C278.955 288.155 279.351 286.908 279.295 286.05C274.368 286.176 269.412 285.891 264.419 285.851C254.002 285.768 243.565 285.735 233.148 285.927C212.079 286.309 191.84 288.95 171.451 294.223C151.774 299.312 132.788 305.787 113.816 312.979C104.424 316.538 95.0443 319.955 85.2635 322.362C80.3987 323.559 75.3857 324.842 70.3752 325.283C70.1964 325.298 70.0226 325.33 69.8463 325.35C69.7518 325.501 69.6572 325.647 69.5627 325.798C69.5627 325.798 69.3021 327.111 74.5042 331.194Z" fill="#E3C327"/>
<path opacity="0.45" d="M273.816 285.947C273.816 285.947 271.828 284.712 268.218 282.785C260.721 295.793 247.867 305.432 235.212 313.487C226.609 318.963 218.31 324.022 208.095 325.939C198.036 327.826 163.775 328.256 148.296 318.234C140.294 313.052 132.692 307.203 125.804 300.63C120.341 295.415 115.446 289.791 111.125 283.793C98.1098 293.564 85.6871 306.911 74.5011 324.847C74.5011 324.847 73.9032 327.798 92.504 338.728C111.105 349.658 155.256 374.884 197.167 362.822C211.989 358.556 226.082 351.625 237.68 341.495C247.067 333.297 253.894 322.868 260.489 312.476C261.58 310.755 267.462 300.919 271.46 294.052C273.701 290.216 275.239 286.774 273.816 285.947Z" fill="#F3DF7C"/>
<path d="M222.91 284.453L223.85 297.111C223.85 297.111 173.677 297.783 139.965 313.502L135.731 300.816C135.731 300.816 179.947 286.148 222.91 284.453Z" fill="#E3C327"/>
<path d="M222.91 284.453L223.85 297.111C223.85 297.111 173.677 297.783 139.965 313.502L135.731 300.816C135.731 300.816 179.947 286.148 222.91 284.453Z" fill="#E3C327"/>
<path d="M183.293 289.069C181.63 289.37 180 289.682 178.387 289.999C178.423 290.06 178.456 290.123 178.5 290.181C181.464 294.256 181.568 300.366 181.579 301.385C182.419 301.234 183.267 301.075 184.098 300.94C184.788 297.438 184.775 292.575 183.293 289.069Z" fill="#E3C327"/>
<path d="M216.052 284.837C214.626 284.938 213.205 285.061 211.785 285.187C213.834 288.87 214.434 293.315 213.841 297.566C215.111 297.483 216.289 297.415 217.347 297.36C217.781 295.893 218.068 294.434 217.991 293.023C217.843 290.168 216.951 287.524 216.052 284.837Z" fill="#E3C327"/>
<path d="M200.959 289.064C200.576 288.183 200.193 287.328 199.835 286.478C198.399 286.664 196.983 286.87 195.565 287.079C196.861 288.525 197.561 290.583 197.916 292.437C198.353 294.719 198.304 296.824 198.085 298.992C199.27 298.854 200.44 298.721 201.565 298.605C202.155 295.393 202.275 292.095 200.959 289.064Z" fill="#E3C327"/>
<path d="M165.096 304.872C166.039 304.633 166.979 304.391 167.924 304.167C167.459 300.185 166.414 296.523 164.981 292.86C163.783 293.137 162.612 293.413 161.465 293.69C163.943 296.578 164.57 301.204 165.096 304.872Z" fill="#E3C327"/>
<path d="M145.821 304.622C146.511 306.605 147.127 308.453 147.441 310.375C148.241 310.071 149.04 309.762 149.853 309.47C148.302 305.694 146.69 301.822 145.279 297.931C144.283 298.215 143.358 298.482 142.502 298.733C144.04 300.381 145.042 302.391 145.821 304.622Z" fill="#E3C327"/>
<path d="M141.651 295.483C141.651 295.483 148.708 303.898 148.943 313.004L152.707 311.923C152.707 311.923 151.766 298.801 146.278 294.092L141.651 295.483Z" fill="#FFF2C3"/>
<path d="M160.366 290.158C160.366 290.158 167.13 297.743 166.304 308.393L170.186 307.005C170.186 307.005 170.127 291.954 165.012 288.538L160.366 290.158Z" fill="#FFF2C3"/>
<path d="M178.221 286.163C178.221 286.163 184.062 296.409 182.887 304.051L187.159 303.085C187.159 303.085 188.061 291.373 182.925 285.449L178.221 286.163Z" fill="#FFF2C3"/>
<path d="M194.883 283.5C194.883 283.5 201.82 291.778 199.293 301.446L203.879 301.098C203.879 301.098 205.231 288.845 199.784 283.165L194.883 283.5Z" fill="#FFF2C3"/>
<path d="M212.247 282.445C212.247 282.445 216.246 289.043 214.874 300.044L218.637 299.543C218.637 299.543 220.988 288.311 216.815 282.448H212.247V282.445Z" fill="#FFF2C3"/>
<path opacity="0.55" d="M165.196 274.015C164.917 278.332 158.167 281.758 151.37 281.758C145.657 281.758 141.651 279.265 141.651 276.141C141.651 272.961 145.793 269.583 151.733 268.494C158.841 267.191 165.482 269.591 165.196 274.015Z" fill="#F3DF7C"/>
<path opacity="0.55" d="M186.326 270.27C185.708 272.187 182.274 272.984 179.213 272.232C176.638 271.601 175.115 270.034 175.472 268.627C175.835 267.194 178.086 266.129 180.889 266.293C184.239 266.492 186.96 268.308 186.326 270.27Z" fill="#F3DF7C"/>
</svg>
