<svg width="330" height="464" viewBox="0 0 330 464" fill="none" xmlns="http://www.w3.org/2000/svg">
<rect width="330" height="464" rx="30" fill="#E8FFC3"/>
<path d="M235.787 229.118C235.787 229.118 251.393 223.543 251.393 279.682C251.393 279.682 266.378 289.723 285.107 279.682C285.107 279.682 296.134 222.613 269.294 204.396C258.876 197.325 247.655 196.897 230.724 197.146L235.787 229.118Z" fill="#BEE288"/>
<path d="M290.139 304.779C292.351 301.671 293.644 298.06 293.644 294.183C293.644 282.68 282.463 273.361 268.674 273.361C254.886 273.361 243.704 282.68 243.704 294.183C243.704 298.06 244.998 301.671 247.209 304.779H258.275C258.275 304.779 253.903 290.277 267.226 290.277C280.542 290.277 276.797 304.779 276.797 304.779H290.139Z" fill="#BEE288"/>
<path d="M94.2124 229.118C94.2124 229.118 78.6068 223.543 78.6068 279.682C78.6068 279.682 63.6221 289.723 44.8928 279.682C44.8928 279.682 33.8661 222.613 60.7054 204.396C71.1177 197.325 82.3449 196.897 99.2762 197.146L94.2124 229.118Z" fill="#BEE288"/>
<path d="M39.8612 304.779C37.6494 301.671 36.356 298.06 36.356 294.183C36.356 282.68 47.5379 273.361 61.3261 273.361C75.1208 273.361 86.2964 282.68 86.2964 294.183C86.2964 298.06 85.0029 301.671 82.791 304.779H71.7255C71.7255 304.779 76.0974 290.277 62.7748 290.277C49.4586 290.277 53.2032 304.779 53.2032 304.779H39.8612Z" fill="#BEE288"/>
<path d="M178.5 167.155H151.506V195.909H178.5V167.155Z" fill="#80C11E"/>
<path d="M243.07 195.904H223.926V233.578H243.07V195.904Z" fill="#80C11E"/>
<path d="M106.074 195.904H86.9307V233.578H106.074V195.904Z" fill="#80C11E"/>
<path d="M151.506 270.761H120.786V347.104H151.506V270.761Z" fill="#BEE288"/>
<path d="M209.214 270.761H178.494V347.104H209.214V270.761Z" fill="#BEE288"/>
<path d="M115.167 358.833H157.34C157.34 358.833 162.85 338.508 135.953 338.508C109.062 338.508 115.167 358.833 115.167 358.833Z" fill="#BEE288"/>
<path d="M214.879 359H172.705C172.705 359 167.195 338.675 194.093 338.675C220.984 338.675 214.879 359 214.879 359Z" fill="#BEE288"/>
<path d="M234.527 149.182H222.873V107.538H234.527C241.195 107.538 246.595 112.362 246.595 118.319V138.395C246.595 144.352 241.188 149.182 234.527 149.182Z" fill="#BEE288"/>
<path d="M95.0987 149.182H106.753V107.538H95.0987C88.4309 107.538 83.0308 112.362 83.0308 118.319V138.395C83.0308 144.352 88.4309 149.182 95.0987 149.182Z" fill="#BEE288"/>
<path d="M201.589 56.6038H191.895V96.0115H201.589V56.6038Z" fill="#BEE288"/>
<path d="M208.961 49.9136C208.961 55.9395 203.489 60.8272 196.744 60.8272C189.999 60.8272 184.527 55.9452 184.527 49.9136C184.527 43.8877 189.999 39 196.744 39C203.489 39 208.961 43.8877 208.961 49.9136Z" fill="#80C11E"/>
<path d="M138.099 56.6038H128.411V96.0115H138.099V56.6038Z" fill="#BEE288"/>
<path d="M121.039 49.9136C121.039 55.9395 126.51 60.8272 133.255 60.8272C140.001 60.8272 145.466 55.9452 145.466 49.9136C145.466 43.8877 140.001 39 133.255 39C126.51 39 121.039 43.8877 121.039 49.9136Z" fill="#80C11E"/>
<path d="M229.67 87.8367H100.331V174.094H229.67V87.8367Z" fill="#80C11E"/>
<path d="M229.67 190.449H100.331V276.706H229.67V190.449Z" fill="#80C11E"/>
<path d="M212.046 206.066H117.947V233.578H212.046V206.066Z" fill="#BEE288"/>
<path d="M140.816 226.899H135.882V221.532H130.456V226.899H125.521V212.75H130.456V217.91H135.882V212.75H140.816V226.899Z" fill="#FBFBFB"/>
<path d="M144.127 226.899V212.75H157.405V216.142H149.062V218.094H156.202V221.341H149.062V223.502H157.566V226.893H144.127V226.899Z" fill="#FBFBFB"/>
<path d="M160.251 226.899V212.75H165.186V223.277H173.07V226.893H160.251V226.899Z" fill="#FBFBFB"/>
<path d="M175.145 226.899V212.75H180.08V223.277H187.957V226.893H175.145V226.899Z" fill="#FBFBFB"/>
<path d="M205.599 219.822C205.599 224.652 202.539 227.142 197.295 227.142C192.05 227.142 189.01 224.652 189.01 219.822C189.01 214.992 192.043 212.502 197.295 212.502C202.539 212.502 205.599 214.992 205.599 219.822ZM194.061 219.163V220.481C194.061 222.416 195.134 223.751 197.301 223.751C199.468 223.751 200.561 222.416 200.561 220.481V219.163C200.561 217.234 199.468 215.893 197.301 215.893C195.134 215.893 194.061 217.234 194.061 219.163Z" fill="#FBFBFB"/>
<path d="M143.661 112.003C143.661 117.14 139.005 121.299 133.256 121.299C127.513 121.299 122.85 117.14 122.85 112.003C122.85 106.873 127.506 102.708 133.256 102.708C139.005 102.708 143.661 106.867 143.661 112.003Z" fill="#BEE288"/>
<path d="M207.144 112.003C207.144 117.14 202.487 121.299 196.738 121.299C190.995 121.299 186.332 117.14 186.332 112.003C186.332 106.873 190.989 102.708 196.738 102.708C202.487 102.708 207.144 106.867 207.144 112.003Z" fill="#BEE288"/>
<path d="M176.988 130.965C176.988 136.881 171.62 141.676 164.997 141.676C158.375 141.676 153.007 136.881 153.007 130.965C153.007 125.049 158.375 120.254 164.997 120.254C171.62 120.254 176.988 125.049 176.988 130.965Z" fill="#BEE288"/>
<path d="M186.76 145.091C186.76 145.091 178.204 151.007 165.774 151.036C153.343 151.007 144.787 145.091 144.787 145.091C144.787 161.279 163.652 162.978 165.67 163.111V163.122C165.67 163.122 165.741 163.117 165.774 163.117C165.806 163.117 165.877 163.122 165.877 163.122V163.111C167.895 162.978 186.76 161.279 186.76 145.091Z" fill="#BEE288"/>
</svg>
