<svg width="330" height="464" viewBox="0 0 330 464" fill="none" xmlns="http://www.w3.org/2000/svg">
<rect width="330" height="464" rx="30" fill="#D1FBFA"/>
<path d="M154.996 341.641C154.996 341.641 130.528 346.076 130.528 302.6H122.583H121.831H113.887C113.887 346.076 89.4184 341.641 89.4184 341.641L84.1031 350.321V359H121.847H122.567H160.31V350.321L154.996 341.641Z" fill="#2DC0C2"/>
<path d="M120.122 300.763C171.679 300.763 213.475 255.787 213.475 200.305C213.475 144.823 171.679 99.8462 120.122 99.8462C68.5651 99.8462 26.7699 144.823 26.7699 200.305C26.7699 255.787 68.5651 300.763 120.122 300.763Z" fill="#82D8D9"/>
<path d="M167.039 113.434C167.274 114.592 167.631 115.941 168.148 117.539C168.148 117.539 178.831 141.771 161.816 160.962C144.8 180.154 164.982 211.665 181.997 204.852C199.013 198.039 197.589 218.479 199.487 243.177C199.75 246.586 200.331 248.796 201.134 250.038C208.939 235.356 213.423 218.366 213.423 200.239C213.423 163.191 194.773 130.85 167.039 113.434Z" fill="#FBFBFB"/>
<path d="M66.3145 130.997L69.6502 136.123C70.3173 137.148 71.645 137.36 72.5603 136.591L72.7257 136.451C73.5974 135.717 73.7607 134.367 73.0935 133.417L69.5914 128.431C68.8894 127.431 67.5498 127.272 66.6617 128.083C65.8651 128.811 65.7138 130.074 66.3145 130.997Z" fill="#FBFBFB"/>
<path d="M58.8924 265.449C26.3947 224.789 33.104 163.665 70.7908 128.573C70.5198 128.865 71.0814 128.303 70.7908 128.573C75.2202 123.806 70.5144 118.742 65.887 122.309C63.0715 124.48 60.243 126.703 57.5527 129.191C20.0488 163.869 14.2971 224.855 44.6161 266.889C68.8243 300.452 108.486 312.798 143.864 302.029C146.144 301.335 145.417 297.646 143.08 298.073C112.651 303.633 80.3962 292.354 58.8924 265.449Z" fill="#2DC0C2"/>
<path d="M70.7902 128.575C70.5179 128.868 71.0821 128.302 70.7902 128.575V128.575Z" fill="#142330"/>
<path d="M145.175 300.657C145.501 299.379 144.66 297.785 143.08 298.073C112.651 303.633 80.3962 292.353 58.8924 265.449C26.3946 224.789 33.104 163.665 70.7908 128.573C72.1261 127.136 72.6202 125.676 72.5473 124.428C70.6787 125.91 68.8253 127.441 67.0351 129.095C30.2494 163.113 24.6555 222.995 54.4543 264.302C76.7199 295.168 112.253 307.797 145.175 300.657Z" fill="#D1FBFA"/>
<path d="M66.8221 124.43C66.8221 126.02 65.6239 127.309 64.146 127.309C62.6681 127.309 61.4698 126.02 61.4698 124.43C61.4698 122.839 62.6681 121.55 64.146 121.55C65.6239 121.55 66.8221 122.839 66.8221 124.43Z" fill="#FBFBFB"/>
<path d="M57.326 246.09C57.1584 246.018 56.9919 245.949 56.8254 245.882C55.6032 245.388 54.4464 246.777 55.0286 248.034C56.3389 250.86 57.7537 253.624 59.3971 256.239C59.4047 256.252 59.4134 256.265 59.421 256.278C60.2263 257.556 62.0928 256.869 62.0449 255.325C61.9208 251.308 61.0992 247.691 57.326 246.09Z" fill="#FBFBFB"/>
<path d="M147.838 276.867C146.906 273.28 143 271.831 139.641 270.927C134.103 269.438 128.512 267.939 122.806 267.749C119.633 267.643 116.263 267.898 113.491 266.231C109.007 263.534 108.01 256.838 109.37 251.506C110.73 246.174 113.823 241.562 115.758 236.439C118.592 228.942 118.827 220.343 116.41 212.678C115.607 210.131 114.479 207.621 112.637 205.801C111.149 204.33 109.276 203.388 107.377 202.642C100.267 199.85 92.522 199.545 84.9649 199.998C83.5338 200.083 82.0286 200.182 80.7357 199.514C78.8453 198.54 77.9192 196.181 77.6439 193.945C77.0235 188.919 78.7844 183.396 76.5109 178.955C75.7905 177.548 74.7076 176.381 73.4855 175.459C68.4216 171.642 61.352 172.25 55.8234 175.239C44.1938 181.528 41.5743 191.771 43.2155 205.204C44.0741 212.239 45.7719 225.248 50.5789 230.613C53.6621 234.054 58.5997 233.872 62.4349 235.766C66.7304 237.888 70.5307 241.571 71.9216 246.558C73.6433 252.73 71.6756 259.853 74.2157 265.758C76.9528 272.123 83.7623 273.181 89.5782 273.684C96.2952 274.266 102.978 275.552 109.247 278.286C113.17 279.997 116.523 283.124 120.763 283.981C124.319 284.7 127.957 284.15 131.538 284.575C134.975 284.982 138.343 286.193 141.818 285.371C145.443 284.516 148.839 280.713 147.838 276.867Z" fill="#FBFBFB"/>
<path d="M85.8138 130.501C87.0175 133.448 87.0131 136.771 87.1742 139.985C87.4408 145.331 88.441 151.111 92.1597 154.668C95.084 157.464 99.1335 158.345 102.979 159.12C105.214 159.571 107.46 160.024 109.734 160.092C112.64 160.179 115.651 159.65 118.389 160.703C118.878 160.89 119.375 161.149 119.668 161.609C120.063 162.232 119.992 163.052 120.072 163.801C120.424 167.067 124.001 169.053 127.004 168.447C130.006 167.842 132.392 165.385 134.214 162.745C134.757 161.958 135.277 161.123 135.492 160.171C136.069 157.612 134.256 155.067 132.122 153.779C129.989 152.489 127.511 152.019 125.302 150.886C122.075 149.232 119.514 146.131 118.37 142.487C117.225 138.843 117.512 134.705 119.145 131.285C120.092 129.301 121.498 127.448 121.641 125.223C121.841 122.095 119.516 119.518 117.37 117.397C115.625 115.671 113.864 113.933 111.832 112.619C109.99 111.428 107.965 110.61 105.954 109.799C103.717 108.897 101.481 107.996 99.2435 107.094C97.3901 106.347 95.491 105.591 93.5114 105.551C90.7242 105.496 88.1036 106.859 85.6059 108.191C82.0744 110.074 78.5429 111.957 75.0113 113.84C72.998 114.914 71.1522 117.047 71.5821 119.743C71.9293 121.926 73.7162 121.929 75.4499 122.401C79.7378 123.57 83.9343 125.95 85.8138 130.501Z" fill="#FBFBFB"/>
<path d="M155.775 229.355C153.863 230.348 151.915 231.366 150.383 232.948C148.849 234.529 147.772 236.797 148.064 239.061C148.458 242.123 151.069 244.171 153.24 246.196C160.962 253.397 165.089 264.724 164.308 275.653C164.091 278.678 166.909 280.867 169.51 279.696C170.29 279.344 171.042 278.926 171.753 278.424C174.209 276.686 176.105 273.765 176.065 270.603C176.014 266.647 173.078 263.3 172.776 259.356C172.399 254.458 176.141 250.041 175.889 245.133C175.76 242.61 174.615 239.865 175.851 237.716C176.752 236.149 178.743 235.391 178.141 232.802C177.944 231.956 177.462 231.226 176.854 230.648C170.547 224.658 162.572 225.827 155.775 229.355Z" fill="#FBFBFB"/>
<path d="M278.021 96.4313C262.808 63.3942 235.267 60.3906 222.94 60.1414C210.611 60.3916 183.071 63.3952 167.858 96.4313C152.645 129.468 181.435 136.356 181.435 136.356H222.94H264.444C264.444 136.356 293.234 129.467 278.021 96.4313Z" fill="#82D8D9"/>
<path d="M270.676 113.951C234.742 112.699 222.938 74.9072 222.938 74.9072C222.938 74.9072 211.135 112.699 175.201 113.951C175.201 113.951 172.577 136.726 197.233 150.742C197.233 150.742 202.446 153.62 213.234 158.251C216.906 161.504 215.069 170.514 215.069 170.514C215.069 170.514 216.905 176.521 222.938 176.521C228.972 176.521 230.808 170.514 230.808 170.514C230.808 170.514 228.972 161.504 232.643 158.251C243.357 153.808 248.643 150.742 248.643 150.742C273.3 136.726 270.676 113.951 270.676 113.951Z" fill="#FBFBFB"/>
<path d="M218.397 114.94C218.397 114.94 222.881 110.611 226.976 114.94" stroke="#2DC0C2" stroke-width="0.7712" stroke-miterlimit="10" stroke-linecap="round"/>
<path opacity="0.09" d="M202.934 135.853C211.547 135.853 218.529 127.744 218.529 117.741C218.529 107.738 211.547 99.6284 202.934 99.6284C194.321 99.6284 187.339 107.738 187.339 117.741C187.339 127.744 194.321 135.853 202.934 135.853Z" fill="#FBFBFB"/>
<path d="M222.546 72.6368C232.893 72.6368 241.282 65.107 241.282 55.8184C241.282 46.5299 232.893 39 222.546 39C212.198 39 203.81 46.5299 203.81 55.8184C203.81 65.107 212.198 72.6368 222.546 72.6368Z" fill="#82D8D9"/>
<path d="M221.451 40.1497C221.451 40.1497 202.566 42.8719 205.479 59.7653C206.303 64.9275 211.516 68.3994 220.959 68.2125C220.959 68.2125 199.713 60.0467 221.451 40.1497Z" fill="#2DC0C2"/>
<path d="M233.519 347.962C233.519 347.962 234.176 349.338 242.962 351.466C251.748 353.593 250.962 357.347 246.896 358.098C242.831 358.849 227.529 355.094 225.737 347.962H233.519Z" fill="#FBFBFB"/>
<path d="M242.174 353.718C243.593 353.456 244.61 352.828 244.963 352.031C251.588 354.201 250.622 357.41 246.895 358.098C243.141 358.791 229.809 355.64 226.381 349.535C231.748 352.711 239.462 354.219 242.174 353.718Z" fill="#2DC0C2"/>
<path d="M217.955 347.962C217.955 347.962 217.299 349.338 208.512 351.466C199.726 353.593 200.513 357.347 204.578 358.098C208.643 358.849 223.946 355.094 225.737 347.962H217.955Z" fill="#FBFBFB"/>
<path d="M250.831 265.369C250.831 265.369 248.207 247.6 243.748 233.834C243.748 233.834 234.459 236.26 225.737 236.173C217.015 236.26 207.725 233.834 207.725 233.834C203.266 247.6 200.643 265.369 200.643 265.369C196.446 310.92 217.954 347.961 217.954 347.961C222.151 350.464 225.737 347.961 225.737 347.961C225.737 347.961 229.322 350.464 233.519 347.961C233.519 347.961 255.027 310.92 250.831 265.369Z" fill="#82D8D9"/>
<path d="M215.07 170.514C215.07 170.514 212.968 193.039 204.97 212.06L209.427 234.835C209.427 234.835 233.875 238.59 243.358 233.834C243.358 233.834 235.521 206.479 230.809 170.514C230.809 170.514 228.71 176.27 222.94 176.52C222.94 176.52 217.168 176.77 215.07 170.514Z" fill="#D1FBFA"/>
<path opacity="0.4" d="M188.076 111.755C188.076 111.755 183.909 136.225 205.789 135.073C205.789 135.073 202.467 155.059 224.15 160.377C224.15 160.377 217.516 161.174 207.221 155.622C204.462 154.133 192.778 150.1 185.234 141.267C185.234 141.267 174.571 130.525 175.202 113.951C175.202 113.951 183.433 113.223 188.076 111.755Z" fill="#FBFBFB"/>
<path d="M181.434 136.356C181.434 136.356 177.561 144.047 185.234 150.992C185.234 150.992 182.283 146.178 185.234 141.267L181.434 136.356Z" fill="#2DC0C2"/>
<path d="M264.531 136.356C264.531 136.356 268.403 144.047 260.731 150.992C260.731 150.992 263.682 146.178 260.731 141.267L264.531 136.356Z" fill="#2DC0C2"/>
<path d="M175.202 113.951C175.202 113.951 167.057 114.469 169.024 99.1575C169.024 99.1575 164.059 108.758 166.139 120.583C167.712 129.529 180.874 135.382 180.874 135.382C180.874 135.382 174.427 126.339 175.202 113.951Z" fill="#82D8D9"/>
<path d="M223.028 236.127C223.028 236.127 213.093 237.653 208.183 251.604C201.655 270.15 208.369 330.067 221.549 346.585C221.549 346.585 202.844 322.558 202.861 272.134C202.861 272.134 202.959 243.815 209.427 234.836C209.427 234.836 220.019 236.083 223.028 236.127Z" fill="#2DC0C2"/>
<path d="M227.16 146.315C227.092 146.398 227.025 146.481 226.955 146.563L226.947 146.571C226.313 147.343 225.519 148.028 224.622 148.573C223.8 149.052 222.855 149.307 222.002 149.274L221.833 149.263C220.002 149.055 218.764 147.871 217.828 146.538C217.547 146.127 217.293 145.698 217.064 145.254C217.241 145.478 217.42 145.701 217.605 145.916L218.013 146.377L218.018 146.382C219.106 147.535 220.469 148.665 222.12 148.804L222.121 148.805C223.8 149.009 225.525 147.9 226.903 146.567L226.901 146.566C226.988 146.483 227.075 146.4 227.16 146.315Z" fill="#1F1F1F" stroke="#2DC0C2"/>
<path d="M175.284 117.27C175.284 117.27 168.655 117.603 169.857 124.149C171.059 130.697 179.432 132.626 179.432 132.626C179.432 132.626 175.597 125.594 175.284 117.27Z" fill="#D1FBFA"/>
<path d="M270.681 117.27C270.681 117.27 277.311 117.603 276.109 124.149C274.907 130.697 266.534 132.626 266.534 132.626C266.534 132.626 270.369 125.594 270.681 117.27Z" fill="#D1FBFA"/>
<path d="M175.121 108.695C175.121 108.695 201.101 105.428 218.693 74.9072C218.693 74.9072 212.299 107.443 175.121 108.695Z" fill="#82D8D9"/>
<path d="M202.934 226.306C202.934 226.306 201.946 243.344 198.016 250.602C198.016 250.602 204.118 256.108 206.413 247.098C208.313 239.638 209.425 234.834 209.425 234.834L209.967 230.202L202.934 226.306Z" fill="#2DC0C2"/>
<path d="M230.807 170.514C230.807 170.514 254.835 174.018 258.165 198.294C261.496 222.571 251.004 237.588 251.004 237.588C251.004 237.588 251.529 246.347 253.89 251.103C253.89 251.103 248.29 254.857 245.844 251.103C245.844 251.103 230.283 207.555 230.807 170.514Z" fill="#2DC0C2"/>
<path d="M246.27 191.161C245.797 193.078 245.478 195.023 245.273 196.976C245.039 198.926 244.935 200.888 244.903 202.847C244.857 206.764 245.078 210.69 245.732 214.558C246.342 218.428 247.209 222.291 248.031 226.139C248.449 228.064 248.894 229.984 249.384 231.894C249.857 233.808 250.369 235.713 251.005 237.587C249.455 233.928 248.43 230.091 247.44 226.265C246.935 224.353 246.528 222.419 246.101 220.491C245.68 218.562 245.288 216.626 244.953 214.669C244.358 210.751 244.124 206.782 244.3 202.83C244.501 198.885 245.026 194.927 246.27 191.161Z" fill="#283F55"/>
<path d="M233.108 183.553L232.053 183.654L247.202 235.626L248.166 235.151L262.926 192.796L233.108 183.553Z" fill="#2DC0C2"/>
<path d="M224.15 186.092L208.183 226.009L240.755 237.588L255.924 195.69L224.15 186.092Z" fill="#82D8D9"/>
<path d="M261.832 193.101L232.053 183.655L224.149 186.093L255.924 195.691L240.755 237.589L247.202 235.626L261.832 193.101Z" fill="#FBFBFB"/>
<path d="M215.071 170.514C215.071 170.514 195.137 174.518 190.152 193.039C185.169 211.559 198.021 233.834 230.808 233.834L231.937 223.072C231.937 223.072 221.653 226.329 211.48 217.954C211.48 217.954 217.221 192.757 215.071 170.514Z" fill="#2DC0C2"/>
<path d="M231.938 223.072C231.938 223.072 233.431 224.003 237.103 220.409C240.775 216.814 244.104 218.372 243.358 220.409C242.611 222.446 241.562 223.822 241.562 223.822C241.562 223.822 246.722 219.41 249.037 217.69C251.352 215.971 254.152 218.942 253.102 220.756C252.053 222.571 251.374 223.072 251.374 223.072C251.374 223.072 253.575 220.308 255.332 221.445C257.089 222.583 253.487 235.107 230.807 233.833L231.938 223.072Z" fill="#FBFBFB"/>
<path d="M209.299 353.718C207.881 353.456 206.864 352.828 206.511 352.031C199.885 354.201 200.853 357.41 204.578 358.098C208.333 358.791 221.664 355.64 225.093 349.535C219.725 352.711 212.012 354.219 209.299 353.718Z" fill="#2DC0C2"/>
<path d="M242.57 135.382C251.183 135.382 258.166 127.273 258.166 117.27C258.166 107.267 251.183 99.1575 242.57 99.1575C233.957 99.1575 226.975 107.267 226.975 117.27C226.975 127.273 233.957 135.382 242.57 135.382Z" stroke="#2DC0C2" stroke-width="0.7622" stroke-miterlimit="10"/>
<path d="M202.934 135.382C211.547 135.382 218.529 127.273 218.529 117.27C218.529 107.267 211.547 99.1575 202.934 99.1575C194.321 99.1575 187.339 107.267 187.339 117.27C187.339 127.273 194.321 135.382 202.934 135.382Z" stroke="#2DC0C2" stroke-width="0.7622" stroke-miterlimit="10"/>
<path d="M207.68 128.845C207.68 129.56 207.202 130.138 206.613 130.138C206.023 130.138 205.545 129.559 205.545 128.845C205.545 128.131 206.023 127.552 206.613 127.552C207.202 127.552 207.68 128.131 207.68 128.845Z" fill="#FBFBFB"/>
<path d="M211.48 217.953C209.211 216.472 207.222 214.605 205.513 212.528C203.807 210.449 202.459 208.073 201.651 205.517C200.875 202.956 200.744 200.197 201.362 197.599C201.982 194.998 203.287 192.6 204.97 190.536C204.289 191.674 203.599 192.801 203.118 194.017C202.566 195.201 202.21 196.456 201.956 197.715C201.483 200.24 201.605 202.86 202.407 205.309C203.122 207.783 204.431 210.08 205.997 212.187C206.778 213.245 207.637 214.255 208.56 215.211C209.468 216.181 210.444 217.096 211.48 217.953Z" fill="#283F55"/>
<path d="M225.737 347.962L225.545 336.063L225.436 324.164L225.344 300.367L225.434 276.57L225.544 264.671L225.737 252.772L225.93 264.671L226.04 276.57L226.13 300.367L226.038 324.164L225.928 336.063L225.737 347.962Z" fill="#2DC0C2"/>
<path d="M213.234 158.25C213.234 158.25 217.997 160.565 224.15 160.377C224.15 160.377 218.328 161.222 215.07 170.513C215.07 170.513 216.722 161.191 213.234 158.25Z" fill="#FBFBFB"/>
<path d="M232.053 226.306L231.253 233.208C231.253 233.208 243.384 233.896 249.548 229.516C249.548 229.516 232.788 235.798 232.053 226.306Z" fill="#FBFBFB"/>
<path d="M251.997 222.41C251.242 223.376 250.323 224.199 249.381 224.991C248.411 225.75 247.399 226.477 246.27 227.014L249.127 224.705C250.091 223.953 251.012 223.156 251.997 222.41Z" fill="#1F1F1F"/>
<path d="M214.139 171.89C214.139 171.89 197.221 176.27 191.975 191.913C191.975 191.913 201.68 177.021 214.139 173.767V171.89Z" fill="#D1FBFA"/>
</svg>
