<svg width="330" height="464" viewBox="0 0 330 464" fill="none" xmlns="http://www.w3.org/2000/svg">
<rect width="330" height="464" rx="30" fill="#FCDFD9"/>
<path d="M248.811 46.426C235.667 34.989 216.502 37.0064 206.001 50.9333C195.5 64.8602 197.644 85.4229 210.792 96.8599C223.936 108.297 243.101 106.28 253.602 92.3526C264.099 78.4257 261.955 57.867 248.811 46.426Z" fill="#FC795B"/>
<path d="M81.219 46.4099C68.0715 57.8469 65.9277 78.4057 76.4213 92.3365C86.9186 106.267 106.084 108.289 119.231 96.8518C132.378 85.4148 134.526 64.856 124.029 50.9251C113.531 36.9982 94.3628 34.9769 81.219 46.4099Z" fill="#FC795B"/>
<path d="M242.157 55.2539C233.615 47.8198 221.155 49.1303 214.332 58.1846C207.509 67.2349 208.902 80.6019 217.444 88.0359C225.986 95.47 238.446 94.1595 245.27 85.1052C252.093 76.0549 250.699 62.6879 242.157 55.2539Z" fill="#FCDFD9"/>
<path d="M87.8727 55.238C79.327 62.6721 77.9335 76.039 84.7531 85.0894C91.5763 94.1436 104.036 95.4581 112.578 88.0241C121.124 80.59 122.521 67.227 115.694 58.1727C108.875 49.1224 96.4147 47.804 87.8727 55.238Z" fill="#FCDFD9"/>
<path d="M54.9322 203.386C41.2709 216.166 29.2138 235.223 41.3818 253.403C45.869 260.107 57.5601 265.11 70.9072 258.884C98.311 246.096 133.507 209.236 133.507 209.236L128.117 168.341C128.117 168.341 80.9351 179.059 54.9322 203.386Z" fill="#FC795B"/>
<g opacity="0.32">
<path d="M102.11 176.43C91.8714 189.785 85.0408 212.119 87.6355 248.999C110.778 233.015 133.502 209.236 133.502 209.236L128.113 168.341C128.113 168.341 116.751 170.926 102.11 176.43Z" fill="#FC795B"/>
</g>
<path d="M275.076 203.406C249.073 179.075 201.898 168.349 201.898 168.349L196.498 209.24C196.498 209.24 231.689 246.104 259.09 258.899C272.433 265.13 284.128 260.13 288.615 253.427C300.787 235.247 288.733 216.185 275.076 203.406Z" fill="#FC795B"/>
<g opacity="0.32">
<path d="M201.897 168.349L196.501 209.244C196.501 209.244 218.9 232.682 241.872 248.666C244.433 211.781 237.533 189.499 227.242 176.196C212.919 170.862 201.897 168.349 201.897 168.349Z" fill="#FC795B"/>
</g>
<path d="M165.013 53.9592C119.79 53.9553 83.1235 82.508 83.1235 117.736C83.1198 152.961 119.779 181.521 165.002 181.525C210.226 181.529 246.892 152.977 246.892 117.748C246.896 82.5239 210.237 53.9632 165.013 53.9592Z" fill="#FC795B"/>
<g opacity="0.32">
<path d="M245.987 113.789C230.973 127.529 215.981 139.467 196.091 143.827C168.983 149.772 141.129 147.242 116.704 132.068C103.678 123.975 93.7281 113.729 85.8626 101.641C84.1401 106.792 83.1274 112.165 83.1274 117.736C83.1237 152.961 119.783 181.521 165.01 181.525C210.233 181.529 246.896 152.977 246.9 117.748C246.9 116.192 246.741 114.667 246.6 113.138C246.382 113.344 246.201 113.59 245.987 113.789Z" fill="#FC795B"/>
</g>
<path d="M186.252 79.0687C177.289 79.0687 169.445 84.1359 165.013 91.7327C160.578 84.1359 152.738 79.0687 143.775 79.0647C129.925 79.0647 118.696 91.1252 118.696 106.005C118.696 120.885 129.921 132.95 143.771 132.95C152.735 132.95 160.578 127.882 165.013 120.285C169.445 127.882 177.289 132.954 186.252 132.954C200.102 132.954 211.331 120.893 211.331 106.013C211.327 91.1331 200.102 79.0726 186.252 79.0687Z" fill="#FCDFD9"/>
<path d="M232.04 264.558C243.82 146.892 165.002 166.474 165.002 166.474C165.002 166.474 86.1872 146.876 97.9523 264.546L62.6349 295.335C62.6349 295.335 60.0734 348.12 113.809 336.027L135.306 298.091L164.991 299.195L194.675 298.099L216.169 336.039C269.904 348.139 267.35 295.355 267.35 295.355L232.04 264.558Z" fill="#FC795B"/>
<path d="M232.04 264.558C243.82 146.892 165.002 166.474 165.002 166.474C165.002 166.474 86.1872 146.876 97.9523 264.546L62.6349 295.335C62.6349 295.335 60.0734 348.12 113.809 336.027L135.306 298.091L164.991 299.195L194.675 298.099L216.169 336.039C269.904 348.139 267.35 295.355 267.35 295.355L232.04 264.558Z" fill="#FC795B"/>
<g opacity="0.32">
<path d="M267.354 295.351L232.044 264.554C233.393 251.08 233.508 239.484 232.735 229.374C231.804 234.564 230.199 239.822 227.849 245.171C218.475 266.492 201.18 284.835 178.6 288.902C153.059 293.5 137.642 284.112 116.781 268.859C102.325 258.292 96.9986 240.366 98.052 221.88C96.4959 233.595 96.2668 247.605 97.9596 264.538L62.6422 295.327C62.6422 295.327 60.0806 348.112 113.816 336.02L135.314 298.079L164.998 299.183L194.682 298.087L216.176 336.032C269.908 348.14 267.354 295.351 267.354 295.351Z" fill="#FC795B"/>
</g>
<path d="M98.4317 288.35C79.13 274.562 54.9234 277.223 44.3559 294.291C33.7921 311.359 40.8741 336.373 60.1721 350.161C79.47 363.949 103.68 361.293 114.248 344.221C124.815 327.152 117.733 302.138 98.4317 288.35Z" fill="#FC795B"/>
<path d="M231.557 288.362C212.255 302.146 205.169 327.16 215.729 344.228C226.29 361.301 250.5 363.965 269.801 350.177C289.103 336.393 296.189 311.379 285.625 294.307C275.069 277.243 250.862 274.578 231.557 288.362Z" fill="#FC795B"/>
<path d="M93.1256 301.324C79.1834 291.36 61.6929 293.282 54.0565 305.616C46.4238 317.947 51.5394 336.024 65.4852 345.983C79.4274 355.947 96.9217 354.025 104.554 341.691C112.187 329.36 107.071 311.287 93.1256 301.324Z" fill="#FCDFD9"/>
<path d="M236.865 301.339C222.919 311.299 217.8 329.372 225.433 341.702C233.062 354.037 250.556 355.963 264.502 346.003C278.447 336.043 283.567 317.971 275.938 305.636C268.301 293.302 250.811 291.38 236.865 301.339Z" fill="#FCDFD9"/>
<path d="M133.551 182.721C137.776 181.47 156.752 186.342 164.518 191.95C152.93 182.514 124.103 161.046 118.681 173.714C109.725 194.638 124.029 247.268 164.784 192.232C164.784 192.232 164.677 192.116 164.514 191.95C133.495 225.188 124.687 185.346 133.551 182.721Z" fill="#FBFBFB"/>
<path d="M164.995 192.2C172.058 187.736 189.324 183.856 193.168 184.853C201.229 186.946 193.208 218.684 164.995 192.2C164.851 192.331 164.751 192.422 164.751 192.422C201.82 236.268 214.846 194.348 206.699 177.677C201.765 167.59 175.54 184.686 164.995 192.2Z" fill="#FBFBFB"/>
<path d="M153.759 233.258L164.515 191.949L138.704 220.999L153.759 233.258Z" fill="#FBFBFB"/>
<path d="M175.802 232.011L191.792 219.97L164.784 192.232L175.802 232.011Z" fill="#FBFBFB"/>
<path d="M165.009 111.144C138.721 111.14 117.413 126.894 117.409 146.329C117.405 165.764 138.714 181.521 165.001 181.525C191.289 181.529 212.598 165.776 212.601 146.341C212.605 126.902 191.296 111.148 165.009 111.144Z" fill="#FCDFD9"/>
<path d="M143.687 96.1133C138.597 96.1133 134.476 100.545 134.476 106.009C134.476 111.474 138.597 115.906 143.687 115.906C148.773 115.906 152.898 111.474 152.898 106.009C152.898 100.545 148.777 96.1133 143.687 96.1133Z" fill="#FC795B"/>
<path d="M186.338 96.1172C181.248 96.1172 177.123 100.549 177.123 106.013C177.123 111.482 181.248 115.91 186.334 115.91C191.42 115.91 195.545 111.478 195.549 106.013C195.549 100.549 191.424 96.1172 186.338 96.1172Z" fill="#FC795B"/>
<path d="M165.006 164.275C145.087 164.275 137.45 149.228 137.136 148.588L133.506 150.63C133.865 151.364 142.529 168.675 165.006 168.675C187.482 168.679 196.146 151.368 196.505 150.634L192.875 148.596C192.798 148.751 185.028 164.278 165.006 164.275Z" fill="#FC795B"/>
<path d="M194.691 143.819C191.712 143.819 189.298 146.412 189.298 149.613C189.298 152.814 191.712 155.407 194.691 155.407C197.67 155.407 200.087 152.814 200.087 149.613C200.084 146.416 197.67 143.819 194.691 143.819Z" fill="#FC795B"/>
<path d="M135.326 143.815C132.347 143.815 129.933 146.408 129.933 149.609C129.933 152.809 132.347 155.403 135.326 155.403C138.305 155.403 140.719 152.809 140.719 149.609C140.719 146.408 138.305 143.815 135.326 143.815Z" fill="#FC795B"/>
<path d="M167.054 120.29H162.958V181.526H167.054V120.29Z" fill="#FC795B"/>
<path d="M164.714 107.749C151.345 107.745 140.508 114.861 140.508 123.642C140.508 132.422 151.345 139.538 164.714 139.538C178.083 139.538 188.921 132.426 188.921 123.642C188.921 114.865 178.083 107.749 164.714 107.749Z" fill="#FC795B"/>
</svg>
