<svg width="128" height="128" viewBox="0 0 128 128" fill="none" xmlns="http://www.w3.org/2000/svg">
<path d="M53.6718 24.0252C53.5459 25.7615 53.8643 27.5012 54.5968 29.0796C55.3294 30.658 56.4519 32.0228 57.8579 33.0446C58.2594 33.3533 58.493 33.7778 58.49 34.2969L58.4899 34.3917C58.4923 34.5904 58.4549 34.7875 58.38 34.9715C58.3051 35.1555 58.1942 35.3225 58.0539 35.4629C57.9136 35.6032 57.7467 35.7139 57.563 35.7885C57.3793 35.8631 57.1825 35.9001 56.9843 35.8973L29.4767 35.8624C29.031 35.859 28.589 35.9444 28.1765 36.1136C27.7639 36.2828 27.389 36.5324 27.0735 36.8479C26.7579 37.1635 26.508 37.5387 26.3382 37.9519C26.1684 38.365 26.0822 38.8078 26.0844 39.2546L26.0786 54.019C26.0775 54.6239 26.1953 55.2231 26.4254 55.7823C26.6554 56.3415 26.9932 56.8498 27.4194 57.2781C27.8455 57.7064 28.3517 58.0462 28.909 58.2782C29.4663 58.5102 30.0637 58.6298 30.6671 58.6302L30.7854 58.6067C32.0574 58.613 33.3041 58.0718 34.1754 57.1059C35.2187 55.9582 36.509 55.0639 37.9485 54.4908C39.3879 53.9177 40.9387 53.6808 42.4832 53.798C44.9335 53.9853 47.2356 55.0474 48.9712 56.7916C50.7067 58.5357 51.7606 60.8461 51.9414 63.3029C52.0428 64.7075 51.8545 66.118 51.3885 67.4464C50.9224 68.7749 50.1884 69.9929 49.2323 71.0245C48.2761 72.0562 47.1183 72.8794 45.8309 73.4429C44.5435 74.0064 43.1542 74.2981 41.7494 74.2998C40.2971 74.2823 38.8645 73.961 37.5432 73.3565C36.2219 72.752 35.0411 71.8776 34.0763 70.7892C33.2287 69.795 31.9573 69.2293 30.6639 69.249C30.0609 69.2461 29.4634 69.3628 28.9056 69.5924C28.3479 69.8221 27.841 70.16 27.4141 70.5869C26.9872 71.0138 26.6488 71.5211 26.4184 72.0797C26.188 72.6382 26.07 73.237 26.0714 73.8414L26.0702 88.7006C26.0676 89.1478 26.1534 89.5912 26.3227 90.005C26.492 90.4188 26.7414 90.7949 27.0565 91.1116C27.3716 91.4282 27.7461 91.6792 28.1585 91.8499C28.5709 92.0206 29.0129 92.1077 29.4591 92.1062L57.0897 92.165C57.2884 92.1629 57.4855 92.2007 57.6695 92.2761C57.8535 92.3515 58.0206 92.4631 58.1609 92.6041C58.3013 92.7452 58.4121 92.9129 58.4869 93.0976C58.5617 93.2822 58.5989 93.4799 58.5964 93.6791C58.599 93.9228 58.5399 94.1631 58.4247 94.3777C58.3095 94.5923 58.1419 94.7741 57.9376 94.9061C56.5103 95.9164 55.365 97.2762 54.6106 98.8561C53.8563 100.436 53.5181 102.183 53.6283 103.931C53.8015 106.395 54.8517 108.715 56.5876 110.468C58.3235 112.222 60.6297 113.292 63.0864 113.484C64.4884 113.59 65.8974 113.406 67.2247 112.941C68.552 112.475 69.7691 111.74 70.7994 110.781C71.8297 109.822 72.651 108.66 73.2117 107.367C73.7724 106.074 74.0604 104.679 74.0577 103.27C74.057 101.653 73.6753 100.06 72.9436 98.6192C72.2118 97.1787 71.1508 95.9319 69.8471 94.9805C69.6489 94.8368 69.4877 94.6478 69.3769 94.4292C69.2662 94.2105 69.209 93.9686 69.2102 93.7234L69.2103 93.6286C69.208 93.4299 69.2454 93.2328 69.3202 93.0488C69.3951 92.8648 69.506 92.6978 69.6463 92.5575C69.7866 92.4171 69.9536 92.3064 70.1373 92.2318C70.321 92.1572 70.5177 92.1202 70.7159 92.123L98.162 92.1863C98.6073 92.1894 99.0488 92.1038 99.4609 91.9346C99.8731 91.7655 100.248 91.516 100.563 91.2008C100.878 90.8855 101.128 90.5106 101.298 90.0979C101.467 89.6852 101.554 89.2428 101.552 88.7964L101.551 74.025C101.551 73.4205 101.433 72.8217 101.203 72.2629C100.973 71.7041 100.636 71.1962 100.21 70.7682C99.784 70.3402 99.2782 70.0005 98.7213 69.7685C98.1645 69.5365 97.5675 69.4168 96.9645 69.4161L96.8699 69.416C96.2317 69.4156 95.6005 69.5489 95.0167 69.8074C94.4329 70.0658 93.9095 70.4437 93.4799 70.9168C92.4366 72.0644 91.1463 72.9587 89.7068 73.5318C88.2674 74.105 86.7166 74.3419 85.1721 74.2246C82.7218 74.0374 80.4197 72.9752 78.6841 71.231C76.9486 69.4869 75.8947 67.1765 75.7139 64.7197C75.6125 63.3151 75.8008 61.9047 76.2668 60.5762C76.7329 59.2478 77.4669 58.0298 78.423 56.9981C79.3792 55.9665 80.537 55.1432 81.8244 54.5797C83.1118 54.0162 84.5011 53.7245 85.9059 53.7228C88.9655 53.7314 91.6972 55.0575 93.5554 57.2097C94.4267 58.1802 95.6508 58.7459 96.9678 58.7499C97.5707 58.7528 98.1683 58.6361 98.726 58.4065C99.2838 58.1768 99.7907 57.8389 100.218 57.412C100.644 56.9851 100.983 56.4778 101.213 55.9192C101.444 55.3607 101.562 54.7619 101.56 54.1575L101.564 39.2485C101.566 38.8013 101.481 38.358 101.311 37.9441C101.142 37.5303 100.893 37.1542 100.578 36.8376C100.263 36.5209 99.888 36.27 99.4756 36.0992C99.0632 35.9285 98.6212 35.8414 98.175 35.8429L70.5917 35.7842C70.393 35.7863 70.1958 35.7485 70.0119 35.6731C69.8279 35.5976 69.6608 35.4861 69.5205 35.3451C69.3801 35.204 69.2693 35.0362 69.1945 34.8516C69.1197 34.667 69.0825 34.4693 69.085 34.2701C69.0857 33.7486 69.3439 33.301 69.7438 33.0431C71.0794 32.1022 72.1702 30.8537 72.9245 29.4024C73.6788 27.9511 74.0744 26.3394 74.0783 24.7029C74.0781 23.2914 73.7876 21.895 73.2249 20.6011C72.6622 19.3071 71.8394 18.1433 70.8079 17.1824C69.7764 16.2215 68.5583 15.4842 67.2298 15.0164C65.9013 14.5486 64.4908 14.3605 63.0865 14.4637C58.0994 14.9243 54.0277 18.996 53.6718 24.0205" fill="#E3C327"/>
<path d="M61.5658 63.3359C62.1126 63.1406 62.5749 62.8932 62.9525 62.5938C63.3952 62.2292 63.6817 61.806 63.8119 61.3242C63.5775 61.7148 63.2324 62.0599 62.7767 62.3594C62.3731 62.6198 61.9303 62.8281 61.4486 62.9844C60.8366 63.1927 60.3678 63.4206 60.0423 63.668C59.821 63.8503 59.6517 64.0586 59.5345 64.293C59.4173 64.5534 59.3783 64.8073 59.4173 65.0547C59.4694 64.599 59.7363 64.2148 60.2181 63.9023C60.5306 63.707 60.9798 63.5182 61.5658 63.3359ZM55.7455 71.3828C56.1621 71.3568 56.7155 71.3763 57.4056 71.4414L58.2455 71.5195L59.1048 71.5977C59.7559 71.6367 60.3288 71.6302 60.8236 71.5781L59.9642 71.4414L59.1244 71.3047C58.4473 71.2005 57.8874 71.1224 57.4447 71.0703C56.7285 71.0182 56.1491 71.0312 55.7064 71.1094C55.3288 71.1745 55.0488 71.2917 54.8665 71.4609C54.7624 71.5651 54.6973 71.7018 54.6712 71.8711C54.6582 71.9753 54.6517 72.1185 54.6517 72.3008L54.7103 72.1055L54.7689 71.8906C54.821 71.7604 54.8991 71.6628 55.0033 71.5977C55.1465 71.4935 55.3939 71.4219 55.7455 71.3828ZM56.7611 54.2344C57.2689 53.9219 57.933 53.5964 58.7533 53.2578C59.4303 52.9844 60.1335 52.737 60.8626 52.5156C59.3132 52.6719 57.8809 53.1406 56.5658 53.9219C55.8106 54.3906 55.2376 54.8919 54.847 55.4258C54.5996 55.7513 54.4238 56.0964 54.3197 56.4609C54.2155 56.8646 54.2025 57.2422 54.2806 57.5938C54.2546 56.8906 54.515 56.2266 55.0619 55.6016C55.3223 55.3151 55.5892 55.0677 55.8626 54.8594C56.1751 54.612 56.4746 54.4036 56.7611 54.2344ZM69.8861 65.6992C70.3027 66.0638 70.6869 66.4805 71.0384 66.9492C72.1061 68.3815 72.5553 70.0482 72.3861 71.9492C72.2038 74.0586 71.2402 75.7839 69.4955 77.125C68.2585 78.0755 66.6569 78.6094 64.6908 78.7266C62.9069 78.8307 61.084 78.5833 59.222 77.9844C57.3991 77.3854 55.9277 76.5781 54.808 75.5625C53.61 74.4688 53.0632 73.3359 53.1673 72.1641C53.2715 71.1484 53.6947 70.4518 54.4369 70.0742C55.0228 69.7878 55.8757 69.6771 56.9955 69.7422C57.36 69.7552 57.8483 69.8008 58.4603 69.8789L59.183 69.957C59.4564 69.9961 59.6908 70.0221 59.8861 70.0352C60.9538 70.1263 61.709 70.0677 62.1517 69.8594C62.4382 69.7161 62.6335 69.5208 62.7376 69.2734C62.8418 69.0391 62.8483 68.8047 62.7572 68.5703C62.5228 68.0104 61.9434 67.7435 61.0189 67.7695C60.0944 67.8086 59.3457 67.5612 58.7728 67.0273C58.252 66.5195 57.972 65.8815 57.933 65.1133C57.8809 63.5638 58.8705 62.457 60.9017 61.793C61.4486 61.6107 61.8718 61.3893 62.1712 61.1289C62.4447 60.8685 62.5423 60.6341 62.4642 60.4258C62.3991 60.2044 62.1647 60.0742 61.7611 60.0352C61.3053 59.9831 60.7064 60.0482 59.9642 60.2305C55.5371 61.4023 53.1543 60.582 52.8158 57.7695C52.6725 56.6497 52.9981 55.5885 53.7923 54.5859C54.4955 53.7005 55.5176 52.9323 56.8587 52.2812C58.1087 51.6693 59.4694 51.2396 60.9408 50.9922C62.4121 50.7448 63.7533 50.7188 64.9642 50.9141C67.4121 51.2917 69.2285 52.1901 70.4134 53.6094C71.5332 54.9635 71.9369 56.5846 71.6244 58.4727C71.5072 59.2018 71.2272 59.8984 70.7845 60.5625C70.459 61.0443 70.0163 61.5456 69.4564 62.0664L69.1244 62.3789L68.9486 62.5156L68.7923 62.6523C68.5449 62.8737 68.3626 63.043 68.2455 63.1602C67.9069 63.4987 67.7507 63.7721 67.7767 63.9805C67.8027 64.1497 67.9134 64.3125 68.1087 64.4688C68.1869 64.5208 68.2975 64.5924 68.4408 64.6836L68.6361 64.8203L68.8509 64.957C69.2415 65.2044 69.5866 65.4518 69.8861 65.6992Z" fill="#FBFBFB"/>
</svg>
