<svg width="128" height="128" viewBox="0 0 128 128" fill="none" xmlns="http://www.w3.org/2000/svg">
<path d="M53.6718 24.0252C53.5459 25.7615 53.8643 27.5012 54.5968 29.0796C55.3294 30.658 56.4519 32.0228 57.8579 33.0446C58.2594 33.3533 58.493 33.7778 58.49 34.2969L58.4899 34.3917C58.4923 34.5904 58.4549 34.7875 58.38 34.9715C58.3051 35.1555 58.1942 35.3225 58.0539 35.4629C57.9136 35.6032 57.7467 35.7139 57.563 35.7885C57.3793 35.8631 57.1825 35.9001 56.9843 35.8973L29.4767 35.8624C29.031 35.859 28.589 35.9444 28.1765 36.1136C27.7639 36.2828 27.389 36.5324 27.0735 36.8479C26.7579 37.1635 26.508 37.5387 26.3382 37.9519C26.1684 38.365 26.0822 38.8078 26.0844 39.2546L26.0786 54.019C26.0775 54.6239 26.1953 55.2231 26.4254 55.7823C26.6554 56.3415 26.9932 56.8498 27.4194 57.2781C27.8455 57.7064 28.3517 58.0462 28.909 58.2782C29.4663 58.5102 30.0637 58.6298 30.6671 58.6302L30.7854 58.6067C32.0574 58.613 33.3041 58.0718 34.1754 57.1059C35.2187 55.9582 36.509 55.0639 37.9485 54.4908C39.3879 53.9177 40.9387 53.6808 42.4832 53.798C44.9335 53.9853 47.2356 55.0474 48.9712 56.7916C50.7067 58.5357 51.7606 60.8461 51.9414 63.3029C52.0428 64.7075 51.8545 66.118 51.3885 67.4464C50.9224 68.7749 50.1884 69.9929 49.2323 71.0245C48.2761 72.0562 47.1183 72.8794 45.8309 73.4429C44.5435 74.0064 43.1542 74.2981 41.7494 74.2998C40.2971 74.2823 38.8645 73.961 37.5432 73.3565C36.2219 72.752 35.0411 71.8776 34.0763 70.7892C33.2287 69.795 31.9573 69.2293 30.6639 69.249C30.0609 69.2461 29.4634 69.3628 28.9056 69.5924C28.3479 69.8221 27.841 70.16 27.4141 70.5869C26.9872 71.0138 26.6488 71.5211 26.4184 72.0797C26.188 72.6382 26.07 73.237 26.0714 73.8414L26.0702 88.7006C26.0676 89.1478 26.1534 89.5912 26.3227 90.005C26.492 90.4188 26.7414 90.7949 27.0565 91.1116C27.3716 91.4282 27.7461 91.6792 28.1585 91.8499C28.5709 92.0206 29.0129 92.1077 29.4591 92.1062L57.0897 92.165C57.2884 92.1629 57.4855 92.2007 57.6695 92.2761C57.8535 92.3515 58.0206 92.4631 58.1609 92.6041C58.3013 92.7452 58.4121 92.9129 58.4869 93.0976C58.5617 93.2822 58.5989 93.4799 58.5964 93.6791C58.599 93.9228 58.5399 94.1631 58.4247 94.3777C58.3095 94.5923 58.1419 94.7741 57.9376 94.9061C56.5103 95.9164 55.365 97.2762 54.6106 98.8561C53.8563 100.436 53.5181 102.183 53.6283 103.931C53.8015 106.395 54.8517 108.715 56.5876 110.468C58.3235 112.222 60.6297 113.292 63.0864 113.484C64.4884 113.59 65.8974 113.406 67.2247 112.941C68.552 112.475 69.7691 111.74 70.7994 110.781C71.8297 109.822 72.651 108.66 73.2117 107.367C73.7724 106.074 74.0604 104.679 74.0577 103.27C74.057 101.653 73.6753 100.06 72.9436 98.6192C72.2118 97.1787 71.1508 95.9319 69.8471 94.9805C69.6489 94.8368 69.4877 94.6478 69.3769 94.4292C69.2662 94.2105 69.209 93.9686 69.2102 93.7234L69.2103 93.6286C69.208 93.4299 69.2454 93.2328 69.3202 93.0488C69.3951 92.8648 69.506 92.6978 69.6463 92.5575C69.7866 92.4171 69.9536 92.3064 70.1373 92.2318C70.321 92.1572 70.5177 92.1202 70.7159 92.123L98.162 92.1863C98.6073 92.1894 99.0488 92.1038 99.4609 91.9346C99.8731 91.7655 100.248 91.516 100.563 91.2008C100.878 90.8855 101.128 90.5106 101.298 90.0979C101.467 89.6852 101.554 89.2428 101.552 88.7964L101.551 74.025C101.551 73.4205 101.433 72.8217 101.203 72.2629C100.973 71.7041 100.636 71.1962 100.21 70.7682C99.784 70.3402 99.2782 70.0005 98.7213 69.7685C98.1645 69.5365 97.5675 69.4168 96.9645 69.4161L96.8699 69.416C96.2317 69.4156 95.6005 69.5489 95.0167 69.8074C94.4329 70.0658 93.9095 70.4437 93.4799 70.9168C92.4366 72.0644 91.1463 72.9587 89.7068 73.5318C88.2674 74.105 86.7166 74.3419 85.1721 74.2246C82.7218 74.0374 80.4197 72.9752 78.6841 71.231C76.9486 69.4869 75.8947 67.1765 75.7139 64.7197C75.6125 63.3151 75.8008 61.9047 76.2668 60.5762C76.7329 59.2478 77.4669 58.0298 78.423 56.9981C79.3792 55.9665 80.537 55.1432 81.8244 54.5797C83.1118 54.0162 84.5011 53.7245 85.9059 53.7228C88.9655 53.7314 91.6972 55.0575 93.5554 57.2097C94.4267 58.1802 95.6508 58.7459 96.9678 58.7499C97.5707 58.7528 98.1683 58.6361 98.726 58.4065C99.2838 58.1768 99.7907 57.8389 100.218 57.412C100.644 56.9851 100.983 56.4778 101.213 55.9192C101.444 55.3607 101.562 54.7619 101.56 54.1575L101.564 39.2485C101.566 38.8013 101.481 38.358 101.311 37.9441C101.142 37.5303 100.893 37.1542 100.578 36.8376C100.263 36.5209 99.888 36.27 99.4756 36.0992C99.0632 35.9285 98.6212 35.8414 98.175 35.8429L70.5917 35.7842C70.393 35.7863 70.1958 35.7485 70.0119 35.6731C69.8279 35.5976 69.6608 35.4861 69.5205 35.3451C69.3801 35.204 69.2693 35.0362 69.1945 34.8516C69.1197 34.667 69.0825 34.4693 69.085 34.2701C69.0857 33.7486 69.3439 33.301 69.7438 33.0431C71.0794 32.1022 72.1702 30.8537 72.9245 29.4024C73.6788 27.9511 74.0744 26.3394 74.0783 24.7029C74.0781 23.2914 73.7876 21.895 73.2249 20.6011C72.6622 19.3071 71.8394 18.1433 70.8079 17.1824C69.7764 16.2215 68.5583 15.4842 67.2298 15.0164C65.9013 14.5486 64.4908 14.3605 63.0865 14.4637C58.0994 14.9243 54.0277 18.996 53.6718 24.0205" fill="#FC795B"/>
<path d="M69.265 70.7539C69.5384 70.7279 69.7533 70.7148 69.9095 70.7148C70.3132 70.7018 70.7428 70.7604 71.1986 70.8906C71.0684 70.7083 70.8796 70.5651 70.6322 70.4609C70.4238 70.3828 70.183 70.3438 69.9095 70.3438C69.3887 70.3568 68.9395 70.513 68.5619 70.8125L68.9134 70.793L69.265 70.7539ZM58.7962 64.4062L59.2259 63.9961L59.6751 63.5859C59.5189 63.6771 59.3496 63.7878 59.1673 63.918L58.679 64.2695C58.3665 64.5169 58.0606 64.7839 57.7611 65.0703C57.1751 65.6302 56.6673 66.2552 56.2376 66.9453C55.7819 67.7005 55.4824 68.4557 55.3392 69.2109L55.2806 69.5234L55.2415 69.8164L55.222 70.1289V70.4219V70.7344L55.2415 71.0273L55.3392 71.6328C55.3262 70.7865 55.4173 69.9987 55.6126 69.2695C55.821 68.5273 56.14 67.8177 56.5697 67.1406C56.9082 66.5677 57.377 65.9427 57.9759 65.2656C58.2233 64.9922 58.4968 64.7057 58.7962 64.4062ZM59.6556 52.4727C60.0072 52.2773 60.3652 52.1016 60.7298 51.9453C60.8861 51.8802 61.0749 51.8086 61.2962 51.7305L61.8626 51.5352C61.4981 51.5742 61.1009 51.6589 60.6712 51.7891C60.3067 51.8932 59.929 52.0299 59.5384 52.1992C58.8353 52.4987 58.1387 52.9154 57.4486 53.4492C56.7585 53.9961 56.1921 54.5885 55.7494 55.2266C55.1764 56.0599 54.903 56.8151 54.929 57.4922C54.9811 57.1276 55.1178 56.7565 55.3392 56.3789C55.5085 56.0534 55.7233 55.7279 55.9837 55.4023C56.5046 54.7773 57.071 54.2305 57.683 53.7617C58.2689 53.2799 58.9264 52.8503 59.6556 52.4727ZM64.9876 69.9336C65.9121 70.0117 66.9212 69.8359 68.015 69.4062C68.9264 69.0417 69.7923 68.9245 70.6126 69.0547C71.3288 69.1719 71.9538 69.4779 72.4876 69.9727C72.9955 70.4414 73.3535 71.0078 73.5619 71.6719C73.7702 72.3229 73.8027 72.974 73.6595 73.625C73.3861 74.9401 72.3965 75.9622 70.6908 76.6914C69.0241 77.4076 66.8822 77.7591 64.265 77.7461C61.6478 77.7331 59.4928 77.388 57.8001 76.7109C55.7038 75.8646 54.4408 74.5495 54.0111 72.7656C53.4121 70.2396 53.9199 67.8438 55.5345 65.5781C56.8236 63.7943 58.7442 62.1667 61.2962 60.6953C62.6764 59.901 63.1647 59.3021 62.7611 58.8984C62.5788 58.7161 62.3053 58.6576 61.9408 58.7227C61.5762 58.8008 60.9447 59.0482 60.0462 59.4648C58.4186 60.207 57.0319 60.4935 55.8861 60.3242C54.7793 60.1549 54.0241 59.5885 53.6205 58.625C53.2168 57.6354 53.3861 56.4896 54.1283 55.1875C54.8705 53.9115 55.9837 52.7786 57.4681 51.7891C59.0567 50.7474 60.7363 50.1094 62.5072 49.875C64.5254 49.6016 66.4264 49.9076 68.2103 50.793C69.7077 51.5352 70.7559 52.5964 71.3548 53.9766C71.9147 55.2526 72.0384 56.6784 71.7259 58.2539C71.4395 59.7773 70.7884 61.2422 69.7728 62.6484C68.7311 64.0938 67.4356 65.2852 65.8861 66.2227C64.7012 66.9518 63.9525 67.6354 63.64 68.2734C63.5098 68.5078 63.4512 68.7357 63.4642 68.957C63.4772 69.1133 63.5163 69.263 63.5814 69.4062C63.7507 69.7057 64.2194 69.8815 64.9876 69.9336Z" fill="#FBFBFB"/>
</svg>
