<svg width="128" height="128" viewBox="0 0 128 128" fill="none" xmlns="http://www.w3.org/2000/svg">
<path d="M53.6718 24.0252C53.5459 25.7615 53.8643 27.5012 54.5968 29.0796C55.3294 30.658 56.4519 32.0228 57.8579 33.0446C58.2594 33.3533 58.493 33.7778 58.49 34.2969L58.4899 34.3917C58.4923 34.5904 58.4549 34.7875 58.38 34.9715C58.3051 35.1555 58.1942 35.3225 58.0539 35.4629C57.9136 35.6032 57.7467 35.7139 57.563 35.7885C57.3793 35.8631 57.1825 35.9001 56.9843 35.8973L29.4767 35.8624C29.031 35.859 28.589 35.9444 28.1765 36.1136C27.7639 36.2828 27.389 36.5324 27.0735 36.8479C26.7579 37.1635 26.508 37.5387 26.3382 37.9519C26.1684 38.365 26.0822 38.8078 26.0844 39.2546L26.0786 54.019C26.0775 54.6239 26.1953 55.2231 26.4254 55.7823C26.6554 56.3415 26.9932 56.8498 27.4194 57.2781C27.8455 57.7064 28.3517 58.0462 28.909 58.2782C29.4663 58.5102 30.0637 58.6298 30.6671 58.6302L30.7854 58.6067C32.0574 58.613 33.3041 58.0718 34.1754 57.1059C35.2187 55.9582 36.509 55.0639 37.9485 54.4908C39.3879 53.9177 40.9387 53.6808 42.4832 53.798C44.9335 53.9853 47.2356 55.0474 48.9712 56.7916C50.7067 58.5357 51.7606 60.8461 51.9414 63.3029C52.0428 64.7075 51.8545 66.118 51.3885 67.4464C50.9224 68.7749 50.1884 69.9929 49.2323 71.0245C48.2761 72.0562 47.1183 72.8794 45.8309 73.4429C44.5435 74.0064 43.1542 74.2981 41.7494 74.2998C40.2971 74.2823 38.8645 73.961 37.5432 73.3565C36.2219 72.752 35.0411 71.8776 34.0763 70.7892C33.2287 69.795 31.9573 69.2293 30.6639 69.249C30.0609 69.2461 29.4634 69.3628 28.9056 69.5924C28.3479 69.8221 27.841 70.16 27.4141 70.5869C26.9872 71.0138 26.6488 71.5211 26.4184 72.0797C26.188 72.6382 26.07 73.237 26.0714 73.8414L26.0702 88.7006C26.0676 89.1478 26.1534 89.5912 26.3227 90.005C26.492 90.4188 26.7414 90.7949 27.0565 91.1116C27.3716 91.4282 27.7461 91.6792 28.1585 91.8499C28.5709 92.0206 29.0129 92.1077 29.4591 92.1062L57.0897 92.165C57.2884 92.1629 57.4855 92.2007 57.6695 92.2761C57.8535 92.3515 58.0206 92.4631 58.1609 92.6041C58.3013 92.7452 58.4121 92.9129 58.4869 93.0976C58.5617 93.2822 58.5989 93.4799 58.5964 93.6791C58.599 93.9228 58.5399 94.1631 58.4247 94.3777C58.3095 94.5923 58.1419 94.7741 57.9376 94.9061C56.5103 95.9164 55.365 97.2762 54.6106 98.8561C53.8563 100.436 53.5181 102.183 53.6283 103.931C53.8015 106.395 54.8517 108.715 56.5876 110.468C58.3235 112.222 60.6297 113.292 63.0864 113.484C64.4884 113.59 65.8974 113.406 67.2247 112.941C68.552 112.475 69.7691 111.74 70.7994 110.781C71.8297 109.822 72.651 108.66 73.2117 107.367C73.7724 106.074 74.0604 104.679 74.0577 103.27C74.057 101.653 73.6753 100.06 72.9436 98.6192C72.2118 97.1787 71.1508 95.9319 69.8471 94.9805C69.6489 94.8368 69.4877 94.6478 69.3769 94.4292C69.2662 94.2105 69.209 93.9686 69.2102 93.7234L69.2103 93.6286C69.208 93.4299 69.2454 93.2328 69.3202 93.0488C69.3951 92.8648 69.506 92.6978 69.6463 92.5575C69.7866 92.4171 69.9536 92.3064 70.1373 92.2318C70.321 92.1572 70.5177 92.1202 70.7159 92.123L98.162 92.1863C98.6073 92.1894 99.0488 92.1038 99.4609 91.9346C99.8731 91.7655 100.248 91.516 100.563 91.2008C100.878 90.8855 101.128 90.5106 101.298 90.0979C101.467 89.6852 101.554 89.2428 101.552 88.7964L101.551 74.025C101.551 73.4205 101.433 72.8217 101.203 72.2629C100.973 71.7041 100.636 71.1962 100.21 70.7682C99.784 70.3402 99.2782 70.0005 98.7213 69.7685C98.1645 69.5365 97.5675 69.4168 96.9645 69.4161L96.8699 69.416C96.2317 69.4156 95.6005 69.5489 95.0167 69.8074C94.4329 70.0658 93.9095 70.4437 93.4799 70.9168C92.4366 72.0644 91.1463 72.9587 89.7068 73.5318C88.2674 74.105 86.7166 74.3419 85.1721 74.2246C82.7218 74.0374 80.4197 72.9752 78.6841 71.231C76.9486 69.4869 75.8947 67.1765 75.7139 64.7197C75.6125 63.3151 75.8008 61.9047 76.2668 60.5762C76.7329 59.2478 77.4669 58.0298 78.423 56.9981C79.3792 55.9665 80.537 55.1432 81.8244 54.5797C83.1118 54.0162 84.5011 53.7245 85.9059 53.7228C88.9655 53.7314 91.6972 55.0575 93.5554 57.2097C94.4267 58.1802 95.6508 58.7459 96.9678 58.7499C97.5707 58.7528 98.1683 58.6361 98.726 58.4065C99.2838 58.1768 99.7907 57.8389 100.218 57.412C100.644 56.9851 100.983 56.4778 101.213 55.9192C101.444 55.3607 101.562 54.7619 101.56 54.1575L101.564 39.2485C101.566 38.8013 101.481 38.358 101.311 37.9441C101.142 37.5303 100.893 37.1542 100.578 36.8376C100.263 36.5209 99.888 36.27 99.4756 36.0992C99.0632 35.9285 98.6212 35.8414 98.175 35.8429L70.5917 35.7842C70.393 35.7863 70.1958 35.7485 70.0119 35.6731C69.8279 35.5976 69.6608 35.4861 69.5205 35.3451C69.3801 35.204 69.2693 35.0362 69.1945 34.8516C69.1197 34.667 69.0825 34.4693 69.085 34.2701C69.0857 33.7486 69.3439 33.301 69.7438 33.0431C71.0794 32.1022 72.1702 30.8537 72.9245 29.4024C73.6788 27.9511 74.0744 26.3394 74.0783 24.7029C74.0781 23.2914 73.7876 21.895 73.2249 20.6011C72.6622 19.3071 71.8394 18.1433 70.8079 17.1824C69.7764 16.2215 68.5583 15.4842 67.2298 15.0164C65.9013 14.5486 64.4908 14.3605 63.0865 14.4637C58.0994 14.9243 54.0277 18.996 53.6718 24.0205" fill="#DD5E8D"/>
<path d="M59.2572 50.1991C59.5176 50.0428 59.8236 49.8996 60.1751 49.7694C60.8392 49.509 61.5098 49.3593 62.1869 49.3202C61.4968 49.203 60.7936 49.2551 60.0775 49.4764C59.4134 49.6718 58.7819 49.9973 58.183 50.453C57.558 50.9348 57.1022 51.4882 56.8158 52.1132C56.4902 52.8293 56.3796 53.5259 56.4837 54.203C56.5228 53.565 56.7246 52.9139 57.0892 52.2499C57.4017 51.677 57.8444 51.1822 58.4173 50.7655C58.6908 50.5441 58.9707 50.3553 59.2572 50.1991ZM64.8822 48.6561C65.9889 49.3723 66.8418 50.5051 67.4408 52.0546C68.0788 53.6952 68.3718 55.9478 68.3197 58.8124C68.2676 61.5728 67.916 64.3072 67.265 67.0155C66.5749 69.8671 65.683 72.0676 64.5892 73.6171C63.3783 75.3749 62.0632 76.0455 60.6439 75.6288C59.9147 75.4205 59.446 74.9843 59.2376 74.3202C59.0814 73.7994 59.0619 72.9205 59.179 71.6835C59.2051 71.4491 59.2376 71.1496 59.2767 70.785L59.3353 70.2968L59.3744 69.7889C59.4785 68.9165 59.5567 68.1548 59.6087 67.5038C59.765 65.4986 59.791 63.5455 59.6869 61.6444L59.6673 61.2928L59.6478 60.9218C59.6218 60.6223 59.5957 60.3488 59.5697 60.1014C59.5046 59.4374 59.4134 58.8775 59.2962 58.4218C58.9707 57.1718 58.4043 56.5988 57.597 56.703C56.933 56.7941 56.3731 56.6705 55.9173 56.3319C55.5007 56.0194 55.2142 55.5507 55.058 54.9257C54.9147 54.3137 54.9212 53.6496 55.0775 52.9335C55.2468 52.1783 55.5593 51.4686 56.015 50.8046C56.5619 50.0103 57.3366 49.3332 58.3392 48.7733C59.3809 48.1874 60.4616 47.8684 61.5814 47.8163C62.8184 47.7382 63.9186 48.0181 64.8822 48.6561Z" fill="#FBFBFB"/>
</svg>
