<svg width="128" height="128" viewBox="0 0 128 128" fill="none" xmlns="http://www.w3.org/2000/svg">
<path d="M53.6718 24.0252C53.5459 25.7615 53.8643 27.5012 54.5968 29.0796C55.3294 30.658 56.4519 32.0228 57.8579 33.0446C58.2594 33.3533 58.493 33.7778 58.49 34.2969L58.4899 34.3917C58.4923 34.5904 58.4549 34.7875 58.38 34.9715C58.3051 35.1555 58.1942 35.3225 58.0539 35.4629C57.9136 35.6032 57.7467 35.7139 57.563 35.7885C57.3793 35.8631 57.1825 35.9001 56.9843 35.8973L29.4767 35.8624C29.031 35.859 28.589 35.9444 28.1765 36.1136C27.7639 36.2828 27.389 36.5324 27.0735 36.8479C26.7579 37.1635 26.508 37.5387 26.3382 37.9519C26.1684 38.365 26.0822 38.8078 26.0844 39.2546L26.0786 54.019C26.0775 54.6239 26.1953 55.2231 26.4254 55.7823C26.6554 56.3415 26.9932 56.8498 27.4194 57.2781C27.8455 57.7064 28.3517 58.0462 28.909 58.2782C29.4663 58.5102 30.0637 58.6298 30.6671 58.6302L30.7854 58.6067C32.0574 58.613 33.3041 58.0718 34.1754 57.1059C35.2187 55.9582 36.509 55.0639 37.9485 54.4908C39.3879 53.9177 40.9387 53.6808 42.4832 53.798C44.9335 53.9853 47.2356 55.0474 48.9712 56.7916C50.7067 58.5357 51.7606 60.8461 51.9414 63.3029C52.0428 64.7075 51.8545 66.118 51.3885 67.4464C50.9224 68.7749 50.1884 69.9929 49.2323 71.0245C48.2761 72.0562 47.1183 72.8794 45.8309 73.4429C44.5435 74.0064 43.1542 74.2981 41.7494 74.2998C40.2971 74.2823 38.8645 73.961 37.5432 73.3565C36.2219 72.752 35.0411 71.8776 34.0763 70.7892C33.2287 69.795 31.9573 69.2293 30.6639 69.249C30.0609 69.2461 29.4634 69.3628 28.9056 69.5924C28.3479 69.8221 27.841 70.16 27.4141 70.5869C26.9872 71.0138 26.6488 71.5211 26.4184 72.0797C26.188 72.6382 26.07 73.237 26.0714 73.8414L26.0702 88.7006C26.0676 89.1478 26.1534 89.5912 26.3227 90.005C26.492 90.4188 26.7414 90.7949 27.0565 91.1116C27.3716 91.4282 27.7461 91.6792 28.1585 91.8499C28.5709 92.0206 29.0129 92.1077 29.4591 92.1062L57.0897 92.165C57.2884 92.1629 57.4855 92.2007 57.6695 92.2761C57.8535 92.3515 58.0206 92.4631 58.1609 92.6041C58.3013 92.7452 58.4121 92.9129 58.4869 93.0976C58.5617 93.2822 58.5989 93.4799 58.5964 93.6791C58.599 93.9228 58.5399 94.1631 58.4247 94.3777C58.3095 94.5923 58.1419 94.7741 57.9376 94.9061C56.5103 95.9164 55.365 97.2762 54.6106 98.8561C53.8563 100.436 53.5181 102.183 53.6283 103.931C53.8015 106.395 54.8517 108.715 56.5876 110.468C58.3235 112.222 60.6297 113.292 63.0864 113.484C64.4884 113.59 65.8974 113.406 67.2247 112.941C68.552 112.475 69.7691 111.74 70.7994 110.781C71.8297 109.822 72.651 108.66 73.2117 107.367C73.7724 106.074 74.0604 104.679 74.0577 103.27C74.057 101.653 73.6753 100.06 72.9436 98.6192C72.2118 97.1787 71.1508 95.9319 69.8471 94.9805C69.6489 94.8368 69.4877 94.6478 69.3769 94.4292C69.2662 94.2105 69.209 93.9686 69.2102 93.7234L69.2103 93.6286C69.208 93.4299 69.2454 93.2328 69.3202 93.0488C69.3951 92.8648 69.506 92.6978 69.6463 92.5575C69.7866 92.4171 69.9536 92.3064 70.1373 92.2318C70.321 92.1572 70.5177 92.1202 70.7159 92.123L98.162 92.1863C98.6073 92.1894 99.0488 92.1038 99.4609 91.9346C99.8731 91.7655 100.248 91.516 100.563 91.2008C100.878 90.8855 101.128 90.5106 101.298 90.0979C101.467 89.6852 101.554 89.2428 101.552 88.7964L101.551 74.025C101.551 73.4205 101.433 72.8217 101.203 72.2629C100.973 71.7041 100.636 71.1962 100.21 70.7682C99.784 70.3402 99.2782 70.0005 98.7213 69.7685C98.1645 69.5365 97.5675 69.4168 96.9645 69.4161L96.8699 69.416C96.2317 69.4156 95.6005 69.5489 95.0167 69.8074C94.4329 70.0658 93.9095 70.4437 93.4799 70.9168C92.4366 72.0644 91.1463 72.9587 89.7068 73.5318C88.2674 74.105 86.7166 74.3419 85.1721 74.2246C82.7218 74.0374 80.4197 72.9752 78.6841 71.231C76.9486 69.4869 75.8947 67.1765 75.7139 64.7197C75.6125 63.3151 75.8008 61.9047 76.2668 60.5762C76.7329 59.2478 77.4669 58.0298 78.423 56.9981C79.3792 55.9665 80.537 55.1432 81.8244 54.5797C83.1118 54.0162 84.5011 53.7245 85.9059 53.7228C88.9655 53.7314 91.6972 55.0575 93.5554 57.2097C94.4267 58.1802 95.6508 58.7459 96.9678 58.7499C97.5707 58.7528 98.1683 58.6361 98.726 58.4065C99.2838 58.1768 99.7907 57.8389 100.218 57.412C100.644 56.9851 100.983 56.4778 101.213 55.9192C101.444 55.3607 101.562 54.7619 101.56 54.1575L101.564 39.2485C101.566 38.8013 101.481 38.358 101.311 37.9441C101.142 37.5303 100.893 37.1542 100.578 36.8376C100.263 36.5209 99.888 36.27 99.4756 36.0992C99.0632 35.9285 98.6212 35.8414 98.175 35.8429L70.5917 35.7842C70.393 35.7863 70.1958 35.7485 70.0119 35.6731C69.8279 35.5976 69.6608 35.4861 69.5205 35.3451C69.3801 35.204 69.2693 35.0362 69.1945 34.8516C69.1197 34.667 69.0825 34.4693 69.085 34.2701C69.0857 33.7486 69.3439 33.301 69.7438 33.0431C71.0794 32.1022 72.1702 30.8537 72.9245 29.4024C73.6788 27.9511 74.0744 26.3394 74.0783 24.7029C74.0781 23.2914 73.7876 21.895 73.2249 20.6011C72.6622 19.3071 71.8394 18.1433 70.8079 17.1824C69.7764 16.2215 68.5583 15.4842 67.2298 15.0164C65.9013 14.5486 64.4908 14.3605 63.0865 14.4637C58.0994 14.9243 54.0277 18.996 53.6718 24.0205" fill="#2DC0C2"/>
<path d="M61.9886 52.458C61.6305 53.1579 61.3539 53.9717 61.1585 54.8994C60.9958 55.6969 60.9144 56.5514 60.9144 57.4629C61.126 56.4701 61.3213 55.6481 61.5003 54.9971C61.7933 54.0205 62.0944 53.2393 62.4037 52.6533C62.599 52.2627 62.8268 51.929 63.0873 51.6523C63.3314 51.3431 63.6244 51.0583 63.9662 50.7979C64.6986 50.2445 65.4554 49.9189 66.2367 49.8213C65.3903 49.7399 64.5684 49.9678 63.7708 50.5049C62.9896 51.0094 62.3955 51.6605 61.9886 52.458ZM66.2367 69.7188C65.8786 70.3535 65.2845 70.7523 64.4544 70.915C62.9896 71.208 61.7608 70.5407 60.7679 68.9131C59.9053 67.4645 59.3356 65.4707 59.0589 62.9316C58.7985 60.4902 58.8718 58.1221 59.2787 55.8271C59.7181 53.3695 60.4343 51.5628 61.4271 50.4072C62.778 48.8447 64.3486 48.0391 66.139 47.9902C66.904 47.974 67.612 48.1204 68.263 48.4297C68.8978 48.7389 69.3942 49.1784 69.7523 49.748C70.501 50.9036 70.4928 52.515 69.7279 54.582C69.5977 54.9401 69.4186 55.3714 69.1908 55.876L68.9222 56.5107L68.6292 57.1699C68.1735 58.2116 67.8724 59.0335 67.7259 59.6357C67.4004 60.9053 67.1725 62.3213 67.0423 63.8838C67.0261 64.1768 67.0016 64.4941 66.9691 64.8359L66.9447 65.2754L66.9203 65.7148C66.8877 66.4473 66.8552 66.9844 66.8226 67.3262C66.7249 68.4004 66.5296 69.1979 66.2367 69.7188ZM60.9144 77.458C61.2236 76.6768 61.5817 76.0583 61.9886 75.6025C62.4932 75.0492 63.0954 74.6829 63.7953 74.5039C63.4372 74.4062 63.0547 74.4388 62.6478 74.6016C62.2897 74.748 61.9642 74.9759 61.6712 75.2852C61.069 75.9362 60.8167 76.6605 60.9144 77.458ZM60.6703 74.0156C61.5817 73.1204 62.6234 72.6729 63.7953 72.6729C65.1787 72.6729 66.318 73.2344 67.2132 74.3574C68.1247 75.4967 68.4746 76.8558 68.263 78.4346C68.0514 80.0133 67.3597 81.234 66.1878 82.0967C65.0322 82.9593 63.7871 83.2035 62.4525 82.8291C61.3132 82.5199 60.4261 81.82 59.7914 80.7295C59.1566 79.6553 58.9206 78.4834 59.0833 77.2139C59.2461 75.9443 59.7751 74.8783 60.6703 74.0156Z" fill="#FBFBFB"/>
</svg>
