<svg width="364" height="327" viewBox="0 0 364 327" fill="none" xmlns="http://www.w3.org/2000/svg">
<path d="M230.144 185.158C228.986 186.303 227.683 187.348 226.272 188.263L224.562 185.622C226.049 184.657 227.383 183.543 228.547 182.287L230.855 184.424C230.623 184.674 230.386 184.919 230.144 185.158ZM235.513 176.752L232.552 175.686C233.143 174.054 233.512 172.358 233.649 170.643L236.788 170.887C236.628 172.882 236.2 174.856 235.513 176.752ZM218.143 191.809C216.257 192.304 214.3 192.621 212.326 192.751L212.126 189.609C213.9 189.492 215.658 189.207 217.351 188.763L218.143 191.809ZM235.787 162.018L232.773 162.937C232.279 161.306 231.588 159.676 230.721 158.095L233.484 156.576C234.454 158.348 235.229 160.179 235.787 162.018ZM203.533 192.085C201.572 191.646 199.686 191.013 197.925 190.204L199.245 187.342C200.806 188.059 202.482 188.621 204.227 189.012L203.533 192.085ZM275.934 112.82C274.833 112.788 273.73 112.757 272.626 112.726L272.72 109.578C273.825 109.609 274.93 109.641 276.033 109.673L275.934 112.82ZM228.279 149.513L225.996 151.687C225.852 151.535 225.707 151.385 225.559 151.236C224.464 150.128 223.273 149.078 222.018 148.114L223.941 145.615C225.308 146.665 226.606 147.811 227.801 149.02C227.962 149.183 228.122 149.347 228.279 149.513ZM264.254 112.548C262.265 112.523 260.443 112.517 258.685 112.528L258.672 109.379C260.45 109.367 262.291 109.374 264.301 109.399L264.254 112.548ZM192.86 182.901L190.618 185.118L190.563 185.062C189.21 183.693 187.982 182.169 186.914 180.53L189.553 178.806C190.507 180.268 191.601 181.627 192.805 182.847L192.86 182.901ZM250.357 112.745C248.459 112.837 246.599 112.96 244.829 113.112L244.567 109.974C246.375 109.819 248.275 109.693 250.212 109.599L250.357 112.745ZM215.152 143.983C213.513 143.239 211.825 142.631 210.136 142.177L210.959 139.136C212.814 139.634 214.664 140.3 216.459 141.116L215.152 143.983ZM186.212 171.618L183.203 172.555C182.638 170.73 182.213 168.811 181.94 166.851L185.058 166.41C185.308 168.202 185.697 169.954 186.212 171.618ZM236.599 114.094C234.752 114.383 232.927 114.719 231.177 115.092L230.527 112.012C232.334 111.627 234.215 111.281 236.119 110.983L236.599 114.094ZM184.836 158.374L181.697 158.132C181.849 156.214 182.136 154.28 182.55 152.385L185.627 153.051C185.243 154.807 184.977 156.598 184.836 158.374ZM202.221 141.133C200.452 141.105 198.634 141.183 196.816 141.363L196.512 138.23C198.448 138.038 200.388 137.955 202.276 137.985L202.221 141.133ZM223.209 117.197C221.458 117.758 219.721 118.384 218.046 119.058L216.876 116.137C218.622 115.435 220.431 114.782 222.254 114.198L223.209 117.197ZM188.142 145.386L185.267 144.107C185.323 143.982 185.38 143.856 185.438 143.731C184.806 143.926 184.171 144.132 183.535 144.348L182.528 141.366C184.188 140.802 185.844 140.304 187.457 139.882C187.495 139.818 187.533 139.755 187.571 139.691C187.716 139.451 187.863 139.213 188.011 138.976L190.679 140.645C190.539 140.867 190.402 141.09 190.266 141.314C189.486 142.608 188.771 143.979 188.142 145.386ZM210.613 122.557C208.994 123.44 207.419 124.388 205.928 125.375L204.193 122.751C205.758 121.714 207.412 120.719 209.109 119.793L210.613 122.557ZM195.589 134.179L193.257 132.068C193.906 131.352 194.587 130.64 195.281 129.954C195.286 129.949 195.29 129.945 195.295 129.94C195.956 129.286 196.65 128.636 197.355 128.006L199.448 130.354C198.783 130.948 198.129 131.562 197.506 132.178C197.502 132.182 197.498 132.186 197.494 132.19C196.84 132.836 196.199 133.505 195.589 134.179ZM175.86 147.388C174.258 148.106 172.579 148.909 170.869 149.774L169.452 146.965C171.206 146.077 172.93 145.253 174.578 144.515L175.86 147.388ZM163.54 153.731C162.039 154.586 160.466 155.505 158.728 156.542L157.119 153.839C158.874 152.791 160.467 151.861 161.986 150.996L163.54 153.731ZM151.559 160.899C149.737 162.014 148.206 162.939 146.742 163.808L145.139 161.102C146.59 160.239 148.11 159.322 149.919 158.214L151.559 160.899ZM139.388 168.007C137.664 168.945 135.975 169.826 134.367 170.624L132.971 167.805C134.544 167.023 136.198 166.161 137.888 165.242L139.388 168.007ZM126.601 174.137C124.785 174.872 122.984 175.534 121.247 176.104L120.27 173.113C121.94 172.564 123.675 171.926 125.426 171.218L126.601 174.137ZM112.935 178.284C111.013 178.653 109.094 178.922 107.232 179.082L106.969 175.944C108.723 175.794 110.532 175.54 112.347 175.191L112.935 178.284ZM98.5674 179.061C98.1481 179.021 97.7288 178.975 97.3088 178.924C95.8082 178.74 94.2885 178.433 92.7913 178.011L93.6508 174.98C94.9949 175.358 96.3568 175.634 97.6994 175.799C98.0902 175.847 98.4801 175.889 98.87 175.926L98.5674 179.061ZM43.6224 225.321L41.2192 223.292L44.836 219.011L47.2397 221.039L43.6224 225.321ZM52.6649 214.618L50.2617 212.589L53.8785 208.308L56.2822 210.337L52.6649 214.618ZM61.7072 203.916L59.304 201.886L62.9208 197.605L65.3245 199.634L61.7072 203.916ZM70.7497 193.214L68.3465 191.184L71.9633 186.903L74.367 188.932L70.7497 193.214ZM79.7925 182.511L77.389 180.482L81.0061 176.201L83.4098 178.23L79.7925 182.511ZM88.8353 171.808L86.4318 169.779L90.0486 165.498L92.4523 167.527L88.8353 171.808ZM84.7339 174.54C83.0726 173.558 81.467 172.429 79.9614 171.182L81.973 168.755C83.3513 169.896 84.82 170.93 86.3394 171.827L84.7339 174.54ZM97.8773 161.106L95.4741 159.077L99.0909 154.796L101.495 156.824L97.8773 161.106ZM106.626 149.563L103.677 148.463C104.24 146.964 104.349 145.414 104.004 143.856L107.079 143.168C107.558 145.331 107.406 147.483 106.626 149.563ZM76.4563 162.966L73.9309 164.853C72.7427 163.26 71.7038 161.586 70.8425 159.875L73.6556 158.454C74.4351 160.002 75.3772 161.52 76.4563 162.966ZM100.131 137.623C98.9181 136.486 97.5002 135.467 95.9174 134.594L97.4428 131.835C99.2542 132.834 100.884 134.008 102.288 135.324L100.131 137.623ZM71.212 150.979L68.0991 151.462C67.7902 149.446 67.7351 147.436 67.935 145.486L71.0674 145.8C70.8951 147.484 70.9434 149.227 71.212 150.979ZM88.53 132.008C86.7499 131.712 85.0191 131.655 83.3853 131.838L83.0416 128.709C84.9643 128.493 86.9868 128.558 89.0526 128.901L88.53 132.008ZM73.395 138.46L70.6467 136.929C70.8308 136.599 71.0251 136.271 71.2235 135.953C72.1387 134.487 73.2638 133.202 74.5408 132.158L76.5302 134.595C75.5189 135.422 74.6263 136.443 73.8935 137.617C73.7218 137.892 73.5541 138.175 73.395 138.46Z" fill="#1F1F1F"/>
<path d="M302.151 130.317C299.312 128.68 299.383 117.807 299.942 108.974C299.966 108.592 300.271 108.294 300.732 108.203C313.572 105.676 332.847 101.677 341.096 99.5313C331.563 99.4682 308.874 100.222 293.933 100.854C293.55 100.874 293.148 100.749 292.823 100.528C290.785 99.103 280.596 91.8041 280.094 88.0904C280.058 87.8245 280.08 87.1695 281.066 86.8184C286.62 84.8371 341.346 95.0202 346.482 97.9815C346.539 98.014 346.654 98.0925 346.759 98.1672C346.791 98.1877 346.819 98.2086 346.85 98.2337C346.886 98.2616 346.914 98.2824 346.934 98.3008L346.936 98.3021C346.999 98.357 347.056 98.4183 347.105 98.4771C347.113 98.4841 347.117 98.4914 347.125 98.4984C347.132 98.507 347.139 98.5157 347.146 98.5243C347.215 98.6045 347.276 98.6913 347.323 98.7821L347.326 98.7864C347.345 98.823 347.358 98.8615 347.367 98.9018C347.412 99.0125 347.434 99.1247 347.432 99.2295C347.43 99.3039 347.428 99.3829 347.382 99.474C347.337 99.5923 347.266 99.6926 347.169 99.7781C345.802 102.381 338.11 108.584 324.227 118.279C305.232 131.539 303.471 130.859 302.527 130.496C302.436 130.46 302.234 130.364 302.151 130.317ZM302.59 110.1C302.154 117.626 302.328 126.176 303.34 128.408C308.443 126.617 333.912 108.784 342.194 101.532C336.722 103.039 325.524 105.58 302.59 110.1ZM282.878 88.667C283.777 90.8646 289.54 95.6404 293.886 98.7331C309.627 98.0694 327.504 97.446 337.919 97.5063C322.472 93.9363 287.702 87.7227 282.878 88.667Z" fill="#1F1F1F"/>
<path d="M290.349 120.333C289.953 120.102 289.702 119.831 289.552 119.617C288.197 117.7 290.367 107.433 291.785 101.483C291.914 100.935 292.614 100.664 293.351 100.878C294.091 101.088 294.575 101.707 294.444 102.257C292.815 109.111 291.447 116.896 291.827 118.721C293.055 118.86 296.648 117.97 299.899 116.695C300.511 116.456 301.355 116.697 301.781 117.237C302.212 117.774 302.064 118.406 301.453 118.643C299.702 119.327 293.781 121.497 291.049 120.64C290.776 120.553 290.545 120.447 290.349 120.333Z" fill="#1F1F1F"/>
</svg>
