<svg width="110" height="123" viewBox="0 0 110 123" fill="none" xmlns="http://www.w3.org/2000/svg">
<path d="M67.5921 107.085C67.3025 105.514 66.2257 104.215 64.8274 103.372C64.4074 103.119 63.9595 102.908 63.4907 102.749C62.6279 102.457 61.8974 102.112 61.3579 101.348C60.2891 99.8336 60.6921 97.6693 61.4346 96.1872C62.6498 93.7622 63.1763 92.8052 64.2382 91.1622L64.5586 91.1974C63.7704 91.0005 62.6139 92.6768 62.2308 93.2399C61.6804 94.0505 61.2256 94.958 60.8175 95.8437C60.0681 97.4715 59.3505 99.9497 60.3637 101.599C60.6036 101.989 61.6774 102.662 62.5512 103.05C63.5136 103.476 64.063 103.969 64.692 104.582C65.9281 105.785 66.367 107.479 66.2287 109.168C66.0863 110.909 64.3417 112.483 62.6498 112.856C61.6555 113.076 60.0482 113.151 59.8482 111.865C59.67 110.716 61.0444 109.859 62.0347 109.8C63.4161 109.717 64.8204 111.074 64.7089 112.439C64.6422 113.255 64.1118 113.934 63.7674 114.662C63.0379 116.207 62.6995 117.458 63.0051 118.872C63.1444 119.515 63.4509 120.128 63.8809 120.644C64.3745 121.237 65.0334 121.703 65.7589 122.009C66.572 122.353 67.0388 122.26 67.831 122.071C67.831 122.071 67.4568 121.043 67.4289 120.535C67.4289 120.535 66.9602 121.177 66.0565 121.154C65.4882 121.14 64.7438 120.887 64.3486 120.487C63.4012 119.527 63.4091 117.525 64.3994 115.904C64.7597 115.314 66.1401 113.45 65.9112 112.166C65.5419 110.095 62.8568 108.703 60.8703 109.475C59.8631 109.867 58.418 110.996 58.5902 112.175C58.7733 113.424 60.1448 113.89 61.2823 113.878C62.6866 113.865 63.7127 113.206 64.9597 112.568C65.5409 112.271 68.1684 110.212 67.5921 107.085Z" fill="#82D8D9"/>
<path d="M59.2231 111.281C59.3505 110.751 59.6242 110.301 59.9974 109.943C59.2002 110.482 58.4667 111.313 58.5921 112.173C58.7255 113.084 59.4908 113.575 60.3358 113.772C59.5635 113.169 58.9912 112.247 59.2231 111.281Z" fill="url(#paint0_linear_1019_9452)"/>
<path d="M65.6017 104.263C66.366 105.443 67.0259 106.721 67.214 108.115C67.3065 108.802 67.3195 109.387 67.2568 109.906C67.6041 109.111 67.7872 108.162 67.5892 107.084C67.2996 105.514 66.2227 104.214 64.8244 103.37C64.6522 103.267 64.4721 103.175 64.291 103.086C64.3328 103.124 64.3755 103.163 64.4173 103.201C64.8562 103.464 65.2553 103.727 65.6017 104.263Z" fill="url(#paint1_linear_1019_9452)"/>
<path d="M66.256 121.158C66.5496 121.754 67.1298 121.94 67.7817 121.928C67.6792 121.629 67.4503 120.926 67.4294 120.533C67.4294 120.533 67.0214 121.076 66.2441 121.139C66.2481 121.146 66.253 121.151 66.256 121.158Z" fill="url(#paint2_linear_1019_9452)"/>
<path d="M63.3064 116.419C63.3701 116.091 63.4019 115.77 63.4258 115.449C62.9441 116.649 62.754 117.706 63.0058 118.872C63.0914 119.266 63.2457 119.645 63.4457 120.001C63.0616 118.861 63.0695 117.637 63.3064 116.419Z" fill="url(#paint3_linear_1019_9452)"/>
<path d="M64.2908 90.4573L62.8515 95.3087C62.8515 95.3087 67.4909 96.7584 68.7957 93.4896L64.2908 90.4573Z" fill="#82D8D9"/>
<path d="M62.8515 95.3074C62.8515 95.3074 67.4909 96.7571 68.7957 93.4883C68.7957 93.4883 66.7272 93.342 65.7826 93.639C64.3835 94.0779 62.8515 95.3074 62.8515 95.3074Z" fill="#2DC0C2"/>
<path d="M64.7577 91.4313C64.7577 91.4313 50.0866 88.3812 40.1847 82.0993C30.2829 75.8174 20.3578 63.0777 25.6295 41.8616C30.9013 20.6455 64.8443 11.3919 83.1035 34.9029C101.361 58.4139 73.7598 81.2156 64.7577 91.4313Z" fill="#82D8D9"/>
<path d="M43.3801 53.0563C47.7443 59.4136 57.487 63.9074 65.4115 64.1424C74.9037 64.4926 83.8192 59.4949 89.2053 52.1076C89.3414 46.538 87.6377 40.7422 83.1019 34.9021C71.2367 19.6237 52.7486 18.1843 39.809 24.8712C37.1453 29.7344 36.3383 42.7992 43.3801 53.0563Z" fill="url(#paint4_linear_1019_9452)"/>
<path d="M38.5148 68.9974C37.0601 64.5686 34.7411 59.6551 31.0911 56.4454C29.3983 54.9573 26.9866 53.4426 24.5054 52.8042C24.3786 67.3837 32.2398 76.7275 40.1968 81.8878C40.2308 77.5772 39.9216 73.2814 38.5148 68.9974Z" fill="url(#paint5_linear_1019_9452)" fill-opacity="0.4"/>
<path d="M83.1037 34.9025C78.0592 28.4078 71.8182 24.4164 65.3144 22.485C74.8421 27.4901 78.4612 31.5628 81.4851 35.4567C87.9085 43.7277 88.6537 51.9085 86.5311 59.4864C85.99 61.4178 84.005 67.5771 80.7585 73.3477C88.68 62.4064 93.879 48.7786 83.1037 34.9025Z" fill="#82D8D9"/>
<path opacity="0.75" d="M28.0972 42.7615C30.9402 30.5819 42.3324 22.175 55.0742 21.0785C41.3847 21.2809 28.6878 29.5593 25.6314 41.8616C21.3553 59.073 27.0785 70.7044 34.6768 77.836C28.4219 70.1975 24.3607 58.7626 28.0972 42.7615Z" fill="#82D8D9"/>
<path d="M67.6543 86.4563C63.2707 92.4833 57.1262 88.6005 52.8666 84.0979C50.6857 81.793 48.3807 79.6826 47.3969 76.0168C46.2041 71.5733 49.0598 69.012 51.5324 66.5155C57.2459 60.7393 64.9858 57.0228 72.2621 59.5587C74.8218 60.4519 78.0953 61.686 79.0247 65.2645C80.1261 69.5107 78.1258 73.0385 76.0211 76.0675C73.1132 80.2489 70.5622 82.458 67.6543 86.4563Z" fill="url(#paint6_linear_1019_9452)" fill-opacity="0.5"/>
<path d="M51.4887 24.3971C45.6805 24.6868 41.1833 27.36 41.1972 29.1112C41.2189 31.8273 45.1286 29.788 46.2618 29.2028C48.4694 28.0605 50.0107 28.226 52.4363 28.1314C53.5092 28.09 54.9439 28.2807 55.6906 27.4177C56.547 26.4305 54.7908 24.2331 51.4887 24.3971Z" fill="#76BFE4"/>
<path d="M60.8268 37.5076C60.2749 36.3579 58.9453 34.9334 57.4798 35.0752C56.0328 35.2142 54.677 36.7658 54.6816 38.149C54.6847 39.5558 56.1626 41.8389 57.7704 41.997C59.6256 42.1788 61.1468 40.4572 61.0633 38.8361C61.0216 38.0056 61.1854 38.2554 60.8268 37.5076Z" fill="#76BFE4"/>
<path d="M61.1393 44.7409C59.4434 43.3858 57.3363 44.9951 58.6364 46.8363C59.2873 47.7585 60.4251 47.5826 61.1069 46.7935C61.9556 45.8123 61.9401 45.3822 61.1393 44.7409Z" fill="#76BFE4"/>
<path d="M72.0075 30.5457C69.5479 28.7916 65.5624 31.9495 64.0149 34.3775C62.1691 37.2709 66.4668 49.9441 68.3977 52.1977C70.5327 54.6907 74.7856 55.6069 77.9347 54.7069C82.1985 53.4863 82.6082 38.0999 72.0075 30.5457Z" fill="#D1FBFA" fill-opacity="0.32"/>
<path d="M31.1593 100.601C31.3055 98.2598 30.2279 96.0434 28.5275 94.3693C28.0174 93.8674 27.4499 93.4166 26.8363 93.033C25.7054 92.3265 24.7841 91.5877 24.2843 90.3174C23.2948 87.7955 24.6434 84.8376 26.2357 82.9684C28.8408 79.9096 29.9351 78.7186 32.0391 76.7256L32.485 76.883C31.4269 76.3367 29.1753 78.3458 28.4252 79.0241C27.3478 79.9984 26.3728 81.1436 25.4751 82.2713C23.8222 84.3478 21.9114 87.6475 22.7726 90.3443C22.9767 90.9822 24.2722 92.3023 25.3857 93.1488C26.611 94.08 27.2223 94.9682 27.9038 96.0542C29.2441 98.1872 29.2669 100.753 28.4662 103.122C27.642 105.562 24.5828 107.226 22.029 107.195C20.5282 107.177 18.2011 106.746 18.3743 104.842C18.529 103.139 20.8017 102.375 22.2406 102.621C24.2475 102.966 25.7727 105.373 25.1266 107.287C24.7401 108.431 23.7374 109.225 22.9862 110.149C21.3916 112.113 20.461 113.787 20.3949 115.91C20.3648 116.877 20.5853 117.855 21.0163 118.735C21.5115 119.747 22.2888 120.632 23.2183 121.315C24.2594 122.078 24.9593 122.102 26.1628 122.097C26.1628 122.097 25.9931 120.502 26.136 119.766C26.136 119.766 25.2359 120.526 23.9512 120.191C23.1432 119.981 22.1678 119.37 21.745 118.666C20.7314 116.976 21.4571 114.119 23.4527 112.133C24.1799 111.41 26.8188 109.21 26.9497 107.298C27.16 104.215 23.8129 101.327 20.6949 101.767C19.114 101.99 16.6425 103.118 16.4697 104.862C16.2864 106.708 18.0831 107.831 19.7143 108.197C21.7289 108.647 23.4311 108.049 25.4451 107.555C26.3727 107.327 30.8679 105.263 31.1593 100.601Z" fill="#BEE288"/>
<path d="M17.7023 103.799C18.0733 103.085 18.6241 102.533 19.2872 102.145C17.955 102.65 16.6088 103.592 16.4822 104.862C16.3476 106.208 17.2673 107.166 18.4068 107.73C17.5155 106.61 17.0256 105.101 17.7023 103.799Z" fill="url(#paint7_linear_1019_9452)"/>
<path d="M29.319 95.9031C29.9911 97.8463 30.4822 99.8918 30.2523 101.948C30.1393 102.96 29.9505 103.801 29.6751 104.522C30.4556 103.502 31.0568 102.209 31.1573 100.601C31.3037 98.2594 30.2256 96.0417 28.5243 94.369C28.3145 94.1631 28.0893 93.972 27.8613 93.7836C27.9082 93.8522 27.9551 93.9222 28.0007 93.9908C28.5365 94.5129 29.0132 95.0216 29.319 95.9031Z" fill="url(#paint8_linear_1019_9452)"/>
<path d="M24.2436 120.267C24.451 121.217 25.2149 121.674 26.1514 121.876C26.1118 121.415 26.0343 120.334 26.1444 119.765C26.1444 119.765 25.3667 120.404 24.2335 120.233C24.235 120.247 24.2407 120.255 24.2436 120.267Z" fill="#9FD253" fill-opacity="0.17"/>
<path d="M21.7101 112.506C21.9184 112.061 22.0788 111.611 22.2266 111.161C21.1086 112.714 20.459 114.16 20.4044 115.911C20.3858 116.502 20.4715 117.095 20.6317 117.67C20.4876 115.914 20.9366 114.168 21.7101 112.506Z" fill="#9FD153" fill-opacity="0.36"/>
<path d="M32.5887 76.1874L29.9112 80.7504C29.9112 80.7504 34.239 83.3144 36.3829 80.3187L32.5887 76.1874Z" fill="#BEE288"/>
<path d="M29.9128 80.7513C29.9128 80.7513 34.2391 83.3153 36.3823 80.3195C36.3823 80.3195 34.3277 79.6823 33.2977 79.7577C31.7734 79.87 29.9128 80.7513 29.9128 80.7513Z" fill="#9FD153"/>
<path d="M32.7971 77.2846C32.7971 77.2846 18.7244 70.7284 10.2917 62.0355C1.85913 53.3426 -4.96913 38.1156 5.71225 17.9175C16.3952 -2.28064 53.0654 -3.59958 65.6087 24.4871C78.1505 52.5737 44.4795 69.0886 32.7971 77.2846Z" fill="#BEE288"/>
<path opacity="0.75" d="M20.8404 33.4342C23.652 40.8939 32.3747 47.7414 40.3318 49.8544C49.844 52.4553 60.1246 49.5143 67.4345 43.3203C68.9754 37.7222 68.7128 31.4617 65.5983 24.4855C57.4475 6.23324 39.1099 0.40298 24.3334 4.09956C20.4143 8.38465 16.3028 21.3981 20.8404 33.4342Z" fill="#BEE288" fill-opacity="0.73"/>
<path opacity="0.5" d="M11.5884 48.3163C11.233 43.4959 10.1241 37.9791 7.23922 33.8715C5.90066 31.9655 3.84141 29.8644 1.48937 28.6327C-2.31748 43.3392 3.28405 54.6448 10.038 61.7437C11.16 57.3936 11.932 52.9799 11.5884 48.3163Z" fill="#BEE288"/>
<path opacity="0.75" d="M65.5969 24.4873C62.1294 16.7274 56.8159 11.218 50.7206 7.724C59.1046 15.0373 61.7413 20.0114 63.819 24.6632C68.235 34.5435 66.9253 42.9894 62.8657 50.146C61.8306 51.9706 58.266 57.7255 53.5241 62.7898C64.3027 53.6075 73.0045 41.0642 65.5969 24.4873Z" fill="url(#paint9_linear_1019_9452)"/>
<path opacity="0.75" d="M7.98323 19.4128C13.9316 7.77446 27.5755 1.97379 40.7418 3.87974C26.8414 0.84411 11.9085 6.20711 5.7148 17.9179C-2.95061 34.3012 -0.0933043 47.4137 5.79598 56.4215C1.39562 47.2215 0.170041 34.7019 7.98323 19.4128Z" fill="url(#paint10_linear_1019_9452)"/>
<path opacity="0.75" d="M38.5935 72.3091C33.3208 76.8332 27.1382 72.4222 23.027 67.7855C20.922 65.4107 18.6672 63.188 17.9741 59.8285C17.1352 55.7552 20.4358 54.0003 23.3218 52.2364C29.9904 48.155 38.6208 46.2054 46.1474 49.6312C48.7954 50.8362 52.1698 52.4593 52.8126 55.7348C53.5734 59.6212 51.0918 62.3619 48.5488 64.6494C45.0328 67.8082 42.0915 69.3084 38.5935 72.3091Z" fill="url(#paint11_linear_1019_9452)" fill-opacity="0.83"/>
<path opacity="0.75" d="M36.2591 6.38644C30.312 5.30408 25.0908 6.94241 24.6638 8.71529C24.0022 11.4655 28.4696 10.3314 29.7623 10.0076C32.283 9.37623 33.7993 9.90854 36.2764 10.3861C37.3718 10.5976 38.7754 11.1299 39.7473 10.4349C40.8623 9.63943 39.6395 7.00155 36.2591 6.38644Z" fill="#E8FFC3" fill-opacity="0.71"/>
<path opacity="0.75" d="M42.4081 21.8486C42.1383 20.5548 41.153 18.8012 39.6371 18.5971C38.1382 18.3945 36.3769 19.6425 36.0308 21.0413C35.6802 22.4652 36.5989 25.1223 38.1866 25.662C40.0159 26.2845 41.9896 24.9035 42.3139 23.246C42.4798 22.3987 42.5822 22.69 42.4081 21.8486Z" fill="#E8FFC3" fill-opacity="0.71"/>
<path opacity="0.75" d="M40.9068 29.2324C39.5332 27.461 36.9963 28.5892 37.847 30.7583C38.2732 31.8437 39.4687 31.9353 40.3564 31.2995C41.4625 30.5085 41.557 30.0693 40.9068 29.2324Z" fill="#E8FFC3" fill-opacity="0.71"/>
<path opacity="0.75" d="M55.477 17.4558C53.4295 15.1018 48.6001 17.3493 46.4215 19.4371C43.8249 21.9257 44.9777 35.7524 46.3628 38.4878C47.8952 41.5131 51.9669 43.4457 55.3815 43.2816C60.0048 43.0583 64.2994 27.6021 55.477 17.4558Z" fill="#E8FFC3" fill-opacity="0.71"/>
<path d="M73.5867 88.5309C73.5621 86.2316 74.7294 84.1171 76.4784 82.5688C77.0038 82.1043 77.5813 81.6926 78.2006 81.3502C79.3426 80.7179 80.2817 80.0441 80.836 78.8253C81.933 76.4098 80.7628 73.4433 79.2991 71.5304C76.9052 68.4011 75.8949 67.1769 73.9361 65.1166L73.4918 65.2463C74.5548 64.7681 76.6568 66.8517 77.3552 67.5539C78.3607 68.5633 79.2561 69.7355 80.0766 70.8874C81.589 73.0052 83.2902 76.3356 82.3119 78.9308C82.0809 79.545 80.7446 80.7687 79.6122 81.5402C78.3671 82.3872 77.7232 83.2242 77.0021 84.2515C75.583 86.2706 75.4301 88.7793 76.0925 91.1401C76.776 93.5714 79.6834 95.3605 82.185 95.4639C83.6543 95.5251 85.9543 95.2236 85.8805 93.3507C85.8156 91.6768 83.6311 90.8091 82.21 90.9753C80.2284 91.2071 78.6145 93.4839 79.1506 95.3914C79.4706 96.5311 80.4108 97.36 81.1 98.3047C82.5607 100.31 83.3858 101.997 83.3432 104.079C83.3243 105.027 83.0581 105.974 82.5923 106.812C82.0556 107.777 81.252 108.604 80.3081 109.222C79.2517 109.914 78.5649 109.902 77.3881 109.833C77.3881 109.833 77.635 108.28 77.5325 107.553C77.5325 107.553 78.3741 108.345 79.6481 108.084C80.4488 107.92 81.4341 107.373 81.8835 106.707C82.9617 105.107 82.3958 102.272 80.5446 100.224C79.8706 99.4789 77.3996 97.1863 77.3689 95.308C77.3206 92.2793 80.7412 89.6273 83.77 90.2213C85.3055 90.523 87.6655 91.7556 87.7484 93.4712C87.8348 95.2877 86.0199 96.2931 84.4043 96.5643C82.4101 96.9005 80.7741 96.2258 78.8293 95.6372C77.9292 95.3651 73.6343 93.1099 73.5867 88.5309Z" fill="url(#paint12_linear_1019_9452)"/>
<path d="M85.646 92.4026C85.3199 91.6839 84.8075 91.1148 84.1783 90.7015C85.4572 91.2649 86.7269 92.2578 86.7859 93.5074C86.8482 94.8308 85.9009 95.7217 84.7559 96.2129C85.6855 95.1651 86.2412 93.713 85.646 92.4026Z" fill="#EDA4BF"/>
<path d="M75.6227 84.0296C74.8662 85.897 74.2825 87.873 74.4031 89.8967C74.4621 90.8934 74.6048 91.7263 74.8366 92.447C74.1239 91.4089 73.602 90.1097 73.5854 88.5313C73.5609 86.232 74.7282 84.1176 76.4772 82.5693C76.6921 82.3791 76.9219 82.2032 77.1542 82.0306C77.1059 82.0951 77.0558 82.1608 77.0072 82.2267C76.4586 82.7086 75.9646 83.1824 75.6227 84.0296Z" fill="#DD5E8D"/>
<path d="M79.3692 108.141C79.117 109.06 78.3457 109.469 77.4194 109.617C77.482 109.167 77.6125 108.114 77.5327 107.551C77.5327 107.551 78.2621 108.218 79.3806 108.11C79.3787 108.122 79.3726 108.13 79.3692 108.141Z" fill="#DD5E8D"/>
<path d="M82.2408 100.679C82.0604 100.231 81.9253 99.7837 81.8032 99.334C82.8171 100.912 83.3795 102.363 83.3449 104.078C83.3328 104.657 83.2192 105.234 83.0343 105.788C83.2636 104.078 82.9142 102.345 82.2408 100.679Z" fill="url(#paint13_linear_1019_9452)"/>
<path d="M74.0645 64.9697L71.2245 68.7809C71.2245 68.7809 74.8065 71.4305 77.0141 68.9626L74.0645 64.9697Z" fill="url(#paint14_linear_1019_9452)"/>
<path d="M71.2245 68.7829C71.2245 68.7829 74.8065 71.4326 77.0141 68.9647C77.0141 68.9647 75.2533 68.2199 74.3304 68.1978C72.9653 68.1638 71.2245 68.7829 71.2245 68.7829Z" fill="url(#paint15_linear_1019_9452)"/>
<path d="M74.154 65.9615C74.154 65.9615 62.3244 58.9215 55.7185 50.4776C49.1127 42.0352 44.5938 27.9389 56.1236 10.964C67.6548 -6.01093 100.346 -3.9805 108.635 22.0146C116.924 48.0112 85.3576 59.715 74.154 65.9615Z" fill="url(#paint16_linear_1019_9452)"/>
<path opacity="0.5" d="M58.2392 38.4249C58.4123 34.1202 57.9887 29.1328 55.846 25.2389C54.852 23.4331 53.238 21.3894 51.2762 20.0934C46.408 32.8006 50.2311 43.3118 55.5028 50.1952C56.9406 46.4373 58.0722 42.5907 58.2392 38.4249Z" fill="#C74D9D"/>
<path d="M108.637 22.0152C106.348 14.8333 102.192 9.48384 97.1383 5.85596C103.835 13.0718 105.669 17.712 107.042 22.0167C109.957 31.161 107.94 38.5364 103.613 44.5272C102.511 46.0538 98.7647 50.8461 94.0449 54.9232C104.539 47.7207 113.53 37.3572 108.637 22.0152Z" fill="#DD5E8D"/>
<path d="M57.9866 12.4858C64.4456 2.68685 77.1472 -1.26613 88.6429 1.57263C76.6108 -2.33159 62.81 1.12044 56.1238 10.9623C46.7707 24.732 47.9781 36.6072 52.2944 45.1072C49.32 36.5658 49.4993 25.3585 57.9866 12.4858Z" fill="#DD5E8D"/>
<path d="M78.0741 59.7151C74.3205 61.5505 71.1699 58.4694 69.2962 55.502C68.3361 53.9829 67.2663 52.5273 67.2833 50.6388C67.3034 48.3482 69.5157 47.7793 71.476 47.1587C76.0118 45.7208 81.4536 45.6543 85.5364 48.3586C86.9726 49.3103 88.7938 50.5693 88.7582 52.4076C88.7149 54.5888 86.8691 55.7813 85.0448 56.7241C82.5249 58.026 80.5631 58.4989 78.0741 59.7151Z" fill="#DD5E8D"/>
<path d="M84.4274 3.40715C79.2562 1.92792 74.4529 2.92541 73.8933 4.46079C73.026 6.84145 77.1088 6.22523 78.2915 6.05085C80.595 5.71097 81.8874 6.31537 84.0378 6.95376C84.9886 7.23601 86.1821 7.83154 87.1158 7.30103C88.1856 6.6922 87.3663 4.24799 84.4274 3.40715Z" fill="#DD5E8D"/>
<path d="M88.3149 17.6528C88.2067 16.4824 87.5094 14.8421 86.183 14.5289C84.8736 14.2185 83.1823 15.1702 82.734 16.382C82.2779 17.6129 82.8252 20.0497 84.1794 20.666C85.7409 21.3782 87.6331 20.3261 88.0892 18.8838C88.3226 18.1464 88.386 18.4139 88.3149 17.6528Z" fill="#EDA4BF"/>
<path d="M86.2301 24.0676C85.1897 22.3771 82.8228 23.1558 83.3593 25.1538C83.6283 26.1542 84.6795 26.3389 85.5313 25.8527C86.5949 25.2469 86.7217 24.8671 86.2301 24.0676Z" fill="#EDA4BF"/>
<path d="M100.362 14.8976C98.7835 12.6322 94.2693 14.2045 92.1251 15.8641C89.5681 17.8442 89.1893 30.2027 90.1416 32.7489C91.1944 35.5654 94.6125 37.6343 97.6612 37.785C101.784 37.9904 107.163 24.6626 100.362 14.8976Z" fill="#EDA4BF"/>
<defs>
<linearGradient id="paint0_linear_1019_9452" x1="57.1061" y1="112.153" x2="60.1983" y2="112.343" gradientUnits="userSpaceOnUse">
<stop offset="0.44766" stop-color="#2DC0C2"/>
<stop offset="0.717864" stop-color="#82D8D9"/>
</linearGradient>
<linearGradient id="paint1_linear_1019_9452" x1="71.4788" y1="105.022" x2="67.009" y2="107.266" gradientUnits="userSpaceOnUse">
<stop offset="0.824313" stop-color="#2DC0C2"/>
<stop offset="0.996422" stop-color="#82D8D9"/>
</linearGradient>
<linearGradient id="paint2_linear_1019_9452" x1="66.7494" y1="121.718" x2="67.4326" y2="120.646" gradientUnits="userSpaceOnUse">
<stop offset="0.360577" stop-color="#82D8D9"/>
<stop offset="0.5625" stop-color="#2DC0C2"/>
</linearGradient>
<linearGradient id="paint3_linear_1019_9452" x1="60.9264" y1="117.718" x2="63.8366" y2="117.908" gradientUnits="userSpaceOnUse">
<stop offset="0.488995" stop-color="#2DC0C2"/>
<stop offset="0.861541" stop-color="#82D8D9"/>
</linearGradient>
<linearGradient id="paint4_linear_1019_9452" x1="63.5458" y1="21.0747" x2="60.6711" y2="59.8497" gradientUnits="userSpaceOnUse">
<stop offset="0.548077" stop-color="#2DC0C2"/>
<stop offset="0.822115" stop-color="#82D8D9"/>
</linearGradient>
<linearGradient id="paint5_linear_1019_9452" x1="54.5194" y1="66.5842" x2="33.0467" y2="82.8079" gradientUnits="userSpaceOnUse">
<stop offset="0.535778" stop-color="#82D8D9"/>
<stop offset="1" stop-color="#2DC0C2"/>
</linearGradient>
<linearGradient id="paint6_linear_1019_9452" x1="58.0616" y1="78.4757" x2="65.3939" y2="87.8529" gradientUnits="userSpaceOnUse">
<stop offset="0.129808" stop-color="#82D8D9" stop-opacity="0.8"/>
<stop offset="0.793269" stop-color="#2DC0C2" stop-opacity="0.6"/>
</linearGradient>
<linearGradient id="paint7_linear_1019_9452" x1="17.9483" y1="104.978" x2="15.115" y2="104.749" gradientUnits="userSpaceOnUse">
<stop offset="0.09" stop-color="#BEE288" stop-opacity="0.5"/>
<stop offset="0.397188" stop-color="#9FD253"/>
</linearGradient>
<linearGradient id="paint8_linear_1019_9452" x1="28.6915" y1="100.296" x2="33.8985" y2="100.399" gradientUnits="userSpaceOnUse">
<stop offset="0.0877515" stop-color="#BEE288" stop-opacity="0.5"/>
<stop offset="0.586578" stop-color="#9FD253"/>
</linearGradient>
<linearGradient id="paint9_linear_1019_9452" x1="53.0638" y1="45.7681" x2="63.3043" y2="53.1563" gradientUnits="userSpaceOnUse">
<stop offset="0.216346" stop-color="#A2D358" stop-opacity="0.7"/>
<stop offset="1" stop-color="#A3D45B"/>
</linearGradient>
<linearGradient id="paint10_linear_1019_9452" x1="4.38947" y1="30.7325" x2="-4.79172" y2="29.1058" gradientUnits="userSpaceOnUse">
<stop stop-color="#BEE287"/>
<stop offset="1" stop-color="#546D2D"/>
</linearGradient>
<linearGradient id="paint11_linear_1019_9452" x1="34.2652" y1="62.6685" x2="37.3028" y2="73.8766" gradientUnits="userSpaceOnUse">
<stop offset="0.110577" stop-color="#BEE288"/>
<stop offset="1" stop-color="#80C11E"/>
</linearGradient>
<linearGradient id="paint12_linear_1019_9452" x1="86.2551" y1="85.7108" x2="73.1813" y2="88.2608" gradientUnits="userSpaceOnUse">
<stop offset="0.0374" stop-color="#EDA4BF"/>
<stop offset="0.8984" stop-color="#DD5E8D"/>
</linearGradient>
<linearGradient id="paint13_linear_1019_9452" x1="83.1869" y1="102.425" x2="82.4081" y2="102.577" gradientUnits="userSpaceOnUse">
<stop offset="0.8984" stop-color="#DF6894"/>
<stop offset="0.8985" stop-color="#E06C97"/>
</linearGradient>
<linearGradient id="paint14_linear_1019_9452" x1="71.9635" y1="66.8016" x2="77.1052" y2="68.7204" gradientUnits="userSpaceOnUse">
<stop offset="0.0374" stop-color="#E0739B"/>
<stop offset="0.8984" stop-color="#DD5E8D"/>
</linearGradient>
<linearGradient id="paint15_linear_1019_9452" x1="71.4749" y1="68.1116" x2="76.6166" y2="70.0304" gradientUnits="userSpaceOnUse">
<stop offset="0.0374" stop-color="#DD5E8D"/>
<stop offset="0.8984" stop-color="#DD5E8D"/>
</linearGradient>
<linearGradient id="paint16_linear_1019_9452" x1="83.2909" y1="8.84662" x2="74.9806" y2="61.6254" gradientUnits="userSpaceOnUse">
<stop offset="0.0961538" stop-color="#DD5E8D" stop-opacity="0.8"/>
<stop offset="0.9198" stop-color="#DD5E8D"/>
</linearGradient>
</defs>
</svg>
