<svg width="94" height="45" viewBox="0 0 94 45" fill="none" xmlns="http://www.w3.org/2000/svg">
<path d="M8.79805 20.9166C8.79805 20.9166 3.0806 18.4875 0.793617 21.4025C-1.49336 24.3176 1.25109 28.69 7.8831 27.2323C7.8831 27.2323 8.56912 35.2484 17.4885 36.2203C26.4075 37.1921 28.6945 31.8479 28.6945 31.8479C28.6945 31.8479 29.6988 42.4552 41.7303 44.7223C53.0693 46.8588 57.7392 35.9775 57.7392 35.9775C57.7392 35.9775 62.6165 41.0204 70.6209 38.834C78.6253 36.6476 79.694 31.6051 79.694 31.6051C79.694 31.6051 91.169 35.1125 93.6445 26.2609C96.3088 16.7346 83.1245 14.3582 83.1245 14.3582C83.1245 14.3582 83.523 5.376 74.8915 2.69836C68.5709 0.737516 64.6001 7.55667 64.6001 7.55667C64.6001 7.55667 59.6947 2.65988 52.9533 5.74647C47.1294 8.41265 46.9907 13.3864 46.9907 13.3864C46.9907 13.3864 46.0229 1.8911 34.588 0.190604C23.1531 -1.50989 20.2333 8.77125 20.2333 8.77125C20.2333 8.77125 9.25552 7.55627 8.79805 20.9166Z" fill="#B5E4FE"/>
<path d="M93.2383 27.3548C87.9822 32.1579 80.2691 29.4508 80.2691 29.4508C83.2911 27.8457 83.8723 22.6603 83.8723 22.6603C83.8723 22.6603 82.1287 26.4874 77.5956 27.5988C73.0625 28.7098 70.1565 24.5122 70.1565 24.5122C71.3189 28.463 74.922 29.8212 74.922 29.8212C74.922 29.8212 70.9701 34.6362 65.2746 35.2535C59.5792 35.8708 56.7896 33.0311 56.7896 33.0311C59.8116 31.7964 61.2067 28.9567 61.2067 28.9567C64.229 28.5862 65.391 26.1169 65.391 26.1169C59.3468 28.7094 55.5112 25.7464 55.5112 25.7464C56.4412 27.4748 59.2308 28.5862 59.2308 28.5862C59.2308 28.5862 58.766 30.3145 54.5812 31.4259C50.3969 32.537 46.561 30.0677 46.561 30.0677C48.7694 33.1543 53.0701 34.0184 53.0701 34.0184C53.0701 34.0184 47.607 39.8212 39.9356 38.216C32.2641 36.6109 30.8693 29.2035 30.8693 29.2035C33.7753 28.5862 36.2164 25.4996 36.2164 25.4996C26.3362 29.574 21.1059 23.0303 21.1059 23.0303C21.9195 26.9811 24.1279 28.3394 24.1279 28.3394C24.1279 28.3394 20.9895 32.2901 15.2941 30.9318C9.59857 29.574 9.24979 23.8945 9.24979 23.8945C9.24979 23.8945 6.57624 26.487 2.97311 25.2524C1.44499 24.7288 0.61098 23.6722 0.152351 22.6292C-0.683973 25.3797 2.13717 28.4949 7.88469 27.2316C7.88469 27.2316 8.5707 35.2478 17.4901 36.2196C26.4091 37.1914 28.6961 31.8472 28.6961 31.8472C28.6961 31.8472 29.7004 42.4546 41.7319 44.7216C53.0709 46.8581 57.7408 35.9768 57.7408 35.9768C57.7408 35.9768 62.6181 41.0198 70.6225 38.8334C78.6269 36.647 79.6956 31.6044 79.6956 31.6044C79.6956 31.6044 90.1401 34.7754 93.2383 27.3548Z" fill="#ABD4F4"/>
<path d="M83.1237 14.3575C83.1237 14.3575 83.5222 5.37527 74.8908 2.69763C68.5702 0.736783 64.5993 7.55595 64.5993 7.55595C64.5993 7.55595 59.6939 2.65916 52.9525 5.74575C47.1287 8.41234 46.9899 13.3857 46.9899 13.3857C46.9899 13.3857 46.0222 1.89036 34.5873 0.189872C23.1524 -1.51062 20.2326 8.77052 20.2326 8.77052C20.2326 8.77052 12.3992 7.90472 9.69141 15.69C10.91 14.3956 13.6187 11.8395 16.1134 11.7163C19.4602 11.5509 21.25 13.0389 21.25 13.0389C21.25 13.0389 23.1181 6.50798 31.6016 6.50798C40.085 6.50798 41.9527 17.0896 41.9527 17.0896C41.9527 17.0896 44.9881 14.1135 48.646 15.0227C52.3038 15.9319 53.0045 17.0896 53.0045 17.0896C53.0045 17.0896 52.771 11.7163 57.363 10.1456C61.9551 8.57485 64.3677 11.8817 64.3677 11.8817C64.3677 11.8817 61.7994 12.6259 60.632 15.6842C60.632 15.6842 65.7687 11.799 70.2829 14.3616C70.2829 14.3616 68.4148 11.9644 66.5472 11.8817C66.5472 11.8817 68.5709 6.50838 73.474 6.92143C78.3775 7.33489 81.4904 15.9323 81.4904 15.9323C81.4904 15.9323 85.4828 15.6441 89.5503 16.8423C86.545 14.9777 83.1237 14.3575 83.1237 14.3575Z" fill="#ABD4F4"/>
</svg>
