<svg width="110" height="123" viewBox="0 0 110 123" fill="none" xmlns="http://www.w3.org/2000/svg">
<path d="M110 118.104C110 120.391 85.3772 122.24 55.0026 122.24C24.6235 122.24 0 120.391 0 118.104C0 115.817 24.6243 113.962 55.0026 113.962C85.3772 113.962 110 115.817 110 118.104Z" fill="url(#paint0_radial_1019_9611)"/>
<path d="M49.5242 8.51766C49.5242 8.51766 56.5319 51.0399 27.132 92.5554C23.8197 97.2338 29.2673 104.417 39.5401 108.771C52.3801 114.215 72.7138 115.032 70.532 108.213C58.2471 69.85 95.1548 15.4334 95.1548 15.4334C94.155 8.34325 82.0858 1.5166 68.1966 0.182328C57.085 -0.88553 48.7253 2.84646 49.5242 8.51766C50.1636 13.0533 57.8876 17.4263 66.7752 18.2785C73.8864 18.9615 79.2379 16.5726 78.727 12.9429C78.3157 10.0389 73.3739 7.24374 67.6841 6.69693C63.1336 6.25831 59.7098 7.78761 60.0369 10.111C60.299 11.97 63.4629 13.7583 67.1023 14.1079C70.0159 14.3876 72.2066 13.411 71.9969 11.9236" fill="url(#paint1_linear_1019_9611)"/>
<path d="M39.54 108.772C29.2672 104.417 23.8196 97.2342 27.1318 92.5558C56.5318 51.0403 49.524 8.51807 49.524 8.51807C50.1634 13.0537 57.8874 17.4267 66.7751 18.2789C72.7816 18.8559 77.5293 17.2442 78.5541 14.5411L78.7269 14.6397C78.7269 14.6397 47.3865 99.0653 70.4262 110.279C68.1004 114.778 50.8915 113.585 39.54 108.772Z" fill="url(#paint2_linear_1019_9611)"/>
<path d="M78.7252 12.9426C79.1203 15.7583 75.9896 17.8263 71.2493 18.2944C72.0999 15.5007 72.7955 12.4061 71.9951 11.6083C72.2048 13.0949 70.0141 14.0737 67.1005 13.7948C63.4604 13.4452 60.2973 11.3816 60.0352 9.52191C60.3157 7.53633 63.5291 6.29699 67.6823 6.69661C73.3721 7.24342 78.3147 10.0385 78.7252 12.9426Z" fill="url(#paint3_linear_1019_9611)"/>
<path d="M61.9513 64.8118C60.4311 64.6587 59.6366 66.174 60.1881 68.1758C60.1881 68.1758 63.2804 79.4042 58.5586 97.1331L62.6247 94.0605C63.9685 93.0456 66.1821 93.0074 67.5473 93.9722L70.4801 96.0542C71.8417 97.019 72.7912 96.0682 72.5874 93.9362C72.5874 93.9362 71.0922 78.3069 64.3252 65.0495L61.9513 64.8118Z" fill="#DD5E8D"/>
<path d="M53.839 61.7498C55.2094 62.6882 55.3585 64.5597 54.1705 65.9057C54.1705 65.9057 47.5054 73.4499 45.3028 92.1297L42.8714 86.6049C42.0688 84.7783 40.166 83.1828 38.6413 83.0621L35.363 82.7964C33.8405 82.6735 33.3569 81.181 34.2895 79.481C34.2895 79.481 41.1318 66.9986 51.6992 60.2831L53.839 61.7498Z" fill="#DD5E8D"/>
<path d="M52.0935 64.1532C51.223 64.5153 16.4374 76.4303 36.6692 43.8801C41.0779 36.7863 54.9162 52.172 54.9162 52.172C54.9162 52.172 59.4476 61.4928 52.0935 64.1532Z" fill="#DD5E8D"/>
<path d="M38.879 41.5916C43.1691 41.4324 51.635 47.493 54.1593 51.7488C54.2979 52.0636 55.9055 55.7849 55.3351 58.9529C55.2768 59.2756 55.196 59.5922 55.089 59.9002C54.57 61.3825 53.4519 62.4636 51.7687 63.1092C52.4599 62.854 39.2024 66.8245 33.3849 64.0144C32.7856 64.0264 32.3074 63.7711 32.0441 63.114C31.7948 62.8803 31.5749 62.6224 31.3907 62.3357C29.134 58.8223 30.5251 54.2344 35.9181 44.5144C36.1376 44.0365 36.3641 43.5458 36.5987 43.0428C36.9458 42.2993 37.3579 41.8663 37.8614 41.7068C38.1704 41.6109 38.512 41.5749 38.879 41.5916Z" fill="url(#paint4_linear_1019_9611)"/>
<path d="M62.7796 69.6634C63.4528 70.6091 89.2247 104.608 84.0263 61.0076C82.9083 51.6229 64.6151 56.9639 64.6151 56.9639C64.6151 56.9639 57.189 62.3399 62.7796 69.6634Z" fill="#DD5E8D"/>
<path d="M64.8505 56.2392C68.4839 54.3522 77.8277 54.1501 81.9023 56.8271C82.4769 57.0999 82.9676 57.4459 83.3388 57.8779C83.7387 58.345 83.9589 58.9938 84.0136 59.8603C84.1048 61.3378 84.1766 62.7032 84.2314 63.9668C85.3195 74.0269 84.6055 77.6983 81.8456 79.9248C81.6746 80.0629 81.4904 80.1727 81.2958 80.2598C80.946 80.4926 80.5585 80.6054 80.1386 80.6162C79.8114 80.6994 79.4644 80.6382 79.1054 80.4648C78.8753 80.397 78.6388 80.3098 78.3984 80.2012C72.2403 78.2104 62.5934 66.9891 63.0566 67.5801C61.7609 65.8949 61.13 64.2178 61.1786 62.5996C61.1878 62.2635 61.2268 61.9396 61.2861 61.624C61.8738 58.5268 64.6216 56.4135 64.8505 56.2392Z" fill="url(#paint5_linear_1019_9611)"/>
<path d="M32.5993 61.2042C32.5993 61.2042 30.9439 65.7759 46.5912 64.0965C62.2415 62.4156 33.1848 56.8651 32.5993 61.2042Z" fill="#DD5E8D"/>
<path d="M33.2172 62.139C33.116 61.9682 33.0879 61.8372 33.082 61.7511C33.0975 61.6282 33.1116 61.5186 33.116 61.4943C33.1441 61.4538 33.4623 61.0358 35.0077 60.787C39.6187 60.0474 48.4229 61.6812 50.2866 62.8955C49.7963 63.0928 48.7567 63.3776 46.5918 63.6087C36.0015 64.7472 33.7111 62.9581 33.2172 62.139Z" fill="#E993B3" fill-opacity="0.53"/>
<path d="M55.8751 50.9534C55.8751 50.9534 62.4502 50.5493 65.2707 55.3764C65.2707 55.3764 64.9244 65.1513 61.8359 68.7508C61.8359 68.7508 55.7872 68.7265 52.613 63.8876C52.613 63.8876 52.2941 53.8633 55.8751 50.9534Z" fill="#DD5E8D"/>
<path d="M63.8565 55.6398C63.8139 56.4755 63.6592 58.944 63.1965 61.5892C62.7702 64.0131 62.0812 66.5469 60.9901 68.0519C60.0351 67.9947 55.6134 67.5067 53.11 63.6097C53.1045 62.6908 53.1244 59.8086 53.6133 57.0133C53.9928 54.8546 54.657 52.7635 55.8004 51.6701C56.6791 51.6537 61.5718 51.7392 63.8565 55.6398Z" fill="#EDA4BF" fill-opacity="0.27"/>
<path d="M65.1176 55.3204C65.0449 56.2076 64.7962 58.8351 64.2204 61.6706C63.6944 64.268 62.892 67.0039 61.7107 68.6818C60.7281 68.6905 56.1812 68.496 53.7383 64.5511C53.7636 63.5817 53.8905 60.524 54.4985 57.5225C54.9661 55.2121 55.728 52.9475 56.9482 51.7061C57.8572 51.6223 62.9046 51.3566 65.1176 55.3204Z" fill="#DD5E8D"/>
<path d="M64.6023 55.6592C64.5041 56.4231 64.2051 58.6817 63.7326 61.1618C63.2999 63.4345 62.7247 65.8623 62.0403 67.4336C61.5677 67.5683 59.394 67.9863 58.4902 64.9498C58.5692 64.1233 58.8395 61.5129 59.3386 58.8929C59.724 56.8691 60.2461 54.8474 60.9187 53.6397C61.3602 53.4528 63.8086 52.5785 64.6023 55.6592Z" fill="#DD5E8D"/>
<path d="M63.3102 55.5518C63.3102 55.5518 65.6899 53.7856 63.0909 64.997C62.1849 68.9078 61.5049 67.9091 60.7968 67.642C60.0895 67.3763 63.3102 55.5518 63.3102 55.5518Z" fill="#F9D3E2" fill-opacity="0.11"/>
<path d="M62.411 69.316C63.3501 69.4022 64.9396 70.896 65.4892 72.5933L71.6972 92.4146C71.9751 94.2189 71.1579 95.017 69.8778 94.1919L67.7919 92.8443C66.5126 92.0175 64.6483 91.9063 63.6484 92.5953C62.6476 93.2844 60.4821 94.1609 60.7079 93.2535C60.7079 93.2535 60.7072 93.253 60.8749 92.4468C63.2096 81.2593 61.3691 72.3902 61.3691 72.3902C61.0025 70.6136 61.4699 69.2297 62.411 69.316Z" fill="url(#paint6_linear_1019_9611)"/>
<path d="M47.5987 66.5378C48.5117 65.5353 50.0839 65.2906 50.7638 65.7653C51.4447 66.2401 51.3372 67.5846 50.5255 68.7516C50.4934 68.798 46.4652 74.6221 44.5978 84.6178C44.4695 85.3013 44.4624 85.3394 44.462 85.3415C44.3363 86.1788 43.7384 85.7145 43.1319 84.3132C43.1303 84.3094 43.0919 84.2206 42.6222 83.1374C42.1425 82.0258 40.8098 81.039 39.6632 80.9469L37.7921 80.7926C36.6455 80.6972 36.3255 79.6068 37.0821 78.3659L47.5987 66.5378Z" fill="url(#paint7_linear_1019_9611)"/>
<path d="M78.8867 81.4327C78.8867 81.4327 78.8948 81.4349 78.8984 81.4364C78.8948 81.4349 78.8904 81.4349 78.8867 81.4327Z" fill="#DD5E8D"/>
<path d="M80.2019 79.1497C80.2019 79.1497 80.0225 84.2344 66.9063 72.5888C53.793 60.9505 81.2378 74.9659 80.2019 79.1497Z" fill="#DD5E8D"/>
<path d="M67.0821 72.1622C65.2694 70.5519 64.458 69.6261 64.0977 69.136C66.1651 69.2846 74.4657 73.573 78.2439 77.2189C79.5079 78.4384 79.6371 79.0154 79.6467 79.0676C79.643 79.0816 79.6128 79.2067 79.584 79.3149C79.5478 79.3848 79.4769 79.4819 79.3278 79.5658C78.6034 79.9677 75.9579 80.042 67.0821 72.1622Z" fill="#E993B3" fill-opacity="0.53"/>
<path d="M32.1443 53.6436C40.9047 51.7403 47.674 54.0604 52.8602 58.0683C52.8313 58.1283 52.8006 58.1879 52.7702 58.2436C52.6273 58.5112 52.4658 58.7725 52.2817 59.026C52.193 59.1495 52.097 59.2669 51.9995 59.3825C50.7806 58.4493 49.4617 57.6101 48.0453 56.8951L48.0454 56.896C46.3935 56.0643 44.6071 55.3996 42.6888 54.9612L42.6888 54.9602C41.3326 54.6466 39.909 54.453 38.4218 54.3813C38.4223 54.3797 38.4221 54.3779 38.4226 54.3763C38.4216 54.3763 38.4207 54.3755 38.4197 54.3755C38.4192 54.377 38.4194 54.3788 38.4189 54.3804C36.8329 54.3059 35.172 54.3814 33.4391 54.6205C33.4404 54.6186 33.4415 54.6164 33.4428 54.6145C32.6912 54.7191 31.9251 54.8546 31.1455 55.0245C31.3749 54.574 31.8533 54.1303 32.1443 53.6436ZM34.4122 50.8933C42.6978 49.1993 48.6655 51.4023 53.7068 55.11C53.6454 55.6468 53.5392 56.2238 53.3624 56.8085C51.9542 55.7324 50.4435 54.7833 48.8156 54.009C48.8152 54.0115 48.8153 54.0143 48.8149 54.0168C47.1595 53.2286 45.3838 52.6232 43.4706 52.2466L43.4706 52.2447C41.9547 51.9495 40.3528 51.7994 38.6556 51.822C38.656 51.8246 38.6574 51.8271 38.6578 51.8297C37.5268 51.8448 36.3567 51.9369 35.1426 52.1081C35.144 52.106 35.1447 52.1033 35.1462 52.1012L35.1443 52.1022C35.1433 52.1037 35.1426 52.1057 35.1416 52.1072C34.9617 52.1334 34.7881 52.1521 34.608 52.1828L34.6079 52.1818C34.1055 52.2632 33.5954 52.3592 33.0779 52.4694C33.3866 51.9986 34.0568 51.3899 34.4122 50.8933Z" fill="url(#paint8_linear_1019_9611)"/>
<path d="M83.206 69.3089C77.3126 63.6107 70.7957 62.4534 64.6476 63.4771C64.6392 63.5418 64.6327 63.6074 64.6277 63.6692C64.6013 63.9647 64.5936 64.2633 64.6068 64.5659C64.6125 64.7128 64.6272 64.8575 64.644 65.0017C66.085 64.7686 67.5558 64.6628 69.0389 64.7085L69.6869 64.7393C71.2026 64.833 72.7298 65.0887 74.2466 65.5397L74.2482 65.5373L74.2474 65.5402C75.4749 65.9015 76.6932 66.3966 77.8984 67.0259L77.8994 67.0243C79.1832 67.697 80.4471 68.5337 81.6838 69.5431C81.6838 69.5412 81.6841 69.5393 81.6841 69.5374C82.22 69.976 82.7509 70.4477 83.275 70.9551C83.3282 70.4629 83.1825 69.8607 83.206 69.3089ZM82.8525 65.9012C77.2235 60.6025 71.3967 59.7177 65.5179 60.5515C65.2881 61.0396 65.0733 61.5827 64.9094 62.1655C66.5728 61.8979 68.2507 61.7867 69.9304 61.8798C69.9292 61.8824 69.9275 61.885 69.9263 61.8876C71.6344 61.9815 73.342 62.2881 75.0393 62.8541L75.0409 62.8517C76.3827 63.3025 77.7162 63.9181 79.0359 64.7244C79.0344 64.7262 79.0328 64.7278 79.0313 64.7296C79.9116 65.2678 80.7821 65.8904 81.6468 66.6009C81.6468 66.5981 81.6479 66.5952 81.6479 66.5923C81.6499 66.594 81.6513 66.5965 81.6534 66.5981L81.6531 66.6003C81.7389 66.6715 81.8234 66.7395 81.9082 66.8091C82.3019 67.1434 82.6941 67.4972 83.084 67.8709C83.0854 67.3243 82.8744 66.4914 82.8525 65.9012Z" fill="url(#paint9_linear_1019_9611)"/>
<defs>
<radialGradient id="paint0_radial_1019_9611" cx="0" cy="0" r="1" gradientUnits="userSpaceOnUse" gradientTransform="translate(54.4392 118.302) scale(54.9505 4.14286)">
<stop offset="0.0057" stop-color="#C5C8CB"/>
<stop offset="0.1911" stop-color="#D2D4D7"/>
<stop offset="0.7128" stop-color="#F3F3F4"/>
<stop offset="1" stop-color="white"/>
</radialGradient>
<linearGradient id="paint1_linear_1019_9611" x1="42.7708" y1="51.8293" x2="80.2305" y2="61.0063" gradientUnits="userSpaceOnUse">
<stop stop-color="#9A836B"/>
<stop offset="0.5932" stop-color="#F0EFE1"/>
<stop offset="0.9943" stop-color="#9C847A"/>
</linearGradient>
<linearGradient id="paint2_linear_1019_9611" x1="42.908" y1="58.2897" x2="61.6389" y2="62.6599" gradientUnits="userSpaceOnUse">
<stop stop-color="#BEB1A2"/>
<stop offset="0.0169" stop-color="#C0B3A4"/>
<stop offset="0.3993" stop-color="#E3DED0"/>
<stop offset="0.5932" stop-color="#F0EFE1"/>
<stop offset="1" stop-color="#C2B69B"/>
</linearGradient>
<linearGradient id="paint3_linear_1019_9611" x1="68.3034" y1="15.1206" x2="63.1059" y2="31.6334" gradientUnits="userSpaceOnUse">
<stop stop-color="#9A836B"/>
<stop offset="0.5932" stop-color="#F0EFE1"/>
<stop offset="0.9943" stop-color="#9C847A"/>
</linearGradient>
<linearGradient id="paint4_linear_1019_9611" x1="32.8838" y1="51.2433" x2="47.531" y2="55.1729" gradientUnits="userSpaceOnUse">
<stop stop-color="#EDA4BF"/>
<stop offset="0.55" stop-color="#DD5E8D"/>
</linearGradient>
<linearGradient id="paint5_linear_1019_9611" x1="84.7684" y1="67.081" x2="64.9099" y2="60.8991" gradientUnits="userSpaceOnUse">
<stop stop-color="#EDA4BF"/>
<stop offset="0.55" stop-color="#DD5E8D"/>
</linearGradient>
<linearGradient id="paint6_linear_1019_9611" x1="67.6449" y1="93.5723" x2="63.8756" y2="71.1989" gradientUnits="userSpaceOnUse">
<stop offset="0.25" stop-color="#EDA4BF" stop-opacity="0.25"/>
<stop offset="0.92347" stop-color="#DD5E8D"/>
</linearGradient>
<linearGradient id="paint7_linear_1019_9611" x1="37.9361" y1="86.0106" x2="51.4669" y2="65.8059" gradientUnits="userSpaceOnUse">
<stop offset="0.25" stop-color="#EDA4BF" stop-opacity="0.25"/>
<stop offset="0.92" stop-color="#DD5E8D"/>
</linearGradient>
<linearGradient id="paint8_linear_1019_9611" x1="33.9983" y1="53.3505" x2="52.6592" y2="56.7129" gradientUnits="userSpaceOnUse">
<stop offset="0.442465" stop-color="#EDA4BF" stop-opacity="0.4"/>
<stop offset="1" stop-color="#DD5E8D"/>
</linearGradient>
<linearGradient id="paint9_linear_1019_9611" x1="81.9483" y1="68.1515" x2="65.824" y2="61.5907" gradientUnits="userSpaceOnUse">
<stop offset="0.442465" stop-color="#EDA4BF" stop-opacity="0.4"/>
<stop offset="1" stop-color="#DD5E8D"/>
</linearGradient>
</defs>
</svg>
