<svg width="71" height="73" viewBox="0 0 71 73" fill="none" xmlns="http://www.w3.org/2000/svg">
<path d="M53.7519 36.4998C53.7519 46.7067 45.5797 54.9815 35.4995 54.9815C25.4192 54.9815 17.2471 46.7067 17.2471 36.4998C17.2471 26.2923 25.4192 18.018 35.4995 18.018C45.5803 18.018 53.7519 26.2923 53.7519 36.4998Z" fill="#E3C327" fill-opacity="0.5"/>
<path d="M34.6797 14.7927L35.4996 0L36.3195 14.7927H34.6797Z" fill="#F3DF7C" fill-opacity="0.5"/>
<path d="M30.9694 15.2665L30.8425 9.75505L32.5839 14.9784L30.9694 15.2665Z" fill="#F3DF7C" fill-opacity="0.5"/>
<path d="M27.3957 16.3856L23.1699 2.20089L28.9368 15.8173L27.3957 16.3856Z" fill="#F3DF7C" fill-opacity="0.5"/>
<path d="M24.0712 18.1164L22.0896 12.9811L25.491 17.2861L24.0712 18.1164Z" fill="#F3DF7C" fill-opacity="0.5"/>
<path d="M21.0906 20.4046L12.3286 8.53894L22.3466 19.3374L21.0906 20.4046Z" fill="#F3DF7C" fill-opacity="0.5"/>
<path d="M18.55 23.1827L14.9539 19.043L19.6045 21.9109L18.55 23.1827Z" fill="#F3DF7C" fill-opacity="0.5"/>
<path d="M16.5228 26.3647L4.28198 18.2495L17.3428 24.927L16.5228 26.3647Z" fill="#F3DF7C" fill-opacity="0.5"/>
<path d="M15.0722 29.8561L10.2947 27.212L15.6334 28.2962L15.0722 29.8561Z" fill="#F3DF7C" fill-opacity="0.5"/>
<path d="M14.2438 33.5486L0 30.1618L14.5289 31.9131L14.2438 33.5486Z" fill="#F3DF7C" fill-opacity="0.5"/>
<path d="M14.0602 37.3306L8.67725 36.5004L14.0602 35.6702V37.3306Z" fill="#F3DF7C" fill-opacity="0.5"/>
<path d="M14.5283 41.087L0 42.8377L14.2438 39.4521L14.5283 41.087Z" fill="#F3DF7C" fill-opacity="0.5"/>
<path d="M15.636 44.7046L10.2979 45.7883L15.0748 43.1442L15.636 44.7046Z" fill="#F3DF7C" fill-opacity="0.5"/>
<path d="M17.3428 48.0727L4.28198 54.7502L16.5228 46.635L17.3428 48.0727Z" fill="#F3DF7C" fill-opacity="0.5"/>
<path d="M19.6039 51.0894L14.9539 53.9568L18.5494 49.8176L19.6039 51.0894Z" fill="#F3DF7C" fill-opacity="0.5"/>
<path d="M22.3471 53.6624L12.3286 64.4603L21.0912 52.5953L22.3471 53.6624Z" fill="#F3DF7C" fill-opacity="0.5"/>
<path d="M25.4905 55.7151L22.0896 60.019L24.0706 54.8849L25.4905 55.7151Z" fill="#F3DF7C" fill-opacity="0.5"/>
<path d="M28.9374 57.1829L23.1699 70.7988L27.3963 56.6147L28.9374 57.1829Z" fill="#F3DF7C" fill-opacity="0.5"/>
<path d="M32.5839 58.0222L30.8425 63.245L30.9694 57.7341L32.5839 58.0222Z" fill="#F3DF7C" fill-opacity="0.5"/>
<path d="M36.3195 58.2079L35.499 73L34.6797 58.2079H36.3195Z" fill="#F3DF7C" fill-opacity="0.5"/>
<path d="M40.0293 57.7341L40.1578 63.245L38.4153 58.0228L40.0293 57.7341Z" fill="#F3DF7C" fill-opacity="0.5"/>
<path d="M43.6015 56.6147L47.8279 70.7988L42.061 57.1824L43.6015 56.6147Z" fill="#F3DF7C" fill-opacity="0.5"/>
<path d="M46.9281 54.8849L48.9097 60.019L45.5083 55.7157L46.9281 54.8849Z" fill="#F3DF7C" fill-opacity="0.5"/>
<path d="M49.9097 52.5953L58.6711 64.4603L48.6526 53.6624L49.9097 52.5953Z" fill="#F3DF7C" fill-opacity="0.5"/>
<path d="M52.4489 49.8176L56.0445 53.9562L51.395 51.0905L52.4489 49.8176Z" fill="#F3DF7C" fill-opacity="0.5"/>
<path d="M54.4766 46.635L66.7175 54.7502L53.6567 48.0727L54.4766 46.635Z" fill="#F3DF7C" fill-opacity="0.5"/>
<path d="M55.9236 43.1455L60.7011 45.7878L55.3635 44.7059L55.9236 43.1455Z" fill="#F3DF7C" fill-opacity="0.5"/>
<path d="M56.7558 39.4516L71.0001 42.8383L56.4707 41.0864L56.7558 39.4516Z" fill="#F3DF7C" fill-opacity="0.5"/>
<path d="M56.9363 35.6709L62.3193 36.4999L56.9374 37.3313L56.9363 35.6709Z" fill="#F3DF7C" fill-opacity="0.5"/>
<path d="M56.4707 31.9131L71.0001 30.1624L56.7558 33.548L56.4707 31.9131Z" fill="#F3DF7C" fill-opacity="0.5"/>
<path d="M55.3635 28.2962L60.7011 27.212L55.9236 29.8566L55.3635 28.2962Z" fill="#F3DF7C" fill-opacity="0.5"/>
<path d="M53.6545 24.9272L66.7164 18.2503L54.4745 26.3649L53.6545 24.9272Z" fill="#F3DF7C" fill-opacity="0.5"/>
<path d="M51.395 21.9109L56.0445 19.043L52.4489 23.1827L51.395 21.9109Z" fill="#F3DF7C" fill-opacity="0.5"/>
<path d="M48.6526 19.3376L58.6717 8.53971L49.9086 20.4048L48.6526 19.3376Z" fill="#F3DF7C" fill-opacity="0.5"/>
<path d="M45.5083 17.2861L48.9086 12.9811L46.9281 18.1164L45.5083 17.2861Z" fill="#F3DF7C" fill-opacity="0.5"/>
<path d="M42.061 15.8179L47.8296 2.20145L43.6026 16.3856L42.061 15.8179Z" fill="#F3DF7C" fill-opacity="0.5"/>
<path d="M38.4153 14.9784L40.1572 9.75505L40.0304 15.2665L38.4153 14.9784Z" fill="#F3DF7C" fill-opacity="0.5"/>
<path d="M36.6462 26.7643C36.6462 26.7643 34.8393 26.0079 34.1165 26.9157C33.3938 27.8234 34.2611 29.1849 36.357 28.731C36.357 28.731 36.5738 31.2271 39.3927 31.5297C42.2113 31.8324 42.9341 30.1682 42.9341 30.1682C42.9341 30.1682 43.2515 33.4713 47.0539 34.1772C50.6373 34.8425 52.1132 31.4541 52.1132 31.4541C52.1132 31.4541 53.6545 33.0245 56.1842 32.3436C58.7139 31.6628 59.0516 30.0926 59.0516 30.0926C59.0516 30.0926 62.6781 31.1848 63.4604 28.4285C64.3024 25.4621 60.1358 24.7221 60.1358 24.7221C60.1358 24.7221 60.2617 21.9252 57.5339 21.0914C55.5364 20.4808 54.2815 22.6042 54.2815 22.6042C54.2815 22.6042 52.7312 21.0794 50.6007 22.0405C48.7601 22.8707 48.7163 24.4195 48.7163 24.4195C48.7163 24.4195 48.4105 20.84 44.7967 20.3105C41.1829 19.781 40.2601 22.9824 40.2601 22.9824C40.2601 22.9824 36.7908 22.6041 36.6462 26.7643Z" fill="#B5E4FE"/>
<path d="M63.332 28.7691C61.6709 30.2647 59.2333 29.4218 59.2333 29.4218C60.1884 28.922 60.372 27.3073 60.372 27.3073C60.372 27.3073 59.821 28.499 58.3884 28.8451C56.9558 29.191 56.0374 27.884 56.0374 27.884C56.4048 29.1142 57.5435 29.5371 57.5435 29.5371C57.5435 29.5371 56.2945 31.0364 54.4946 31.2287C52.6946 31.4209 51.813 30.5366 51.813 30.5366C52.7681 30.1522 53.209 29.2679 53.209 29.2679C54.1641 29.1525 54.5314 28.3836 54.5314 28.3836C52.6212 29.1909 51.409 28.2683 51.409 28.2683C51.7029 28.8065 52.5845 29.1525 52.5845 29.1525C52.5845 29.1525 52.4376 29.6907 51.1151 30.0368C49.7928 30.3828 48.5805 29.6139 48.5805 29.6139C49.2784 30.575 50.6376 30.8441 50.6376 30.8441C50.6376 30.8441 48.911 32.651 46.4866 32.1512C44.0622 31.6514 43.6214 29.3448 43.6214 29.3448C44.5398 29.1525 45.3113 28.1914 45.3113 28.1914C42.1888 29.4601 40.5359 27.4225 40.5359 27.4225C40.793 28.6527 41.4909 29.0757 41.4909 29.0757C41.4909 29.0757 40.4991 30.3059 38.6991 29.883C36.8992 29.4601 36.7889 27.6916 36.7889 27.6916C36.7889 27.6916 35.944 28.4989 34.8053 28.1144C34.3224 27.9514 34.0588 27.6224 33.9138 27.2976C33.6495 28.1541 34.5411 29.1241 36.3575 28.7307C36.3575 28.7307 36.5743 31.2269 39.3931 31.5295C42.2118 31.8321 42.9346 30.168 42.9346 30.168C42.9346 30.168 43.252 33.471 47.0543 34.177C50.6378 34.8422 52.1136 31.4539 52.1136 31.4539C52.1136 31.4539 53.655 33.0242 56.1847 32.3434C58.7143 31.6626 59.0521 30.0924 59.0521 30.0924C59.0521 30.0924 62.3529 31.0798 63.332 28.7691Z" fill="#ABD4F4"/>
<path d="M60.1362 24.722C60.1362 24.722 60.2621 21.9251 57.5343 21.0913C55.5368 20.4807 54.2819 22.6041 54.2819 22.6041C54.2819 22.6041 52.7316 21.0793 50.6011 22.0404C48.7606 22.8708 48.7167 24.4194 48.7167 24.4194C48.7167 24.4194 48.4109 20.8399 44.7971 20.3104C41.1833 19.7809 40.2605 22.9823 40.2605 22.9823C40.2605 22.9823 37.785 22.7127 36.9292 25.137C37.3143 24.7339 38.1703 23.938 38.9587 23.8996C40.0165 23.8481 40.5821 24.3115 40.5821 24.3115C40.5821 24.3115 41.1725 22.2778 43.8535 22.2778C46.5346 22.2778 47.1248 25.5728 47.1248 25.5728C47.1248 25.5728 48.0841 24.6461 49.2401 24.9292C50.3961 25.2123 50.6175 25.5728 50.6175 25.5728C50.6175 25.5728 50.5437 23.8996 51.995 23.4105C53.4462 22.9214 54.2087 23.9511 54.2087 23.9511C54.2087 23.9511 53.397 24.1828 53.0281 25.1352C53.0281 25.1352 54.6514 23.9253 56.0781 24.7233C56.0781 24.7233 55.4877 23.9768 54.8975 23.9511C54.8975 23.9511 55.537 22.2779 57.0866 22.4065C58.6362 22.5353 59.62 25.2124 59.62 25.2124C59.62 25.2124 60.8817 25.1227 62.1672 25.4958C61.2174 24.9152 60.1362 24.722 60.1362 24.722Z" fill="#ABD4F4"/>
<path d="M20.764 54.864C20.764 54.864 19.2888 55.2962 18.4664 54.4338C17.5774 53.5016 18.0035 51.9016 18.8357 51.4653C19.7383 50.9921 20.299 51.3362 20.299 51.3362C20.299 51.3362 20.3843 49.9766 21.6394 49.5866C23.1164 49.1278 23.6362 50.1316 23.6362 50.1316C23.6362 50.1316 24.3747 49.1851 25.6056 49.5292C26.8365 49.8734 26.8639 51.3648 26.8639 51.3648C26.8639 51.3648 27.958 51.1354 28.5872 51.709C29.2163 52.2826 29.0248 53.1718 29.0248 53.1718C29.0248 53.1718 29.654 52.9711 29.9274 53.5733C30.2009 54.1756 29.7086 54.7779 28.9427 54.6632C28.9427 54.6632 28.5871 55.7531 26.9459 55.7245C25.3047 55.6958 25.2226 54.233 25.2226 54.233C25.2226 54.233 24.785 54.9787 24.0465 54.9501C23.3079 54.9214 23.0344 54.1757 23.0344 54.1757C23.0344 54.1757 23.2241 55.0691 22.3369 55.3946C21.2427 55.7962 20.764 54.864 20.764 54.864Z" fill="#B5E4FE"/>
<path d="M29.921 54.245C29.3701 54.5413 28.6151 54.2904 28.6151 54.2904C29.0254 54.147 28.9433 53.7598 28.9433 53.7598C28.9433 53.7598 28.875 54.018 28.4647 54.0754C28.0544 54.1327 27.8355 53.7885 27.8355 53.7885C28.0134 54.2761 28.2322 54.2904 28.2322 54.2904C28.2322 54.2904 28.0407 55.1939 26.8098 55.0935C25.5789 54.9931 25.5378 53.8172 25.5378 53.8172C26.4404 53.7312 26.5909 52.8563 26.5909 52.8563C26.5909 52.8563 26.3174 53.2865 25.5515 53.3296C24.7856 53.3726 24.4437 52.799 24.4437 52.799C24.4847 53.3726 25.0728 53.6737 25.0728 53.6737C25.0728 53.6737 24.8677 54.2761 24.0471 54.3334C23.2265 54.3908 22.9256 53.6164 22.9256 53.6164C22.9256 53.6164 22.7615 54.6633 21.8725 54.7636C20.9836 54.864 20.8331 54.0753 20.8331 54.0753C21.4075 53.9893 21.5716 53.4873 21.5716 53.4873C21.5716 53.4873 21.2297 53.7884 20.6416 53.7168C20.0535 53.6451 19.9441 53.0427 19.9441 53.0427C19.8757 53.6881 20.2723 53.9031 20.2723 53.9031C20.2723 53.9031 19.7663 54.5055 18.7816 54.0895C18.2746 53.8754 18.0732 53.3084 18.0017 52.8001C17.9133 53.3616 18.032 53.9775 18.467 54.4337C19.2895 55.2961 20.7647 54.8639 20.7647 54.8639C20.7647 54.8639 21.2433 55.7961 22.3374 55.3945C23.2247 55.0689 23.0349 54.1756 23.0349 54.1756C23.0349 54.1756 23.3085 54.9213 24.047 54.95C24.7856 54.9786 25.2232 54.2329 25.2232 54.2329C25.2232 54.2329 25.3052 55.6957 26.9464 55.7244C28.5877 55.753 28.9433 54.6631 28.9433 54.6631C29.4051 54.7324 29.7661 54.5401 29.921 54.245Z" fill="#ABD4F4"/>
<path d="M28.5875 51.709C27.9583 51.1354 26.8642 51.3648 26.8642 51.3648C26.8642 51.3648 26.8369 49.8734 25.6059 49.5292C24.3751 49.185 23.6365 50.1316 23.6365 50.1316C23.6365 50.1316 23.1168 49.1277 21.6397 49.5866C20.3847 49.9766 20.2994 51.3362 20.2994 51.3362C20.2994 51.3362 19.7386 50.9921 18.836 51.4653C18.7025 51.5353 18.581 51.6377 18.4722 51.7601C18.7738 51.6464 19.2343 51.5093 19.5649 51.5769C20.097 51.6858 20.4864 52.1621 20.4994 52.0805C20.5124 51.9988 20.5773 50.2977 21.7713 50.1072C22.9653 49.9166 23.2378 50.7468 23.2378 50.7468C23.2378 50.7468 22.6279 50.9236 22.7058 51.6994C22.7058 51.6994 23.0043 50.8964 23.6792 51.0053C24.3541 51.1142 24.38 51.6994 24.38 51.6994C24.38 51.6994 24.5358 50.9781 23.8479 50.6923C23.8479 50.6923 24.2762 49.6988 25.3664 50.0119C26.4566 50.3249 26.5734 51.7402 26.5734 51.7402C26.5734 51.7402 27.2094 51.3863 27.9751 51.6857C28.6471 51.9485 28.9791 52.6091 29.0504 52.7671C29.0365 52.4587 28.9434 52.0335 28.5875 51.709Z" fill="#ABD4F4"/>
</svg>
