<svg width="306" height="318" viewBox="0 0 306 318" fill="none" xmlns="http://www.w3.org/2000/svg">
<path d="M231.663 158.999C231.663 203.462 196.442 239.509 152.998 239.509C109.553 239.509 74.332 203.462 74.332 158.999C74.332 114.534 109.553 78.4897 152.998 78.4897C196.445 78.4897 231.663 114.534 231.663 158.999Z" fill="#E3C327" fill-opacity="0.5"/>
<path d="M149.465 64.4399L152.998 0.000488281L156.532 64.4399H149.465Z" fill="#F3DF7C" fill-opacity="0.5"/>
<path d="M133.474 66.5039L132.928 42.4951L140.433 65.2489L133.474 66.5039Z" fill="#F3DF7C" fill-opacity="0.5"/>
<path d="M118.072 71.3786L99.8594 9.58789L124.714 68.9032L118.072 71.3786Z" fill="#F3DF7C" fill-opacity="0.5"/>
<path d="M103.744 78.9185L95.2031 56.5483L109.863 75.3019L103.744 78.9185Z" fill="#F3DF7C" fill-opacity="0.5"/>
<path d="M90.8977 88.8862L53.1348 37.1975L96.3108 84.2374L90.8977 88.8862Z" fill="#F3DF7C" fill-opacity="0.5"/>
<path d="M79.9482 100.988L64.4492 82.9548L84.4929 95.4481L79.9482 100.988Z" fill="#F3DF7C" fill-opacity="0.5"/>
<path d="M71.2116 114.85L18.4551 79.4985L74.7453 108.587L71.2116 114.85Z" fill="#F3DF7C" fill-opacity="0.5"/>
<path d="M64.9595 130.058L44.3691 118.54L67.3782 123.263L64.9595 130.058Z" fill="#F3DF7C" fill-opacity="0.5"/>
<path d="M61.3888 146.143L0 131.39L62.6175 139.019L61.3888 146.143Z" fill="#F3DF7C" fill-opacity="0.5"/>
<path d="M60.5985 162.619L37.3984 159.002L60.5985 155.386V162.619Z" fill="#F3DF7C" fill-opacity="0.5"/>
<path d="M62.6151 178.982L0 186.609L61.3888 171.86L62.6151 178.982Z" fill="#F3DF7C" fill-opacity="0.5"/>
<path d="M67.3894 194.741L44.3828 199.462L64.9707 187.944L67.3894 194.741Z" fill="#F3DF7C" fill-opacity="0.5"/>
<path d="M74.7453 209.413L18.4551 238.501L71.2116 203.15L74.7453 209.413Z" fill="#F3DF7C" fill-opacity="0.5"/>
<path d="M84.4904 222.554L64.4492 235.045L79.9457 217.014L84.4904 222.554Z" fill="#F3DF7C" fill-opacity="0.5"/>
<path d="M96.3132 233.763L53.1348 280.8L90.9002 229.114L96.3132 233.763Z" fill="#F3DF7C" fill-opacity="0.5"/>
<path d="M109.86 242.705L95.2031 261.453L103.741 239.088L109.86 242.705Z" fill="#F3DF7C" fill-opacity="0.5"/>
<path d="M124.716 249.099L99.8594 308.412L118.075 246.623L124.716 249.099Z" fill="#F3DF7C" fill-opacity="0.5"/>
<path d="M140.433 252.755L132.928 275.506L133.474 251.5L140.433 252.755Z" fill="#F3DF7C" fill-opacity="0.5"/>
<path d="M156.532 253.564L152.996 318.001L149.465 253.564H156.532Z" fill="#F3DF7C" fill-opacity="0.5"/>
<path d="M172.521 251.5L173.074 275.506L165.564 252.757L172.521 251.5Z" fill="#F3DF7C" fill-opacity="0.5"/>
<path d="M187.917 246.623L206.132 308.412L181.277 249.096L187.917 246.623Z" fill="#F3DF7C" fill-opacity="0.5"/>
<path d="M202.254 239.088L210.794 261.453L196.135 242.707L202.254 239.088Z" fill="#F3DF7C" fill-opacity="0.5"/>
<path d="M215.103 229.114L252.864 280.8L209.686 233.763L215.103 229.114Z" fill="#F3DF7C" fill-opacity="0.5"/>
<path d="M226.048 217.014L241.545 235.042L221.506 222.559L226.048 217.014Z" fill="#F3DF7C" fill-opacity="0.5"/>
<path d="M234.788 203.15L287.544 238.501L231.254 209.413L234.788 203.15Z" fill="#F3DF7C" fill-opacity="0.5"/>
<path d="M241.023 187.949L261.614 199.46L238.609 194.747L241.023 187.949Z" fill="#F3DF7C" fill-opacity="0.5"/>
<path d="M244.61 171.858L306.001 186.611L243.381 178.98L244.61 171.858Z" fill="#F3DF7C" fill-opacity="0.5"/>
<path d="M245.389 155.389L268.589 159L245.393 162.622L245.389 155.389Z" fill="#F3DF7C" fill-opacity="0.5"/>
<path d="M243.381 139.019L306.001 131.393L244.61 146.141L243.381 139.019Z" fill="#F3DF7C" fill-opacity="0.5"/>
<path d="M238.609 123.263L261.614 118.54L241.023 130.061L238.609 123.263Z" fill="#F3DF7C" fill-opacity="0.5"/>
<path d="M231.244 108.588L287.539 79.502L234.778 114.851L231.244 108.588Z" fill="#F3DF7C" fill-opacity="0.5"/>
<path d="M221.506 95.4481L241.545 82.9548L226.048 100.988L221.506 95.4481Z" fill="#F3DF7C" fill-opacity="0.5"/>
<path d="M209.686 84.2383L252.866 37.2009L215.099 88.8871L209.686 84.2383Z" fill="#F3DF7C" fill-opacity="0.5"/>
<path d="M196.135 75.3019L210.79 56.5483L202.254 78.9185L196.135 75.3019Z" fill="#F3DF7C" fill-opacity="0.5"/>
<path d="M181.277 68.9057L206.139 9.59033L187.921 71.3786L181.277 68.9057Z" fill="#F3DF7C" fill-opacity="0.5"/>
<path d="M165.564 65.2489L173.072 42.4951L172.525 66.5039L165.564 65.2489Z" fill="#F3DF7C" fill-opacity="0.5"/>
<path d="M157.94 116.59C157.94 116.59 150.153 113.295 147.038 117.249C143.923 121.203 147.661 127.134 156.694 125.157C156.694 125.157 157.629 136.031 169.777 137.349C181.926 138.667 185.041 131.418 185.041 131.418C185.041 131.418 186.409 145.806 202.796 148.881C218.24 151.78 224.601 137.019 224.601 137.019C224.601 137.019 231.244 143.86 242.147 140.894C253.049 137.928 254.505 131.088 254.505 131.088C254.505 131.088 270.135 135.846 273.506 123.839C277.135 110.917 259.177 107.694 259.177 107.694C259.177 107.694 259.72 95.5096 247.964 91.8775C239.355 89.2177 233.946 98.4676 233.946 98.4676C233.946 98.4676 227.265 91.8253 218.082 96.0122C210.15 99.6287 209.961 106.375 209.961 106.375C209.961 106.375 208.643 90.7825 193.068 88.4758C177.493 86.1692 173.516 100.115 173.516 100.115C173.516 100.115 158.564 98.4671 157.94 116.59Z" fill="#B5E4FE"/>
<path d="M272.952 125.323C265.793 131.838 255.287 128.166 255.287 128.166C259.403 125.989 260.195 118.955 260.195 118.955C260.195 118.955 257.82 124.147 251.646 125.654C245.471 127.161 241.513 121.467 241.513 121.467C243.097 126.826 248.004 128.669 248.004 128.669C248.004 128.669 242.622 135.2 234.864 136.038C227.106 136.875 223.307 133.023 223.307 133.023C227.423 131.348 229.323 127.496 229.323 127.496C233.44 126.994 235.023 123.644 235.023 123.644C226.79 127.161 221.566 123.142 221.566 123.142C222.832 125.486 226.632 126.994 226.632 126.994C226.632 126.994 225.999 129.338 220.299 130.846C214.6 132.353 209.375 129.003 209.375 129.003C212.383 133.19 218.241 134.362 218.241 134.362C218.241 134.362 210.8 142.233 200.351 140.056C189.902 137.879 188.002 127.831 188.002 127.831C191.96 126.994 195.285 122.807 195.285 122.807C181.828 128.334 174.704 119.457 174.704 119.457C175.812 124.816 178.82 126.659 178.82 126.659C178.82 126.659 174.545 132.018 166.788 130.175C159.03 128.334 158.555 120.629 158.555 120.629C158.555 120.629 154.913 124.146 150.006 122.471C147.924 121.761 146.788 120.328 146.164 118.913C145.025 122.644 148.867 126.87 156.696 125.156C156.696 125.156 157.63 136.03 169.779 137.348C181.927 138.666 185.042 131.417 185.042 131.417C185.042 131.417 186.41 145.806 202.797 148.881C218.242 151.779 224.602 137.019 224.602 137.019C224.602 137.019 231.246 143.859 242.148 140.894C253.051 137.928 254.506 131.088 254.506 131.088C254.506 131.088 268.732 135.389 272.952 125.323Z" fill="#ABD4F4"/>
<path d="M259.179 107.694C259.179 107.694 259.722 95.5096 247.965 91.8775C239.356 89.2177 233.948 98.4676 233.948 98.4676C233.948 98.4676 227.267 91.8253 218.084 96.0122C210.152 99.6293 209.963 106.375 209.963 106.375C209.963 106.375 208.645 90.7825 193.07 88.4758C177.495 86.1692 173.518 100.115 173.518 100.115C173.518 100.115 162.848 98.9407 159.16 109.501C160.82 107.745 164.509 104.278 167.907 104.111C172.466 103.887 174.904 105.905 174.904 105.905C174.904 105.905 177.448 97.0461 189.003 97.0461C200.558 97.0461 203.102 111.4 203.102 111.4C203.102 111.4 207.236 107.363 212.219 108.596C217.201 109.829 218.155 111.4 218.155 111.4C218.155 111.4 217.837 104.111 224.092 101.98C230.346 99.8497 233.632 104.335 233.632 104.335C233.632 104.335 230.134 105.345 228.544 109.493C228.544 109.493 235.541 104.223 241.689 107.699C241.689 107.699 239.145 104.448 236.601 104.335C236.601 104.335 239.357 97.0467 246.036 97.6069C252.715 98.1678 256.955 109.83 256.955 109.83C256.955 109.83 262.392 109.439 267.933 111.064C263.839 108.535 259.179 107.694 259.179 107.694Z" fill="#ABD4F4"/>
<path d="M89.4905 238.997C89.4905 238.997 83.1322 240.88 79.588 237.123C75.7564 233.062 77.5929 226.092 81.1795 224.191C85.0696 222.13 87.4865 223.629 87.4865 223.629C87.4865 223.629 87.8538 217.706 93.2631 216.008C99.629 214.009 101.869 218.381 101.869 218.381C101.869 218.381 105.052 214.259 110.357 215.758C115.662 217.257 115.78 223.754 115.78 223.754C115.78 223.754 120.496 222.754 123.207 225.253C125.919 227.752 125.093 231.625 125.093 231.625C125.093 231.625 127.805 230.751 128.984 233.374C130.162 235.998 128.04 238.622 124.74 238.122C124.74 238.122 123.207 242.87 116.134 242.745C109.06 242.62 108.706 236.248 108.706 236.248C108.706 236.248 106.82 239.497 103.637 239.372C100.454 239.247 99.2754 235.998 99.2754 235.998C99.2754 235.998 100.093 239.89 96.2693 241.308C91.5534 243.058 89.4905 238.997 89.4905 238.997Z" fill="#B5E4FE"/>
<path d="M128.955 236.301C126.581 237.591 123.327 236.498 123.327 236.498C125.095 235.874 124.742 234.187 124.742 234.187C124.742 234.187 124.447 235.312 122.679 235.562C120.91 235.811 119.967 234.312 119.967 234.312C120.734 236.436 121.677 236.498 121.677 236.498C121.677 236.498 120.851 240.434 115.546 239.997C110.241 239.56 110.064 234.437 110.064 234.437C113.954 234.062 114.603 230.251 114.603 230.251C114.603 230.251 113.424 232.125 110.123 232.313C106.822 232.5 105.349 230.001 105.349 230.001C105.526 232.5 108.06 233.812 108.06 233.812C108.06 233.812 107.176 236.436 103.639 236.686C100.103 236.936 98.8061 233.562 98.8061 233.562C98.8061 233.562 98.0989 238.123 94.2673 238.56C90.4361 238.997 89.7876 235.561 89.7876 235.561C92.2633 235.186 92.9705 233 92.9705 233C92.9705 233 91.4969 234.312 88.9622 233.999C86.4275 233.687 85.956 231.063 85.956 231.063C85.6614 233.875 87.3707 234.811 87.3707 234.811C87.3707 234.811 85.1899 237.435 80.9458 235.623C78.7609 234.691 77.8929 232.22 77.5845 230.007C77.2036 232.452 77.7151 235.135 79.5901 237.123C83.1346 240.879 89.4926 238.997 89.4926 238.997C89.4926 238.997 91.5555 243.058 96.271 241.308C100.095 239.889 99.2772 235.998 99.2772 235.998C99.2772 235.998 100.456 239.247 103.639 239.371C106.822 239.496 108.708 236.248 108.708 236.248C108.708 236.248 109.062 242.62 116.135 242.745C123.209 242.87 124.741 238.122 124.741 238.122C126.732 238.424 128.287 237.586 128.955 236.301Z" fill="#ABD4F4"/>
<path d="M123.209 225.253C120.497 222.754 115.782 223.754 115.782 223.754C115.782 223.754 115.664 217.257 110.359 215.758C105.054 214.258 101.871 218.382 101.871 218.382C101.871 218.382 99.631 214.009 93.265 216.008C87.8561 217.706 87.4884 223.629 87.4884 223.629C87.4884 223.629 85.0715 222.13 81.1814 224.192C80.6062 224.496 80.0825 224.943 79.6133 225.476C80.9133 224.981 82.8981 224.383 84.3227 224.678C86.6159 225.152 88.2942 227.227 88.3503 226.871C88.4063 226.516 88.6859 219.105 93.8319 218.275C98.9779 217.445 100.153 221.062 100.153 221.062C100.153 221.062 97.5238 221.832 97.8595 225.211C97.8595 225.211 99.146 221.714 102.055 222.188C104.964 222.662 105.075 225.211 105.075 225.211C105.075 225.211 105.747 222.069 102.782 220.824C102.782 220.824 104.628 216.497 109.327 217.86C114.025 219.224 114.529 225.389 114.529 225.389C114.529 225.389 117.27 223.848 120.57 225.152C123.466 226.296 124.897 229.174 125.204 229.862C125.144 228.519 124.743 226.667 123.209 225.253Z" fill="#ABD4F4"/>
</svg>
