<svg width="119" height="222" viewBox="0 0 119 222" fill="none" xmlns="http://www.w3.org/2000/svg">
<path d="M51.0149 194.616C49.3538 191.91 54.496 182.87 59.1017 175.763C59.301 175.455 59.7009 175.35 60.1366 175.491C72.2893 179.437 90.6272 185.188 98.6791 187.287C90.563 182.739 70.824 172.67 57.7617 166.152C57.4256 165.989 57.1409 165.694 56.9662 165.357C55.8907 163.207 50.596 152.311 51.9026 148.975C51.9963 148.736 52.3208 148.2 53.3276 148.372C58.999 149.337 101.001 183.64 104.005 188.533C104.038 188.587 104.101 188.707 104.155 188.819C104.173 188.851 104.187 188.882 104.202 188.917C104.22 188.958 104.234 188.988 104.242 189.013L104.243 189.015C104.271 189.09 104.291 189.168 104.306 189.24C104.309 189.25 104.31 189.258 104.313 189.268C104.315 189.278 104.317 189.289 104.319 189.299C104.34 189.399 104.352 189.5 104.349 189.598L104.35 189.603C104.349 189.642 104.343 189.681 104.331 189.719C104.318 189.832 104.285 189.936 104.234 190.023C104.197 190.084 104.159 190.149 104.076 190.203C103.983 190.281 103.875 190.331 103.752 190.356C101.368 191.884 91.8964 193.434 75.5035 194.978C53.0759 197.088 51.8897 195.69 51.2524 194.942C51.1912 194.869 51.063 194.694 51.0149 194.616ZM60.838 177.951C56.9479 184.026 53.1009 191.243 52.9229 193.584C58.1197 194.495 88.216 191.621 98.6819 189.474C93.3018 188.152 82.5466 184.992 60.838 177.951ZM54.0115 150.769C53.7528 153.027 56.4454 159.73 58.7131 164.36C72.4734 171.229 88.0395 179.138 96.9111 184.099C85.3802 173.836 58.5752 152.256 54.0115 150.769Z" fill="#1F1F1F"/>
<path d="M45.5952 180.719C45.3641 180.339 45.2762 179.995 45.2479 179.745C44.9867 177.507 51.6395 169.961 55.6307 165.665C55.9976 165.268 56.7228 165.372 57.2524 165.898C57.7857 166.422 57.9099 167.167 57.5411 167.564C52.9465 172.517 48.1392 178.368 47.6108 180.071C48.5949 180.765 52.0816 181.717 55.4545 182.186C56.0891 182.275 56.6978 182.874 56.8096 183.525C56.9265 184.177 56.5055 184.634 55.8728 184.544C54.0563 184.289 47.9833 183.308 46.0498 181.305C45.8572 181.103 45.7094 180.906 45.5952 180.719Z" fill="#1F1F1F"/>
<path d="M26.2123 0C25.3274 0.815903 24.4989 1.69844 23.7499 2.62361L25.4502 3.76945C26.1394 2.91841 26.9014 2.1066 27.7154 1.35646L26.2123 0ZM20.8012 7.23083C20.2785 8.28629 19.8177 9.40323 19.4315 10.551L21.4526 11.1171C21.8129 10.0467 22.242 9.00623 22.728 8.02469L20.8012 7.23083ZM18.1983 15.7235C18.029 16.8567 17.9146 18.0354 17.8582 19.2271L19.9704 19.3102C20.0239 18.1776 20.1324 17.0587 20.2931 15.9842L18.1983 15.7235ZM20.07 24.3344L17.9618 24.4809C18.0572 25.6219 18.2007 26.7905 18.3879 27.9543L20.4794 27.6741C20.2995 26.5546 20.1616 25.4308 20.07 24.3344ZM21.5489 32.6275L19.4964 33.0884C19.7982 34.2071 20.1433 35.3367 20.5219 36.4463L22.5406 35.873C22.1742 34.8006 21.8406 33.7085 21.5489 32.6275ZM24.3855 40.6657L22.4114 41.3555C22.8408 42.3784 23.3007 43.4276 23.8175 44.5634L25.7702 43.8242C25.2609 42.7049 24.8081 41.6719 24.3855 40.6657ZM27.9911 48.5261L26.0579 49.3069C26.5183 50.2554 26.9829 51.2027 27.4469 52.1495L27.5899 52.4415L29.5201 51.6543L29.3768 51.3623C28.9136 50.4176 28.4503 49.4725 27.9911 48.5261ZM31.8051 56.3676L29.8649 57.1338C30.4059 58.2733 30.8815 59.3004 31.3189 60.2742L33.2751 59.5427C32.8323 58.5574 32.3515 57.5188 31.8051 56.3676ZM35.3154 64.385L33.3235 65.0302C33.7512 66.13 34.144 67.2109 34.4907 68.2432L36.512 67.6786C36.1566 66.6193 35.754 65.5112 35.3154 64.385ZM37.9665 72.7281L35.9001 73.1363C35.9456 73.328 35.99 73.52 36.0333 73.7122C36.2334 74.6035 36.4006 75.5191 36.5305 76.4329L38.6272 76.1848C38.4905 75.2249 38.3146 74.2626 38.1041 73.325C38.0595 73.1254 38.0134 72.9267 37.9665 72.7281ZM39 81.4371H36.8859V81.4618C36.8859 82.5708 36.8336 83.6867 36.7302 84.7785L38.8365 84.9444C38.945 83.7974 39 82.6259 39 81.4618V81.4371ZM35.8865 89.7235C35.6112 90.8198 35.2766 91.8963 34.8926 92.9234L36.8934 93.5461C37.301 92.4563 37.6557 91.3152 37.9474 90.1543L35.8865 89.7235ZM32.6963 97.4611C32.1002 98.4368 31.4385 99.3641 30.7296 100.218L32.4147 101.382C33.183 100.457 33.8988 99.4541 34.5431 98.4002L32.6963 97.4611ZM27.009 103.747C26.0824 104.434 25.0885 105.05 24.055 105.577L25.0869 107.26C26.2263 106.679 27.3217 106.001 28.3423 105.244L27.009 103.747ZM19.0334 107.979C17.9413 108.583 16.866 109.251 15.8378 109.965L17.1183 111.499C18.0874 110.826 19.1005 110.196 20.1294 109.628L19.0334 107.979ZM11.5101 113.475C10.6234 114.31 9.76626 115.2 8.96292 116.119L10.6163 117.321C11.3774 116.45 12.189 115.607 13.0287 114.816L11.5101 113.475ZM5.68705 120.464C5.03733 121.47 4.43108 122.516 3.88542 123.573L5.79793 124.395C6.31611 123.391 6.8916 122.398 7.50844 121.443L5.68705 120.464ZM1.79108 128.487C1.40961 129.609 1.08403 130.755 0.823999 131.893L2.89368 132.287C3.14032 131.208 3.44849 130.122 3.81023 129.058L1.79108 128.487ZM0.0617634 137.128C0.0206566 137.78 0 138.438 0 139.085C0.000234896 139.609 0.0138637 140.137 0.040172 140.654L2.15188 140.564C2.12698 140.077 2.1143 139.578 2.11406 139.084C2.11406 138.475 2.13354 137.853 2.1723 137.238L0.0617634 137.128ZM2.84694 145.503L0.779154 145.905C1.046 147.046 1.38777 148.193 1.79461 149.313L3.80132 148.706C3.41867 147.653 3.09757 146.575 2.84694 145.503ZM5.92596 153.299L4.04771 154.184C4.63284 155.217 5.28632 156.241 5.99053 157.228L7.76283 156.177C7.0969 155.243 6.4789 154.275 5.92596 153.299ZM11.0756 160.16L9.48673 161.432C10.3295 162.308 11.2299 163.16 12.1627 163.964L13.6153 162.563C12.7297 161.799 11.8752 160.991 11.0756 160.16ZM17.8544 165.741L16.628 167.312C17.674 167.991 18.7647 168.632 19.8691 169.216L20.9299 167.548C19.8816 166.994 18.8469 166.386 17.8544 165.741ZM25.8547 169.742L25.0669 171.531C26.2642 171.97 27.4922 172.356 28.7174 172.68L29.3058 170.828C28.1483 170.522 26.9869 170.156 25.8547 169.742ZM34.6572 171.839L34.3939 173.752C35.6776 173.899 36.9771 173.982 38.2563 174L38.288 172.072C37.0861 172.055 35.8641 171.977 34.6572 171.839Z" fill="#1F1F1F"/>
</svg>
