<svg width="116" height="52" viewBox="0 0 116 52" fill="none" xmlns="http://www.w3.org/2000/svg">
<path d="M79.6144 35.6721C78.9308 34.1885 82.0816 29.8698 84.8448 26.5083C84.9644 26.3629 85.1739 26.3329 85.387 26.4314C91.3296 29.1773 100.309 33.2171 104.277 34.7727C100.422 31.9602 90.9868 25.6271 84.7346 21.5103C84.5735 21.4066 84.4463 21.2389 84.3776 21.0559C83.9586 19.8912 81.9147 13.999 82.777 12.3701C82.8388 12.2534 83.0356 11.9983 83.5371 12.1466C86.3625 12.9798 105.674 33.0454 106.91 35.729C106.924 35.7585 106.948 35.8236 106.969 35.8841C106.976 35.9016 106.982 35.918 106.987 35.9372C106.994 35.9589 106.999 35.9754 107.002 35.9885L107.002 35.9897C107.012 36.0298 107.018 36.071 107.021 36.1088C107.022 36.1139 107.022 36.1181 107.023 36.1233C107.023 36.1287 107.023 36.1342 107.024 36.1396C107.029 36.1919 107.029 36.2443 107.022 36.2943L107.022 36.297C107.019 36.317 107.013 36.3364 107.005 36.355C106.992 36.4122 106.969 36.4636 106.938 36.5048C106.915 36.5339 106.892 36.5649 106.847 36.5876C106.795 36.6219 106.737 36.6411 106.673 36.6468C105.37 37.2859 100.464 37.5126 92.0401 37.3224C80.5151 37.0605 79.9952 36.2744 79.7157 35.8534C79.689 35.8123 79.6342 35.7151 79.6144 35.6721ZM85.5974 27.7318C83.2592 30.6079 80.8751 34.0712 80.6456 35.2582C83.2329 36.0351 98.7011 36.3647 104.148 35.892C101.492 34.8935 96.2132 32.6334 85.5974 27.7318ZM83.7423 13.4141C83.4767 14.5541 84.4471 18.1453 85.3247 20.6502C91.9108 24.9879 99.3529 29.9661 103.567 33.0357C98.3162 27.0941 85.9737 14.4479 83.7423 13.4141Z" fill="#1F1F1F"/>
<path d="M77.686 28.2366C77.5911 28.0284 77.5668 27.8471 77.5673 27.7177C77.5675 26.5568 81.3972 23.0934 83.6812 21.1334C83.8912 20.9523 84.2536 21.0489 84.4916 21.3498C84.7315 21.6501 84.7504 22.0385 84.5394 22.2199C81.9098 24.4792 79.1187 27.1861 78.749 28.0256C79.2079 28.44 80.9236 29.1353 82.6102 29.577C82.9274 29.6607 83.2012 30.0034 83.2194 30.3433C83.2401 30.684 82.9989 30.8929 82.6827 30.8089C81.7745 30.5699 78.746 29.7045 77.8822 28.5639C77.7963 28.4492 77.7328 28.3395 77.686 28.2366Z" fill="#1F1F1F"/>
<path d="M77.1066 24.8438L76.8193 25.8934C76.2566 25.7287 75.685 25.5369 75.1203 25.3235L75.473 24.296C76.0163 24.5012 76.566 24.6855 77.1066 24.8438ZM73.0969 23.25L72.6575 24.2394C72.127 23.9728 71.5954 23.6832 71.0772 23.3786L71.5696 22.4178C72.0703 22.7124 72.5843 22.9923 73.0969 23.25ZM69.3527 20.9967L68.8065 21.9231C68.337 21.6018 67.8574 21.2624 67.3401 20.8855L67.909 19.9749C68.4187 20.3464 68.8909 20.6806 69.3527 20.9967ZM65.7758 18.3732L65.1881 19.2697C64.759 18.9403 64.331 18.609 63.9032 18.278L63.7712 18.1759L64.3618 17.2817L64.4938 17.3838C64.9206 17.7142 65.3477 18.0447 65.7758 18.3732ZM62.2295 15.6464L61.6483 16.5479C61.1317 16.1584 60.6647 15.8133 60.2206 15.493L60.786 14.5798C61.2353 14.9041 61.7075 15.2529 62.2295 15.6464ZM58.5641 13.055L58.0385 13.995C57.5302 13.6667 57.0278 13.358 56.5452 13.0775L57.0334 12.1144C57.5287 12.4021 58.0437 12.7185 58.5641 13.055ZM54.6482 10.8643L54.2339 11.8661C54.1423 11.8235 54.0505 11.7814 53.9585 11.74C53.5317 11.5479 53.0895 11.3699 52.6443 11.211L52.9814 10.1776C53.449 10.3446 53.9138 10.5317 54.3628 10.7338C54.4584 10.7767 54.5534 10.8202 54.6482 10.8643ZM50.3847 9.45293L50.1702 10.5205L50.1579 10.518C49.6016 10.4047 49.0366 10.3172 48.4784 10.2579L48.6089 9.17732C49.1952 9.23965 49.7884 9.33153 50.3723 9.45041L50.3847 9.45293ZM45.9125 10.179C45.3347 10.206 44.7608 10.265 44.2066 10.3541L44.0973 9.28008C44.6852 9.18557 45.2936 9.123 45.9055 9.09423L45.9125 10.179ZM41.7078 10.9997C41.1579 11.2011 40.6257 11.4406 40.1257 11.7114L39.7124 10.7415C40.2542 10.4479 40.8301 10.189 41.4241 9.97125L41.7078 10.9997ZM37.9777 13.2297C37.5392 13.6275 37.1296 14.0665 36.7604 14.5346L36.0209 13.8416C36.4279 13.3256 36.8792 12.8417 37.3623 12.4036L37.9777 13.2297ZM35.0464 16.8251C34.6326 17.3149 34.1883 17.7897 33.7259 18.236L33.0862 17.4327C33.5221 17.012 33.9407 16.5647 34.3304 16.1033L35.0464 16.8251ZM31.5264 20.0629C31.0175 20.4254 30.4842 20.7674 29.9416 21.0792L29.5065 20.1215C30.0207 19.8261 30.5257 19.5024 31.0075 19.1591L31.5264 20.0629ZM27.4298 22.2896C26.8594 22.515 26.2733 22.7144 25.6879 22.882L25.4697 21.8323C26.0255 21.6731 26.5819 21.4839 27.1235 21.2699L27.4298 22.2896ZM23.0104 23.4377C22.409 23.5158 21.8012 23.5632 21.204 23.5782L21.2165 22.4929C21.7824 22.4785 22.3585 22.4338 22.9287 22.3597L23.0104 23.4377ZM18.5011 23.4286C18.1697 23.3827 17.8374 23.3259 17.5132 23.2599C17.2504 23.2063 16.987 23.1455 16.7301 23.0794L16.9893 22.0222C17.2314 22.0845 17.48 22.1418 17.7279 22.1924C18.0334 22.2546 18.3472 22.3083 18.66 22.3516L18.5011 23.4286ZM14.5828 21.1669L14.1714 22.17C13.6259 21.9187 13.0855 21.629 12.5649 21.3091L13.0727 20.3577C13.5623 20.6585 14.0703 20.9308 14.5828 21.1669ZM10.9847 18.8158L10.3502 19.6739C9.89138 19.2729 9.44385 18.8383 9.02017 18.3819L9.7273 17.5943C10.1281 18.0259 10.5511 18.4369 10.9847 18.8158ZM8.06557 15.5147L7.26624 16.1871C6.9125 15.6721 6.57652 15.1304 6.26759 14.5772L7.1178 13.9868C7.411 14.512 7.7298 15.026 8.06557 15.5147ZM5.9537 11.5215L5.04132 11.9804C4.80674 11.3828 4.59593 10.7666 4.41489 10.1492L5.35916 9.78389C5.53106 10.3699 5.73099 10.9545 5.9537 11.5215ZM4.75866 7.07299L3.78114 7.28808C3.6826 6.6387 3.61329 5.97909 3.57519 5.32732L4.56396 5.21934C4.60001 5.83514 4.66555 6.45891 4.75866 7.07299ZM4.59964 2.41374L3.61322 2.35131C3.66971 1.68805 3.75972 1.02335 3.88067 0.375564L4.85102 0.556458C4.73737 1.16511 4.65275 1.79017 4.59964 2.41374Z" fill="#1F1F1F"/>
</svg>
