<svg width="26" height="33" viewBox="0 0 26 33" fill="none" xmlns="http://www.w3.org/2000/svg">
<path d="M25.0058 0.726381C25.6424 1.19162 26 1.82254 26 2.48039C26 3.13825 25.6424 3.76916 25.0058 4.23441L8.19668 16.515L25.0058 28.7955C25.6243 29.2635 25.9666 29.8901 25.9589 30.5406C25.9511 31.1911 25.594 31.8134 24.9644 32.2734C24.3348 32.7333 23.4831 32.9943 22.5927 32.9999C21.7024 33.0056 20.8446 32.7555 20.2041 32.3036L0.994236 18.269C0.357628 17.8037 0 17.1728 0 16.515C0 15.8571 0.357628 15.2262 0.994236 14.761L20.2041 0.726381C20.8409 0.261279 21.7045 0 22.605 0C23.5054 0 24.369 0.261279 25.0058 0.726381Z" fill="#1F1F1F"/>
</svg>
