<svg width="12" height="13" viewBox="0 0 12 13" fill="none" xmlns="http://www.w3.org/2000/svg">
<path d="M1.22012 6.22944C1.3611 6.08253 1.55229 6 1.75163 6C1.95098 6 2.14217 6.08253 2.28315 6.22944L6.00454 10.1085L9.72592 6.22944C9.86771 6.08669 10.0576 6.00771 10.2547 6.00949C10.4519 6.01128 10.6404 6.09369 10.7798 6.23899C10.9192 6.38428 10.9983 6.58083 11 6.78629C11.0017 6.99176 10.9259 7.18971 10.789 7.33751L6.53606 11.7706C6.39507 11.9175 6.20389 12 6.00454 12C5.80519 12 5.614 11.9175 5.47302 11.7706L1.22012 7.33751C1.07918 7.19055 1 6.99127 1 6.78347C1 6.57568 1.07918 6.37639 1.22012 6.22944Z" fill="#FBFBFB"/>
</svg>
