<svg width="26" height="33" viewBox="0 0 26 33" fill="none" xmlns="http://www.w3.org/2000/svg">
<path d="M0.994237 32.2736C0.357628 31.8084 0 31.1775 0 30.5196C0 29.8618 0.357628 29.2308 0.994237 28.7656L17.8033 16.485L0.994237 4.20445C0.37567 3.73654 0.0333931 3.10986 0.0411301 2.45937C0.0488671 1.80888 0.405998 1.18663 1.0356 0.726646C1.66521 0.266663 2.51691 0.00574875 3.40727 9.53674e-05C4.29763 -0.00555801 5.15541 0.244507 5.79586 0.696426L25.0058 14.731C25.6424 15.1963 26 15.8272 26 16.485C26 17.1429 25.6424 17.7738 25.0058 18.239L5.79586 32.2736C5.15906 32.7387 4.29549 33 3.39505 33C2.49461 33 1.63104 32.7387 0.994237 32.2736Z" fill="#1F1F1F"/>
</svg>
