<svg width="60" height="60" viewBox="0 0 60 60" fill="none" xmlns="http://www.w3.org/2000/svg">
<rect width="60" height="60" rx="10" fill="#FBFBFB"/>
<path d="M26.0747 16.1328C26.1734 16.1957 26.2594 16.2788 26.3279 16.3773C26.3964 16.4757 26.446 16.5876 26.4739 16.7065C26.5019 16.8254 26.5076 16.949 26.4908 17.0703C26.4739 17.1916 26.4348 17.3081 26.3758 17.4133L21.9202 25.3335H38.0798L33.6225 17.4133C33.5032 17.2009 33.4679 16.9467 33.5244 16.7065C33.5808 16.4664 33.7244 16.26 33.9235 16.1328C34.1226 16.0055 34.361 15.9679 34.5861 16.0281C34.8112 16.0883 35.0047 16.2414 35.124 16.4538L40.1203 25.3335H42.25C42.7141 25.3335 43.1592 25.5302 43.4874 25.8802C43.8156 26.2303 44 26.7051 44 27.2001V29.0668C44 29.5619 43.8156 30.0366 43.4874 30.3867C43.1592 30.7368 42.7141 30.9334 42.25 30.9334V39.3334C42.25 40.571 41.7891 41.758 40.9686 42.6332C40.1481 43.5083 39.0353 44 37.875 44H22.125C20.9647 44 19.8519 43.5083 19.0314 42.6332C18.2109 41.758 17.75 40.571 17.75 39.3334V30.9334C17.2859 30.9334 16.8408 30.7368 16.5126 30.3867C16.1844 30.0366 16 29.5619 16 29.0668V27.2001C16 26.7051 16.1844 26.2303 16.5126 25.8802C16.8408 25.5302 17.2859 25.3335 17.75 25.3335H19.8798L24.8725 16.4538C24.9315 16.3486 25.0094 16.2569 25.1017 16.1838C25.194 16.1108 25.2989 16.0578 25.4104 16.028C25.5219 15.9982 25.6378 15.9921 25.7515 16.0101C25.8652 16.0281 25.9762 16.0697 26.0747 16.1328ZM19.5 30.9334V39.3334C19.5 40.076 19.7766 40.7882 20.2688 41.3133C20.7611 41.8384 21.4288 42.1333 22.125 42.1333H37.875C38.5712 42.1333 39.2389 41.8384 39.7312 41.3133C40.2234 40.7882 40.5 40.076 40.5 39.3334V30.9334H19.5ZM17.75 27.2001V29.0668H42.25V27.2001H17.75ZM23 32.8001C23.2321 32.8001 23.4546 32.8984 23.6187 33.0735C23.7828 33.2485 23.875 33.4859 23.875 33.7334V39.3334C23.875 39.5809 23.7828 39.8183 23.6187 39.9933C23.4546 40.1684 23.2321 40.2667 23 40.2667C22.7679 40.2667 22.5454 40.1684 22.3813 39.9933C22.2172 39.8183 22.125 39.5809 22.125 39.3334V33.7334C22.125 33.4859 22.2172 33.2485 22.3813 33.0735C22.5454 32.8984 22.7679 32.8001 23 32.8001ZM26.5 32.8001C26.7321 32.8001 26.9546 32.8984 27.1187 33.0735C27.2828 33.2485 27.375 33.4859 27.375 33.7334V39.3334C27.375 39.5809 27.2828 39.8183 27.1187 39.9933C26.9546 40.1684 26.7321 40.2667 26.5 40.2667C26.2679 40.2667 26.0454 40.1684 25.8813 39.9933C25.7172 39.8183 25.625 39.5809 25.625 39.3334V33.7334C25.625 33.4859 25.7172 33.2485 25.8813 33.0735C26.0454 32.8984 26.2679 32.8001 26.5 32.8001ZM30 32.8001C30.2321 32.8001 30.4546 32.8984 30.6187 33.0735C30.7828 33.2485 30.875 33.4859 30.875 33.7334V39.3334C30.875 39.5809 30.7828 39.8183 30.6187 39.9933C30.4546 40.1684 30.2321 40.2667 30 40.2667C29.7679 40.2667 29.5454 40.1684 29.3813 39.9933C29.2172 39.8183 29.125 39.5809 29.125 39.3334V33.7334C29.125 33.4859 29.2172 33.2485 29.3813 33.0735C29.5454 32.8984 29.7679 32.8001 30 32.8001ZM33.5 32.8001C33.7321 32.8001 33.9546 32.8984 34.1187 33.0735C34.2828 33.2485 34.375 33.4859 34.375 33.7334V39.3334C34.375 39.5809 34.2828 39.8183 34.1187 39.9933C33.9546 40.1684 33.7321 40.2667 33.5 40.2667C33.2679 40.2667 33.0454 40.1684 32.8813 39.9933C32.7172 39.8183 32.625 39.5809 32.625 39.3334V33.7334C32.625 33.4859 32.7172 33.2485 32.8813 33.0735C33.0454 32.8984 33.2679 32.8001 33.5 32.8001ZM37 32.8001C37.2321 32.8001 37.4546 32.8984 37.6187 33.0735C37.7828 33.2485 37.875 33.4859 37.875 33.7334V39.3334C37.875 39.5809 37.7828 39.8183 37.6187 39.9933C37.4546 40.1684 37.2321 40.2667 37 40.2667C36.7679 40.2667 36.5454 40.1684 36.3813 39.9933C36.2172 39.8183 36.125 39.5809 36.125 39.3334V33.7334C36.125 33.4859 36.2172 33.2485 36.3813 33.0735C36.5454 32.8984 36.7679 32.8001 37 32.8001Z" fill="#FC795B"/>
</svg>
