<svg width="28" height="28" viewBox="0 0 28 28" fill="none" xmlns="http://www.w3.org/2000/svg">
<path d="M10.0747 0.132763C10.1734 0.195746 10.2594 0.278833 10.3279 0.377279C10.3964 0.475724 10.446 0.587599 10.4739 0.706513C10.5019 0.825426 10.5076 0.949049 10.4908 1.07032C10.4739 1.19159 10.4348 1.30813 10.3758 1.41329L5.92025 9.33349H22.0798L17.6225 1.41329C17.5032 1.2009 17.4679 0.946674 17.5244 0.70653C17.5808 0.466385 17.7244 0.259995 17.9235 0.132763C18.1226 0.00553052 18.361 -0.0321214 18.5861 0.0280898C18.8112 0.088301 19.0047 0.241443 19.124 0.453827L24.1203 9.33349H26.25C26.7141 9.33349 27.1592 9.53015 27.4874 9.88022C27.8156 10.2303 28 10.7051 28 11.2001V13.0668C28 13.5619 27.8156 14.0366 27.4874 14.3867C27.1592 14.7368 26.7141 14.9334 26.25 14.9334V23.3334C26.25 24.571 25.7891 25.758 24.9686 26.6332C24.1481 27.5083 23.0353 28 21.875 28H6.125C4.96468 28 3.85188 27.5083 3.03141 26.6332C2.21094 25.758 1.75 24.571 1.75 23.3334V14.9334C1.28587 14.9334 0.840752 14.7368 0.512563 14.3867C0.184374 14.0366 0 13.5619 0 13.0668V11.2001C0 10.7051 0.184374 10.2303 0.512563 9.88022C0.840752 9.53015 1.28587 9.33349 1.75 9.33349H3.87975L8.8725 0.453827C8.93155 0.348648 9.00944 0.256909 9.10174 0.183848C9.19403 0.110788 9.29891 0.0578372 9.41039 0.0280222C9.52188 -0.00179291 9.63777 -0.00788856 9.75147 0.0100831C9.86516 0.0280547 9.97616 0.0697416 10.0747 0.132763ZM3.5 14.9334V23.3334C3.5 24.076 3.77656 24.7882 4.26884 25.3133C4.76113 25.8384 5.42881 26.1333 6.125 26.1333H21.875C22.5712 26.1333 23.2389 25.8384 23.7312 25.3133C24.2234 24.7882 24.5 24.076 24.5 23.3334V14.9334H3.5ZM1.75 11.2001V13.0668H26.25V11.2001H1.75ZM7 16.8001C7.23206 16.8001 7.45462 16.8984 7.61872 17.0735C7.78281 17.2485 7.875 17.4859 7.875 17.7334V23.3334C7.875 23.5809 7.78281 23.8183 7.61872 23.9933C7.45462 24.1684 7.23206 24.2667 7 24.2667C6.76794 24.2667 6.54538 24.1684 6.38128 23.9933C6.21719 23.8183 6.125 23.5809 6.125 23.3334V17.7334C6.125 17.4859 6.21719 17.2485 6.38128 17.0735C6.54538 16.8984 6.76794 16.8001 7 16.8001ZM10.5 16.8001C10.7321 16.8001 10.9546 16.8984 11.1187 17.0735C11.2828 17.2485 11.375 17.4859 11.375 17.7334V23.3334C11.375 23.5809 11.2828 23.8183 11.1187 23.9933C10.9546 24.1684 10.7321 24.2667 10.5 24.2667C10.2679 24.2667 10.0454 24.1684 9.88128 23.9933C9.71719 23.8183 9.625 23.5809 9.625 23.3334V17.7334C9.625 17.4859 9.71719 17.2485 9.88128 17.0735C10.0454 16.8984 10.2679 16.8001 10.5 16.8001ZM14 16.8001C14.2321 16.8001 14.4546 16.8984 14.6187 17.0735C14.7828 17.2485 14.875 17.4859 14.875 17.7334V23.3334C14.875 23.5809 14.7828 23.8183 14.6187 23.9933C14.4546 24.1684 14.2321 24.2667 14 24.2667C13.7679 24.2667 13.5454 24.1684 13.3813 23.9933C13.2172 23.8183 13.125 23.5809 13.125 23.3334V17.7334C13.125 17.4859 13.2172 17.2485 13.3813 17.0735C13.5454 16.8984 13.7679 16.8001 14 16.8001ZM17.5 16.8001C17.7321 16.8001 17.9546 16.8984 18.1187 17.0735C18.2828 17.2485 18.375 17.4859 18.375 17.7334V23.3334C18.375 23.5809 18.2828 23.8183 18.1187 23.9933C17.9546 24.1684 17.7321 24.2667 17.5 24.2667C17.2679 24.2667 17.0454 24.1684 16.8813 23.9933C16.7172 23.8183 16.625 23.5809 16.625 23.3334V17.7334C16.625 17.4859 16.7172 17.2485 16.8813 17.0735C17.0454 16.8984 17.2679 16.8001 17.5 16.8001ZM21 16.8001C21.2321 16.8001 21.4546 16.8984 21.6187 17.0735C21.7828 17.2485 21.875 17.4859 21.875 17.7334V23.3334C21.875 23.5809 21.7828 23.8183 21.6187 23.9933C21.4546 24.1684 21.2321 24.2667 21 24.2667C20.7679 24.2667 20.5454 24.1684 20.3813 23.9933C20.2172 23.8183 20.125 23.5809 20.125 23.3334V17.7334C20.125 17.4859 20.2172 17.2485 20.3813 17.0735C20.5454 16.8984 20.7679 16.8001 21 16.8001Z" fill="#FC795B"/>
</svg>
