<svg width="25" height="25" viewBox="0 0 25 25" fill="none" xmlns="http://www.w3.org/2000/svg">
<path d="M6.06759 3.78331L12.5009 10.2166L18.9009 3.81665C19.0423 3.66618 19.2126 3.5458 19.4016 3.46275C19.5906 3.3797 19.7945 3.33567 20.0009 3.33331C20.443 3.33331 20.8669 3.50891 21.1794 3.82147C21.492 4.13403 21.6676 4.55795 21.6676 4.99998C21.6715 5.20432 21.6336 5.40729 21.5562 5.59645C21.4788 5.78561 21.3636 5.95696 21.2176 6.09998L14.7343 12.5L21.2176 18.9833C21.4923 19.252 21.6534 19.616 21.6676 20C21.6676 20.442 21.492 20.8659 21.1794 21.1785C20.8669 21.4911 20.443 21.6666 20.0009 21.6666C19.7885 21.6755 19.5766 21.64 19.3786 21.5625C19.1806 21.4851 19.0009 21.3673 18.8509 21.2166L12.5009 14.7833L6.08426 21.2C5.94343 21.3454 5.7752 21.4616 5.58926 21.5417C5.40332 21.6217 5.20336 21.6642 5.00092 21.6666C4.55889 21.6666 4.13497 21.4911 3.82241 21.1785C3.50985 20.8659 3.33426 20.442 3.33426 20C3.33037 19.7956 3.36828 19.5927 3.44566 19.4035C3.52305 19.2144 3.63827 19.043 3.78426 18.9L10.2676 12.5L3.78426 6.01665C3.50956 5.74791 3.34849 5.384 3.33426 4.99998C3.33426 4.55795 3.50985 4.13403 3.82241 3.82147C4.13497 3.50891 4.55889 3.33331 5.00092 3.33331C5.40092 3.33831 5.78426 3.49998 6.06759 3.78331Z" fill="#1F1F1F"/>
</svg>
