<svg width="40" height="38" viewBox="0 0 40 38" fill="none" xmlns="http://www.w3.org/2000/svg">
<path d="M20 38L17.1 35.2665C6.8 25.5956 0 19.1967 0 11.3896C0 4.99074 4.84 0 11 0C14.48 0 17.82 1.37003 20 4C22.18 1.37003 25.52 0 29 0C35.16 0 40 4.99074 40 11.3896C40 19.1967 33.2 25.5956 22.9 35.2665L20 38Z" fill="#FBFBFB"/>
<path d="M27.6504 4C32.3111 4.00021 35.9998 7.73194 36 12.5908C36 15.5574 34.7043 18.3316 32.2334 21.4326C30.3714 23.7694 27.8982 26.226 24.9229 29.0332L21.7842 31.9658L21.7822 31.9668L20 33.6309L18.2178 31.9668L18.2158 31.9658L15.0771 29.0332C12.1018 26.226 9.6286 23.7694 7.7666 21.4326C5.29571 18.3316 4 15.5574 4 12.5908C4.00023 7.73194 7.68891 4.00021 12.3496 4C14.9661 4 17.5392 5.38134 19.2334 7.40625L20 8.32324L20.7666 7.40625C22.4608 5.38134 25.0339 4 27.6504 4Z" stroke="#FC795B" stroke-width="2"/>
</svg>
