<svg width="34" height="34" viewBox="0 0 34 34" fill="none" xmlns="http://www.w3.org/2000/svg">
<path opacity="0.5" d="M0 1.10276C0 0.493707 0.617089 0 1.37835 0H25.1302L33.9994 7.03445V32.8972C33.9994 33.506 33.3824 34 32.6211 34H1.37835C0.617089 34 0 33.506 0 32.8972V1.10276Z" fill="#FC795B"/>
<path opacity="0.5" d="M0 1.10276C0 0.493707 0.617089 0 1.37835 0H25.1302L33.9994 7.03445V32.8972C33.9994 33.506 33.3824 34 32.6211 34H1.37835C0.617089 34 0 33.506 0 32.8972V1.10276Z" fill="#FC795B"/>
<path opacity="0.5" d="M0 1.10276C0 0.493707 0.617089 0 1.37835 0H25.1302L33.9994 7.03445V32.8972C33.9994 33.506 33.3824 34 32.6211 34H1.37835C0.617089 34 0 33.506 0 32.8972V1.10276Z" fill="#FC795B"/>
<path opacity="0.5" d="M25.1299 0V7.03445H33.9996L25.1299 0Z" fill="#1F1F1F"/>
<path opacity="0.2" d="M25.1299 7.03418L33.9996 14.0686V7.03418H25.1299Z" fill="#FC795B"/>
<path d="M7.25796 23H6V21.874H7.25796V23ZM8.82803 17H11.8901C13.4504 17 14.328 17.6976 14.328 18.8486C14.328 20.0254 13.4504 20.7226 11.8901 20.7226H9.99823V23H8.82803V17ZM9.99823 19.8319H11.7145C12.758 19.8319 13.1383 19.4622 13.1383 18.8572C13.1383 18.2436 12.758 17.8907 11.7145 17.8907H9.99823V19.8319ZM15.664 17H18.4237C20.5594 17 21.6419 18.1932 21.6419 20C21.6419 21.7982 20.5594 23 18.4237 23H15.664V17ZM16.8342 22.0839H18.3263C19.8865 22.0839 20.4521 21.1428 20.4521 20C20.4521 18.8486 19.8865 17.9161 18.3263 17.9161H16.8342V22.0839ZM28 17.9161H24.1676V19.5631H27.2295V20.4624H24.1676V23H22.9973V17H28V17.9161Z" fill="#FBFBFB"/>
</svg>
