<svg width="40" height="40" viewBox="0 0 40 40" fill="none" xmlns="http://www.w3.org/2000/svg">
<circle cx="20" cy="20" r="20" fill="#FBFBFB"/>
<circle cx="20" cy="20" r="17" fill="#FBFBFB" stroke="#FC795B" stroke-width="2"/>
<path fill-rule="evenodd" clip-rule="evenodd" d="M14.9922 20.0022C14.9922 18.6761 15.519 17.4043 16.4567 16.4667C17.3943 15.529 18.6661 15.0022 19.9922 15.0022C21.3183 15.0022 22.59 15.529 23.5277 16.4667C24.4654 17.4043 24.9922 18.6761 24.9922 20.0022C24.9922 21.3283 24.4654 22.6 23.5277 23.5377C22.59 24.4754 21.3183 25.0022 19.9922 25.0022C18.6661 25.0022 17.3943 24.4754 16.4567 23.5377C15.519 22.6 14.9922 21.3283 14.9922 20.0022ZM19.9922 17.0022C19.1965 17.0022 18.4335 17.3183 17.8709 17.8809C17.3083 18.4435 16.9922 19.2065 16.9922 20.0022C16.9922 20.7978 17.3083 21.5609 17.8709 22.1235C18.4335 22.6861 19.1965 23.0022 19.9922 23.0022C20.7878 23.0022 21.5509 22.6861 22.1135 22.1235C22.6761 21.5609 22.9922 20.7978 22.9922 20.0022C22.9922 19.2065 22.6761 18.4435 22.1135 17.8809C21.5509 17.3183 20.7878 17.0022 19.9922 17.0022Z" fill="#FC795B"/>
<path fill-rule="evenodd" clip-rule="evenodd" d="M9.764 18.1949C9.20533 19.0002 9 19.6309 9 20.0002C9 20.3696 9.20533 21.0002 9.764 21.8056C10.3053 22.5829 11.108 23.4269 12.124 24.2069C14.16 25.7696 16.9507 27.0002 20 27.0002C23.0493 27.0002 25.84 25.7696 27.876 24.2069C28.892 23.4269 29.6947 22.5829 30.236 21.8056C30.7947 21.0002 31 20.3696 31 20.0002C31 19.6309 30.7947 19.0002 30.236 18.1949C29.6947 17.4176 28.892 16.5736 27.876 15.7936C25.84 14.2309 23.0493 13.0002 20 13.0002C16.9507 13.0002 14.16 14.2309 12.124 15.7936C11.108 16.5736 10.3053 17.4176 9.764 18.1949ZM10.9053 14.2069C13.2133 12.4362 16.4213 11.0002 20 11.0002C23.5787 11.0002 26.7867 12.4362 29.0933 14.2069C30.2493 15.0936 31.204 16.0829 31.8787 17.0549C32.5347 18.0002 33 19.0362 33 20.0002C33 20.9642 32.5333 22.0002 31.8787 22.9456C31.204 23.9176 30.2493 24.9056 29.0947 25.7936C26.788 27.5642 23.5787 29.0002 20 29.0002C16.4213 29.0002 13.2133 27.5642 10.9067 25.7936C9.75067 24.9069 8.796 23.9176 8.12133 22.9456C7.46667 22.0002 7 20.9642 7 20.0002C7 19.0362 7.46667 18.0002 8.12133 17.0549C8.796 16.0829 9.75067 15.0949 10.9053 14.2069Z" fill="#FC795B"/>
</svg>
