<svg width="125" height="125" viewBox="0 0 125 125" fill="none" xmlns="http://www.w3.org/2000/svg">
<g filter="url(#filter0_d_613_6705)">
<path d="M52.9636 23.7084C52.8393 25.4217 53.1535 27.1385 53.8764 28.6961C54.5993 30.2537 55.7069 31.6005 57.0944 32.6088C57.4907 32.9134 57.7212 33.3323 57.7182 33.8446L57.7181 33.9381C57.7204 34.1342 57.6835 34.3287 57.6096 34.5103C57.5357 34.6918 57.4263 34.8567 57.2879 34.9951C57.1494 35.1336 56.9847 35.2429 56.8034 35.3165C56.6221 35.3901 56.428 35.4266 56.2324 35.4238L29.0877 35.3894C28.6479 35.386 28.2118 35.4703 27.8047 35.6373C27.3976 35.8042 27.0276 36.0505 26.7162 36.3619C26.4048 36.6733 26.1582 37.0436 25.9907 37.4513C25.8231 37.859 25.738 38.2959 25.7402 38.7369L25.7345 53.3064C25.7334 53.9033 25.8496 54.4946 26.0767 55.0464C26.3037 55.5983 26.637 56.0999 27.0576 56.5225C27.4781 56.9451 27.9776 57.2805 28.5276 57.5094C29.0775 57.7384 29.667 57.8564 30.2625 57.8568L30.3792 57.8335C31.6344 57.8398 32.8647 57.3057 33.7244 56.3525C34.7539 55.2201 36.0272 54.3376 37.4477 53.772C38.8682 53.2064 40.3985 52.9726 41.9226 53.0884C44.3406 53.2731 46.6123 54.3213 48.325 56.0424C50.0376 57.7635 51.0776 60.0434 51.256 62.4678C51.356 63.8539 51.1703 65.2457 50.7104 66.5566C50.2504 67.8676 49.5261 69.0695 48.5826 70.0875C47.6391 71.1056 46.4965 71.9179 45.2261 72.474C43.9557 73.0301 42.5847 73.3179 41.1985 73.3196C39.7654 73.3023 38.3517 72.9853 37.0478 72.3887C35.744 71.7922 34.5787 70.9293 33.6266 69.8553C32.7902 68.8742 31.5356 68.316 30.2593 68.3354C29.6643 68.3326 29.0746 68.4477 28.5242 68.6743C27.9738 68.9009 27.4736 69.2345 27.0524 69.6557C26.6311 70.0769 26.2972 70.5776 26.0698 71.1288C25.8424 71.6799 25.726 72.2708 25.7274 72.8673L25.7262 87.5303C25.7236 87.9717 25.8083 88.4092 25.9754 88.8175C26.1424 89.2259 26.3885 89.597 26.6994 89.9095C27.0104 90.222 27.38 90.4696 27.787 90.6381C28.1939 90.8066 28.6301 90.8925 29.0704 90.891L56.3363 90.949C56.5325 90.947 56.727 90.9843 56.9085 91.0587C57.0901 91.1331 57.255 91.2432 57.3935 91.3824C57.532 91.5216 57.6414 91.6871 57.7151 91.8693C57.7889 92.0515 57.8257 92.2466 57.8231 92.4432C57.8257 92.6836 57.7674 92.9208 57.6538 93.1326C57.5401 93.3443 57.3747 93.5237 57.1731 93.654C55.7647 94.6509 54.6344 95.9929 53.89 97.5519C53.1456 99.1109 52.8119 100.835 52.9206 102.56C53.0916 104.992 54.1279 107.281 55.8409 109.011C57.5539 110.741 59.8297 111.797 62.2539 111.986C63.6375 112.092 65.0278 111.909 66.3376 111.45C67.6474 110.991 68.8484 110.266 69.8651 109.319C70.8818 108.373 71.6923 107.226 72.2456 105.95C72.7989 104.675 73.0832 103.298 73.0804 101.907C73.0798 100.312 72.7031 98.7397 71.9811 97.3181C71.259 95.8966 70.212 94.6662 68.9254 93.7274C68.7298 93.5856 68.5708 93.3991 68.4615 93.1833C68.3522 92.9676 68.2958 92.7289 68.2969 92.4869L68.297 92.3933C68.2947 92.1973 68.3316 92.0027 68.4055 91.8212C68.4794 91.6397 68.5888 91.4748 68.7273 91.3363C68.8658 91.1979 69.0305 91.0886 69.2118 91.015C69.393 90.9413 69.5872 90.9048 69.7828 90.9076L96.8667 90.9701C97.3062 90.9731 97.7418 90.8887 98.1485 90.7217C98.5552 90.5548 98.9248 90.3086 99.2359 89.9975C99.547 89.6864 99.7935 89.3165 99.961 88.9092C100.129 88.502 100.214 88.0654 100.212 87.6249L100.211 73.0484C100.211 72.4518 100.095 71.861 99.868 71.3096C99.641 70.7581 99.3078 70.2569 98.8876 69.8346C98.4673 69.4123 97.9682 69.0771 97.4187 68.8481C96.8691 68.6192 96.28 68.501 95.685 68.5003L95.5917 68.5002C94.9619 68.4998 94.339 68.6314 93.7629 68.8864C93.1868 69.1415 92.6703 69.5144 92.2464 69.9812C91.2169 71.1137 89.9436 71.9962 88.5231 72.5617C87.1026 73.1273 85.5723 73.3611 84.0482 73.2454C81.6302 73.0606 79.3585 72.0125 77.6458 70.2913C75.9332 68.5702 74.8932 66.2903 74.7149 63.8659C74.6148 62.4799 74.8005 61.088 75.2605 59.7771C75.7204 58.4662 76.4447 57.2643 77.3882 56.2462C78.3317 55.2282 79.4743 54.4158 80.7447 53.8597C82.0151 53.3037 83.3861 53.0158 84.7723 53.0141C87.7915 53.0226 90.4872 54.3312 92.3209 56.455C93.1807 57.4127 94.3886 57.9709 95.6882 57.9749C96.2832 57.9778 96.8729 57.8626 97.4233 57.636C97.9737 57.4094 98.4739 57.0759 98.8951 56.6546C99.3164 56.2334 99.6503 55.7327 99.8777 55.1816C100.105 54.6304 100.221 54.0395 100.22 53.443L100.224 38.7309C100.226 38.2895 100.142 37.852 99.9745 37.4437C99.8075 37.0353 99.5614 36.6642 99.2505 36.3517C98.9395 36.0392 98.5699 35.7916 98.1629 35.6231C97.756 35.4546 97.3198 35.3687 96.8795 35.3702L69.6602 35.3122C69.4641 35.3142 69.2696 35.277 69.088 35.2025C68.9065 35.1281 68.7416 35.0181 68.6031 34.8789C68.4646 34.7397 68.3552 34.5741 68.2814 34.392C68.2076 34.2098 68.1709 34.0147 68.1734 33.8181C68.174 33.3035 68.4289 32.8617 68.8235 32.6073C70.1415 31.6788 71.2179 30.4468 71.9622 29.0146C72.7065 27.5825 73.097 25.9921 73.1008 24.3772C73.1006 22.9843 72.814 21.6063 72.2587 20.3294C71.7034 19.0525 70.8915 17.9041 69.8736 16.9559C68.8557 16.0077 67.6537 15.2801 66.3427 14.8185C65.0317 14.3568 63.6398 14.1712 62.2541 14.273C57.3328 14.7276 53.3148 18.7455 52.9636 23.7037" fill="#80C11E"/>
</g>
<defs>
<filter id="filter0_d_613_6705" x="21.7261" y="14.2461" width="82.4976" height="105.77" filterUnits="userSpaceOnUse" color-interpolation-filters="sRGB">
<feFlood flood-opacity="0" result="BackgroundImageFix"/>
<feColorMatrix in="SourceAlpha" type="matrix" values="0 0 0 0 0 0 0 0 0 0 0 0 0 0 0 0 0 0 127 0" result="hardAlpha"/>
<feOffset dy="4"/>
<feGaussianBlur stdDeviation="2"/>
<feComposite in2="hardAlpha" operator="out"/>
<feColorMatrix type="matrix" values="0 0 0 0 0.665385 0 0 0 0 0.665385 0 0 0 0 0.665385 0 0 0 0.5 0"/>
<feBlend mode="normal" in2="BackgroundImageFix" result="effect1_dropShadow_613_6705"/>
<feBlend mode="normal" in="SourceGraphic" in2="effect1_dropShadow_613_6705" result="shape"/>
</filter>
</defs>
</svg>
