<svg width="34" height="34" viewBox="0 0 34 34" fill="none" xmlns="http://www.w3.org/2000/svg">
<path d="M11.5 21C12.8807 21 14 19.8807 14 18.5C14 17.1193 12.8807 16 11.5 16C10.1193 16 9 17.1193 9 18.5C9 19.8807 10.1193 21 11.5 21Z" stroke="#FB886E" stroke-width="1.5" stroke-linecap="round" stroke-linejoin="round"/>
<path d="M21.5 13C22.8807 13 24 11.8807 24 10.5C24 9.11929 22.8807 8 21.5 8C20.1193 8 19 9.11929 19 10.5C19 11.8807 20.1193 13 21.5 13Z" stroke="#FB886E" stroke-width="1.5" stroke-linecap="round" stroke-linejoin="round"/>
<path d="M22.5 25C23.8807 25 25 23.8807 25 22.5C25 21.1193 23.8807 20 22.5 20C21.1193 20 20 21.1193 20 22.5C20 23.8807 21.1193 25 22.5 25Z" stroke="#FB886E" stroke-width="1.5" stroke-linecap="round" stroke-linejoin="round"/>
<path d="M19.5505 13L14 17.0922M14.1932 19.1754L17.0966 20.5877L20 22" stroke="#FB886E" stroke-width="1.5" stroke-linecap="round" stroke-linejoin="round"/>
<rect x="1" y="1" width="32" height="32" rx="16" stroke="#FC795B" stroke-width="2"/>
</svg>
