<svg width="28" height="28" viewBox="0 0 28 28" fill="none" xmlns="http://www.w3.org/2000/svg">
<path d="M14.1318 3.57568C14.1995 3.57568 14.3976 3.58461 14.8447 4.16846C15.1804 4.60687 15.5497 5.2264 16.0293 6.07471L16.5488 7.00146L16.9277 7.68115V7.68018C17.2537 8.26517 17.5344 8.80135 17.9541 9.1958L18.1436 9.35596C18.5461 9.66202 19.0199 9.81013 19.5361 9.93408L20.0654 10.0552L20.7998 10.2212C22.2553 10.5507 23.2305 10.7749 23.8945 11.0366C24.3786 11.2275 24.5519 11.3828 24.623 11.4966L24.668 11.5962C24.7062 11.7201 24.7308 11.9535 24.3447 12.5669C24.0494 13.036 23.6002 13.5943 22.9766 14.3325L22.2939 15.1343L21.792 15.7202V15.7212C21.3587 16.2282 20.9597 16.6722 20.7334 17.2036L20.6475 17.437L20.6465 17.438C20.4986 17.915 20.5089 18.4104 20.5547 18.9556L20.6074 19.5181L20.6084 19.519L20.6846 20.3013C20.8338 21.8447 20.9328 22.8932 20.8994 23.645C20.866 24.3954 20.7081 24.5547 20.6289 24.6147C20.5655 24.6628 20.4073 24.7698 19.7363 24.5776C19.223 24.4306 18.5797 24.1594 17.7158 23.7681L16.7744 23.3374L16.7734 23.3364L16.084 23.02C15.4108 22.7091 14.8029 22.4067 14.1318 22.4067C13.4607 22.4068 12.8529 22.7091 12.1797 23.02L11.4912 23.3364H11.4902C10.1279 23.9635 9.21297 24.3823 8.52832 24.5786C8.02405 24.7232 7.80913 24.6981 7.70703 24.6567L7.63574 24.6157C7.55542 24.5547 7.39873 24.3942 7.36523 23.645C7.33167 22.8932 7.43085 21.8448 7.58008 20.3013L7.65625 19.52V19.519C7.73129 18.7436 7.81502 18.0726 7.61523 17.436H7.61328C7.46449 16.9564 7.1758 16.5566 6.83203 16.144L6.47168 15.7212L5.9707 15.1353L5.96973 15.1343L5.28711 14.3335C4.66312 13.5952 4.21426 13.0361 3.91895 12.5669C3.53239 11.9527 3.55805 11.7199 3.59668 11.5952C3.63171 11.4823 3.72438 11.2901 4.37012 11.0356C4.8684 10.8393 5.54158 10.6646 6.46094 10.4507L7.46484 10.2212L8.2002 10.0552C8.83217 9.91233 9.41626 9.79597 9.91211 9.49658L10.1191 9.35693C10.6509 8.95385 10.9635 8.34673 11.335 7.68018L11.3359 7.68115L11.7148 7.00146C12.4633 5.65935 12.9722 4.75302 13.4199 4.16846C13.8667 3.58506 14.0641 3.57569 14.1318 3.57568Z" stroke="#E3C327" stroke-width="2"/>
</svg>
