<svg width="28" height="28" viewBox="0 0 28 28" fill="none" xmlns="http://www.w3.org/2000/svg">
<path d="M10.5772 6.24973C12.0414 3.6241 12.7729 2.31128 13.8673 2.31128C14.9617 2.31128 15.6932 3.6241 17.1574 6.24973L17.5365 6.92925C17.9525 7.6758 18.1605 8.04908 18.4841 8.29523C18.8077 8.54138 19.2122 8.63268 20.0211 8.81527L20.7561 8.98168C23.599 9.62538 25.0193 9.94665 25.3579 11.0341C25.6954 12.1204 24.7269 13.2541 22.7889 15.5203L22.2874 16.1063C21.7373 16.75 21.4611 17.0724 21.3374 17.4699C21.2138 17.8686 21.2554 18.2985 21.3386 19.1572L21.4148 19.9395C21.7072 22.9639 21.854 24.4755 20.9688 25.1469C20.0835 25.8183 18.7522 25.2058 16.0919 23.9808L15.402 23.6642C14.6462 23.3152 14.2683 23.1418 13.8673 23.1418C13.4663 23.1418 13.0884 23.3152 12.3326 23.6642L11.6438 23.9808C8.98238 25.2058 7.65107 25.8183 6.767 25.1481C5.88062 24.4755 6.02738 22.9639 6.31976 19.9395L6.39604 19.1583C6.47924 18.2985 6.52085 17.8686 6.39604 17.4711C6.27354 17.0724 5.99734 16.75 5.44725 16.1074L4.9457 15.5203C3.00767 13.2553 2.03924 12.1216 2.37669 11.0341C2.71414 9.94665 4.13674 9.62422 6.97964 8.98168L7.71463 8.81527C8.52243 8.63268 8.92575 8.54138 9.25049 8.29523C9.57522 8.04908 9.78209 7.6758 10.1981 6.92925L10.5772 6.24973Z" fill="#E3C327"/>
</svg>
