<svg width="120" height="137" viewBox="0 0 120 137" fill="none" xmlns="http://www.w3.org/2000/svg">
<g clip-path="url(#clip0_1019_8205)">
<path d="M45.6696 13.807L40.5804 21.4062H79.4196L74.3304 13.807C73.9286 13.2184 73.2589 12.8438 72.5357 12.8438H47.4375C46.7143 12.8438 46.0446 13.1916 45.6429 13.807H45.6696ZM85.0446 6.68945L94.875 21.4062H113.571C117.134 21.4062 120 24.2693 120 27.8281C120 31.3869 117.134 34.25 113.571 34.25H111.429V115.594C111.429 127.421 101.839 137 90 137H30C18.1607 137 8.57143 127.421 8.57143 115.594V34.25H6.42857C2.86607 34.25 0 31.3869 0 27.8281C0 24.2693 2.86607 21.4062 6.42857 21.4062H25.125L34.9554 6.6627C37.7411 2.51523 42.4286 0 47.4375 0H72.5357C77.5446 0 82.2321 2.51523 85.0179 6.6627L85.0446 6.68945ZM21.4286 34.25V115.594C21.4286 120.33 25.2589 124.156 30 124.156H90C94.7411 124.156 98.5714 120.33 98.5714 115.594V34.25H21.4286ZM42.8571 51.375V107.031C42.8571 109.386 40.9286 111.312 38.5714 111.312C36.2143 111.312 34.2857 109.386 34.2857 107.031V51.375C34.2857 49.0203 36.2143 47.0938 38.5714 47.0938C40.9286 47.0938 42.8571 49.0203 42.8571 51.375ZM64.2857 51.375V107.031C64.2857 109.386 62.3571 111.312 60 111.312C57.6429 111.312 55.7143 109.386 55.7143 107.031V51.375C55.7143 49.0203 57.6429 47.0938 60 47.0938C62.3571 47.0938 64.2857 49.0203 64.2857 51.375ZM85.7143 51.375V107.031C85.7143 109.386 83.7857 111.312 81.4286 111.312C79.0714 111.312 77.1429 109.386 77.1429 107.031V51.375C77.1429 49.0203 79.0714 47.0938 81.4286 47.0938C83.7857 47.0938 85.7143 49.0203 85.7143 51.375Z" fill="#BEE288"/>
</g>
<defs>
<clipPath id="clip0_1019_8205">
<rect width="120" height="137" fill="white"/>
</clipPath>
</defs>
</svg>
