<svg width="27" height="30" viewBox="0 0 27 30" fill="none" xmlns="http://www.w3.org/2000/svg">
<path d="M10.2757 3.02344L9.13058 4.6875H17.8694L16.7243 3.02344C16.6339 2.89453 16.4833 2.8125 16.3205 2.8125H10.6734C10.5107 2.8125 10.36 2.88867 10.2696 3.02344H10.2757ZM19.135 1.46484L21.3469 4.6875H25.5536C26.3551 4.6875 27 5.31445 27 6.09375C27 6.87305 26.3551 7.5 25.5536 7.5H25.0714V25.3125C25.0714 27.9023 22.9138 30 20.25 30H6.75C4.08616 30 1.92857 27.9023 1.92857 25.3125V7.5H1.44643C0.644866 7.5 0 6.87305 0 6.09375C0 5.31445 0.644866 4.6875 1.44643 4.6875H5.65313L7.86496 1.45898C8.49174 0.550781 9.54643 0 10.6734 0H16.3205C17.4475 0 18.5022 0.550781 19.129 1.45898L19.135 1.46484ZM4.82143 7.5V25.3125C4.82143 26.3496 5.68326 27.1875 6.75 27.1875H20.25C21.3167 27.1875 22.1786 26.3496 22.1786 25.3125V7.5H4.82143ZM9.64286 11.25V23.4375C9.64286 23.9531 9.20893 24.375 8.67857 24.375C8.14821 24.375 7.71429 23.9531 7.71429 23.4375V11.25C7.71429 10.7344 8.14821 10.3125 8.67857 10.3125C9.20893 10.3125 9.64286 10.7344 9.64286 11.25ZM14.4643 11.25V23.4375C14.4643 23.9531 14.0304 24.375 13.5 24.375C12.9696 24.375 12.5357 23.9531 12.5357 23.4375V11.25C12.5357 10.7344 12.9696 10.3125 13.5 10.3125C14.0304 10.3125 14.4643 10.7344 14.4643 11.25ZM19.2857 11.25V23.4375C19.2857 23.9531 18.8518 24.375 18.3214 24.375C17.7911 24.375 17.3571 23.9531 17.3571 23.4375V11.25C17.3571 10.7344 17.7911 10.3125 18.3214 10.3125C18.8518 10.3125 19.2857 10.7344 19.2857 11.25Z" fill="#80C11E"/>
</svg>
