<svg width="120" height="120" viewBox="0 0 120 120" fill="none" xmlns="http://www.w3.org/2000/svg">
<path d="M17.8922 2.94524L60 45.0513L101.89 3.16341C102.815 2.17858 103.93 1.39075 105.167 0.847163C106.404 0.303576 107.738 0.0154281 109.089 0C111.983 0 114.757 1.14926 116.803 3.19497C118.849 5.24067 119.998 8.01524 119.998 10.9083C120.024 12.2457 119.776 13.5742 119.269 14.8122C118.763 16.0502 118.008 17.1717 117.053 18.1078L74.6178 59.9957L117.053 102.429C118.851 104.188 119.905 106.57 119.998 109.083C119.998 111.976 118.849 114.751 116.803 116.796C114.757 118.842 111.983 119.991 109.089 119.991C107.699 120.049 106.312 119.817 105.016 119.31C103.721 118.803 102.544 118.032 101.562 117.046L60 74.9401L18.0012 116.937C17.0795 117.889 15.9784 118.649 14.7614 119.173C13.5444 119.698 12.2356 119.976 10.9105 119.991C8.01736 119.991 5.24267 118.842 3.19688 116.796C1.15109 114.751 0.00177493 111.976 0.00177493 109.083C-0.0236588 107.746 0.224482 106.417 0.730971 105.179C1.23746 103.941 1.99161 102.82 2.94714 101.884L45.3822 59.9957L2.94714 17.5624C1.14921 15.8035 0.0949316 13.4217 0.00177493 10.9083C0.00177493 8.01524 1.15109 5.24067 3.19688 3.19497C5.24267 1.14926 8.01736 0 10.9105 0C13.5286 0.0327249 16.0377 1.09083 17.8922 2.94524Z" fill="#B494C5"/>
</svg>
