<svg width="142" height="142" viewBox="0 0 142 142" fill="none" xmlns="http://www.w3.org/2000/svg">
<path d="M71 141.998C110.212 141.998 142 110.211 142 70.9991C142 31.7874 110.212 0 71 0C31.7878 0 0 31.7874 0 70.9991C0 110.211 31.7878 141.998 71 141.998Z" fill="#D1FBFA"/>
<path d="M76.9297 74.5771H66.8984C66.8984 90.4834 63.6094 96.8584 63.6094 96.8584H80.2188C80.2188 96.8506 76.9297 90.4756 76.9297 74.5771Z" fill="#2DC0C2"/>
<path d="M51.7886 97.6944C51.7339 96.8038 51.8667 95.6319 51.8667 95.6319C51.8667 95.6319 87.2105 94.1631 90.0152 95.5616C90.0152 95.5616 90.3902 96.8584 90.1323 97.7022C89.5152 99.6788 81.5464 101.452 70.9527 101.452C60.3589 101.452 51.9136 99.7647 51.7886 97.6944Z" fill="#2DC0C2"/>
<path d="M71 99.718C81.5926 99.718 90.1797 98.0391 90.1797 95.968C90.1797 93.8969 81.5926 92.218 71 92.218C60.4073 92.218 51.8203 93.8969 51.8203 95.968C51.8203 98.0391 60.4073 99.718 71 99.718Z" fill="#2DC0C2"/>
<path d="M76.9297 74.5771H66.8984C66.8984 79.7646 66.5469 83.9365 66.0781 87.2021L78.0391 88.999C77.4297 85.5068 76.9297 80.7646 76.9297 74.5771Z" fill="#2DC0C2"/>
<path d="M43.2568 104.26H98.6553C99.3571 104.26 100.054 104.623 100.472 105.147L100.552 105.254L100.553 105.255L106.709 113.692C107.247 114.425 106.724 115.457 105.812 115.457H36.1787C35.3304 115.457 34.8115 114.55 35.1934 113.833L35.2812 113.692H35.2822L41.3604 105.333L41.3613 105.33C41.7743 104.672 42.5168 104.26 43.2568 104.26ZM63.8857 92.6064C63.6226 92.7318 63.2777 92.9082 62.9531 93.1123C62.6297 93.3157 62.3215 93.5487 62.1357 93.7891C62.0428 93.9094 61.9784 94.0351 61.96 94.1621C61.946 94.2588 61.9594 94.3545 62.0049 94.4463L62.0605 94.5371C62.5787 95.2305 63.5554 95.7872 65.252 96.2285C66.7377 96.6149 68.7822 96.9144 71.5684 97.1377L72.8086 97.2285C74.0124 97.3085 74.791 97.4521 75.2129 97.624C75.4258 97.7109 75.5357 97.8005 75.5723 97.8809C75.5894 97.9187 75.5911 97.9561 75.5781 97.9951C75.5646 98.0356 75.5343 98.0811 75.4834 98.1289C75.3812 98.2249 75.206 98.3241 74.9609 98.4209C74.7168 98.5174 74.4068 98.61 74.0391 98.6943C73.4873 98.8208 72.8062 98.9283 72.0234 99.0029L71.207 99.0664C69.6191 99.16 65.0159 99.2381 60.6973 98.8955C58.5379 98.7242 56.4521 98.4478 54.8506 98.0166C54.0496 97.8009 53.3714 97.5473 52.8672 97.25C52.4254 96.9895 52.1219 96.6986 51.9805 96.376L51.9297 96.2354C51.8436 95.9319 51.9287 95.6471 52.1562 95.376C52.3854 95.1031 52.7574 94.8467 53.2373 94.6094C54.1964 94.1351 55.5695 93.7424 57.0371 93.4297C59.7698 92.8474 62.8167 92.5476 64.0967 92.5088C64.0353 92.5365 63.9641 92.5691 63.8857 92.6064Z" fill="#D1FBFA" stroke="#2DC0C2" stroke-width="0.1"/>
<g opacity="0.57">
<mask id="path-7-inside-1_1019_9995" fill="white">
<path d="M48.8203 107.921H45.0234L45.5312 106.999H49.3281L48.8203 107.921ZM54.8125 107.921H51.0156L51.4375 106.999H55.3984L54.8125 107.921ZM60.5469 107.921H56.6641L57.2578 106.999H61.0469L60.5469 107.921ZM66.1953 107.921H62.3984L62.9922 106.999H66.6172L66.1953 107.921ZM71.8438 107.921H67.9609L68.3047 106.999H71.5078L71.8438 107.921ZM77.4922 107.921H73.6953L73.2734 106.999H76.9062L77.4922 107.921ZM83.3984 107.921H79.5156L78.8438 106.999H82.6406L83.3984 107.921ZM89.0469 107.921H85.1641L84.4922 106.999H88.375L89.0469 107.921ZM96.7187 107.921H90.8984L90.2266 106.999H96.1328L96.7187 107.921ZM93.7656 109.444H97.5625L96.8906 108.429H93.0078L93.7656 109.444ZM87.5313 109.444H91.3203L90.5625 108.429H86.7656L87.5313 109.444ZM81.7969 109.444H85.5859L85 108.429H81.1172L81.7969 109.444ZM75.6406 109.444H79.4297L78.7578 108.429H75.1328L75.6406 109.444ZM70.1562 109.444H73.9531L73.5312 108.429H70.3281L70.1562 109.444ZM64.6719 109.444H68.4687L68.7266 108.429H65.0156L64.6719 109.444ZM58.6875 109.444H62.4844L62.9922 108.429H59.2812L58.6875 109.444ZM51.9453 109.444H55.8203L56.4141 108.429H52.5312L51.9453 109.444ZM44.1875 109.444H49.9219L50.5078 108.429H44.6875L44.1875 109.444ZM80.4453 110.96H84.3203L83.6484 109.944H79.7734L80.4453 110.96ZM74.375 110.96H78.1641L77.6641 109.944H74.0391L74.375 110.96ZM67.1172 110.96H71L70.9141 109.944H67.4609L67.1172 110.96ZM60.2891 110.96H64.1719L64.5078 109.944H60.7969L60.2891 110.96ZM53.125 110.96H56.9141L57.5078 109.944H53.7109L53.125 110.96ZM43.4219 110.96H51.1016L51.6875 109.944H44.0156L43.4219 110.96ZM86.9375 110.96H98.4062L97.7344 109.944H86.2656L86.9375 110.96ZM95.625 112.476H99.5L98.7422 111.468H94.8672L95.625 112.476ZM88.5391 112.476H92.3359L91.5781 111.468H87.7813L88.5391 112.476ZM57.9297 112.476H83.9844L83.3984 111.468H58.5156L57.9297 112.476ZM49.75 112.476H53.625L54.0469 111.468H50.3359L49.75 112.476ZM42.5 112.476H46.2891L46.7109 111.468H43L42.5 112.476Z"/>
</mask>
<path d="M48.8203 107.921H45.0234L45.5312 106.999H49.3281L48.8203 107.921ZM54.8125 107.921H51.0156L51.4375 106.999H55.3984L54.8125 107.921ZM60.5469 107.921H56.6641L57.2578 106.999H61.0469L60.5469 107.921ZM66.1953 107.921H62.3984L62.9922 106.999H66.6172L66.1953 107.921ZM71.8438 107.921H67.9609L68.3047 106.999H71.5078L71.8438 107.921ZM77.4922 107.921H73.6953L73.2734 106.999H76.9062L77.4922 107.921ZM83.3984 107.921H79.5156L78.8438 106.999H82.6406L83.3984 107.921ZM89.0469 107.921H85.1641L84.4922 106.999H88.375L89.0469 107.921ZM96.7187 107.921H90.8984L90.2266 106.999H96.1328L96.7187 107.921ZM93.7656 109.444H97.5625L96.8906 108.429H93.0078L93.7656 109.444ZM87.5313 109.444H91.3203L90.5625 108.429H86.7656L87.5313 109.444ZM81.7969 109.444H85.5859L85 108.429H81.1172L81.7969 109.444ZM75.6406 109.444H79.4297L78.7578 108.429H75.1328L75.6406 109.444ZM70.1562 109.444H73.9531L73.5312 108.429H70.3281L70.1562 109.444ZM64.6719 109.444H68.4687L68.7266 108.429H65.0156L64.6719 109.444ZM58.6875 109.444H62.4844L62.9922 108.429H59.2812L58.6875 109.444ZM51.9453 109.444H55.8203L56.4141 108.429H52.5312L51.9453 109.444ZM44.1875 109.444H49.9219L50.5078 108.429H44.6875L44.1875 109.444ZM80.4453 110.96H84.3203L83.6484 109.944H79.7734L80.4453 110.96ZM74.375 110.96H78.1641L77.6641 109.944H74.0391L74.375 110.96ZM67.1172 110.96H71L70.9141 109.944H67.4609L67.1172 110.96ZM60.2891 110.96H64.1719L64.5078 109.944H60.7969L60.2891 110.96ZM53.125 110.96H56.9141L57.5078 109.944H53.7109L53.125 110.96ZM43.4219 110.96H51.1016L51.6875 109.944H44.0156L43.4219 110.96ZM86.9375 110.96H98.4062L97.7344 109.944H86.2656L86.9375 110.96ZM95.625 112.476H99.5L98.7422 111.468H94.8672L95.625 112.476ZM88.5391 112.476H92.3359L91.5781 111.468H87.7813L88.5391 112.476ZM57.9297 112.476H83.9844L83.3984 111.468H58.5156L57.9297 112.476ZM49.75 112.476H53.625L54.0469 111.468H50.3359L49.75 112.476ZM42.5 112.476H46.2891L46.7109 111.468H43L42.5 112.476Z" fill="#2DC0C2" stroke="#2DC0C2" stroke-width="2" mask="url(#path-7-inside-1_1019_9995)"/>
</g>
<path d="M105.914 117.874H36.0859C35.3984 117.874 34.8047 117.28 34.8047 116.608V114.733H107.211V116.608C107.203 117.28 106.602 117.874 105.914 117.874Z" fill="#2DC0C2"/>
<mask id="path-9-inside-2_1019_9995" fill="white">
<path d="M98.6552 104.999C99.1318 104.999 99.6708 105.28 99.9599 105.687L106.382 114.491C106.421 114.538 106.421 114.593 106.397 114.647C106.366 114.702 106.327 114.726 106.265 114.726H35.7333C35.6708 114.726 35.6318 114.702 35.6005 114.647C35.5862 114.623 35.5799 114.595 35.5828 114.567C35.5856 114.539 35.5973 114.512 35.6161 114.491L41.9599 105.772L41.9755 105.749L41.9911 105.726C42.2646 105.28 42.7646 104.999 43.2646 104.999H98.6552ZM98.6552 104.21H43.2568C42.4989 104.21 41.7411 104.632 41.3193 105.304L34.9755 114.022C34.5302 114.64 34.9677 115.507 35.7333 115.507H106.272C107.038 115.507 107.476 114.64 107.03 114.022L100.608 105.218C100.179 104.632 99.4208 104.21 98.6552 104.21Z"/>
</mask>
<path d="M98.6552 104.999C99.1318 104.999 99.6708 105.28 99.9599 105.687L106.382 114.491C106.421 114.538 106.421 114.593 106.397 114.647C106.366 114.702 106.327 114.726 106.265 114.726H35.7333C35.6708 114.726 35.6318 114.702 35.6005 114.647C35.5862 114.623 35.5799 114.595 35.5828 114.567C35.5856 114.539 35.5973 114.512 35.6161 114.491L41.9599 105.772L41.9755 105.749L41.9911 105.726C42.2646 105.28 42.7646 104.999 43.2646 104.999H98.6552ZM98.6552 104.21H43.2568C42.4989 104.21 41.7411 104.632 41.3193 105.304L34.9755 114.022C34.5302 114.64 34.9677 115.507 35.7333 115.507H106.272C107.038 115.507 107.476 114.64 107.03 114.022L100.608 105.218C100.179 104.632 99.4208 104.21 98.6552 104.21Z" fill="#2DC0C2"/>
<path d="M99.9599 105.687L99.145 106.266L99.152 106.276L99.9599 105.687ZM106.382 114.491L105.574 115.08L105.593 115.107L105.614 115.131L106.382 114.491ZM106.397 114.647L107.266 115.144L107.294 115.094L107.317 115.041L106.397 114.647ZM35.6005 114.647L36.4688 114.151L36.4619 114.139L35.6005 114.647ZM35.6161 114.491L36.3599 115.16L36.3944 115.121L36.4247 115.08L35.6161 114.491ZM41.9599 105.772L42.7685 106.361L42.7806 106.344L42.7919 106.327L41.9599 105.772ZM41.9755 105.749L42.8075 106.304L42.8076 106.304L41.9755 105.749ZM41.9911 105.726L42.8232 106.28L42.8336 106.265L42.8433 106.249L41.9911 105.726ZM41.3193 105.304L42.1279 105.892L42.148 105.864L42.1661 105.835L41.3193 105.304ZM34.9755 114.022L34.1669 113.434L34.1646 113.437L34.9755 114.022ZM107.03 114.022L107.841 113.437L107.838 113.433L107.03 114.022ZM100.608 105.218L101.416 104.628L101.415 104.626L100.608 105.218ZM98.6552 104.999V105.999C98.7968 105.999 99.037 106.114 99.1451 106.266L99.9599 105.687L100.775 105.107C100.305 104.446 99.4667 103.999 98.6552 103.999V104.999ZM99.9599 105.687L99.152 106.276L105.574 115.08L106.382 114.491L107.19 113.902L100.768 105.097L99.9599 105.687ZM106.382 114.491L105.614 115.131C105.502 114.998 105.429 114.826 105.416 114.64C105.403 114.468 105.444 114.333 105.478 114.254L106.397 114.647L107.317 115.041C107.442 114.749 107.497 114.267 107.15 113.851L106.382 114.491ZM106.397 114.647L105.529 114.151C105.572 114.076 105.664 113.946 105.834 113.846C106.006 113.745 106.169 113.726 106.265 113.726V114.726V115.726C106.423 115.726 106.637 115.695 106.851 115.568C107.064 115.442 107.192 115.273 107.266 115.144L106.397 114.647ZM106.265 114.726V113.726H35.7333V114.726V115.726H106.265V114.726ZM35.7333 114.726V113.726C35.8292 113.726 35.9921 113.745 36.1639 113.846C36.3336 113.946 36.426 114.076 36.4688 114.151L35.6005 114.647L34.7323 115.144C34.8063 115.273 34.9338 115.442 35.1465 115.568C35.3613 115.695 35.575 115.726 35.7333 115.726V114.726ZM35.6005 114.647L36.4619 114.139C36.5555 114.298 36.5961 114.483 36.5778 114.666L35.5828 114.567L34.5877 114.467C34.5638 114.707 34.6168 114.948 34.7391 115.155L35.6005 114.647ZM35.5828 114.567L36.5778 114.666C36.5595 114.85 36.4831 115.023 36.3599 115.16L35.6161 114.491L34.8724 113.823C34.7114 114.002 34.6117 114.228 34.5877 114.467L35.5828 114.567ZM35.6161 114.491L36.4247 115.08L42.7685 106.361L41.9599 105.772L41.1513 105.184L34.8075 113.903L35.6161 114.491ZM41.9599 105.772L42.7919 106.327L42.8075 106.304L41.9755 105.749L41.1435 105.194L41.1278 105.218L41.9599 105.772ZM41.9755 105.749L42.8076 106.304L42.8232 106.28L41.9911 105.726L41.159 105.171L41.1434 105.194L41.9755 105.749ZM41.9911 105.726L42.8433 106.249C42.9402 106.091 43.1224 105.999 43.2646 105.999V104.999V103.999C42.4068 103.999 41.5889 104.47 41.139 105.202L41.9911 105.726ZM43.2646 104.999V105.999H98.6552V104.999V103.999H43.2646V104.999ZM98.6552 104.21V103.21H43.2568V104.21V105.21H98.6552V104.21ZM43.2568 104.21V103.21C42.144 103.21 41.0713 103.818 40.4724 104.772L41.3193 105.304L42.1661 105.835C42.4109 105.446 42.8539 105.21 43.2568 105.21V104.21ZM41.3193 105.304L40.5106 104.715L34.1669 113.434L34.9755 114.022L35.7841 114.611L42.1279 105.892L41.3193 105.304ZM34.9755 114.022L34.1646 113.437C33.2465 114.71 34.1445 116.507 35.7333 116.507V115.507V114.507C35.7327 114.507 35.7376 114.507 35.7459 114.509C35.754 114.512 35.7622 114.515 35.7694 114.52C35.7832 114.529 35.7892 114.538 35.7918 114.543C35.7943 114.548 35.7976 114.557 35.7967 114.572C35.7963 114.58 35.7947 114.588 35.792 114.596C35.7892 114.604 35.7865 114.608 35.7865 114.608L34.9755 114.022ZM35.7333 115.507V116.507H106.272V115.507V114.507H35.7333V115.507ZM106.272 115.507V116.507C107.861 116.507 108.759 114.71 107.841 113.437L107.03 114.022L106.219 114.608C106.219 114.608 106.216 114.604 106.214 114.596C106.211 114.588 106.209 114.58 106.209 114.572C106.208 114.557 106.211 114.548 106.214 114.543C106.216 114.538 106.223 114.529 106.236 114.52C106.244 114.515 106.252 114.512 106.26 114.509C106.268 114.507 106.273 114.507 106.272 114.507V115.507ZM107.03 114.022L107.838 113.433L101.416 104.628L100.608 105.218L99.8004 105.807L106.222 114.612L107.03 114.022ZM100.608 105.218L101.415 104.626C100.811 103.804 99.7633 103.21 98.6552 103.21V104.21V105.21C99.0783 105.21 99.546 105.46 99.8019 105.809L100.608 105.218Z" fill="#2DC0C2" mask="url(#path-9-inside-2_1019_9995)"/>
<path d="M109.641 83.2334H32.3594C31.6466 83.2334 30.963 82.9503 30.459 82.4463C29.955 81.9422 29.6719 81.2587 29.6719 80.5459V28.2021C29.6719 26.7178 30.875 25.5146 32.3594 25.5146H109.633C111.117 25.5146 112.32 26.7178 112.32 28.2021V80.5459C112.328 82.0303 111.125 83.2334 109.641 83.2334Z" fill="#2DC0C2"/>
<path d="M109.641 81.8506H32.3594C31.6466 81.8506 30.963 81.5674 30.459 81.0634C29.955 80.5594 29.6719 79.8759 29.6719 79.1631V26.8193C29.6719 25.335 30.875 24.1318 32.3594 24.1318H109.633C111.117 24.1318 112.32 25.335 112.32 26.8193V79.1631C112.321 79.5156 112.253 79.8649 112.119 80.191C111.984 80.517 111.787 80.8133 111.538 81.063C111.289 81.3126 110.994 81.5107 110.668 81.6459C110.342 81.781 109.993 81.8506 109.641 81.8506Z" fill="#2DC0C2"/>
<path d="M32.9141 28.3271H109.086V77.6396H32.9141V28.3271Z" fill="url(#paint0_radial_1019_9995)"/>
<path d="M33.8047 26.46H42.5469" stroke="#D1FBFA" stroke-width="0.37675" stroke-miterlimit="10" stroke-linecap="round"/>
<defs>
<radialGradient id="paint0_radial_1019_9995" cx="0" cy="0" r="1" gradientUnits="userSpaceOnUse" gradientTransform="translate(57.3008 16.9553) scale(47.6352)">
<stop stop-color="#82D8D9"/>
<stop offset="1" stop-color="#82D8D9"/>
</radialGradient>
</defs>
</svg>
