<svg width="142" height="142" viewBox="0 0 142 142" fill="none" xmlns="http://www.w3.org/2000/svg">
<path d="M71 141.998C110.212 141.998 142 110.211 142 70.9991C142 31.7874 110.212 0 71 0C31.7878 0 0 31.7874 0 70.9991C0 110.211 31.7878 141.998 71 141.998Z" fill="#F9D3E2"/>
<path d="M100.275 62.7653C100.275 77.6556 87.1794 89.7262 71.027 89.7262C54.8729 89.7262 41.7793 77.6556 41.7793 62.7653C41.7793 47.8743 54.8737 35.8037 71.027 35.8037C87.1794 35.8037 100.275 47.8743 100.275 62.7653Z" fill="#DD5E8D"/>
<path d="M69.3036 65.5838C69.9697 65.1704 70.8308 65.6495 70.8308 66.4335V101.872C70.8308 102.424 70.383 102.872 69.8308 102.872H58.5459C57.9414 102.872 57.4634 102.346 57.4896 101.742C57.6344 98.3949 57.3025 88.2332 49.0043 79.6609C48.549 79.1905 48.6275 78.4118 49.1837 78.0666L69.3036 65.5838Z" fill="#DD5E8D"/>
<path d="M72.5422 69.2232C71.8756 68.8226 71.027 69.3027 71.027 70.0803V102.118C71.027 102.671 71.4747 103.118 72.027 103.118H82.4966C83.1028 103.118 83.5819 102.585 83.5582 101.979C83.4357 98.8387 83.8273 89.7774 91.4401 82.087C91.9094 81.6129 91.8287 80.816 91.2569 80.4724L72.5422 69.2232Z" fill="#DD5E8D"/>
<path d="M77.591 116.706C77.591 120.182 74.5337 123 70.763 123C66.9923 123 63.9359 120.182 63.9359 116.706C63.9359 113.23 66.9923 110.412 70.763 110.412C74.5337 110.412 77.591 113.23 77.591 116.706Z" fill="#FBFBFB"/>
<path d="M90.6479 53.2274C90.6479 57.14 87.2063 60.3124 82.9619 60.3124C78.7158 60.3124 75.2743 57.1407 75.2743 53.2274C75.2743 49.3141 78.7158 46.1409 82.9619 46.1409C87.2071 46.1416 90.6479 49.3141 90.6479 53.2274Z" fill="#FBFBFB"/>
<path d="M81.4883 78.1175C79.0797 78.1175 77.12 76.0224 77.12 73.4465C77.12 70.8712 79.0797 68.7761 81.4883 68.7761C82.0115 68.7761 82.4365 69.1672 82.4365 69.6495C82.4365 70.1319 82.0123 70.5236 81.4883 70.5236C80.1254 70.5236 79.0157 71.8345 79.0157 73.4472C79.0157 75.0592 80.1254 76.3715 81.4883 76.3715C82.0115 76.3715 82.4365 76.7625 82.4365 77.2449C82.4365 77.7258 82.0123 78.1175 81.4883 78.1175Z" fill="#FBFBFB"/>
<path d="M74.5258 105.716C74.0034 105.716 73.5792 105.324 73.5792 104.842V73.9042C73.5792 70.2045 74.5961 67.4577 76.6045 65.7403C78.7639 63.8934 81.3043 63.9361 81.6774 63.9509C85.8419 63.9656 89.2252 67.1462 89.2252 71.0536C89.2252 74.9706 85.8267 78.1563 81.651 78.1563C81.1269 78.1563 80.702 77.766 80.702 77.2829C80.702 76.7998 81.1262 76.4095 81.651 76.4095C84.7818 76.4095 87.3294 74.0066 87.3294 71.0536C87.3294 68.0998 84.7818 65.6991 81.651 65.6991C81.6262 65.6991 81.6031 65.6976 81.5791 65.6954C81.504 65.691 79.5388 65.5945 77.8699 67.0423C76.281 68.4187 75.4749 70.7281 75.4749 73.9042V104.842C75.4733 105.324 75.0483 105.716 74.5258 105.716Z" fill="#FBFBFB"/>
<path d="M61.3789 78.1175C60.8556 78.1175 60.4306 77.7258 60.4306 77.2442C60.4306 76.7618 60.8556 76.3708 61.3789 76.3708C62.7426 76.3708 63.8514 75.0592 63.8514 73.4465C63.8514 71.8345 62.7426 70.5229 61.3789 70.5229C60.8556 70.5229 60.4306 70.1311 60.4306 69.6488C60.4306 69.1664 60.8556 68.7754 61.3789 68.7754C63.7867 68.7754 65.7472 70.8705 65.7472 73.4457C65.7464 76.0224 63.7867 78.1175 61.3789 78.1175Z" fill="#FBFBFB"/>
<path d="M68.341 105.716C67.8185 105.716 67.3935 105.324 67.3935 104.842V73.9042C67.3935 70.7104 66.5795 68.3944 64.9737 67.0202C63.312 65.599 61.3085 65.6969 61.2885 65.6954C61.2653 65.6976 61.2414 65.6991 61.2174 65.6991C58.0858 65.6991 55.5382 68.1006 55.5382 71.0536C55.5382 74.0066 58.0866 76.4095 61.2174 76.4095C61.7415 76.4095 62.1657 76.7998 62.1657 77.2829C62.1657 77.766 61.7415 78.1563 61.2174 78.1563C57.0409 78.1563 53.6425 74.9706 53.6425 71.0536C53.6425 67.1462 57.0257 63.9656 61.1902 63.9509C61.5641 63.9361 64.1037 63.8934 66.2631 65.7403C68.2707 67.4577 69.2884 70.2045 69.2884 73.9042V104.842C69.2884 105.324 68.8651 105.716 68.341 105.716Z" fill="#FBFBFB"/>
<path d="M83.2114 101.639H58.4508C57.8986 101.639 57.4508 102.086 57.4508 102.639V115.44C57.4508 115.992 57.8986 116.44 58.4508 116.44H83.2114C83.7637 116.44 84.2114 115.992 84.2114 115.44V102.639C84.2114 102.086 83.7637 101.639 83.2114 101.639Z" fill="#FBFBFB"/>
<path d="M116.783 65.747H108.796C107.577 65.747 106.579 64.8272 106.579 63.7042C106.579 62.5819 107.577 61.6606 108.796 61.6606H116.783C118.002 61.6606 119 62.5812 119 63.7042C119 64.828 118.003 65.747 116.783 65.747Z" fill="#DD5E8D"/>
<path d="M69.5023 28.4077V21.0436C69.5023 19.919 70.5008 19 71.7191 19C72.9382 19 73.9352 19.919 73.9352 21.0436V28.4077C73.9352 29.5315 72.9382 30.449 71.7191 30.449C70.5008 30.449 69.5023 29.5315 69.5023 28.4077Z" fill="#DD5E8D"/>
<path d="M34.2041 65.747H26.2153C24.997 65.747 24 64.8272 24 63.7042C24 62.5819 24.9978 61.6606 26.2153 61.6606H34.2041C35.4231 61.6606 36.4202 62.5812 36.4202 63.7042C36.4202 64.828 35.4239 65.747 34.2041 65.747Z" fill="#DD5E8D"/>
<path d="M39.2347 41.6689L33.585 36.4624C32.7222 35.6686 32.7222 34.3681 33.585 33.5735C34.447 32.7789 35.8562 32.7789 36.7174 33.5735L42.3679 38.7807C43.2298 39.5745 43.2298 40.8758 42.3679 41.6689C41.5059 42.4642 40.0943 42.4642 39.2347 41.6689Z" fill="#DD5E8D"/>
<path d="M104.048 42.5959L109.695 37.3894C110.558 36.5926 110.558 35.2943 109.695 34.499C108.834 33.7044 107.424 33.7044 106.562 34.499L100.914 39.7062C100.051 40.5001 100.051 41.802 100.914 42.5959C101.775 43.3898 103.186 43.3898 104.048 42.5959Z" fill="#DD5E8D"/>
</svg>
