<svg width="142" height="142" viewBox="0 0 142 142" fill="none" xmlns="http://www.w3.org/2000/svg">
<path d="M71 141.998C110.212 141.998 142 110.211 142 70.9991C142 31.7874 110.212 0 71 0C31.7878 0 0 31.7874 0 70.9991C0 110.211 31.7878 141.998 71 141.998Z" fill="#FCDFD9"/>
<path d="M56.2363 117.709L55.5244 116.614L55.3242 117.905L54.4775 123.358L54.4727 123.39L54.4717 123.416C54.4717 123.416 54.4718 123.418 54.4717 123.42C54.4714 123.425 54.4702 123.435 54.4688 123.448C54.4658 123.476 54.4601 123.519 54.4492 123.571C54.4269 123.679 54.3858 123.817 54.3115 123.949C54.1787 124.186 53.9231 124.451 53.3174 124.451H44.1465C43.3901 124.451 43.0534 124.345 42.876 124.23C42.7501 124.149 42.6652 124.041 42.5596 123.843L42.4443 123.612V123.611C41.8714 122.405 41.2532 120.241 40.6523 118.095C40.3552 117.034 40.0638 115.984 39.79 115.088C39.5531 114.312 39.3201 113.623 39.0986 113.131L39.0049 112.932C38.4243 111.78 37.595 110.609 36.8115 109.487C36.1156 108.491 35.4553 107.534 34.9795 106.614L34.7871 106.222C33.827 104.144 33.2148 102.238 32.8135 100.82C32.6122 100.109 32.4652 99.5271 32.3506 99.0947C32.2944 98.8825 32.2443 98.699 32.1992 98.5596C32.1768 98.4904 32.1521 98.4208 32.125 98.3594C32.111 98.3277 32.0802 98.2571 32.0254 98.1865L31.9619 98.1172L31.8691 98.043C31.6447 97.8894 31.3722 97.8701 31.1992 97.8701C30.9693 97.8701 30.723 97.9082 30.5117 97.9521C30.2964 97.997 30.0954 98.0522 29.9502 98.0957C29.8772 98.1176 29.8169 98.1374 29.7744 98.1514C29.7586 98.1566 29.7451 98.1605 29.7344 98.1641L29.4756 98.2217C29.0962 98.2927 28.7424 98.3087 28.4824 98.3066C28.3533 98.3056 28.2491 98.3 28.1787 98.2949C28.1737 98.2946 28.1687 98.2933 28.1641 98.293C27.0151 97.698 24.9455 96.3289 23.4189 93.6279C21.9087 90.9557 20.8998 86.9313 21.9014 80.9678L22.0049 80.3848V80.3838C22.03 80.2486 22.0718 80.1091 22.1914 79.9873C22.2938 79.8831 22.5009 79.7444 22.9336 79.6777L23.1328 79.6543C23.7929 79.5962 26.0484 79.3583 28.1309 79.1357C29.1739 79.0242 30.1766 78.916 30.918 78.8359C31.2885 78.796 31.5938 78.7633 31.8066 78.7402C31.9128 78.7287 31.9961 78.719 32.0527 78.7129C32.0811 78.7098 32.1036 78.7076 32.1182 78.7061C32.125 78.7053 32.1302 78.7045 32.1338 78.7041H32.1396L32.3711 78.6787L32.501 78.4863V78.4854L32.5039 78.4805C32.5064 78.4768 32.5107 78.4711 32.5156 78.4639C32.5256 78.4491 32.5408 78.4272 32.5605 78.3984C32.6004 78.3402 32.6597 78.2536 32.7363 78.1436C32.8895 77.9235 33.1121 77.6074 33.3896 77.2246C33.9458 76.4578 34.7202 75.4248 35.5957 74.3604C36.4725 73.2943 37.4438 72.2045 38.3926 71.3184C39.3548 70.4197 40.2437 69.7793 40.9561 69.5459L41.3994 69.4014L41.2852 68.9492C41.1616 68.4584 40.317 65.5165 40.2725 62.5166C40.2502 61.0157 40.4304 59.5495 40.9668 58.3857C41.4601 57.3155 42.2528 56.4993 43.5078 56.1279L43.7656 56.0596C46.6387 55.3811 48.7485 56.9349 50.1973 58.7871C50.918 59.7086 51.453 60.6801 51.8086 61.4248C51.9858 61.7959 52.1174 62.1088 52.2041 62.3271C52.2474 62.4361 52.2798 62.5218 52.3008 62.5791C52.3113 62.6077 52.3193 62.6296 52.3242 62.6436C52.3267 62.6505 52.328 62.6561 52.3291 62.6592L52.3301 62.6621L52.4893 63.1299L52.959 62.9775L52.9609 62.9766C52.9628 62.976 52.9657 62.9749 52.9697 62.9736C52.9779 62.971 52.9909 62.9672 53.0078 62.9619C53.0422 62.9511 53.0948 62.9341 53.1641 62.9131C53.3026 62.8711 53.5098 62.8099 53.7812 62.7344C54.3246 62.5832 55.1255 62.3748 56.1484 62.1455C58.1948 61.6867 61.1295 61.1469 64.6738 60.8252C71.5442 60.2016 80.6875 60.3989 90.0908 63.5791L91.002 63.8965C100.725 67.3807 106.219 72.2123 109.385 76.4287C112.158 80.1234 113.157 83.3553 113.646 84.9014L113.829 85.457C114.208 86.5223 114.742 89.7657 114.289 93.8242C113.852 97.7411 112.5 102.369 109.247 106.488L108.927 106.886C108.028 107.973 107.007 109.642 105.961 111.503C104.911 113.37 103.816 115.466 102.773 117.416C101.727 119.374 100.736 121.181 99.8838 122.497C99.4568 123.157 99.0774 123.674 98.7539 124.021C98.592 124.194 98.4567 124.311 98.3496 124.381C98.238 124.454 98.1946 124.452 98.2051 124.452C96.7879 124.452 90.7026 124.547 88.5518 124.471L88.1768 124.453C87.8817 124.435 87.7745 124.331 87.7207 124.25C87.6487 124.142 87.6097 123.972 87.6133 123.758C87.6153 123.64 87.6299 123.528 87.6475 123.435C87.6645 123.404 87.6842 123.364 87.6885 123.354C87.6906 123.348 87.6931 123.338 87.6943 123.335C87.6963 123.329 87.6976 123.324 87.6982 123.322C87.7028 123.307 87.7138 123.269 87.7256 123.227C87.7523 123.13 87.8002 122.957 87.8623 122.731C87.9867 122.28 88.1695 121.616 88.3574 120.933C88.5454 120.249 88.7393 119.544 88.8857 119.011C88.959 118.744 89.0203 118.52 89.0635 118.362C89.085 118.284 89.1017 118.222 89.1133 118.18C89.1191 118.159 89.1239 118.142 89.127 118.131L89.1309 118.115V118.114L88.6494 117.982L89.1318 118.114L89.5762 116.493L88.3174 117.607V117.608C88.3161 117.61 88.3138 117.611 88.3105 117.614C88.3031 117.621 88.2899 117.631 88.2725 117.646C88.2376 117.674 88.1828 117.718 88.1074 117.774C87.9562 117.888 87.7226 118.055 87.4014 118.257C86.7591 118.66 85.767 119.204 84.3887 119.75C81.6331 120.842 77.3245 121.947 71.165 121.947C65.0036 121.947 61.2453 120.842 59.0459 119.766C57.9462 119.228 57.2328 118.695 56.8008 118.308C56.5848 118.114 56.4381 117.956 56.3486 117.851C56.3039 117.798 56.2729 117.759 56.2549 117.734C56.246 117.722 56.2402 117.714 56.2373 117.71L56.2363 117.709ZM87.708 123.288C87.7076 123.29 87.7064 123.292 87.7061 123.293C87.7069 123.29 87.7081 123.284 87.71 123.277C87.7087 123.284 87.708 123.288 87.708 123.288Z" fill="#FC795B" stroke="#FBFBFB"/>
<path d="M61.9745 68.5326C62.5927 68.4005 77.2705 65.3566 90.9766 71.0814C91.3275 71.2281 91.614 71.4529 91.8263 71.7235C91.9143 71.6109 91.995 71.4919 92.0581 71.3593C92.539 70.3501 92.0547 69.1667 90.9766 68.716C77.2705 62.9912 62.5929 66.0352 61.9745 66.1671C60.8248 66.4135 60.1065 67.4852 60.3683 68.5619C60.4354 68.8377 60.5612 69.0865 60.7294 69.301C61.022 68.9264 61.4531 68.6442 61.9745 68.5326Z" fill="#FC795B"/>
<path d="M62.9249 70.0692C63.0628 70.0404 76.8627 67.2039 89.2348 72.3716C89.5179 72.4898 89.8134 72.5457 90.1046 72.5457C90.7768 72.5457 91.4196 72.2431 91.8257 71.7234C91.6134 71.4528 91.3269 71.2277 90.976 71.0812C77.2699 65.3564 62.5923 68.4004 61.9739 68.5325C61.4525 68.6441 61.0213 68.9263 60.7285 69.3008C61.2173 69.9237 62.0698 70.2515 62.9249 70.0692Z" fill="#FC795B"/>
<path d="M53.0414 79.7972C53.0414 82.4704 50.727 84.6376 47.8723 84.6376C45.0175 84.6376 42.7031 82.4704 42.7031 79.7972C42.7031 77.1239 45.0175 74.9565 47.8723 74.9565C50.727 74.9565 53.0414 77.1239 53.0414 79.7972Z" fill="#FC795B"/>
<path d="M50.6783 79.825C50.6783 81.2761 49.4218 82.4526 47.8721 82.4526C46.3227 82.4526 45.0662 81.2761 45.0662 79.825C45.0662 78.3736 46.3227 77.1973 47.8721 77.1973C49.4218 77.1973 50.6783 78.3736 50.6783 79.825Z" fill="#FCDFD9"/>
<path d="M50.6775 78.0987C50.6775 79.0523 49.852 79.8251 48.8339 79.8251C47.8157 79.8251 46.9902 79.0523 46.9902 78.0987C46.9902 77.1451 47.8155 76.3723 48.8339 76.3723C49.852 76.3723 50.6775 77.1451 50.6775 78.0987Z" fill="#FC795B"/>
<path d="M78.059 50.2278C70.1262 50.2278 63.6954 56.2496 63.6954 63.6779C63.6954 71.1062 70.1264 77.128 78.059 77.128C85.9917 77.128 92.4225 71.1062 92.4225 63.6779C92.4223 56.2496 85.9915 50.2278 78.059 50.2278ZM78.059 74.5213C71.6639 74.5213 66.4791 69.6665 66.4791 63.6779C66.4791 57.6893 71.6639 52.8345 78.059 52.8345C84.4545 52.8345 89.6388 57.6893 89.6388 63.6779C89.6385 69.6665 84.4545 74.5213 78.059 74.5213Z" fill="#FBFBFB"/>
<path d="M78.0584 74.5215C84.4537 74.5215 89.6382 69.6667 89.6382 63.6781C89.6382 57.6895 84.4537 52.8347 78.0584 52.8347C71.663 52.8347 66.4786 57.6895 66.4786 63.6781C66.4786 69.6667 71.663 74.5215 78.0584 74.5215Z" fill="#FC795B"/>
<path d="M78.1698 73.481C83.9502 73.4269 88.5892 68.995 88.5314 63.5821C88.4736 58.1693 83.7408 53.8252 77.9605 53.8793C72.1801 53.9334 67.5411 58.3653 67.5989 63.7782C67.6567 69.191 72.3894 73.5351 78.1698 73.481Z" fill="#FC795B"/>
<path d="M78.4095 74.4675C78.4095 74.651 78.2505 74.8001 78.0543 74.8001C77.8582 74.8001 77.6993 74.651 77.6993 74.4675V72.62C77.6993 72.4364 77.8585 72.2874 78.0543 72.2874C78.2505 72.2874 78.4095 72.4362 78.4095 72.62V74.4675Z" fill="#030A19"/>
<path d="M68.4769 63.2283C68.6731 63.2283 68.8321 63.3773 68.8321 63.5609C68.8321 63.7444 68.6731 63.8935 68.4769 63.8935H66.5039C66.3079 63.8935 66.1487 63.7444 66.1487 63.5609C66.1487 63.3773 66.3076 63.2283 66.5039 63.2283H68.4769Z" fill="#FCDFD9"/>
<path d="M89.5879 63.2283C89.7839 63.2283 89.9431 63.3773 89.9431 63.5609C89.9431 63.7444 89.7839 63.8935 89.5879 63.8935H87.6149C87.4189 63.8935 87.2597 63.7444 87.2597 63.5609C87.2597 63.3773 87.4187 63.2283 87.6149 63.2283H89.5879Z" fill="#FCDFD9"/>
<path d="M78.4095 54.7355C78.4095 54.9191 78.2505 55.0681 78.0543 55.0681C77.8582 55.0681 77.6993 54.9193 77.6993 54.7355V52.888C77.6993 52.7045 77.8585 52.5554 78.0543 52.5554C78.2505 52.5554 78.4095 52.7045 78.4095 52.888V54.7355Z" fill="#FCDFD9"/>
<path d="M83.3191 69.4173L78.1319 63.7991L77.7735 64.0891L82.9607 69.7074C83.0464 69.7999 83.1961 69.8101 83.2949 69.7301C83.3937 69.65 83.4048 69.5101 83.3191 69.4173Z" fill="#FCDFD9"/>
<path d="M79.2824 63.6032C79.2824 64.2358 78.735 64.7486 78.0592 64.7486C77.3834 64.7486 76.836 64.2358 76.836 63.6032C76.836 62.9706 77.3836 62.4578 78.0592 62.4578C78.735 62.4578 79.2824 62.9708 79.2824 63.6032Z" fill="#FCDFD9"/>
<path d="M86.4707 63.3389H78.5393V63.7824H86.4707C86.6014 63.7824 86.7075 63.6831 86.7075 63.5605C86.7075 63.4382 86.6014 63.3389 86.4707 63.3389Z" fill="#FCDFD9"/>
<path d="M78.5671 63.3205C78.5671 63.5858 78.3376 63.8009 78.0541 63.8009C77.771 63.8009 77.5411 63.5858 77.5411 63.3205V56.2013C77.5411 55.9361 77.771 55.7209 78.0541 55.7209C78.3376 55.7209 78.5671 55.9361 78.5671 56.2013V63.3205Z" fill="#FCDFD9"/>
<path d="M78.8879 63.6034C78.8879 64.0319 78.5166 64.3793 78.0592 64.3793C77.6011 64.3793 77.2305 64.0319 77.2305 63.6034C77.2305 63.1748 77.6011 62.8274 78.0592 62.8274C78.5166 62.8276 78.8879 63.1748 78.8879 63.6034Z" fill="#FCDFD9"/>
<path d="M74.369 68.8464C78.0462 68.8465 82.1962 69.851 85.4501 70.8689C87.072 71.3763 88.4617 71.8839 89.4452 72.2644C89.9153 72.4463 90.2926 72.5991 90.5575 72.7087L87.412 80.8376L62.4198 74.3738L61.7274 70.0544C61.8725 70.0249 62.0505 69.9886 62.2596 69.949C62.9045 69.8269 63.8443 69.6631 65.0175 69.4998C67.3646 69.1729 70.6438 68.8464 74.369 68.8464Z" fill="#FCDFD9" stroke="#FBFBFB"/>
<path d="M117.142 74.3127C117.962 74.2018 118.799 74.5334 119.458 75.303L119.587 75.4631C120.457 76.5984 120.953 78.6805 120.014 80.5979L119.918 80.7834C119.873 80.8671 119.826 80.949 119.779 81.0276L119.396 81.6663L120.134 81.7786C120.687 81.8625 121.233 81.8783 121.719 81.8225C122.136 81.7746 122.54 81.6702 122.867 81.4866L123.002 81.4026H123.003C123.405 81.1285 123.957 81.1965 124.271 81.5227L124.33 81.592C124.595 81.9333 124.546 82.4043 124.2 82.6926L124.128 82.7483C122.762 83.6793 120.37 83.7958 118.226 83.0481L117.995 82.968L117.79 83.0999C117.326 83.3994 116.814 83.6427 116.26 83.8245L116.02 83.8987C114.381 84.3736 112.466 84.2872 110.714 83.6711L110.365 83.5413C110.231 83.4878 110.098 83.4311 109.966 83.3713L109.576 83.1829H109.575C109.148 82.9641 109.002 82.5067 109.172 82.1311L109.21 82.0569C109.433 81.6754 109.955 81.4988 110.408 81.677L110.497 81.717C112.014 82.4938 113.868 82.7284 115.383 82.3118L116.217 82.0833L115.602 81.4749C114.417 80.3023 114.027 78.8086 114.517 77.1897L114.627 76.8645C115.004 75.8503 115.467 75.2407 115.905 74.8733C116.288 74.5531 116.67 74.4009 117.002 74.3352L117.141 74.3127H117.142ZM117.121 76.1575C116.956 76.3118 116.728 76.6032 116.497 77.1487L116.398 77.3987C116.176 77.9972 116.114 78.5838 116.263 79.1418C116.412 79.7005 116.757 80.1761 117.249 80.5793L117.673 80.927L117.979 80.4729C118.026 80.4045 118.071 80.3344 118.114 80.2629L118.24 80.0442C118.702 79.1924 118.783 78.1615 118.474 77.2424L118.406 77.0608V77.0598C118.246 76.6616 118.038 76.3754 117.854 76.2014L117.777 76.134L117.438 75.8596L117.121 76.1575Z" fill="#FC795B" stroke="#FBFBFB"/>
<path d="M59.958 29.523C54.2361 31.153 51.0083 36.8181 52.749 42.1764C54.4898 47.5347 60.5396 50.557 66.2618 48.9269C71.984 47.2969 75.2113 41.6318 73.4708 36.2736C71.7298 30.9153 65.68 27.8929 59.958 29.523ZM65.6508 47.0464C61.0379 48.3604 56.1604 45.9239 54.757 41.6041C53.3536 37.2843 55.9558 32.717 60.5687 31.4031C65.1821 30.0889 70.0591 32.5256 71.4626 36.8454C72.866 41.1652 70.2642 45.7323 65.6508 47.0464Z" fill="#FBFBFB"/>
<path d="M65.4783 47.0924C70.1198 45.8688 72.8231 41.3533 71.5163 37.0069C70.2096 32.6605 65.3876 30.129 60.7461 31.3526C56.1046 32.5762 53.4012 37.0916 54.708 41.438C56.0148 45.7844 60.8368 48.316 65.4783 47.0924Z" fill="#FC795B"/>
<path d="M65.4377 46.2866C69.6028 45.0847 71.9388 40.9486 70.6553 37.0483C69.3718 33.1479 64.9548 30.9604 60.7897 32.1622C56.6245 33.3641 54.2885 37.5002 55.5721 41.4006C56.8556 45.3009 61.2726 47.4885 65.4377 46.2866Z" fill="#FC795B"/>
<path d="M65.8906 46.9356C65.9335 47.0679 65.8537 47.2081 65.7122 47.2485C65.5708 47.2888 65.4212 47.214 65.3782 47.0817L64.9452 45.7491C64.9023 45.6166 64.9821 45.4766 65.1234 45.4362C65.2649 45.396 65.4146 45.4707 65.4576 45.603L65.8906 46.9356Z" fill="#FCDFD9"/>
<path d="M56.0933 40.8693C56.2349 40.8291 56.3846 40.9038 56.4275 41.0361C56.4705 41.1687 56.3907 41.3086 56.2494 41.349L54.8263 41.7545C54.6847 41.7947 54.5353 41.72 54.4921 41.5877C54.4491 41.4553 54.5289 41.3152 54.6703 41.2747L56.0933 40.8693Z" fill="#FCDFD9"/>
<path d="M71.3201 36.5314C71.4614 36.4912 71.6111 36.5659 71.6543 36.6982C71.6973 36.8308 71.6175 36.9709 71.4761 37.0112L70.0528 37.4166C69.9115 37.4568 69.7618 37.3821 69.7187 37.2496C69.6757 37.1172 69.7555 36.9771 69.8968 36.9366L71.3201 36.5314Z" fill="#FCDFD9"/>
<path d="M61.2675 32.7022C61.3105 32.8347 61.2306 32.9747 61.0891 33.0151C60.9478 33.0554 60.7981 32.9806 60.7552 32.8483L60.3222 31.5157C60.2792 31.3832 60.359 31.243 60.5003 31.2028C60.6419 31.1626 60.7916 31.2373 60.8345 31.3698L61.2675 32.7022Z" fill="#FCDFD9"/>
<path d="M68.2487 42.2836L63.1904 39.2969L63 39.5797L68.0583 42.5665C68.1418 42.6156 68.2523 42.5923 68.3046 42.5142C68.357 42.4361 68.3322 42.3328 68.2487 42.2836Z" fill="#FCDFD9"/>
<path d="M63.975 38.9197C64.1234 39.3762 63.8486 39.8585 63.3612 39.9974C62.8737 40.1363 62.3586 39.8788 62.2103 39.4225C62.062 38.9663 62.3369 38.4838 62.8242 38.3449C63.3117 38.2058 63.8267 38.4632 63.975 38.9197Z" fill="#FCDFD9"/>
<path d="M69.0979 37.2519L63.3769 38.8816L63.4809 39.2015L69.2022 37.5718C69.2965 37.5449 69.3496 37.4516 69.3211 37.3633C69.2919 37.2748 69.1922 37.225 69.0979 37.2519Z" fill="#FCDFD9"/>
<path d="M63.3921 38.8627C63.4542 39.0541 63.3392 39.2563 63.1345 39.3148C62.9304 39.373 62.7142 39.265 62.652 39.0736L60.9836 33.9383C60.9214 33.7469 61.037 33.5445 61.2409 33.4865C61.4456 33.4283 61.6615 33.5362 61.7237 33.7276L63.3921 38.8627Z" fill="#FCDFD9"/>
<path d="M63.6894 39.001C63.7898 39.3101 63.6035 39.637 63.2736 39.731C62.9433 39.8252 62.5944 39.6505 62.494 39.3414C62.3936 39.0323 62.5795 38.7056 62.91 38.6114C63.2399 38.5174 63.589 38.6918 63.6894 39.001Z" fill="#FCDFD9"/>
<path d="M92.942 21.0572C85.8826 20.4152 79.604 25.2535 78.9185 31.8639C78.2329 38.4743 83.4 44.3536 90.4594 44.9956C97.5187 45.6375 103.797 40.7992 104.483 34.1886C105.168 27.5782 100.001 21.6991 92.942 21.0572ZM90.7 42.676C85.009 42.1585 80.8433 37.4185 81.3959 32.0892C81.9487 26.7599 87.0104 22.8591 92.7014 23.3768C98.3929 23.8945 102.558 28.6341 102.006 33.9634C101.453 39.2926 96.3914 43.1934 90.7 42.676Z" fill="#FBFBFB"/>
<path d="M101.955 34.3606C102.74 29.057 98.7849 24.1617 93.1213 23.4266C87.4577 22.6914 82.2301 26.3949 81.445 31.6984C80.6599 37.0019 84.6147 41.8972 90.2783 42.6324C95.9419 43.3675 101.17 39.6641 101.955 34.3606Z" fill="#FBFBFB"/>
<path d="M101.035 33.6944C101.429 28.8689 97.57 24.6585 92.4169 24.2902C87.2638 23.922 82.7675 27.5353 82.3742 32.3608C81.9809 37.1863 85.8395 41.3967 90.9927 41.765C96.1458 42.1333 100.642 38.52 101.035 33.6944Z" fill="#FC795B"/>
<path d="M91.0165 42.6558C90.9996 42.8192 90.8442 42.9388 90.6697 42.923C90.4951 42.9071 90.3674 42.7616 90.3843 42.5982L90.5548 40.9542C90.5718 40.7907 90.7271 40.6711 90.9014 40.687C91.076 40.7028 91.2037 40.8483 91.1868 41.0117L91.0165 42.6558Z" fill="#FCDFD9"/>
<path d="M83.2154 31.8505C83.3899 31.8664 83.5177 32.0118 83.5007 32.1753C83.4837 32.3387 83.3284 32.4584 83.1539 32.4425L81.3982 32.2828C81.2236 32.267 81.0959 32.1215 81.1128 31.9581C81.1298 31.7948 81.2851 31.675 81.4597 31.6909L83.2154 31.8505Z" fill="#FCDFD9"/>
<path d="M102.003 33.559C102.177 33.5749 102.305 33.7203 102.288 33.8838C102.271 34.0472 102.116 34.1669 101.941 34.151L100.185 33.9913C100.011 33.9755 99.883 33.83 99.8999 33.6666C99.9169 33.5033 100.072 33.3835 100.247 33.3994L102.003 33.559Z" fill="#FCDFD9"/>
<path d="M92.8388 25.0969C92.8218 25.2603 92.6665 25.3799 92.4919 25.3641C92.3176 25.3482 92.1896 25.2027 92.2066 25.0393L92.3771 23.3952C92.394 23.2318 92.5494 23.1122 92.7237 23.1278C92.8982 23.1437 93.026 23.2892 93.009 23.4526L92.8388 25.0969Z" fill="#FCDFD9"/>
<path d="M95.8533 38.5596L91.7556 33.1401L91.4102 33.3692L95.5078 38.7889C95.5754 38.8782 95.7079 38.8994 95.8031 38.8361C95.8983 38.7726 95.9211 38.6487 95.8533 38.5596Z" fill="#FCDFD9"/>
<path d="M92.7956 33.0592C92.7373 33.6222 92.2028 34.0344 91.6013 33.9796C90.9999 33.9249 90.5601 33.4242 90.6185 32.8613C90.6768 32.2983 91.2115 31.8863 91.8127 31.9409C92.4142 31.9955 92.8542 32.4962 92.7956 33.0592Z" fill="#FCDFD9"/>
<path d="M99.2183 33.4056L92.1601 32.7637L92.1191 33.1583L99.1774 33.8003C99.2936 33.8109 99.3974 33.731 99.4087 33.622C99.42 33.5132 99.3345 33.4162 99.2183 33.4056Z" fill="#FCDFD9"/>
<path d="M92.1867 32.7497C92.1622 32.9858 91.9382 33.1588 91.6858 33.1357C91.434 33.1128 91.2492 32.9028 91.2737 32.6667L91.9307 26.3314C91.9551 26.0953 92.1796 25.9225 92.4315 25.9454C92.6839 25.9683 92.8681 26.1783 92.8437 26.4144L92.1867 32.7497Z" fill="#FCDFD9"/>
<path d="M92.4451 33.0272C92.4055 33.4085 92.0431 33.6877 91.6361 33.6507C91.2284 33.6136 90.9306 33.2745 90.9702 32.8929C91.0098 32.5116 91.3715 32.2324 91.7792 32.2694C92.1864 32.3067 92.4846 32.6459 92.4451 33.0272Z" fill="#FCDFD9"/>
</svg>
