<svg width="61" height="60" viewBox="0 0 61 60" fill="none" xmlns="http://www.w3.org/2000/svg">
<path fill-rule="evenodd" clip-rule="evenodd" d="M7.366 0.174097C6.08553 0.574044 4.8723 1.71358 4.63542 2.84994C4.16485 4.9576 5.3429 7.63028 11.3451 17.8607C12.7952 20.3016 13.8388 22.441 13.6723 22.5743C12.6607 23.4441 5.10922 28.9259 4.2321 29.4274C2.91642 30.1955 0.89325 32.5698 0.288229 34.0395C-0.387216 35.6774 0.153815 37.2169 1.60394 37.8168C3.08608 38.4167 6.35764 38.4167 11.0441 37.7819C13.1025 37.5152 16.3389 37.1788 18.2948 37.0804L21.8353 36.8455L24.6011 42.4955C26.1185 45.6062 28.0392 49.6501 28.9163 51.488C30.7697 55.4652 32.8601 58.7759 33.9741 59.4774C35.6259 60.5471 37.8859 59.9123 38.7951 58.1411C39.1312 57.538 41.1223 47.6091 42.438 40.1212C42.7069 38.4484 43.011 36.7788 43.1134 36.4106C43.2159 35.7758 43.552 35.6742 46.0137 35.4742C51.0715 35.0743 56.6672 34.2712 57.8132 33.8014C59.1961 33.2015 60.3069 32.062 60.8126 30.659C61.1168 29.7575 61.0816 29.3544 60.4766 28.1165C59.6347 26.4119 57.1057 24.5074 50.4953 20.6285L46.113 18.0543L46.1481 16.0482C46.1481 14.9436 46.2506 12.3027 46.3178 10.1982C46.4523 5.91939 46.1161 4.81477 44.2595 3.71333C41.9994 2.40874 39.1696 3.61175 31.9189 8.83011C30.6033 9.79824 30.504 9.79825 29.5597 9.33165C13.1313 0.774048 9.86291 -0.562314 7.366 0.174097ZM13.5699 6.02413C15.7275 6.89385 19.5049 8.83327 24.1561 11.3726L26.5154 12.6772L25.3341 13.5787C21.323 16.7561 17.5457 19.597 17.4785 19.4954C17.4113 19.4287 16.7358 18.1908 15.9291 16.7212C14.3766 13.8803 13.4675 12.7757 13.0289 13.1439C12.8592 13.2772 12.9265 13.1439 13.1313 12.8772C13.4354 12.4773 13.333 11.9757 12.4911 10.5378C11.2426 8.26509 9.52362 4.95444 9.52362 4.71955C9.52362 4.48466 11.1082 4.98934 13.5699 6.02413ZM42.1979 10.6045C42.1627 12.309 42.0635 14.1152 41.929 14.6484L41.7273 15.5499L38.2893 13.8104C36.3686 12.8423 34.8512 11.9059 34.9185 11.7377C35.0529 11.3377 41.2247 7.52554 41.7977 7.52554C42.1306 7.52871 42.2299 8.23021 42.1979 10.6045ZM39.128 19.1303C40.274 19.7652 41.2183 20.5016 41.2183 20.7682C41.2183 21.8728 39.7682 30.7987 39.5665 30.9986C39.3649 31.2335 29.7901 31.735 25.7087 31.7668H24.1913L21.9313 27.5864C20.6829 25.2787 19.6713 23.2409 19.6393 23.0378C19.6393 22.8029 22.101 20.8317 25.0685 18.5907L30.5297 14.5468L33.766 16.2513C35.5554 17.1909 37.95 18.4955 39.128 19.1303ZM48.2641 24.4122C49.7143 25.247 51.1291 25.9167 51.4333 25.9167C51.7694 25.9167 52.0062 26.0501 52.0062 26.2501C52.0062 26.4183 52.8834 27.1198 53.9269 27.8213C54.9737 28.5228 55.8829 29.2591 55.9501 29.494C56.1518 30.0622 53.1171 30.5987 48.3986 30.8304L44.2499 31.0304V30.2273C44.2499 29.3258 44.9253 23.9742 45.127 23.3076C45.2998 22.7394 45.3671 22.7394 48.2641 24.4122ZM18.1219 29.9289C18.7621 31.1986 19.3032 32.3032 19.3032 32.4016C19.3032 32.4683 18.0547 32.6365 16.5374 32.7698C14.9848 32.8714 11.9533 33.2047 9.72526 33.4713C7.53246 33.7729 5.67902 33.9379 5.6118 33.8713C5.3429 33.5697 8.61125 30.7606 12.0845 28.2879L15.7595 25.6787L16.3325 26.6151C16.6718 27.1547 17.4817 28.6593 18.1219 29.9289ZM38.3853 37.5184C37.9468 40.7275 35.3506 53.3322 35.1137 53.3322C35.0113 53.3322 33.8653 51.1261 32.5848 48.3836C31.3043 45.676 29.4477 41.8988 28.5033 39.9911C27.527 38.0866 26.717 36.4804 26.717 36.4138C26.717 36.3122 28.9418 36.2138 36.1252 36.0138L38.619 35.9472L38.3853 37.5184Z" fill="#BEE288"/>
</svg>
