<svg width="68" height="67" viewBox="0 0 68 67" fill="none" xmlns="http://www.w3.org/2000/svg">
<path fill-rule="evenodd" clip-rule="evenodd" d="M31.2307 0.957427C30.1947 2.02726 29.9633 3.06535 28.3949 12.3256C27.8278 15.5351 27.2607 18.243 27.1276 18.3763C26.9597 18.5097 25.4927 19.1128 23.823 19.7128C17.1471 22.1858 8.17106 26.2651 4.73334 28.4397C-1.0078 32.0841 -1.57496 35.8301 3.29805 38.3031C4.9678 39.1381 16.3456 42.5507 22.6539 44.0872L23.823 44.3539V46.6935C23.823 47.9634 23.7216 51.4078 23.5885 54.3506C23.354 59.4998 23.7565 65.0489 24.4567 66.1886C25.0904 67.1918 26.3577 67.2585 28.1954 66.4235C29.2314 65.9537 29.9982 65.3855 29.9982 65.0871C29.9982 64.7855 30.1978 64.6521 30.464 64.7537C31.2307 65.0553 37.2728 58.3665 40.8753 53.1506C43.3118 49.6078 42.8112 49.8078 47.117 50.9094C49.1511 51.4459 52.2245 52.3125 53.8911 52.8491C58.0956 54.2522 60.5004 54.6205 61.8343 54.0522C64.6384 52.849 64.9711 50.3062 62.9021 45.9602C61.6664 43.319 57.7946 36.2968 55.9601 33.4206L54.9938 31.8492L57.5316 27.4683C58.9321 25.0271 61.0359 21.516 62.2019 19.643C67.7751 10.7827 68.9094 7.83991 67.3759 6.20183C65.7726 4.49708 62.6708 5.132 51.2899 9.41133C47.4181 10.8494 44.0818 12.0526 43.8473 12.0526C43.6128 12.0526 42.412 10.4462 41.1447 8.43991C38.5402 4.32883 35.8724 0.817742 35.0042 0.347904C33.8002 -0.280662 32.1654 -0.0457391 31.2307 0.957427ZM35.0677 6.64309C35.4003 7.14468 36.468 8.81768 37.5041 10.3891C38.5053 11.9605 39.3386 13.3986 39.3386 13.5986C39.3386 13.9002 35.5017 15.5033 33.0969 16.2398C32.1305 16.5065 32.0956 16.0716 32.9955 10.824C33.965 5.13835 34.0316 5.00184 35.0677 6.64309ZM61.6981 11.224C61.6981 11.624 53.0896 26.4366 52.5224 27.0398C52.3893 27.208 51.087 25.1667 48.9199 21.4239C48.02 19.8525 47.0188 18.1128 46.6513 17.5129L46.0176 16.4779L48.9199 15.4748C50.5548 14.9065 52.9913 14.0367 54.36 13.57C61.9642 10.8208 61.6981 10.8875 61.6981 11.224ZM44.9784 22.8588C46.5119 25.4683 48.1816 28.3413 48.7171 29.2112C49.2526 30.1127 49.6834 31.0492 49.6834 31.2842C49.6834 31.6524 41.8068 43.7888 41.1415 44.4587C41.0749 44.5253 38.3058 43.7888 35.0011 42.8206C29.26 41.1158 28.9938 41.0142 28.9938 40.1793C28.9938 39.0746 30.2611 28.3413 30.7966 24.9668L31.1958 22.2906L36.335 20.2176C39.1707 19.0462 41.6738 18.1097 41.8417 18.0779C42.0413 18.0779 43.4449 20.2176 44.9784 22.8588ZM25.4895 32.354C24.9889 36.3666 24.5548 39.6777 24.4883 39.7444C24.3552 39.8777 20.6514 38.8079 10.6392 35.7984C8.7033 35.1952 6.76748 34.5286 6.3334 34.2937L5.53173 33.8937L6.99874 33.0238C9.53347 31.5191 19.346 26.8715 22.8154 25.5001C25.3502 24.4652 26.1866 24.262 26.2531 24.6302C26.3228 24.8652 25.9553 28.3762 25.4895 32.354ZM53.2891 37.2047C54.4899 39.1444 58.8623 47.3031 59.3281 48.4396C59.5942 49.0427 59.6957 49.611 59.5943 49.7094C59.4929 49.8427 57.0912 49.2396 54.2871 48.4046C51.4831 47.5697 48.4795 46.6999 47.6113 46.465C46.7115 46.265 46.0082 45.9983 46.0082 45.8618C46.0082 45.7602 47.3769 43.6206 49.0118 41.1476C50.6816 38.6746 52.0155 36.5349 52.0155 36.3984C52.0218 35.7984 52.6871 36.2016 53.2891 37.2047ZM32.6976 46.865C34.5987 47.4681 36.4364 47.9697 36.7691 48.0015C38.3026 48.1348 38.1378 48.7697 35.5682 52.249C32.6977 56.195 27.8595 61.5125 27.4603 61.1093C27.2259 60.8744 28.2619 46.5983 28.5629 46.0618C28.7593 45.6967 28.9589 45.7285 32.6976 46.865Z" fill="#EDA4BF"/>
</svg>
