<svg width="45" height="40" viewBox="0 0 45 40" fill="none" xmlns="http://www.w3.org/2000/svg">
<path fill-rule="evenodd" clip-rule="evenodd" d="M19.0356 0.79151C18.0321 1.90279 17.6637 3.11303 17.1302 6.87796C16.8635 8.72689 16.6285 10.2405 16.5618 10.2756C16.4952 10.3427 14.4214 11.0836 11.9444 11.9905C5.95836 14.1076 4.11652 14.9507 2.17621 16.4292C-0.3643 18.3803 -0.701003 20.7018 1.27424 22.3815C2.44605 23.3906 4.04981 23.9623 8.93394 25.1406C11.0394 25.6452 13.2814 26.1816 13.8847 26.3509L14.9549 26.6542V30.7225C14.9549 33.7817 14.8215 34.9281 14.4881 35.3305C13.4497 36.4737 13.5164 37.5499 14.6564 38.8623C15.8949 40.3089 16.8985 40.376 17.5336 39.0635C17.7686 38.5941 19.0388 37.1124 20.3757 35.7999C21.7127 34.4875 23.653 32.5363 24.6565 31.4283C25.6949 30.3521 26.6635 29.343 26.8636 29.2089C27.0636 29.1067 28.8039 29.4452 30.7093 29.9817C35.225 31.2941 38.0354 31.3612 39.204 30.1509C40.6077 28.7714 40.3409 27.5931 37.6988 23.1895C36.4285 21.0372 35.3584 19.0861 35.3584 18.8849C35.3584 18.6486 36.2285 17.17 37.2638 15.5893C38.3022 13.9735 39.6709 11.8563 40.2743 10.8472C40.8776 9.83816 42.1479 7.98926 43.0847 6.74386C45.1267 3.9529 45.4919 2.40412 44.3899 1.22897C43.053 -0.182475 41.916 0.0506493 35.1932 3.24717C30.7441 5.36434 28.3021 6.44366 28.0005 6.44366C27.8988 6.44366 27.197 5.60383 26.5301 4.59474C25.8283 3.58565 24.5898 2.17418 23.7864 1.3982C22.0144 -0.217622 20.2424 -0.450693 19.0356 0.79151ZM22.6495 5.93915C23.2846 6.77899 23.8531 7.58691 23.9197 7.75615C24.0214 8.09145 20.7092 9.30489 20.4075 9.03346C20.1725 8.79716 21.0109 4.42552 21.2776 4.42552C21.3792 4.45745 22.0144 5.13124 22.6495 5.93915ZM37.1653 7.51983C36.2634 9.03347 32.983 13.8426 32.7162 14.0119C32.3828 14.2131 30.3409 10.9846 30.3409 10.2789C30.3409 10.0426 30.6077 9.80943 30.9443 9.70725C31.246 9.60506 32.7163 9.00155 34.1898 8.32776C37.0987 7.0153 37.5337 6.9131 37.1653 7.51983ZM28.2704 14.8868L30.0773 17.9141L28.7054 19.664C26.4634 22.5572 24.6915 24.3742 24.2246 24.1698C23.9896 24.1028 22.6177 23.7674 21.1824 23.429L18.572 22.8573L18.772 21.612C18.8737 20.9382 19.1055 18.9551 19.3055 17.2403C19.5056 15.4904 19.7057 14.0118 19.7724 13.9448C19.9724 13.7085 25.4917 11.8595 25.9935 11.8595C26.2952 11.8595 27.2637 13.1369 28.2704 14.8868ZM15.825 17.2722C15.4249 20.9733 15.2217 21.9122 14.8216 21.9122C14.6215 21.9122 13.0147 21.5417 11.2776 21.0723C9.53733 20.6029 7.53029 20.0632 6.79672 19.862C5.59315 19.5267 5.55818 19.4916 6.16155 19.0541C6.76492 18.6166 11.4458 16.5665 13.9546 15.6564C15.9934 14.8868 16.06 14.9539 15.825 17.2722ZM35.3584 26.9927C35.3584 27.2961 32.5829 26.7245 31.1793 26.1529C29.8423 25.5812 29.8423 25.6483 31.681 23.3619L32.5162 22.3528L33.9198 24.5722C34.7232 25.7824 35.3584 26.8937 35.3584 26.9927ZM20.9093 27.8325C21.2109 27.8996 20.8743 28.5383 19.9057 29.6495C19.1023 30.5565 18.4005 31.3325 18.2989 31.3325C18.1973 31.3325 18.1973 30.4255 18.2322 29.3143L18.3656 27.328L19.404 27.4973C20.0074 27.5994 20.6774 27.7687 20.9093 27.8325Z" fill="#FFA38E"/>
</svg>
