<svg width="142" height="142" viewBox="0 0 142 142" fill="none" xmlns="http://www.w3.org/2000/svg">
<path d="M71 141.998C110.212 141.998 142 110.211 142 70.9991C142 31.7874 110.212 0 71 0C31.7878 0 0 31.7874 0 70.9991C0 110.211 31.7878 141.998 71 141.998Z" fill="#E8FFC3"/>
<path d="M106.986 19.0018C106.538 19.0208 106.108 19.188 105.761 19.4785C105.413 19.769 105.166 20.1672 105.058 20.6134C104.949 21.0597 104.984 21.53 105.157 21.9542C105.331 22.3783 105.633 22.7335 106.02 22.9665C114.548 28.2703 119.436 37.7979 118.792 47.7814C118.148 57.7641 112.071 66.5938 102.925 70.7573C93.7803 74.9208 83.0772 73.7095 75.0996 67.6169C74.8809 67.4498 74.6323 67.3286 74.3679 67.2601C74.1036 67.1915 73.8286 67.1771 73.5588 67.2176C73.289 67.2581 73.0296 67.3527 72.7955 67.496C72.5613 67.6393 72.3569 67.8285 72.1941 68.0529C72.0312 68.2772 71.913 68.5323 71.8462 68.8035C71.7794 69.0747 71.7653 69.3567 71.8048 69.6335C71.8442 69.9102 71.9365 70.1763 72.0762 70.4166C72.2159 70.6568 72.4003 70.8664 72.619 71.0335C74.4152 72.405 76.3495 73.5751 78.3887 74.5239C73.7098 75.8587 70.7129 78.0129 70.7129 80.8714C70.7129 85.9125 79.2822 90 91.4769 90C103.672 90 112.241 85.9125 112.241 80.8714C112.241 78.0527 109.33 75.9155 104.762 74.5779C115.192 69.7612 122.191 59.5874 122.935 48.0625C123.683 36.4808 117.988 25.4274 108.172 19.3234C107.817 19.0962 107.404 18.9841 106.986 19.0018ZM81.5386 75.7856C83.9743 76.6107 86.4975 77.1342 89.0544 77.3448V78.8145C89.0544 79.3276 89.3097 79.8198 89.764 80.1826C90.2183 80.5454 90.8344 80.7493 91.4769 80.7493C92.1194 80.7493 92.7355 80.5454 93.1898 80.1826C93.6441 79.8198 93.8994 79.3276 93.8994 78.8145V77.3725C96.5212 77.1814 99.1104 76.6616 101.609 75.8246C105.538 76.71 108.088 78.0903 108.088 79.6552C108.088 82.344 100.651 84.5237 91.4769 84.5237C82.3027 84.5237 74.8657 82.344 74.8657 79.6552C74.8657 78.069 77.4868 76.6703 81.5386 75.7856Z" fill="#80C11E"/>
<path d="M101.022 22.824C88.6324 17.6694 74.4963 23.8024 69.4714 36.5109C64.4465 49.2187 70.4252 63.7199 82.8144 68.8732C95.18 74.0186 109.285 67.9147 114.333 55.2538C114.345 55.2321 114.355 55.2098 114.364 55.187C114.372 55.1665 114.379 55.1457 114.385 55.1245C119.366 42.4317 113.39 27.9695 101.022 22.824ZM100.329 24.1489C100.733 24.3626 101.13 24.5891 101.51 24.8433C101.139 25.8714 100.611 27.8594 98.703 26.9875C97.0765 26.4174 94.1003 29.4967 94.2636 26.4479C94.9108 25.1195 98.3064 23.3118 95.1274 23.1606C94.1889 23.7904 93.6989 25.4844 92.6773 24.8362C91.7166 26.1178 90.9594 24.8007 90.9885 24.0836C90.3365 24.1816 90.9331 25.3758 90.1717 25.5633C92.3444 25.0961 89.7302 27.094 90.4368 28.1818C89.1418 28.7122 89.8804 31.7531 88.1493 30.3416C86.455 29.2922 90.4853 28.5815 87.8794 28.6369C86.3581 28.3777 86.1103 29.2255 87.0689 29.8744C85.776 30.3864 84.5627 29.9391 84.1675 29.3022C82.3769 29.6408 80.5649 30.2273 78.8602 31.0914C77.1077 30.4595 76.0813 34.1963 75.3982 33.4884C75.7408 32.3545 76.8046 30.7378 75.6058 30.5376C75.3663 30.3288 75.0659 30.3487 74.7482 30.5064C80.9228 23.2295 91.111 20.388 100.329 24.1489ZM103.291 25.6186C103.565 25.78 103.834 25.9469 104.098 26.1192C104.42 26.4273 104.588 26.7326 103.983 26.5665L103.587 26.215C103.289 25.826 103.229 25.6563 103.291 25.6186ZM107.685 28.9969C114.21 35.4196 116.626 45.5003 113.018 54.6268C110.635 60.6527 106.085 65.1002 100.666 67.4141C101.596 66.3619 102.372 65.0824 103.606 64.3909C104.869 62.7472 103.535 60.642 105.283 59.364C104.313 59.0928 103.122 57.2787 101.487 58.397C100.311 57.9262 98.6338 58.8308 97.8302 57.66C96.7332 56.1796 95.4825 54.4614 95.7836 52.4939C96.5138 51.1662 96.8045 49.1952 97.4475 47.9499C98.9826 45.9711 101.257 45.3441 102.496 43.273C102.697 43.2006 104.359 42.7157 104.428 42.6951C106.125 42.9266 109.214 41.2666 109.129 44.184C109.351 44.5468 111.015 46.4986 111.164 45.5671C111.742 44.255 114.922 46.4198 113.832 43.9355C113.691 43.7473 113.072 43.2461 112.555 43.1857C112.345 43.1523 111.152 43.7445 110.946 42.1974C110.273 40.7142 109.794 44.9409 109.12 42.3728C110.813 42.4842 108.129 39.297 108.518 40.663C108.882 43.1907 107.229 40.9428 108.181 39.701C106.386 38.6771 105.864 42.6965 103.871 42.5183C103.882 42.5254 103.896 42.5282 103.908 42.5346L103.583 42.4473L103.088 42.2939C102.832 41.6549 101.58 41.0678 102.481 39.9026C102.241 38.1404 103.254 37.9281 104.622 38.6537C106.429 38.3087 102.457 35.3429 105.489 36.0317C104.215 35.5964 103.676 35.4289 104.137 33.7901C103.564 35.8222 101.59 33.5842 103.365 32.9715C104.003 32.8345 102.627 31.44 104.113 31.778C105.064 32.1145 105.369 36.7459 106.622 34.5655C107.337 34.6201 106.605 32.8707 106.923 32.9254C105.064 32.7791 105.755 29.6124 106.181 28.497C106.719 28.7455 107.289 28.9301 107.685 28.9969ZM92.1097 23.3878C91.9851 23.3537 91.7221 23.3693 91.2722 23.4801C90.7601 23.4914 89.4194 24.3122 90.7891 23.8621C91.6086 24.0509 92.4835 23.4914 92.1097 23.3878ZM107.58 30.5C107.359 30.4282 107.828 31.2916 107.72 30.5944C107.679 30.5548 107.632 30.5229 107.58 30.5ZM89.4042 23.2444C89.2277 23.1556 88.9266 23.1272 88.4629 23.1968C87.197 22.7942 86.0411 25.5285 86.1421 25.3765C86.6024 25.28 87.2219 24.6552 87.6738 24.8944C88.5847 25.1657 90.1683 23.6306 89.4042 23.2444ZM100.714 28.0085C101.612 28.338 102.713 29.6359 100.699 29.0828C100.388 28.9521 100.069 28.7533 99.926 28.4239C99.9398 27.9084 100.307 27.8587 100.714 28.0085ZM107.362 31.1929C107.007 31.0055 108.272 33.0198 107.906 31.7425C107.613 31.3967 107.444 31.2362 107.362 31.1929ZM103.39 30.3672C103.515 30.3636 103.467 31.0559 103.275 30.5049C103.323 30.4055 103.362 30.3679 103.39 30.3672ZM104.615 31.2661C104.691 31.3257 104.743 32.133 104.539 31.5359C104.562 31.3087 104.59 31.2462 104.615 31.2661ZM108.457 32.8693C108.271 32.7933 108.206 32.9985 108.565 33.7376C108.425 34.5719 107.892 34.7813 109 34.4363C109.412 33.9073 108.766 32.9971 108.457 32.8693ZM83.0192 25.5441C82.768 25.4021 82.5119 26.7369 83.1812 25.9225C83.1348 25.6882 83.0774 25.5767 83.0192 25.5441ZM86.9727 27.8225C86.8066 27.7515 86.8024 28.218 87.1824 28.1136C87.1001 27.9297 87.0274 27.8459 86.9727 27.8225ZM112.447 38.6132C112.087 38.5117 112.253 41.3326 112.942 40.3656C114.423 40.7255 113.298 38.8376 112.779 39.2331C112.64 38.8163 112.53 38.6367 112.447 38.6132ZM82.5998 26.7C82.3769 26.6616 81.7464 27.8949 82.6649 26.8044C82.6552 26.7369 82.6316 26.705 82.5998 26.7ZM109.239 39.2956C109.16 39.2885 109.249 39.5405 109.658 40.2328C109.893 40.2555 110.537 41.6755 110.515 41.0195C110.28 40.4529 109.517 39.4624 109.283 39.3154C109.269 39.3065 109.254 39.2993 109.239 39.2956ZM81.5664 27.7962C81.3623 27.6585 80.6231 28.2528 81.5941 28.0277C81.6315 27.8992 81.6128 27.8282 81.5664 27.7962ZM111.854 41.5946C111.718 41.5974 111.946 42.6014 112.128 42.022C111.986 41.7046 111.9 41.5939 111.854 41.5946ZM106.821 40.7426C107.119 40.8136 106.431 42.0618 106.145 41.1856C106.514 40.8249 106.722 40.7184 106.821 40.7419M112.355 43.584C112.675 43.6699 112.587 44.664 111.905 43.9C112.096 43.6281 112.249 43.5556 112.355 43.584ZM95.4465 38.0396C95.7628 38.2064 95.4866 38.7254 94.9205 38.0488C95.1696 37.9678 95.3406 37.9842 95.4465 38.0396ZM96.2992 38.7978C96.412 38.9051 95.9545 39.2892 95.9566 38.8241C96.1594 38.7567 96.2611 38.7624 96.2992 38.7978ZM98.939 42.6191C99.1432 42.6504 98.7888 43.3014 98.6981 42.7185C98.8151 42.6376 98.8919 42.612 98.939 42.6191ZM76.3408 33.4472C76.464 33.4969 76.3651 34.552 76.1387 33.8349C76.2329 33.5253 76.3 33.4302 76.3408 33.4472ZM75.7954 34.1061C75.9103 34.1785 75.3732 35.3593 75.4175 34.5186C75.6459 34.1807 75.7567 34.082 75.7954 34.1061ZM73.4823 33.575C73.6789 33.8249 72.2136 35.4345 72.2988 36.0118C72.631 37.7272 70.2383 39.5476 72.1077 40.8689C73.4062 39.7258 73.564 41.3191 73.7945 41.2119C74.5115 41.3688 74.3177 43.2617 75.6079 43.5322C77.0586 43.9603 75.2618 46.4787 77.0357 47.5778C79.0803 49.23 77.5811 52.315 79.9759 53.772C81.1263 55.3056 85.1946 57.4598 82.887 59.3974C80.5815 59.4116 80.3884 63.6305 77.7639 61.6985C77.0482 61.6218 76.5083 62.1685 75.8563 62.4142C73.6732 60.1828 71.9543 57.52 70.8038 54.5871C70.374 52.32 69.3178 50.1999 69.3918 47.832C68.6409 45.1411 70.7747 43.4726 71.3056 41.2133C71.6599 40.0468 70.6771 41.7359 70.8758 40.1525C70.7823 38.7538 71.1997 37.1307 71.4253 35.6781C71.7944 34.8955 72.2057 34.1346 72.6573 33.3989C72.6159 33.5513 72.6009 33.7099 72.613 33.8675C73.1667 33.5608 73.4166 33.4919 73.4823 33.575ZM74.3876 33.9726C74.5074 34.0379 74.6631 34.1579 74.8652 34.3454C74.8043 35.808 75.8487 36.726 75.2846 37.1464C76.0148 37.8663 76.6149 40.0901 74.8597 38.4762C73.7177 37.3437 75.7574 37.6029 74.3198 36.4861C74.5323 35.7633 73.5529 33.5182 74.3876 33.9726ZM99.7038 44.916C99.908 45.0005 99.7343 45.9129 99.1902 45.5138C99.4394 45.0097 99.6111 44.877 99.7038 44.916ZM75.7961 35.4068C75.8764 35.4679 75.9193 35.7796 75.7145 36.0508L75.6397 35.9386C75.639 35.5574 75.7006 35.409 75.7601 35.3969C75.7665 35.396 75.7729 35.3965 75.7791 35.3982C75.7853 35.3999 75.7911 35.4028 75.7961 35.4068ZM98.0053 44.6916C98.5992 44.899 99.4394 45.8135 98.0898 45.3051L97.6413 45.1184L97.5776 45.0474C97.5167 44.6498 97.7354 44.5972 98.0053 44.6916ZM73.8678 36.6046C74.1059 36.7679 74.5185 37.9373 73.7772 37.2699C73.6879 36.6628 73.7599 36.5301 73.8678 36.6046ZM76.3159 39.133C76.6558 39.226 76.7381 40.3002 75.9138 39.4738C76.0598 39.1798 76.2031 39.1024 76.3159 39.133ZM77.2268 41.4668C77.3375 41.574 76.653 43.6536 76.6821 42.5481L76.7963 42.2073C77.0655 41.6138 77.1908 41.4313 77.2268 41.4668ZM92.4392 49.3692C92.6745 49.4991 93.249 50.3447 92.4862 49.8307C92.2959 49.3997 92.3319 49.311 92.4392 49.3692ZM93.5327 50.1545C93.757 50.2439 93.3992 50.9064 93.2746 50.2084C93.3985 50.1445 93.4808 50.1339 93.5327 50.1545ZM93.0932 50.6777C93.458 50.7629 92.9126 51.348 92.68 50.7196C92.8766 50.665 93.0088 50.6586 93.0932 50.6777ZM92.4779 50.5251C92.5991 50.5911 92.2793 51.1882 92.1859 50.6955C92.3492 50.5393 92.4378 50.5031 92.4779 50.5251ZM103.902 60.2721C104.023 60.3381 103.703 60.9353 103.61 60.4425C103.773 60.2863 103.861 60.2501 103.902 60.2721Z" fill="#80C11E"/>
<path d="M56.4217 73L24.8066 80.0875H24.764C24.2386 80.0875 19 80.2067 19 84.9663C19 87.0346 20.1289 88.5759 20.1289 88.5759L44.2145 121.309C46.5172 124.289 51.4079 122.423 51.4079 122.423L88.341 107.803L86.9588 106.663C86.6334 105.295 86.4441 102.762 88.7303 100.875C88.7812 100.833 88.7906 100.775 88.8178 100.722L90 100.337L56.4217 73ZM57.4027 79.2423L63.8673 84.9606L39.7379 92.1404L34.039 84.8558L57.4027 79.2423ZM43.3601 116.402L22.1737 87.6058C22.1642 87.5952 21.3667 86.4433 21.3667 84.9663C21.3667 83.0933 22.4956 82.3808 23.5996 82.1317L47.826 112.839C46.0025 113.481 43.9648 114.946 43.3601 116.402ZM85.7542 103.905C85.6773 104.347 85.6382 104.778 85.6465 105.182L61.4012 114.533L85.7329 106.142C85.7566 106.296 85.7779 106.449 85.8075 106.587L54.7272 118.786L86.0524 107.496L86.0713 107.557L51.4079 121.031C51.3914 121.039 49.8093 121.723 48.2236 121.723C46.6569 121.723 45.6806 121.069 45.2357 119.725C44.0914 116.271 50.5926 114.313 50.6909 114.285L86.6441 101.645C86.3861 102.03 86.2074 102.422 86.0583 102.812L63.2354 111.541L85.7542 103.905Z" fill="#80C11E"/>
<path d="M24.0354 65.5958C24.6607 65.5698 25.1909 65.3299 25.626 64.876C26.0611 64.4221 26.2851 63.8798 26.2882 63.2491C26.2851 63.8798 26.4939 64.4243 26.9244 64.8825C27.3549 65.3408 27.8827 65.586 28.5077 65.6183C27.8824 65.6443 27.3522 65.8842 26.9171 66.3381C26.7068 66.552 26.5407 66.8061 26.4287 67.0854C26.3167 67.3647 26.2608 67.6637 26.2645 67.965C26.2677 67.3343 26.0588 66.7898 25.6187 66.3315C25.1882 65.8733 24.6604 65.628 24.0354 65.5958ZM26.3115 58.6205C27.5237 58.5684 28.5552 58.0981 29.4061 57.2096C30.2569 56.3211 30.6855 55.2656 30.6917 54.0332C30.6855 55.2656 31.1033 56.3254 31.9452 57.2224C32.7871 58.1194 33.8139 58.5903 35.035 58.6644C34.2365 58.6992 33.5044 58.9187 32.829 59.3423C32.1633 59.7562 31.6315 60.3163 31.2336 61.013C30.8454 61.7097 30.6493 62.4559 30.6452 63.271C30.6514 62.0387 30.2335 60.9691 29.3917 60.0722C28.5498 59.1655 27.5231 58.6848 26.3115 58.6205ZM29.4521 69.0873C30.366 69.0531 31.1468 68.698 31.785 68.0316C32.4232 67.3653 32.7446 66.5712 32.7492 65.6396C32.7446 66.5712 33.0579 67.3685 33.6894 68.0412C34.3208 68.714 35.0884 69.0769 36.0019 69.1203C35.088 69.1545 34.3168 69.5097 33.6786 70.176C33.0405 70.8424 32.7191 71.6365 32.7144 72.568C32.7191 71.6365 32.4057 70.8392 31.7743 70.1664C31.171 69.5126 30.3367 69.1249 29.4521 69.0873Z" fill="#80C11E"/>
<path d="M67.0079 71C66.9953 70.73 66.8905 70.5016 66.6936 70.3146C66.4966 70.1277 66.2619 70.0322 65.9895 70.0322C66.2619 70.0322 66.4966 69.9408 66.6936 69.7539C66.8905 69.567 66.9953 69.3385 67.0079 69.0685C67.0204 69.3385 67.1252 69.567 67.3222 69.7539C67.415 69.8443 67.5251 69.9154 67.646 69.9632C67.7668 70.011 67.8961 70.0344 68.0262 70.0322C67.7538 70.0322 67.5191 70.1236 67.3222 70.3146C67.1252 70.5016 67.0204 70.73 67.0079 71ZM63.9906 70.0322C63.9654 69.5088 63.7601 69.0644 63.3745 68.6989C62.989 68.3333 62.5322 68.1506 62 68.1506C62.5322 68.1506 62.989 67.9678 63.3745 67.6023C63.7601 67.2368 63.9612 66.7923 63.9906 66.2648C64.0073 66.6096 64.1037 66.9252 64.2881 67.216C64.4683 67.5026 64.7114 67.731 65.0131 67.9013C65.3148 68.0675 65.6375 68.1506 65.9895 68.1506C65.4573 68.1506 64.9963 68.3333 64.6108 68.6989C64.2211 69.0644 64.0157 69.5088 63.9906 70.0322ZM68.5039 68.6532C68.4872 68.2586 68.3321 67.9221 68.043 67.648C67.7538 67.3738 67.4102 67.2368 67.0079 67.2368C67.4102 67.2368 67.7538 67.0997 68.043 66.8255C68.3321 66.5514 68.4872 66.2191 68.5039 65.8245C68.5207 66.2191 68.6757 66.5514 68.9649 66.8255C69.2541 67.0997 69.5977 67.2368 70 67.2368C69.5977 67.2368 69.2541 67.3738 68.9649 67.648C68.6839 67.9099 68.5182 68.2711 68.5039 68.6532ZM66.5175 65.8245C66.5008 65.4299 66.3457 65.0976 66.0566 64.8235C65.7674 64.5493 65.4238 64.4164 65.0173 64.4164C65.4196 64.4164 65.7632 64.2793 66.0524 64.0052C66.3415 63.731 66.4966 63.3946 66.5134 63C66.5301 63.3946 66.6852 63.731 66.9743 64.0052C67.2635 64.2793 67.6071 64.4164 68.0094 64.4164C67.6071 64.4164 67.2635 64.5535 66.9743 64.8235C66.6894 65.0976 66.5343 65.4299 66.5175 65.8245Z" fill="#80C11E"/>
<path d="M58.8622 29C58.8827 29.4387 59.0529 29.81 59.373 30.1137C59.693 30.4174 60.0744 30.5727 60.517 30.5727C60.0744 30.5727 59.693 30.7212 59.373 31.0249C59.0529 31.3287 58.8827 31.6999 58.8622 32.1386C58.8418 31.6999 58.6716 31.3287 58.3515 31.0249C58.2006 30.8781 58.0217 30.7625 57.8253 30.6848C57.6289 30.6072 57.4189 30.5691 57.2074 30.5727C57.6501 30.5727 58.0314 30.4242 58.3515 30.1137C58.6716 29.81 58.8418 29.4387 58.8622 29ZM63.7653 30.5727C63.8062 31.4232 64.1399 32.1454 64.7664 32.7394C65.3929 33.3333 66.1351 33.6303 67 33.6303C66.1351 33.6303 65.3929 33.9273 64.7664 34.5213C64.1399 35.1153 63.813 35.8375 63.7653 36.6947C63.7381 36.1345 63.5815 35.6215 63.2818 35.149C62.989 34.6833 62.594 34.312 62.1037 34.0353C61.6134 33.7653 61.0891 33.6303 60.517 33.6303C61.3819 33.6303 62.131 33.3333 62.7575 32.7394C63.3908 32.1454 63.7245 31.4232 63.7653 30.5727ZM56.4311 32.8136C56.4584 33.4548 56.7103 34.0016 57.1802 34.447C57.6501 34.8925 58.2085 35.1153 58.8622 35.1153C58.2085 35.1153 57.6501 35.338 57.1802 35.7835C56.7103 36.229 56.4584 36.769 56.4311 37.4102C56.4039 36.769 56.1519 36.229 55.682 35.7835C55.2122 35.338 54.6537 35.1153 54 35.1153C54.6537 35.1153 55.2122 34.8925 55.682 34.447C56.1387 34.0214 56.4079 33.4345 56.4311 32.8136ZM59.659 37.4102C59.6862 38.0514 59.9382 38.5914 60.4081 39.0369C60.8779 39.4823 61.4364 39.6983 62.0969 39.6983C61.4432 39.6983 60.8848 39.9211 60.4149 40.3666C59.945 40.812 59.693 41.3588 59.6658 42C59.6386 41.3588 59.3866 40.812 58.9167 40.3666C58.4468 39.9211 57.8884 39.6983 57.2347 39.6983C57.8884 39.6983 58.4468 39.4756 58.9167 39.0369C59.3798 38.5914 59.6317 38.0514 59.659 37.4102Z" fill="#80C11E"/>
<path d="M59.1142 49C59.1315 49.3712 59.2755 49.6854 59.5464 49.9424C59.8172 50.1994 60.1399 50.3307 60.5144 50.3307C60.1399 50.3307 59.8172 50.4564 59.5464 50.7134C59.2755 50.9704 59.1315 51.2845 59.1142 51.6558C59.0969 51.2845 58.9529 50.9704 58.682 50.7134C58.5544 50.5891 58.403 50.4913 58.2368 50.4256C58.0706 50.3599 57.8929 50.3277 57.714 50.3307C58.0885 50.3307 58.4112 50.2051 58.682 49.9424C58.9529 49.6854 59.0969 49.3712 59.1142 49ZM63.263 50.3307C63.2975 51.0504 63.5799 51.6615 64.11 52.1641C64.6401 52.6667 65.2682 52.918 66 52.918C65.2682 52.918 64.6401 53.1693 64.11 53.6719C63.5799 54.1745 63.3033 54.7856 63.263 55.5109C63.2399 55.0369 63.1074 54.6028 62.8539 54.203C62.6061 53.8089 62.2719 53.4948 61.857 53.2606C61.4421 53.0322 60.9984 52.918 60.5144 52.918C61.2462 52.918 61.88 52.6667 62.4102 52.1641C62.946 51.6615 63.2284 51.0504 63.263 50.3307ZM57.0571 52.2269C57.0801 52.7695 57.2933 53.2321 57.6909 53.609C58.0885 53.986 58.561 54.1745 59.1142 54.1745C58.561 54.1745 58.0885 54.3629 57.6909 54.7399C57.2933 55.1168 57.0801 55.5737 57.0571 56.1163C57.034 55.5737 56.8208 55.1168 56.4233 54.7399C56.0257 54.3629 55.5532 54.1745 55 54.1745C55.5532 54.1745 56.0257 53.986 56.4233 53.609C56.8097 53.2489 57.0374 52.7523 57.0571 52.2269ZM59.7884 56.1163C59.8114 56.6589 60.0246 57.1158 60.4222 57.4927C60.8198 57.8697 61.2923 58.0524 61.8512 58.0524C61.2981 58.0524 60.8256 58.2409 60.428 58.6179C60.0304 58.9948 59.8172 59.4574 59.7941 60C59.7711 59.4574 59.5579 58.9948 59.1603 58.6179C58.7627 58.2409 58.2902 58.0524 57.737 58.0524C58.2902 58.0524 58.7627 57.864 59.1603 57.4927C59.5521 57.1158 59.7653 56.6589 59.7884 56.1163Z" fill="#80C11E"/>
<path d="M46.4882 59C46.5071 59.4387 46.6642 59.81 46.9597 60.1137C47.2551 60.4174 47.6071 60.5727 48.0157 60.5727C47.6071 60.5727 47.2551 60.7212 46.9597 61.0249C46.6642 61.3287 46.5071 61.6999 46.4882 62.1386C46.4694 61.6999 46.3122 61.3287 46.0168 61.0249C45.8775 60.8781 45.7124 60.7625 45.5311 60.6848C45.3498 60.6072 45.1559 60.5691 44.9607 60.5727C45.3693 60.5727 45.7213 60.4242 46.0168 60.1137C46.3122 59.81 46.4694 59.4387 46.4882 59ZM51.0141 60.5727C51.0519 61.4232 51.3599 62.1454 51.9382 62.7394C52.5165 63.3333 53.2017 63.6303 54 63.6303C53.2017 63.6303 52.5165 63.9273 51.9382 64.5213C51.3599 65.1153 51.0581 65.8375 51.0141 66.6947C50.989 66.1345 50.8444 65.6215 50.5678 65.149C50.2975 64.6833 49.9329 64.312 49.4804 64.0353C49.0278 63.7653 48.5437 63.6303 48.0157 63.6303C48.814 63.6303 49.5055 63.3333 50.0838 62.7394C50.6684 62.1454 50.9764 61.4232 51.0141 60.5727ZM44.2441 62.8136C44.2693 63.4548 44.5018 64.0016 44.9356 64.447C45.3693 64.8925 45.8848 65.1153 46.4882 65.1153C45.8848 65.1153 45.3693 65.338 44.9356 65.7835C44.5018 66.229 44.2693 66.769 44.2441 67.4102C44.219 66.769 43.9864 66.229 43.5526 65.7835C43.1189 65.338 42.6035 65.1153 42 65.1153C42.6035 65.1153 43.1189 64.8925 43.5526 64.447C43.9742 64.0214 44.2226 63.4345 44.2441 62.8136ZM47.2237 67.4102C47.2488 68.0514 47.4814 68.5914 47.9151 69.0369C48.3489 69.4823 48.8643 69.6983 49.4741 69.6983C48.8706 69.6983 48.3552 69.9211 47.9214 70.3666C47.4877 70.812 47.2551 71.3588 47.23 72C47.2048 71.3588 46.9722 70.812 46.5385 70.3666C46.1048 69.9211 45.5893 69.6983 44.9859 69.6983C45.5893 69.6983 46.1048 69.4756 46.5385 69.0369C46.966 68.5914 47.1985 68.0514 47.2237 67.4102Z" fill="#80C11E"/>
<path d="M41.9843 38C42.0094 38.5737 42.219 39.0592 42.6129 39.4564C43.0068 39.8536 43.4762 40.0566 44.021 40.0566C43.4762 40.0566 43.0068 40.2508 42.6129 40.648C42.219 41.0452 42.0094 41.5306 41.9843 42.1044C41.9591 41.5306 41.7496 41.0452 41.3557 40.648C41.17 40.4559 40.9498 40.3048 40.7081 40.2032C40.4664 40.1017 40.2078 40.0518 39.9476 40.0566C40.4924 40.0566 40.9618 39.8624 41.3557 39.4564C41.7496 39.0592 41.9591 38.5737 41.9843 38ZM48.0189 40.0566C48.0691 41.1687 48.4798 42.1132 49.2509 42.8899C50.022 43.6667 50.9356 44.055 52 44.055C50.9356 44.055 50.022 44.4434 49.2509 45.2201C48.4798 45.9969 48.0775 46.9413 48.0189 48.0623C47.9853 47.3297 47.7926 46.6589 47.4238 46.041C47.0634 45.432 46.5773 44.9465 45.9738 44.5846C45.3704 44.2316 44.725 44.055 44.021 44.055C45.0854 44.055 46.0073 43.6667 46.7784 42.8899C47.5579 42.1132 47.9686 41.1687 48.0189 40.0566ZM38.9921 42.987C39.0257 43.8255 39.3358 44.5405 39.9141 45.1231C40.4924 45.7056 41.1797 45.9969 41.9843 45.9969C41.1797 45.9969 40.4924 46.2882 39.9141 46.8707C39.3358 47.4533 39.0257 48.1594 38.9921 48.9979C38.9586 48.1594 38.6485 47.4533 38.0702 46.8707C37.4919 46.2882 36.8046 45.9969 36 45.9969C36.8046 45.9969 37.4919 45.7056 38.0702 45.1231C38.6323 44.5664 38.9635 43.799 38.9921 42.987ZM42.9649 48.9979C42.9984 49.8364 43.3085 50.5426 43.8869 51.1251C44.4652 51.7077 45.1524 51.9901 45.9654 51.9901C45.1608 51.9901 44.4735 52.2814 43.8952 52.864C43.3169 53.4465 43.0068 54.1615 42.9733 55C42.9398 54.1615 42.6296 53.4465 42.0513 52.864C41.473 52.2814 40.7858 51.9901 39.9811 51.9901C40.7858 51.9901 41.473 51.6989 42.0513 51.1251C42.6213 50.5426 42.9314 49.8364 42.9649 48.9979Z" fill="#80C11E"/>
</svg>
