<svg width="18" height="16" viewBox="0 0 18 16" fill="none" xmlns="http://www.w3.org/2000/svg">
<path d="M9 8C10.1935 8 11.3381 7.57857 12.182 6.82843C13.0259 6.07828 13.5 5.06087 13.5 4C13.5 2.93913 13.0259 1.92172 12.182 1.17157C11.3381 0.421428 10.1935 0 9 0C7.80653 0 6.66193 0.421428 5.81802 1.17157C4.97411 1.92172 4.5 2.93913 4.5 4C4.5 5.06087 4.97411 6.07828 5.81802 6.82843C6.66193 7.57857 7.80653 8 9 8ZM12 4C12 4.70724 11.6839 5.38552 11.1213 5.88562C10.5587 6.38572 9.79565 6.66667 9 6.66667C8.20435 6.66667 7.44129 6.38572 6.87868 5.88562C6.31607 5.38552 6 4.70724 6 4C6 3.29276 6.31607 2.61448 6.87868 2.11438C7.44129 1.61428 8.20435 1.33333 9 1.33333C9.79565 1.33333 10.5587 1.61428 11.1213 2.11438C11.6839 2.61448 12 3.29276 12 4ZM18 14.6667C18 16 16.5 16 16.5 16H1.5C1.5 16 0 16 0 14.6667C0 13.3333 1.5 9.33333 9 9.33333C16.5 9.33333 18 13.3333 18 14.6667ZM16.5 14.6613C16.4985 14.3333 16.269 13.3467 15.252 12.4427C14.274 11.5733 12.4335 10.6667 9 10.6667C5.565 10.6667 3.726 11.5733 2.748 12.4427C1.731 13.3467 1.503 14.3333 1.5 14.6613H16.5Z" fill="#FBFBFB"/>
</svg>
