<svg width="18" height="16" viewBox="0 0 18 16" fill="none" xmlns="http://www.w3.org/2000/svg">
<path d="M6.47662 0.0758644C6.54001 0.111855 6.5953 0.159333 6.63934 0.215588C6.68337 0.271842 6.71528 0.335771 6.73325 0.403722C6.75122 0.471672 6.75489 0.542314 6.74406 0.611611C6.73323 0.680908 6.70811 0.747503 6.67013 0.807592L3.80587 5.33342H14.1941L11.3287 0.807592C11.2521 0.68623 11.2294 0.540957 11.2657 0.403731C11.302 0.266506 11.3942 0.148568 11.5222 0.0758644C11.6502 0.0031603 11.8035 -0.0183551 11.9482 0.0160513C12.0929 0.0504577 12.2173 0.137968 12.294 0.25933L15.5059 5.33342H16.875C17.1734 5.33342 17.4595 5.4458 17.6705 5.64584C17.8815 5.84588 18 6.11718 18 6.40008V7.46674C18 7.74963 17.8815 8.02094 17.6705 8.22098C17.4595 8.42101 17.1734 8.53339 16.875 8.53339V13.3334C16.875 14.0406 16.5787 14.7189 16.0512 15.219C15.5238 15.7191 14.8084 16 14.0625 16H3.9375C3.19158 16 2.47621 15.7191 1.94876 15.219C1.42132 14.7189 1.125 14.0406 1.125 13.3334V8.53339C0.826631 8.53339 0.540483 8.42101 0.329505 8.22098C0.118526 8.02094 0 7.74963 0 7.46674V6.40008C0 6.11718 0.118526 5.84588 0.329505 5.64584C0.540483 5.4458 0.826631 5.33342 1.125 5.33342H2.49412L5.70375 0.25933C5.74171 0.199228 5.79178 0.146805 5.85112 0.105056C5.91045 0.0633072 5.97787 0.0330498 6.04954 0.0160127C6.12121 -0.00102452 6.19571 -0.00450775 6.2688 0.00576176C6.34189 0.0160313 6.41325 0.0398523 6.47662 0.0758644ZM2.25 8.53339V13.3334C2.25 13.7577 2.42779 14.1647 2.74426 14.4647C3.06072 14.7648 3.48995 14.9333 3.9375 14.9333H14.0625C14.5101 14.9333 14.9393 14.7648 15.2557 14.4647C15.5722 14.1647 15.75 13.7577 15.75 13.3334V8.53339H2.25ZM1.125 6.40008V7.46674H16.875V6.40008H1.125ZM4.5 9.60005C4.64918 9.60005 4.79226 9.65624 4.89775 9.75626C5.00324 9.85628 5.0625 9.99193 5.0625 10.1334V13.3334C5.0625 13.4748 5.00324 13.6105 4.89775 13.7105C4.79226 13.8105 4.64918 13.8667 4.5 13.8667C4.35082 13.8667 4.20774 13.8105 4.10225 13.7105C3.99676 13.6105 3.9375 13.4748 3.9375 13.3334V10.1334C3.9375 9.99193 3.99676 9.85628 4.10225 9.75626C4.20774 9.65624 4.35082 9.60005 4.5 9.60005ZM6.75 9.60005C6.89918 9.60005 7.04226 9.65624 7.14775 9.75626C7.25324 9.85628 7.3125 9.99193 7.3125 10.1334V13.3334C7.3125 13.4748 7.25324 13.6105 7.14775 13.7105C7.04226 13.8105 6.89918 13.8667 6.75 13.8667C6.60082 13.8667 6.45774 13.8105 6.35225 13.7105C6.24676 13.6105 6.1875 13.4748 6.1875 13.3334V10.1334C6.1875 9.99193 6.24676 9.85628 6.35225 9.75626C6.45774 9.65624 6.60082 9.60005 6.75 9.60005ZM9 9.60005C9.14918 9.60005 9.29226 9.65624 9.39775 9.75626C9.50324 9.85628 9.5625 9.99193 9.5625 10.1334V13.3334C9.5625 13.4748 9.50324 13.6105 9.39775 13.7105C9.29226 13.8105 9.14918 13.8667 9 13.8667C8.85082 13.8667 8.70774 13.8105 8.60225 13.7105C8.49676 13.6105 8.4375 13.4748 8.4375 13.3334V10.1334C8.4375 9.99193 8.49676 9.85628 8.60225 9.75626C8.70774 9.65624 8.85082 9.60005 9 9.60005ZM11.25 9.60005C11.3992 9.60005 11.5423 9.65624 11.6477 9.75626C11.7532 9.85628 11.8125 9.99193 11.8125 10.1334V13.3334C11.8125 13.4748 11.7532 13.6105 11.6477 13.7105C11.5423 13.8105 11.3992 13.8667 11.25 13.8667C11.1008 13.8667 10.9577 13.8105 10.8523 13.7105C10.7468 13.6105 10.6875 13.4748 10.6875 13.3334V10.1334C10.6875 9.99193 10.7468 9.85628 10.8523 9.75626C10.9577 9.65624 11.1008 9.60005 11.25 9.60005ZM13.5 9.60005C13.6492 9.60005 13.7923 9.65624 13.8977 9.75626C14.0032 9.85628 14.0625 9.99193 14.0625 10.1334V13.3334C14.0625 13.4748 14.0032 13.6105 13.8977 13.7105C13.7923 13.8105 13.6492 13.8667 13.5 13.8667C13.3508 13.8667 13.2077 13.8105 13.1023 13.7105C12.9968 13.6105 12.9375 13.4748 12.9375 13.3334V10.1334C12.9375 9.99193 12.9968 9.85628 13.1023 9.75626C13.2077 9.65624 13.3508 9.60005 13.5 9.60005Z" fill="#FBFBFB"/>
</svg>
