<svg width="143" height="204" viewBox="0 0 143 204" fill="none" xmlns="http://www.w3.org/2000/svg">
<path d="M47.8132 5.54785C59.0741 0.696687 72.617 -1.12302 83.9617 0.685547C87.031 1.16463 93.4233 2.7664 96.2976 3.78711C101.272 5.5241 107.791 8.90641 111.885 11.8701C125.965 22.0862 135.701 36.7494 139.86 54.0391C141.235 59.7476 142.152 67.5901 142.055 72.6143C141.769 85.6454 139.468 96.1371 134.525 106.944C130.312 116.108 123.922 125.25 117.404 131.379C107.025 141.147 95.9421 147.363 83.4568 150.376C81.2631 150.911 79.3265 151.508 79.1628 151.716C78.9783 151.92 78.3836 152.519 77.8503 153.042C76.0393 154.833 73.1876 158.243 71.7419 160.322C70.9461 161.48 70.0441 162.793 69.7039 163.272C67.8856 165.87 61.4293 177.123 61.2009 178.082C61.1504 178.296 61.0091 178.508 60.8855 178.547C60.7571 178.606 60.4751 179.123 60.2439 179.718C59.6042 181.362 55.4291 188.539 49.4412 198.291C46.3008 203.402 46.6112 203.05 45.3074 203.28C41.7269 203.913 39.381 203.739 34.0642 202.481C28.3887 201.117 23.9207 199.254 20.116 196.604C17.5371 194.826 16.8761 193.681 17.7527 192.566C18.0197 192.204 18.0794 191.949 17.9832 191.59C17.7635 190.795 18.5951 184.489 19.6189 179.013C20.588 173.858 21.0468 171.052 20.9734 170.787C20.9511 170.69 21.4255 168.494 22.0212 165.875C23.0942 161.239 23.3193 159.813 24.0945 151.921C24.6248 146.505 24.51 141.901 23.6775 136.008L23.4519 134.272L21.8845 132.824C15.4605 126.843 10.305 119.522 6.54272 111.027C1.16269 98.9002 -0.928953 85.6404 0.377686 71.9541C0.654721 69.0593 1.97283 61.1836 2.2146 60.9277C2.27259 60.8741 2.66284 59.5082 3.07202 57.8789C3.69548 55.3347 4.83925 51.8381 5.73511 49.7842C5.86342 49.4333 6.17387 48.6969 6.37476 48.1396C8.31483 43.0128 12.1695 36.2328 16.5623 30.251C18.6979 27.3705 19.4917 26.4141 22.2908 23.4199C29.1639 16.0743 38.4535 9.56882 47.8132 5.54785ZM25.5085 166.229C25.1024 166.223 25.0674 166.37 24.6433 168.737C24.3871 170.112 24.162 171.831 24.1042 172.559C24.0148 173.995 22.6314 181.382 21.1648 188.348L20.2429 192.728L21.3542 193.506C26.391 197.006 35.3306 200.332 41.5701 201.046C44.491 201.377 44.2795 201.506 46.072 198.252C49.227 192.404 51.2211 188.972 53.3035 185.742C54.4596 183.929 56.0867 181.375 56.8699 180.08C57.6675 178.803 58.3198 177.755 58.3328 177.734C58.3018 177.727 56.6089 177.35 54.53 176.902C50.1462 175.933 50.5863 175.702 50.9246 178.786C51.0947 180.375 51.0531 180.746 50.4099 183.173C49.7668 185.599 49.6259 185.903 48.7742 186.913C47.5495 188.35 46.1625 188.921 44.4978 188.661C43.4664 188.507 43.1812 188.372 42.5808 187.736C41.5285 186.612 41.3829 185.592 42.0515 183.44C42.6674 181.412 43.5648 179.829 45.7058 176.926C46.5295 175.843 47.1791 174.919 47.1462 174.866C47.1059 174.833 45.871 174.385 44.3591 173.87C42.8661 173.359 40.6392 172.586 39.4431 172.169L37.2859 171.39L37.0808 173.023C36.9782 173.94 36.541 176.172 36.114 177.977L35.3347 181.27L34.2292 182.577C31.5817 185.697 27.8612 185.379 26.9177 181.97C26.7691 181.441 26.8494 180.718 27.2009 179.232C27.9446 176.18 29.2442 174.154 32.3054 171.2C33.0063 170.54 33.5747 169.957 33.5925 169.891C33.6025 169.848 32.8986 169.458 32.0408 169.053C31.1605 168.642 30.0756 168.139 29.6316 167.899C28.0474 167.099 25.9336 166.238 25.5085 166.229ZM48.365 177.961C48.3017 177.946 48.1759 178.095 48.0652 178.271C47.9492 178.47 47.5712 179.009 47.2312 179.488C45.3499 182.16 44.1394 184.878 44.4773 185.655C44.7881 186.357 45.7191 186.262 46.3611 185.473C47.228 184.398 48.134 181.719 48.2908 179.716C48.376 178.772 48.4077 177.972 48.365 177.961ZM33.5388 174.341C30.5211 177.775 28.9389 182.448 30.9734 181.92C32.0145 181.651 32.8173 180.272 33.5916 177.382C33.9813 175.926 34.3437 174.397 34.3962 173.983L34.5066 173.224L33.5388 174.341ZM59.8074 156.197C57.5755 154.973 56.9493 154.736 56.8679 155.078C56.8431 155.183 56.3119 156.561 55.7205 158.104C55.1018 159.661 54.3621 161.638 54.0906 162.494C53.7987 163.345 53.4644 164.276 53.3513 164.562C53.238 164.849 52.8329 165.897 52.4734 166.934C52.0985 167.944 51.4217 169.644 50.9939 170.687C50.5437 171.724 50.1944 172.627 50.2263 172.682C50.3475 172.844 56.1697 174.648 57.8923 175.056C59.3554 175.402 59.5599 175.405 59.6453 175.044C59.6955 174.832 60.1985 173.763 60.7498 172.682C61.3211 171.607 62.2729 169.701 62.8972 168.503C63.5059 167.28 64.7526 165.083 65.6716 163.597C66.5912 162.108 67.3217 160.845 67.2888 160.793C67.1691 160.606 61.7318 157.281 59.8074 156.197ZM51.4421 152.558C48.2437 151.375 43.4833 149.98 43.1882 150.179C43.0822 150.244 42.2531 153.457 41.3386 157.322C40.4241 161.188 39.3734 165.245 38.9832 166.32C38.6144 167.397 38.3336 168.294 38.3445 168.346C38.4985 168.561 45.6535 171.264 46.8591 171.549L47.6335 171.731L48.5095 169.179C48.9976 167.791 49.9256 165.206 50.5896 163.457C51.2536 161.708 51.923 159.937 52.0613 159.544C52.1997 159.151 52.7717 157.693 53.3074 156.295C53.8371 154.92 54.2513 153.743 54.2205 153.686C54.1876 153.633 52.9409 153.136 51.4421 152.558ZM39.3328 149.378C37.2087 148.944 34.9058 148.78 32.6667 148.923C31.4441 148.993 30.0853 149.075 29.6511 149.085C27.5708 149.132 27.7747 149.046 27.6472 150.159C27.2248 154.252 26.5979 159.016 26.199 161.277C26.0686 161.919 25.9556 162.589 25.948 162.722C25.9233 162.918 26.2692 163.089 26.9373 163.247C27.4975 163.38 29.7296 164.313 31.8962 165.341C34.0612 166.368 35.8957 167.161 35.9763 167.112C36.0599 167.051 37.1046 163.108 38.3035 158.332L40.4998 149.633L39.3328 149.378ZM62.1384 142.415C61.9872 142.379 58.7331 150.088 58.3611 151.368L58.0974 152.292L60.1023 153.418C61.2053 154.037 63.5141 155.525 65.2527 156.722C66.9631 157.935 68.4317 158.931 68.4978 158.947C68.5611 158.962 69.1356 158.268 69.8181 157.398C71.8134 154.819 72.9672 153.499 74.446 152.146C75.2068 151.429 75.8292 150.814 75.8445 150.749C75.9076 150.472 70.4206 147.065 64.3689 143.639C63.207 142.983 62.2239 142.436 62.1384 142.415ZM44.9529 142.229L43.8523 147.174L47.1589 148.09C48.9677 148.607 51.3058 149.386 52.3201 149.805C55.5418 151.172 55.3862 151.156 55.7683 150.216C56.6865 147.967 57.8766 145.333 58.8611 143.479C59.4438 142.365 59.8836 141.371 59.8347 141.289C59.8071 141.214 58.7325 140.758 57.5037 140.288C55.2061 139.429 49.98 137.991 47.4304 137.521L46.0759 137.29L44.9529 142.229ZM109.295 13.9678C106.31 11.9841 106.295 12.0466 109.164 15.3721C111.107 17.6272 115.412 24.4104 116.64 27.1904C118.798 32.0068 120.477 37.5854 121.276 42.3721C121.786 45.4993 122.253 50.252 122.273 52.5674C122.297 56.4083 122.237 59.3548 122.126 59.4414C122.05 59.4683 122.028 59.7547 122.071 60.0566C122.136 60.3644 122.041 61.5297 121.914 62.6426C121.793 63.7363 121.653 65.0045 121.621 65.4229C120.885 72.091 118.004 83.1177 115.186 90.0322C109.741 103.346 103.052 114.325 93.9373 124.999C88.3203 131.541 82.401 137.161 75.4255 142.532C72.8951 144.491 72.3519 145.056 72.8689 145.179C73.4279 145.312 77.1847 148.061 77.282 148.421C77.3835 148.758 77.4868 148.806 77.865 148.648C78.1096 148.572 78.5756 148.435 78.906 148.379C80.2049 148.169 84.8553 147.051 86.0134 146.673C92.5204 144.532 96.9977 142.519 102.157 139.344C112.206 133.175 120.747 124.542 127.07 114.15C128.628 111.604 131.214 106.72 131.922 104.98C137.389 91.6737 139.467 80.007 138.679 67.1924C138.247 60.2716 136.591 52.3883 134.259 46.2061C133.533 44.2806 132.732 42.4013 131.863 40.5713C133.825 46.538 135.2 54.0925 135.79 62.459C135.924 64.3419 136.073 66.5457 136.137 67.3525C136.292 69.2425 136.097 69.9641 135.375 70.3809C134.711 70.7428 133.959 70.4967 133.438 69.7646C133.147 69.3332 132.71 66.3832 131.914 59.2812C130.656 47.868 129.29 41.807 126.235 34.1709C125.091 31.2794 124.906 30.3992 125.432 30.5234C125.543 30.5495 125.63 30.4797 125.589 30.3564C125.532 30.2424 125.624 30.1466 125.75 30.1035C121.182 23.6477 115.613 18.1616 109.295 13.9678ZM34.4265 136.104C32.4869 136.049 27.054 136.244 26.7927 136.385C26.7623 136.422 26.927 137.742 27.1882 139.328C27.4719 140.92 27.6988 143.127 27.7273 144.256C27.7486 145.606 27.8725 146.331 28.0769 146.425C28.2585 146.515 29.7971 146.451 31.4939 146.292C34.5807 146.013 36.0083 146.035 38.6941 146.402C39.4837 146.521 40.391 146.625 40.7292 146.637L41.3347 146.668L42.4275 141.857C43.1155 138.858 43.4392 137.006 43.3162 136.951C42.8232 136.724 37.6667 136.242 34.4265 136.104ZM94.7087 12.5996C92.6207 12.3287 90.8517 12.1336 90.7849 12.1865C90.6261 12.2831 89.2854 16.4084 88.2898 19.8506C87.8796 21.3017 87.3085 23.2307 87.0447 24.1543C86.7579 25.0747 85.9504 27.8228 85.2644 30.2393C84.5527 32.673 83.756 35.4677 83.4822 36.4336C83.1806 37.4164 82.5211 39.729 82.0134 41.583C81.4854 43.432 80.9275 45.4084 80.7439 45.9932C80.5654 46.5562 79.9612 48.6337 79.4236 50.6143C78.0258 55.7565 75.6603 64.2142 75.0339 66.2871C74.7323 67.2703 73.8047 70.6176 72.9275 73.751C72.0755 76.869 71.0876 80.3807 70.7458 81.5332C70.4038 82.6874 69.511 85.7942 68.7644 88.4668C68.0026 91.1124 66.8232 95.2312 66.1267 97.6006C64.9627 101.655 63.4317 106.966 61.8474 112.514C61.4651 113.838 60.2665 118.038 59.1804 121.863C55.3551 135.243 55.0425 136.473 55.408 136.56C57.5166 137.058 63.5332 139.58 64.3386 140.31C64.5455 140.493 64.8053 140.644 64.9441 140.632C65.1964 140.623 66.894 141.519 67.1667 141.808C67.2756 141.923 67.8817 142.245 68.5349 142.557C70.003 143.264 69.9298 143.291 73.6091 140.416C85.2218 131.387 95.1857 120.398 102.96 107.995C104.957 104.835 108.134 99.1928 108.915 97.4268C109.196 96.8206 109.568 96.0123 109.798 95.6172C111.379 92.6715 114.922 83.0792 116.362 77.8574C117.324 74.2732 118.808 66.7503 118.99 64.3486C119.589 56.82 119.621 55.7283 119.315 49.623C119.123 45.6294 117.785 38.9886 116.232 34.3154C114.306 28.4314 111.422 23.0383 107.963 18.834C105.688 16.0535 105.671 16.0258 104.305 14.6934C102.917 13.3576 102.896 13.3529 100.32 13.1865C99.3312 13.1336 96.8093 12.8495 94.7087 12.5996ZM74.4333 7.71777C73.9205 7.1925 66.3411 11.1871 62.3875 14.0635C60.495 15.4323 56.1649 19.2318 54.2175 21.2158C42.3631 33.2821 33.9659 51.0112 30.6394 70.9277C29.332 78.7618 28.8444 89.2773 29.3162 98.4287C29.3623 99.2914 29.3654 100.055 29.28 100.124C29.2173 100.199 29.2346 100.315 29.3103 100.378C29.4138 100.424 29.6396 102.07 29.8406 104.002C30.5275 110.894 32.4579 120.793 34.1599 126.377C34.5446 127.633 35.1386 129.635 35.447 130.83C35.7602 132.005 36.0439 133.014 36.0564 133.062C36.0753 133.089 37.6231 133.274 39.4998 133.494C41.3857 133.693 44.0056 134.045 45.3171 134.266C46.646 134.512 47.9627 134.711 48.2683 134.762C48.5755 134.813 49.6182 135.013 50.571 135.217L52.3416 135.612L52.8123 134.199C53.0637 133.428 53.6272 131.519 54.0642 129.964C54.4788 128.403 55.3691 125.315 56.0203 123.137C57.3475 118.585 60.5078 107.532 62.6746 99.8145C63.4765 96.9081 64.4043 93.6525 64.7312 92.5625C65.2865 90.6985 67.11 84.3324 68.6433 78.9092C69.0229 77.5872 69.5759 75.6306 69.8875 74.6055C70.2022 73.5577 70.7835 71.5868 71.158 70.1953C71.5529 68.8087 72.1159 66.8103 72.4275 65.7852C74.0418 60.4024 76.72 51.1887 79.2136 42.3809C79.9682 39.6657 80.8785 36.585 81.1902 35.5596C81.5273 34.5175 81.8062 33.5294 81.8464 33.3594C81.887 33.188 82.8646 29.6281 84.031 25.4639C85.1774 21.2929 86.4697 16.5087 86.8923 14.8135L87.6638 11.7441L83.0876 10.5283C80.5678 9.84275 77.6164 8.96492 76.532 8.55078C75.4496 8.13714 74.494 7.75342 74.4333 7.71777ZM68.6394 4.26074C68.3743 3.84034 68.2681 3.81543 66.1404 4.07227C63.566 4.38323 58.4759 5.53427 55.4304 6.49609C49.2232 8.43699 42.4926 11.7123 37.1472 15.3818C28.0035 21.6539 19.2612 31.2266 14.0769 40.6543C9.39733 49.1896 7.17546 55.125 5.31714 64.0381C4.04376 70.2871 4.03663 70.2177 3.70483 74.3105C2.80672 85.3123 4.42569 96.9124 8.27319 107.354C9.34214 110.233 11.2349 114.335 12.4265 116.412C12.7674 116.987 13.0122 117.584 12.9822 117.711C12.947 117.86 12.9804 118.002 13.0886 118.027C13.1774 118.05 14.043 119.287 14.9822 120.786C18 125.514 22.5764 131.15 24.8123 132.936C25.8442 133.763 25.8873 133.773 26.5154 133.517C27.0958 133.273 32.4278 132.92 33.1169 133.083C33.6114 133.2 33.5731 132.789 32.8884 131.168C32.1356 129.352 30.4255 123.993 29.9041 121.782C29.7191 120.931 29.4863 120.182 29.4158 120.097C29.3444 120.012 29.1324 119.087 28.9177 118.073C28.7075 117.038 28.3379 115.334 28.1072 114.293C26.7955 108.51 25.6684 96.9399 25.8015 90.4209C25.8182 89.1918 25.8569 87.5862 25.8513 86.8438C25.8661 86.1063 25.9084 85.0624 25.948 84.5117C25.9881 83.9592 26.0254 83.3185 26.0378 83.0742C26.1039 81.0711 26.6659 76.0017 27.155 72.6846C27.7267 68.8271 30.1312 58.0012 30.9011 55.8955C31.0748 55.3531 31.6335 53.7579 32.0886 52.3174C37.0837 37.2591 45.7594 23.834 56.363 14.7471C59.0748 12.4051 64.2365 8.93867 67.491 7.28516L70.5955 5.68848L69.7253 5.14551C69.2505 4.85429 68.7553 4.44575 68.6394 4.26074ZM129.577 93.2383C130.09 92.8675 131.036 93.0227 131.286 93.5059C131.715 94.4831 130.92 97.123 128.486 102.539C126.815 106.273 125.574 108.718 123.901 111.555C122.69 113.601 120.242 117.376 119.847 117.777C119.742 117.865 119.6 118.1 119.534 118.287C119.327 118.799 117.382 121.615 116.908 122.087C116.242 122.737 115.303 122.92 114.762 122.5C113.903 121.805 113.859 121.904 118.289 114.717C122.139 108.447 123.922 105.052 127.399 97.3916C128.488 94.9559 129.294 93.4399 129.577 93.2383ZM133.751 78.335C134.192 77.9759 135.089 78.258 135.375 78.833C135.672 79.437 135.42 81.8289 134.951 83.0137C134.523 84.1135 133.544 84.6215 132.842 84.1328L132.332 83.8037L132.888 81.1836C133.258 79.445 133.546 78.4961 133.751 78.335ZM81.5369 3.24805C78.5177 2.84897 74.0511 2.80249 72.99 3.15625C72.3759 3.34748 76.5751 5.19474 80.5505 6.44824C84.8386 7.82258 87.7753 8.47195 94.1589 9.44336C98.0609 10.0512 104.504 10.3877 104.599 9.98438C104.619 9.89969 104.082 9.68248 103.414 9.52441C102.725 9.36151 101.271 8.88353 100.191 8.44922C99.1114 8.01491 97.1791 7.35542 95.8855 6.95996C94.6141 6.56975 93.0342 6.04089 92.4138 5.78125C91.0482 5.21123 83.9853 3.56114 81.5369 3.24805Z" fill="#DD5E8D"/>
</svg>
