<svg width="145" height="207" viewBox="0 0 145 207" fill="none" xmlns="http://www.w3.org/2000/svg">
<path d="M58.9219 0.695068C70.4275 -1.13894 84.163 0.70797 95.584 5.62964C105.077 9.70913 114.499 16.3095 121.47 23.7615C124.309 26.7988 125.114 27.768 127.28 30.6902C131.736 36.7585 135.645 43.6368 137.613 48.8376C137.817 49.403 138.132 50.1497 138.262 50.5056C139.17 52.5891 140.331 56.1357 140.964 58.7166C141.379 60.3703 141.774 61.7572 141.833 61.8103C142.079 62.0738 143.415 70.0603 143.696 72.9958C145.022 86.8794 142.901 100.33 137.445 112.632C133.63 121.248 128.402 128.674 121.887 134.741L120.298 136.211L120.069 137.971C119.225 143.95 119.108 148.619 119.646 154.113C120.433 162.119 120.662 163.566 121.75 168.268C122.354 170.925 122.836 173.153 122.813 173.252C122.739 173.521 123.205 176.368 124.188 181.595C125.226 187.152 126.07 193.549 125.847 194.354C125.749 194.719 125.81 194.977 126.081 195.344C126.97 196.476 126.3 197.637 123.685 199.439C119.826 202.128 115.294 204.019 109.538 205.402C104.146 206.678 101.767 206.854 98.1357 206.212C96.8134 205.978 97.1275 206.335 93.9424 201.15C87.8686 191.257 83.6337 183.976 82.9854 182.308C82.7507 181.705 82.4651 181.181 82.335 181.121C82.2097 181.081 82.067 180.867 82.0156 180.65C81.7862 179.68 75.2367 168.263 73.3916 165.627C73.0467 165.14 72.1316 163.807 71.3242 162.633C69.8579 160.523 66.9647 157.064 65.1279 155.248C64.5869 154.717 63.9839 154.109 63.7969 153.902C63.6309 153.691 61.6663 153.086 59.4414 152.543C46.7788 149.485 35.5381 143.18 25.0117 133.27C18.4005 127.053 11.9191 117.778 7.64551 108.482C2.63172 97.5191 0.297996 86.8767 0.00683594 73.658C-0.0915798 68.5614 0.838531 60.6051 2.23242 54.8142C6.44928 37.2756 16.3231 22.4013 30.6035 12.0388C34.7548 9.03262 41.3659 5.60227 46.4111 3.84058C49.3262 2.80532 55.809 1.18089 58.9219 0.695068ZM118.214 168.628C117.783 168.637 115.639 169.509 114.032 170.321C113.582 170.564 112.482 171.075 111.589 171.491C110.722 171.901 110.01 172.295 110.015 172.341C110.03 172.406 110.608 172.998 111.32 173.67C114.425 176.666 115.744 178.722 116.498 181.818C116.855 183.326 116.936 184.059 116.785 184.595C115.828 188.053 112.055 188.375 109.37 185.211L108.249 183.885L107.458 180.544C107.025 178.713 106.582 176.449 106.478 175.519L106.27 173.862L104.082 174.652C102.869 175.075 100.61 175.86 99.0957 176.378C97.5615 176.9 96.3089 177.355 96.2695 177.388C96.237 177.443 96.8955 178.379 97.7305 179.477C99.902 182.422 100.812 184.028 101.437 186.086C102.115 188.269 101.968 189.304 100.9 190.444C100.292 191.089 100.002 191.225 98.9561 191.382C97.2677 191.645 95.8613 191.066 94.6191 189.608C93.7552 188.583 93.6123 188.276 92.96 185.814C92.3076 183.352 92.265 182.975 92.4375 181.364C92.7804 178.235 93.2271 178.47 88.7812 179.453C86.6671 179.908 84.9463 180.292 84.9238 180.297C84.9238 180.297 85.5911 181.368 86.4082 182.677C87.2026 183.99 88.8528 186.58 90.0254 188.42C92.1376 191.696 94.1601 195.178 97.3604 201.111C99.1784 204.412 98.9636 204.281 101.926 203.945C108.254 203.221 117.321 199.848 122.429 196.298L123.556 195.509L122.62 191.065C121.132 184 119.73 176.506 119.639 175.049C119.58 174.311 119.352 172.567 119.092 171.173C118.662 168.771 118.626 168.621 118.214 168.628ZM95.0332 180.527C94.9901 180.54 95.0219 181.351 95.1084 182.307C95.2675 184.339 96.187 187.058 97.0664 188.148C97.7176 188.949 98.6614 189.044 98.9766 188.333C99.3194 187.545 98.0917 184.788 96.1836 182.077C95.8388 181.59 95.4556 181.044 95.3379 180.843C95.2256 180.664 95.0975 180.512 95.0332 180.527ZM109.2 176.494C109.254 176.914 109.62 178.464 110.016 179.94C110.801 182.872 111.616 184.272 112.672 184.545C114.735 185.08 113.13 180.34 110.069 176.856L109.088 175.722L109.2 176.494ZM86.4082 157.314C86.3256 156.967 85.6902 157.208 83.4268 158.45C81.474 159.549 75.9574 162.923 75.8398 163.111C75.8065 163.164 76.5478 164.445 77.4805 165.955C78.4125 167.462 79.6764 169.69 80.2939 170.931C80.9272 172.147 81.8931 174.082 82.4727 175.172C83.0319 176.268 83.542 177.353 83.5928 177.568C83.6794 177.934 83.887 177.93 85.3701 177.579C87.1171 177.166 93.0226 175.337 93.1455 175.172C93.177 175.115 92.8224 174.2 92.3662 173.148C91.9323 172.091 91.2465 170.365 90.8662 169.341C90.5014 168.289 90.0904 167.226 89.9756 166.935C89.8609 166.645 89.5217 165.701 89.2256 164.838C88.9502 163.97 88.1998 161.963 87.5723 160.384C86.9723 158.819 86.4334 157.421 86.4082 157.314ZM100.282 152.345C99.9829 152.144 95.155 153.558 91.9111 154.758C90.3926 155.343 89.1295 155.847 89.0938 155.901C89.0604 155.954 89.482 157.151 90.0205 158.549C90.5637 159.966 91.1426 161.445 91.2832 161.844C91.4235 162.243 92.1028 164.04 92.7764 165.814C93.4499 167.588 94.3917 170.211 94.8867 171.619L95.7754 174.209L96.5605 174.022C97.7834 173.733 105.039 170.993 105.195 170.774C105.207 170.724 104.922 169.813 104.548 168.719C104.152 167.629 103.086 163.513 102.158 159.592C101.231 155.674 100.391 152.417 100.282 152.345ZM110.953 151.072C108.682 150.927 106.347 151.092 104.192 151.532L103.009 151.791L105.236 160.616C106.454 165.467 107.515 169.47 107.598 169.523C107.679 169.573 109.54 168.769 111.735 167.726C113.933 166.684 116.197 165.737 116.765 165.602C117.442 165.442 117.793 165.268 117.768 165.069C117.76 164.934 117.646 164.255 117.514 163.604C117.109 161.311 116.473 156.478 116.044 152.326C115.915 151.196 116.121 151.283 114.012 151.236C113.572 151.226 112.193 151.144 110.953 151.072ZM81.0625 144.469C80.9755 144.49 79.9788 145.045 78.8008 145.71C72.6646 149.185 67.1003 152.639 67.1621 152.922C67.1776 152.987 67.8095 153.612 68.5811 154.339C70.0809 155.712 71.2507 157.051 73.2744 159.668C73.9666 160.55 74.55 161.254 74.6143 161.239C74.686 161.219 76.1726 160.209 77.9043 158.98C79.6675 157.766 82.0093 156.257 83.1279 155.63L85.1621 154.488L84.8945 153.551C84.5171 152.252 81.2158 144.432 81.0625 144.469ZM95.9795 139.505C93.3938 139.98 88.0929 141.44 85.7627 142.311C84.5165 142.788 83.4265 143.25 83.3984 143.326C83.3485 143.409 83.7954 144.417 84.3867 145.549C85.3853 147.429 86.5931 150.101 87.5244 152.383C87.9118 153.336 87.7538 153.352 91.0205 151.966C92.0491 151.541 94.4205 150.751 96.2549 150.226L99.6084 149.297L98.4922 144.281L97.3525 139.271L95.9795 139.505ZM33.3633 15.5925C36.2723 12.2191 36.2569 12.1554 33.2295 14.1677C26.8222 18.4212 21.1751 23.9844 16.543 30.532C16.6706 30.5757 16.762 30.6752 16.7051 30.7908C16.6634 30.9159 16.7515 30.987 16.8633 30.9607C17.3973 30.8344 17.2101 31.7273 16.0498 34.6609C12.9523 42.4068 11.567 48.555 10.292 60.1326C9.48473 67.3348 9.04249 70.3274 8.74707 70.7664C8.21857 71.5094 7.45529 71.7597 6.78223 71.3923C6.04923 70.9695 5.85167 70.2373 6.00879 68.3201C6.07375 67.5015 6.22387 65.2662 6.36035 63.3562C6.95764 54.8682 8.35251 47.204 10.3428 41.1511C9.46124 43.008 8.64858 44.9151 7.91309 46.8689C5.5475 53.1402 3.86837 61.1373 3.43066 68.158C2.63258 81.1571 4.74034 92.9913 10.2861 106.49C11.0032 108.254 13.6264 113.209 15.207 115.793C21.6201 126.334 30.2834 135.092 40.4756 141.35C45.7083 144.571 50.2491 146.614 56.8486 148.786C58.0228 149.169 62.7402 150.304 64.0576 150.517C64.3927 150.574 64.8653 150.713 65.1133 150.791C65.4966 150.95 65.6012 150.902 65.7041 150.56C65.8017 150.196 69.6149 147.405 70.1807 147.271C70.7043 147.147 70.1526 146.573 67.5869 144.587C60.512 139.138 54.5078 133.436 48.8105 126.8C39.5657 115.971 32.7824 104.834 27.2588 91.3279C24.4003 84.3137 21.4783 73.1283 20.7314 66.364C20.6989 65.9397 20.556 64.6532 20.4336 63.5437C20.3043 62.4142 20.2091 61.2313 20.2754 60.9197C20.3188 60.614 20.2959 60.3238 20.2197 60.2957C20.107 60.2078 20.0457 57.2192 20.0693 53.323C20.0893 50.9743 20.5636 46.1526 21.0801 42.9802C21.8899 38.1248 23.5925 32.4663 25.7803 27.5808C27.0257 24.7608 31.3922 17.88 33.3633 15.5925ZM109.168 138.068C105.881 138.208 100.651 138.696 100.151 138.927C100.027 138.982 100.355 140.862 101.053 143.904L102.161 148.783L102.775 148.753C103.118 148.741 104.039 148.635 104.84 148.514C107.564 148.142 109.012 148.12 112.143 148.403C113.863 148.564 115.423 148.629 115.607 148.538C115.815 148.443 115.94 147.708 115.962 146.338C115.991 145.192 116.221 142.953 116.509 141.339C116.773 139.731 116.941 138.394 116.91 138.353C116.647 138.21 111.136 138.013 109.168 138.068ZM52.0029 12.3621C51.9438 12.3069 50.1456 12.5056 48.0225 12.781C45.8922 13.0344 43.3349 13.3221 42.332 13.3757C39.7197 13.5444 39.6983 13.5491 38.29 14.9041C36.9052 16.2555 36.8877 16.2839 34.5811 19.1042C31.0733 23.3689 28.1479 28.8397 26.1943 34.8083C24.6199 39.5489 23.2642 46.2856 23.0693 50.3367C22.7598 56.5298 22.7918 57.6369 23.3994 65.2742C23.5841 67.7105 25.0893 75.3413 26.0654 78.9773C27.5264 84.274 31.1193 94.004 32.7236 96.9929C32.9563 97.3936 33.3346 98.2138 33.6201 98.8289C34.4116 100.62 37.6346 106.343 39.6602 109.55C47.5452 122.132 57.6506 133.28 69.4287 142.44C73.1603 145.357 73.0865 145.329 74.5752 144.612C75.2378 144.295 75.8527 143.968 75.9629 143.851C76.2405 143.559 77.961 142.651 78.2168 142.66C78.3575 142.672 78.6212 142.518 78.8311 142.333C79.6474 141.593 85.7487 139.035 87.8877 138.529C88.2586 138.441 87.9426 137.196 84.0615 123.621C82.9597 119.74 81.7431 115.478 81.3555 114.135C79.7485 108.508 78.1964 103.121 77.0156 99.0085C76.3092 96.605 75.1126 92.4268 74.3398 89.7429C73.5825 87.0317 72.6771 83.8796 72.3301 82.7087C71.9835 81.5396 70.9805 77.9773 70.1162 74.8142C69.2264 71.6357 68.2855 68.2404 67.9795 67.2429C67.3442 65.1401 64.9453 56.561 63.5273 51.3445C62.9821 49.3355 62.3697 47.2275 62.1885 46.656C62.0022 46.0628 61.4351 44.0572 60.8994 42.1814C60.3845 40.3008 59.716 37.9557 59.4102 36.9587C59.1324 35.9789 58.3235 33.1436 57.6016 30.6746C56.9056 28.2231 56.0868 25.4353 55.7959 24.5017C55.5283 23.5647 54.9492 21.6084 54.5332 20.1365C53.5234 16.6448 52.1641 12.4604 52.0029 12.3621ZM80.8037 14.2673C76.7936 11.3491 69.1053 7.29651 68.5859 7.82983C68.5234 7.8664 67.5549 8.25533 66.458 8.67456C65.3582 9.09461 62.3642 9.98413 59.8086 10.6794L55.168 11.9138L55.9512 15.0271C56.3799 16.7468 57.6896 21.5997 58.8525 25.8308C60.0347 30.0517 61.0257 33.6603 61.0684 33.8396C61.109 34.0114 61.3923 35.0145 61.7344 36.072C62.0505 37.1122 62.9738 40.2375 63.7393 42.9919C66.2688 51.9268 68.9855 61.2737 70.623 66.7341C70.9391 67.7742 71.5106 69.8013 71.9111 71.2078C72.291 72.6193 72.8799 74.6185 73.1992 75.6814C73.5153 76.7213 74.0768 78.7055 74.4619 80.0466C76.0173 85.5481 77.8664 92.0063 78.4297 93.8972C78.7612 95.0026 79.7031 98.3052 80.5166 101.254C82.7146 109.083 85.9203 120.295 87.2666 124.913C87.9271 127.122 88.8304 130.254 89.251 131.838C89.6943 133.416 90.2654 135.352 90.5205 136.135L90.998 137.568L92.7939 137.168C93.7603 136.961 94.8173 136.758 95.1289 136.706C95.4384 136.654 96.7741 136.453 98.1221 136.203C99.4522 135.979 102.11 135.623 104.022 135.421C105.923 135.197 107.49 135.009 107.514 134.981C107.526 134.933 107.814 133.91 108.132 132.718C108.445 131.505 109.047 129.475 109.438 128.201C111.163 122.537 113.121 112.495 113.817 105.504C114.021 103.544 114.249 101.873 114.354 101.827C114.431 101.763 114.449 101.645 114.386 101.569C114.299 101.499 114.302 100.725 114.349 99.8494C114.827 90.5661 114.331 79.8988 113.005 71.9519C109.63 51.7483 101.112 33.7639 89.0889 21.5232C87.1137 19.5105 82.7231 15.656 80.8037 14.2673ZM76.9961 4.13159C74.8382 3.87094 74.7308 3.8965 74.4619 4.323C74.3444 4.51066 73.8419 4.92507 73.3604 5.22046L72.4775 5.77026L75.627 7.39136C78.9277 9.06885 84.1627 12.5848 86.9131 14.9607C97.6678 24.1791 106.467 37.7984 111.534 53.074C111.996 54.535 112.563 56.1523 112.739 56.7029C113.52 58.8383 115.958 69.8218 116.538 73.7351C117.034 77.1001 117.606 82.2422 117.673 84.2742C117.685 84.5218 117.723 85.1716 117.764 85.7322C117.804 86.2908 117.847 87.3502 117.862 88.0984C117.857 88.8515 117.896 90.4796 117.913 91.7263C118.049 98.3393 116.905 110.077 115.575 115.943C115.341 116.999 114.967 118.726 114.754 119.777C114.536 120.807 114.32 121.747 114.248 121.831C114.176 121.918 113.94 122.678 113.753 123.54C113.224 125.782 111.491 131.218 110.728 133.06C110.033 134.704 109.994 135.122 110.495 135.004C111.193 134.838 116.601 135.197 117.19 135.444C117.827 135.704 117.872 135.694 118.918 134.854C121.186 133.043 125.827 127.326 128.888 122.53C129.841 121.009 130.718 119.754 130.808 119.732C130.917 119.706 130.951 119.562 130.915 119.411C130.885 119.282 131.134 118.676 131.479 118.094C132.688 115.987 134.607 111.825 135.691 108.905C139.593 98.3129 141.234 86.5466 140.322 75.3865C139.986 71.2343 139.978 71.3046 138.687 64.9656C136.801 55.9238 134.547 49.9025 129.801 41.2439C124.542 31.6801 115.676 21.9691 106.402 15.6062C100.981 11.8834 94.154 8.55981 87.8584 6.59058C84.7695 5.61472 79.6069 4.44714 76.9961 4.13159ZM10.9316 94.8513C11.1854 94.3611 12.1438 94.2036 12.6641 94.5798C12.9507 94.7846 13.769 96.3219 14.873 98.7927C18.3996 106.564 20.2079 110.008 24.1133 116.368C28.6063 123.659 28.5624 123.558 27.6904 124.263C27.1422 124.689 26.1902 124.504 25.5146 123.844C25.0338 123.366 23.0596 120.508 22.8506 119.989C22.7831 119.8 22.6405 119.562 22.5332 119.472C22.133 119.066 19.6504 115.236 18.4219 113.16C16.7246 110.282 15.4655 107.802 13.7705 104.014C11.3024 98.5206 10.4969 95.8428 10.9316 94.8513ZM6.78223 79.9656C7.07211 79.3825 7.98108 79.096 8.42871 79.4597C8.63671 79.6222 8.92955 80.5854 9.30469 82.3503L9.86816 85.0085L9.35254 85.3416C8.64023 85.8376 7.64552 85.3219 7.21191 84.2058C6.73593 83.0038 6.4811 80.5782 6.78223 79.9656ZM70.0498 3.2019C68.9736 2.843 64.4439 2.891 61.3818 3.29565C58.8988 3.61304 51.7339 5.28596 50.3496 5.86401C49.7204 6.12736 48.1185 6.66454 46.8291 7.0603C45.517 7.46145 43.5569 8.12958 42.4619 8.57007C41.3669 9.01058 39.8927 9.49567 39.1943 9.66089C38.5174 9.82105 37.973 10.0406 37.9922 10.1267C38.089 10.5359 44.6238 10.1953 48.5811 9.57886C55.0549 8.59383 58.0331 7.93465 62.3818 6.54077C66.4131 5.26956 70.6715 3.39628 70.0498 3.2019Z" fill="#E3C327"/>
</svg>
