<svg width="177" height="176" viewBox="0 0 177 176" fill="none" xmlns="http://www.w3.org/2000/svg">
<path d="M102.826 140.955C101.757 137.966 108.648 130.176 114.616 124.167C114.875 123.907 115.288 123.886 115.685 124.114C126.767 130.474 143.531 139.873 150.979 143.582C143.971 137.463 126.724 123.551 115.281 114.487C114.986 114.257 114.768 113.911 114.666 113.545C114.055 111.219 111.114 99.4679 113.078 96.4718C113.219 96.2573 113.647 95.7991 114.597 96.1745C119.949 98.2851 154.001 140.491 155.935 145.897C155.957 145.956 155.993 146.087 156.024 146.207C156.034 146.242 156.041 146.275 156.049 146.313C156.058 146.356 156.066 146.389 156.068 146.415L156.069 146.417C156.081 146.497 156.085 146.577 156.084 146.651C156.085 146.661 156.084 146.669 156.086 146.679C156.085 146.69 156.085 146.7 156.084 146.711C156.085 146.813 156.076 146.914 156.053 147.009L156.053 147.015C156.044 147.053 156.03 147.089 156.011 147.124C155.974 147.232 155.92 147.327 155.853 147.401C155.804 147.454 155.753 147.509 155.662 147.546C155.554 147.602 155.439 147.629 155.313 147.629C152.665 148.634 143.078 148.203 126.717 146.345C104.335 143.798 103.462 142.187 102.992 141.323C102.947 141.239 102.857 141.041 102.826 140.955ZM115.866 126.665C110.81 131.811 105.561 138.083 104.906 140.337C109.804 142.297 139.849 145.672 150.532 145.723C145.539 143.323 135.663 138.019 115.866 126.665ZM114.773 98.6608C114.056 100.817 115.313 107.931 116.58 112.928C128.635 122.479 142.242 133.42 149.904 140.099C140.73 127.684 118.934 101.054 114.773 98.6608Z" fill="#1F1F1F"/>
<path d="M100.381 126.241C100.233 125.821 100.217 125.467 100.241 125.217C100.445 122.973 108.507 116.956 113.297 113.571C113.737 113.258 114.426 113.509 114.836 114.133C115.25 114.756 115.218 115.51 114.776 115.824C109.261 119.725 103.353 124.464 102.486 126.021C103.307 126.903 106.523 128.551 109.728 129.703C110.33 129.921 110.803 130.632 110.779 131.293C110.759 131.955 110.253 132.316 109.652 132.097C107.927 131.475 102.185 129.266 100.705 126.908C100.558 126.671 100.454 126.448 100.381 126.241Z" fill="#1F1F1F"/>
<path d="M91.4155 124.147C91.9788 124.339 92.5828 123.997 92.71 123.416L93.0278 121.965C93.1369 121.467 92.8525 120.966 92.369 120.802C90.9108 120.305 89.4693 119.793 88.0638 119.272C87.5078 119.066 86.8932 119.381 86.7408 119.953L86.3624 121.374C86.2305 121.869 86.4949 122.384 86.9756 122.563C88.4245 123.103 89.9113 123.633 91.4155 124.147ZM75.7487 117.876C76.2818 118.125 76.912 117.858 77.1077 117.303L77.5891 115.94C77.7613 115.453 77.5326 114.915 77.0634 114.696C76.6118 114.486 76.1608 114.273 75.7105 114.057C74.7789 113.611 73.8433 113.146 72.9176 112.671C72.3985 112.404 71.7598 112.629 71.5293 113.165L70.9649 114.477C70.7588 114.956 70.9558 115.513 71.4196 115.752C72.4374 116.278 73.468 116.79 74.4932 117.281C74.9109 117.482 75.3295 117.68 75.7487 117.876ZM60.7908 109.539C61.2715 109.855 61.9183 109.696 62.2017 109.196L62.8946 107.973C63.1555 107.512 63.0112 106.928 62.5684 106.637C61.2632 105.78 59.9725 104.893 58.7137 103.989C58.2516 103.656 57.6047 103.769 57.2875 104.241L56.51 105.399C56.2113 105.843 56.3163 106.444 56.751 106.758C58.0699 107.708 59.4227 108.639 60.7908 109.539ZM47.1161 98.9569C47.5291 99.3329 48.1704 99.2915 48.5361 98.8694L49.4423 97.8236C49.7999 97.4109 49.7595 96.7883 49.3556 96.4206C48.2594 95.4227 47.1867 94.4007 46.1574 93.374C46.0922 93.3089 46.027 93.2437 45.9619 93.1784C45.5733 92.7883 44.9425 92.7786 44.5464 93.161L43.5515 94.1216C43.1531 94.5063 43.1433 95.1416 43.5341 95.534C43.6111 95.6114 43.6883 95.6886 43.7656 95.7658C44.8442 96.8416 45.9681 97.9119 47.1161 98.9569ZM37.8645 85.5555C38.3252 85.2257 38.4194 84.5802 38.0786 84.1279C37.1411 82.8835 36.2447 81.6179 35.4017 80.3483C35.1088 79.9072 34.5249 79.7628 34.0635 80.0231L32.8382 80.7145C32.337 80.9973 32.177 81.6435 32.4956 82.1223C33.3987 83.48 34.359 84.8325 35.3629 86.1608C35.6873 86.5901 36.2954 86.6786 36.7331 86.3653L37.8645 85.5555ZM29.1187 71.3335C29.6736 71.1379 29.94 70.509 29.7041 69.9706C29.1023 68.597 28.5522 67.2077 28.0611 65.8211C27.8907 65.3402 27.3902 65.0567 26.8914 65.1662L25.4386 65.4852C24.8571 65.6129 24.5147 66.2166 24.7145 66.7767C25.2527 68.285 25.856 69.7951 26.516 71.2862C26.7253 71.759 27.2649 71.9867 27.7529 71.8148L29.1187 71.3335ZM24.4047 55.783C25.0068 55.7765 25.4659 55.2444 25.4006 54.6466C25.2509 53.2768 25.167 51.8906 25.1497 50.5054C25.1434 50.0017 24.7727 49.5737 24.2728 49.5069L22.6513 49.2903C22.0546 49.2106 21.5221 49.6715 21.5319 50.2727C21.5572 51.8321 21.6608 53.3932 21.8413 54.9346C21.8998 55.435 22.3306 55.8053 22.835 55.7999L24.4047 55.783ZM59.1239 11.4672C59.7261 11.4851 60.2262 10.9905 60.1904 10.3898L60.0952 8.79357C60.0652 8.29116 59.6658 7.88778 59.1623 7.86711C57.9075 7.81562 56.6556 7.83306 55.4213 7.91902C54.8228 7.9607 54.4148 8.53096 54.5479 9.11519L54.92 10.7485C55.0323 11.2417 55.4958 11.5715 56.0009 11.5343C57.0311 11.4584 58.0757 11.436 59.1239 11.4672ZM25.1032 40.2618C25.6678 40.4507 26.2707 40.1081 26.4125 39.5306C26.7249 38.2588 27.0948 36.9991 27.518 35.7671C27.6862 35.2773 27.4648 34.7358 26.9957 34.5152L25.394 33.7619C24.8625 33.5119 24.2299 33.7706 24.0407 34.326C23.569 35.7105 23.1597 37.1269 22.8184 38.5564C22.6998 39.0527 22.9854 39.5533 23.4698 39.7154L25.1032 40.2618ZM45.6526 14.2837C46.1792 14.0324 46.4041 13.3953 46.1308 12.8803L45.2938 11.3034C45.0493 10.8427 44.4905 10.6457 44.0176 10.8665C42.7011 11.4811 41.4131 12.1897 40.1704 12.9825C39.6911 13.2884 39.5835 13.9362 39.9234 14.3918L41.0147 15.8549C41.3352 16.2846 41.9372 16.3838 42.3895 16.0955C43.4464 15.4217 44.5383 14.8153 45.6526 14.2837ZM30.8384 26.4175C31.3063 26.7455 31.9527 26.6153 32.271 26.1411C32.9765 25.09 33.7291 24.0795 34.5197 23.1213C34.8674 22.7 34.8301 22.0776 34.4234 21.7129L33.0559 20.4865C32.6402 20.1138 31.9985 20.1523 31.6427 20.5824C30.7404 21.673 29.8844 22.826 29.0861 24.0265C28.7907 24.4706 28.911 25.0662 29.3479 25.3725L30.8384 26.4175Z" fill="#1F1F1F"/>
</svg>
