<svg width="332" height="289" viewBox="0 0 332 289" fill="none" xmlns="http://www.w3.org/2000/svg">
<path d="M217.545 159.608C216.539 160.914 215.374 162.139 214.083 163.249L212.009 160.833C213.369 159.663 214.555 158.363 215.552 156.945L218.158 158.775C217.959 159.057 217.755 159.335 217.545 159.608ZM221.786 150.446L218.67 149.78C219.041 148.062 219.18 146.31 219.084 144.572L222.266 144.39C222.377 146.413 222.216 148.45 221.786 150.446ZM206.413 167.913C204.589 168.665 202.669 169.25 200.707 169.649L200.078 166.525C201.842 166.165 203.567 165.641 205.204 164.965L206.413 167.913ZM220.054 135.63L217.156 136.962C216.439 135.393 215.524 133.853 214.439 132.384L217.003 130.486C218.218 132.131 219.245 133.861 220.054 135.63ZM191.797 170.178C189.77 170.005 187.792 169.627 185.916 169.055L186.85 166.005C188.513 166.512 190.271 166.847 192.075 167.001L191.797 170.178ZM253.624 80.8195C252.515 80.9372 251.405 81.0555 250.294 81.1752L249.959 78.0051C251.072 77.8852 252.184 77.7669 253.295 77.649L253.624 80.8195ZM210.821 124.109L208.827 126.601C208.662 126.468 208.496 126.338 208.328 126.208C207.079 125.246 205.741 124.355 204.352 123.559L205.94 120.791C207.453 121.658 208.912 122.63 210.275 123.68C210.459 123.822 210.641 123.965 210.821 124.109ZM241.872 82.1367C239.874 82.382 238.046 82.6237 236.284 82.8741L235.842 79.7175C237.624 79.4641 239.471 79.2204 241.491 78.972L241.872 82.1367ZM179.841 162.42L177.894 164.948L177.832 164.9C176.288 163.711 174.849 162.349 173.555 160.85L175.968 158.762C177.123 160.099 178.405 161.314 179.779 162.372L179.841 162.42ZM227.96 84.2257C226.069 84.576 224.22 84.9534 222.466 85.3462L221.776 82.235C223.568 81.8334 225.456 81.4483 227.386 81.0904L227.96 84.2257ZM196.902 120.35C195.157 119.827 193.381 119.447 191.625 119.221L192.037 116.059C193.965 116.307 195.912 116.723 197.823 117.297L196.902 120.35ZM171.637 152.008L168.747 153.358C167.932 151.604 167.244 149.737 166.704 147.808L169.771 146.941C170.266 148.704 170.894 150.409 171.637 152.008ZM214.345 87.452C212.531 87.9929 210.747 88.5781 209.042 89.1907L207.971 86.1902C209.731 85.5583 211.571 84.9547 213.44 84.3971L214.345 87.452ZM168.455 138.911L165.273 139.096C165.164 137.151 165.189 135.173 165.347 133.215L168.523 133.465C168.377 135.278 168.354 137.11 168.455 138.911ZM183.544 119.252C181.766 119.465 179.953 119.79 178.155 120.219L177.423 117.118C179.339 116.661 181.273 116.314 183.171 116.086L183.544 119.252ZM201.337 92.3869C199.657 93.1879 198 94.0522 196.412 94.9562L194.841 92.1858C196.496 91.2438 198.222 90.3432 199.97 89.5092L201.337 92.3869ZM170.002 125.435L166.945 124.543C166.984 124.409 167.024 124.276 167.064 124.142C166.457 124.424 165.849 124.717 165.24 125.02L163.825 122.167C165.413 121.375 167.005 120.65 168.566 120.007C168.595 119.937 168.625 119.869 168.654 119.8C168.767 119.54 168.882 119.281 168.999 119.023L171.901 120.333C171.792 120.575 171.684 120.818 171.579 121.061C170.972 122.465 170.441 123.937 170.002 125.435ZM189.433 99.4775C187.929 100.584 186.478 101.749 185.118 102.942L183.02 100.546C184.448 99.2934 185.972 98.0704 187.548 96.9104L189.433 99.4775ZM175.946 113.179L173.319 111.38C173.873 110.573 174.459 109.767 175.062 108.984C175.066 108.979 175.07 108.974 175.074 108.969C175.648 108.223 176.255 107.475 176.877 106.748L179.296 108.818C178.71 109.504 178.138 110.209 177.596 110.912C177.592 110.917 177.589 110.921 177.585 110.926C177.017 111.662 176.466 112.421 175.946 113.179ZM157.956 129.114C156.447 130.052 154.872 131.086 153.275 132.186L151.471 129.562C153.11 128.433 154.727 127.372 156.278 126.407L157.956 129.114ZM146.462 137.153C145.074 138.215 143.62 139.352 142.019 140.628L140.037 138.136C141.655 136.846 143.125 135.696 144.531 134.622L146.462 137.153ZM135.421 145.973C133.746 147.34 132.336 148.476 130.986 149.548L129.009 147.051C130.348 145.989 131.747 144.862 133.411 143.504L135.421 145.973ZM124.181 154.76C122.58 155.936 121.006 157.049 119.501 158.069L117.717 155.431C119.189 154.433 120.731 153.343 122.301 152.191L124.181 154.76ZM112.191 162.65C110.47 163.633 108.753 164.542 107.088 165.351L105.701 162.484C107.302 161.706 108.955 160.83 110.615 159.882L112.191 162.65ZM99.0478 168.669C97.1703 169.301 95.2824 169.832 93.4364 170.246L92.7462 167.134C94.4843 166.745 96.2644 166.244 98.0374 165.647L99.0478 168.669ZM84.7433 171.404C84.3173 171.421 83.8906 171.433 83.4623 171.438C81.9321 171.458 80.366 171.357 78.807 171.138L79.2565 167.981C80.6561 168.177 82.0595 168.268 83.4286 168.25C83.8271 168.245 84.2239 168.235 84.62 168.218L84.7433 171.404ZM35.931 225.283L33.2444 223.575L36.2893 218.788L38.9763 220.496L35.931 225.283ZM43.5437 213.317L40.857 211.609L43.9019 206.823L46.589 208.53L43.5437 213.317ZM51.1561 201.351L48.4694 199.643L51.5143 194.857L54.2014 196.565L51.1561 201.351ZM58.7689 189.387L56.0822 187.678L59.127 182.892L61.8142 184.6L58.7689 189.387ZM66.3818 177.421L63.6949 175.713L66.74 170.926L69.4271 172.634L66.3818 177.421ZM73.9946 165.455L71.3077 163.747L74.3526 158.961L77.0397 160.668L73.9946 165.455ZM70.2528 168.753C68.4529 167.995 66.6887 167.08 65.0089 166.035L66.6961 163.327C68.234 164.284 69.8478 165.12 71.4939 165.814L70.2528 168.753ZM81.6068 153.489L78.9202 151.781L81.965 146.995L84.6521 148.703L81.6068 153.489ZM88.8102 140.721L85.7033 140.019C86.0632 138.439 85.962 136.869 85.4035 135.354L88.3938 134.245C89.1691 136.349 89.3097 138.528 88.8102 140.721ZM60.3748 158.271L58.0987 160.507C56.6901 159.072 55.4201 157.534 54.3234 155.935L56.9515 154.127C57.9441 155.573 59.0956 156.968 60.3748 158.271ZM80.671 129.63C79.2991 128.654 77.7383 127.824 76.0318 127.164L77.1863 124.19C79.1391 124.945 80.9338 125.901 82.521 127.029L80.671 129.63ZM53.483 146.962L50.4265 147.871C49.8422 145.891 49.5133 143.882 49.4484 141.899L52.6329 141.788C52.6893 143.5 52.975 145.241 53.483 146.962ZM68.2703 125.576C66.4446 125.522 64.7008 125.701 63.0871 126.106L62.3163 123.015C64.2154 122.537 66.2528 122.326 68.3715 122.39L68.2703 125.576ZM53.9683 134.109L51.0032 132.947C51.143 132.591 51.2932 132.235 51.449 131.89C52.1674 130.295 53.1208 128.852 54.2596 127.632L56.5866 129.805C55.6849 130.772 54.9287 131.918 54.3535 133.195C54.2188 133.494 54.0891 133.801 53.9683 134.109Z" fill="#1F1F1F"/>
<path d="M282.301 94.7981C279.231 93.5426 277.822 82.6273 277.18 73.6924C277.153 73.3057 277.418 72.965 277.867 72.8114C290.402 68.5287 309.19 61.8941 317.172 58.6185C307.602 59.8531 284.948 63.6982 270.047 66.3659C269.667 66.4381 269.246 66.3668 268.89 66.19C266.652 65.0381 255.439 59.1042 254.43 55.4477C254.358 55.1859 254.29 54.526 255.232 54.0396C260.532 51.2963 316.809 54.0598 322.363 56.3308C322.424 56.3558 322.551 56.4187 322.667 56.4794C322.701 56.4957 322.732 56.5128 322.767 56.5338C322.807 56.5568 322.838 56.5739 322.86 56.5896L322.862 56.5907C322.932 56.6372 322.998 56.6909 323.055 56.7432C323.064 56.7492 323.07 56.7558 323.079 56.7618C323.087 56.7695 323.095 56.7773 323.103 56.785C323.183 56.856 323.256 56.9348 323.315 57.0195L323.319 57.0233C323.343 57.0575 323.362 57.0943 323.376 57.1335C323.436 57.2385 323.474 57.3479 323.486 57.4533C323.494 57.5282 323.503 57.6077 323.469 57.7054C323.44 57.8301 323.382 57.9405 323.297 58.0394C322.28 60.8363 315.409 68.1052 302.805 79.7185C285.557 95.6044 283.699 95.1619 282.703 94.9265C282.606 94.9026 282.39 94.8345 282.301 94.7981ZM279.989 74.461C280.576 82.069 281.915 90.6209 283.234 92.7221C288.108 90.2309 311.226 68.8768 318.545 60.4756C313.262 62.7323 302.377 66.8049 279.989 74.461ZM257.3 55.6472C258.501 57.729 264.932 61.7344 269.712 64.2449C285.41 61.4363 303.255 58.3774 313.71 57.0199C297.73 55.5422 262.011 54.0432 257.3 55.6472Z" fill="#1F1F1F"/>
<path d="M269.105 86.3907C268.675 86.2129 268.387 85.9759 268.207 85.7815C266.588 84.0433 267.367 73.4494 267.978 67.2894C268.033 66.7215 268.699 66.3544 269.467 66.4687C270.238 66.5793 270.807 67.1341 270.751 67.7038C270.051 74.8 269.738 82.7945 270.368 84.5734C271.618 84.5455 275.101 83.1631 278.187 81.4423C278.769 81.1195 279.648 81.2457 280.149 81.7291C280.654 82.2099 280.592 82.8631 280.012 83.1841C278.348 84.109 272.705 87.091 269.849 86.6035C269.563 86.5531 269.317 86.4785 269.105 86.3907Z" fill="#1F1F1F"/>
</svg>
