<svg width="32" height="64" viewBox="0 0 32 64" fill="none" xmlns="http://www.w3.org/2000/svg">
<path fill-rule="evenodd" clip-rule="evenodd" d="M21.2493 0.685764C20.3396 0.0630509 19.3307 0.296639 18.8127 1.24992C18.583 1.67855 18.5483 1.87487 18.6318 2.24212C18.8271 3.10045 19.6059 3.69445 20.4741 3.63491C20.8731 3.60158 21.059 3.52288 21.4185 3.21683C21.9589 2.76305 22.0602 2.41095 21.8801 1.6193C21.7609 1.09541 21.6915 0.993366 21.2493 0.685764Z" fill="#80C11E"/>
<path fill-rule="evenodd" clip-rule="evenodd" d="M27.7826 8.45355C27.6367 8.10362 26.7211 7.34165 26.2523 7.18062C25.9516 7.07415 25.6955 7.07145 25.286 7.16627C24.8026 7.27819 24.687 7.35709 24.4108 7.70044C23.6156 8.73456 23.8849 10.1125 25.0255 10.791C25.6529 11.1642 26.2205 11.1774 26.7814 10.8192C27.4097 10.415 27.6372 10.1026 27.7931 9.42411C27.8706 9.08544 27.9237 8.78291 27.9146 8.74272C27.8982 8.71699 27.8348 8.58607 27.7826 8.45355ZM26.4587 9.98293C26.1148 10.1767 25.4603 9.63364 25.4469 9.13993C25.4389 8.71676 25.6153 8.61395 26.0356 8.80686C26.3817 8.96482 26.4317 9.03686 26.4914 9.44707C26.5394 9.70452 26.5248 9.93614 26.4587 9.98293Z" fill="#80C11E"/>
<path fill-rule="evenodd" clip-rule="evenodd" d="M30.4429 18.556C30.2244 18.1737 29.6189 17.6373 29.0973 17.3634C28.1658 16.8721 27.0497 17.2294 26.3878 18.2108C25.939 18.8695 25.8894 19.1543 26.07 19.9486C26.2523 20.7497 26.4504 21.0458 27.1243 21.4828C27.6543 21.8311 28.0909 21.9125 28.6988 21.7718C29.6336 21.5554 30.4992 20.8911 30.4088 20.4561C30.394 20.391 30.4396 20.2665 30.5091 20.1746C30.7352 19.8785 30.6943 19.0143 30.4429 18.556ZM29.5753 20.6181C29.394 20.7589 29.1391 20.8633 28.8213 20.9449C28.3931 21.044 28.3097 21.0402 28.0399 20.8978C27.6286 20.6742 27.2276 20.1741 27.1323 19.7553C26.9993 19.1708 27.2441 18.6964 27.8232 18.395C28.0675 18.2778 28.1548 18.2648 28.3488 18.3267C28.8802 18.5001 29.4226 19.0808 29.6619 19.7395C29.7586 20.0209 29.8522 20.2885 29.8529 20.3258C29.8554 20.3707 29.728 20.499 29.5753 20.6181Z" fill="#80C11E"/>
<path fill-rule="evenodd" clip-rule="evenodd" d="M28.754 29.4508C28.3669 28.8586 28.2782 28.7771 27.6795 28.4365C26.892 27.9905 26.2626 27.8926 25.4182 28.0707C24.9635 28.1669 24.7984 28.2442 24.3622 28.5718C23.681 29.0805 23.0539 29.9761 22.8271 30.7641C22.6745 31.3084 22.6699 31.4031 22.8149 32.0352C22.9686 32.7047 22.9832 32.7326 23.5293 33.3358C24.4465 34.3468 25.2791 34.688 26.5381 34.5797C27.8912 34.4648 29.0206 33.7201 29.3879 32.7117C29.5645 32.2325 29.5508 31.5703 29.364 31.3232C29.2539 31.1842 29.2369 31.1101 29.2958 31.0259C29.435 30.8289 29.1865 30.1262 28.754 29.4508ZM28.6459 31.9259C28.559 32.4157 28.3552 32.7368 27.8825 33.0958C27.602 33.3089 27.4507 33.3674 26.8752 33.4683C26.0428 33.6199 25.5136 33.5064 24.9905 33.0786C24.5717 32.7286 24.1033 32.1231 24.0333 31.8574C23.877 31.2123 24.2413 30.3452 24.9333 29.6934C25.376 29.2789 25.9067 29.1333 26.4687 29.2786C27.048 29.42 27.7311 30.0929 28.2597 31.0362C28.3586 31.2016 28.4946 31.3421 28.5655 31.3496C28.7262 31.3678 28.7346 31.4045 28.6459 31.9259Z" fill="#80C11E"/>
<path fill-rule="evenodd" clip-rule="evenodd" d="M23.1086 41.1635C22.5305 40.2713 22.3981 40.1485 21.5041 39.6353C20.328 38.9634 19.3881 38.8158 18.127 39.0843C17.4479 39.2292 17.2014 39.3456 16.55 39.8392C15.5326 40.6057 14.5961 41.9549 14.2575 43.1422C14.0295 43.9622 14.0227 44.105 14.2393 45.0573C14.4688 46.066 14.4906 46.108 15.3061 47.0169C16.6758 48.54 17.9193 49.0541 19.7995 48.891C21.8201 48.7177 23.5068 47.5958 24.0553 46.0765C24.3191 45.3546 24.2987 44.3568 24.0197 43.9846C23.8552 43.7751 23.8298 43.6634 23.9178 43.5366C24.1257 43.2398 23.7545 42.181 23.1086 41.1635ZM22.9472 44.8926C22.8175 45.6306 22.513 46.1144 21.8072 46.6553C21.3883 46.9763 21.1624 47.0644 20.3028 47.2164C19.0598 47.4448 18.2695 47.2739 17.4882 46.6292C16.8628 46.102 16.1634 45.1898 16.0588 44.7895C15.8254 43.8175 16.3694 42.511 17.4029 41.5291C18.0639 40.9045 18.8565 40.6851 19.6958 40.9041C20.5609 41.1171 21.5811 42.1309 22.3705 43.5521C22.5182 43.8013 22.7213 44.013 22.8272 44.0244C23.0671 44.0517 23.0797 44.107 22.9472 44.8926Z" fill="#80C11E"/>
<path fill-rule="evenodd" clip-rule="evenodd" d="M11.9596 52.4631C11.2659 51.3925 11.107 51.2452 10.0342 50.6293C8.62288 49.823 7.49497 49.646 5.98176 49.9681C5.16682 50.142 4.87099 50.2817 4.08925 50.874C2.86842 51.7938 1.74467 53.4129 1.33825 54.8376C1.06475 55.8217 1.0565 55.9929 1.31646 57.1357C1.59182 58.3462 1.618 58.3966 2.59663 59.4872C4.24029 61.315 5.73246 61.9319 7.98871 61.7361C10.4134 61.5282 12.4375 60.1819 13.0956 58.3588C13.4122 57.4925 13.3877 56.2952 13.0529 55.8485C12.8555 55.5972 12.825 55.4631 12.9306 55.3109C13.1802 54.9548 12.7347 53.6842 11.9596 52.4631ZM11.766 56.9382C11.6103 57.8237 11.2449 58.4042 10.3979 59.0533C9.89521 59.4385 9.62412 59.5443 8.59269 59.7267C7.10102 60.0008 6.15265 59.7956 5.21516 59.0221C4.46468 58.3894 3.62536 57.2947 3.49985 56.8143C3.21977 55.648 3.87255 54.0802 5.11279 52.9019C5.90599 52.1524 6.85706 51.8891 7.8643 52.1519C8.90238 52.4075 10.1266 53.6241 11.0739 55.3295C11.2511 55.6286 11.4948 55.8826 11.6219 55.8962C11.9098 55.929 11.9249 55.9954 11.766 56.9382Z" fill="#80C11E"/>
</svg>
