<svg width="34" height="34" viewBox="0 0 34 34" fill="none" xmlns="http://www.w3.org/2000/svg">
<path d="M24.9068 3.66366C24.4127 4.09193 24.0357 4.6393 23.8113 5.25391C23.5869 5.86852 23.5226 6.53001 23.6246 7.1757C23.6493 7.36458 23.5986 7.53962 23.4601 7.67687L23.4349 7.70206C23.3828 7.75552 23.3206 7.79801 23.2519 7.82702C23.1833 7.85603 23.1095 7.87098 23.0351 7.87098C22.9606 7.87098 22.8869 7.85603 22.8184 7.82702C22.7499 7.79801 22.6879 7.75552 22.636 7.70206L15.3469 0.377036C15.2295 0.257601 15.0896 0.162772 14.9353 0.09805C14.7809 0.0333277 14.6152 0 14.4478 0C14.2803 0 14.1145 0.0333277 13.9598 0.09805C13.8052 0.162772 13.6648 0.257601 13.5469 0.377036L9.62837 4.3021C9.46759 4.46268 9.33989 4.65338 9.25257 4.86329C9.16525 5.0732 9.12002 5.29822 9.11947 5.52546C9.11893 5.7527 9.16307 5.97771 9.24938 6.18762C9.33569 6.39754 9.46247 6.58823 9.62247 6.74881L9.66009 6.774C9.99591 7.11399 10.4703 7.30162 10.9577 7.27643C11.539 7.24868 12.1186 7.35401 12.6525 7.58441C13.1865 7.81482 13.6608 8.16425 14.0395 8.6062C14.64 9.30766 14.969 10.2024 14.9667 11.1278C14.9645 12.0533 14.6312 12.948 14.0273 13.6495C13.6816 14.05 13.2575 14.375 12.7814 14.6044C12.3053 14.8337 11.7874 14.9625 11.26 14.9826C10.7327 15.0026 10.2071 14.9136 9.71599 14.7211C9.22492 14.5286 8.7789 14.2367 8.40572 13.8635C8.02505 13.4726 7.73019 13.0062 7.54 12.494C7.34981 11.9818 7.26849 11.4352 7.30123 10.8892C7.3401 10.3994 7.15286 9.91077 6.80448 9.57204C6.64526 9.41091 6.45575 9.28303 6.24684 9.19577C6.03794 9.1085 5.81378 9.06358 5.58727 9.06358C5.36076 9.06358 5.13639 9.1085 4.92706 9.19577C4.71774 9.28303 4.5276 9.41091 4.36761 9.57204L0.425191 13.5235C0.305843 13.6418 0.210993 13.7825 0.14612 13.9376C0.0812477 14.0927 0.0476378 14.259 0.0472326 14.4271C0.0468273 14.5951 0.0796347 14.7614 0.143759 14.9165C0.207884 15.0716 0.302055 15.2123 0.420832 15.3306L7.73626 22.6946C7.78954 22.7469 7.83182 22.8094 7.86062 22.8784C7.88943 22.9474 7.90417 23.0215 7.90399 23.0963C7.90381 23.1712 7.88871 23.2453 7.85957 23.3142C7.83044 23.3832 7.78785 23.4457 7.73432 23.498C7.67037 23.5635 7.59094 23.6117 7.50345 23.6382C7.41595 23.6646 7.32326 23.6684 7.23403 23.6491C6.58732 23.5382 5.92265 23.5953 5.30337 23.8148C4.68409 24.0344 4.13083 24.4091 3.6963 24.9033C3.08856 25.6047 2.75176 26.501 2.74722 27.4289C2.74267 28.3569 3.07069 29.2548 3.67154 29.9592C4.01518 30.3605 4.43806 30.6861 4.91361 30.9154C5.38917 31.1447 5.90712 31.2728 6.43495 31.2918C6.96277 31.3107 7.48907 31.22 7.98076 31.0253C8.47246 30.8307 8.91894 30.5363 9.29217 30.1607C9.72086 29.7306 10.0423 29.2053 10.2304 28.6275C10.4184 28.0498 10.4677 27.436 10.3742 26.8363C10.3597 26.7453 10.3671 26.6522 10.3957 26.5646C10.4243 26.477 10.4733 26.3975 10.5387 26.3326L10.5639 26.3074C10.6159 26.2539 10.6782 26.2114 10.7468 26.1824C10.8155 26.1534 10.8892 26.1385 10.9637 26.1385C11.0382 26.1385 11.1118 26.1534 11.1804 26.1824C11.2489 26.2114 11.3109 26.2539 11.3627 26.3074L18.628 33.6236C18.7454 33.7428 18.8852 33.8375 19.0394 33.9021C19.1937 33.9667 19.3592 34 19.5265 34C19.6938 34 19.8595 33.9667 20.014 33.9021C20.1686 33.8375 20.3089 33.7428 20.4268 33.6236L24.3453 29.6948C24.5059 29.5342 24.6334 29.3436 24.7206 29.1338C24.8078 28.924 24.853 28.6991 24.8536 28.472C24.8541 28.2449 24.81 28.0201 24.7238 27.8103C24.6376 27.6005 24.511 27.4099 24.3512 27.2493L24.3261 27.2241C24.1569 27.0543 23.9541 26.9219 23.7306 26.8354C23.5072 26.7488 23.268 26.7101 23.0285 26.7217C22.4473 26.7494 21.8677 26.6441 21.3337 26.4137C20.7997 26.1833 20.3254 25.8339 19.9467 25.3919C19.3463 24.6905 19.0173 23.7957 19.0195 22.8703C19.0217 21.9448 19.355 21.0501 19.9589 20.3486C20.3046 19.9481 20.7287 19.6231 21.2048 19.3937C21.6809 19.1644 22.1988 19.0356 22.7262 19.0156C23.2536 18.9955 23.7792 19.0845 24.2702 19.277C24.7613 19.4695 25.2073 19.7614 25.5805 20.1346C26.39 20.9506 26.763 22.0297 26.685 23.0963C26.6587 23.5862 26.8334 24.0622 27.1818 24.4135C27.341 24.5746 27.5305 24.7025 27.7394 24.7898C27.9483 24.877 28.1725 24.9219 28.399 24.9219C28.6255 24.9219 28.8499 24.877 29.0592 24.7898C29.2685 24.7025 29.4587 24.5746 29.6186 24.4135L33.5749 20.4494C33.6943 20.3311 33.7891 20.1904 33.854 20.0353C33.9189 19.8803 33.9525 19.7139 33.9529 19.5459C33.9533 19.3779 33.9205 19.2115 33.8563 19.0564C33.7922 18.9014 33.698 18.7606 33.5793 18.6424L26.2764 11.2909C26.2231 11.2386 26.1808 11.1761 26.152 11.1071C26.1232 11.0381 26.1085 10.9641 26.1086 10.8892C26.1088 10.8144 26.1239 10.7403 26.1531 10.6713C26.1822 10.6023 26.2248 10.5398 26.2783 10.4875C26.4168 10.349 26.6041 10.2986 26.7786 10.3364C27.3826 10.4414 28.0032 10.3994 28.5884 10.214C29.1735 10.0287 29.7061 9.70528 30.1413 9.27108C30.5157 8.89563 30.8091 8.447 31.0031 7.95321C31.1971 7.45943 31.2875 6.93109 31.2687 6.40121C31.25 5.87132 31.1224 5.35127 30.894 4.87354C30.6657 4.3958 30.3413 3.97065 29.9414 3.62463C28.496 2.42079 26.3355 2.42079 24.908 3.6624" fill="#BEE288"/>
</svg>
