<svg width="63" height="56" viewBox="0 0 63 56" fill="none" xmlns="http://www.w3.org/2000/svg">
<path fill-rule="evenodd" clip-rule="evenodd" d="M19.7402 53.2146C23.7141 50.3086 30.5888 44.9322 37.0898 39.6751C38.0515 38.8823 39.7669 37.5187 40.9036 36.6101C44.7746 33.4893 48.065 30.7063 48.7741 29.9178C49.8653 28.6766 49.6478 27.1523 48.329 26.9613C47.7042 26.8505 47.438 27.0076 45.7114 28.4667C43.5434 30.3172 39.1168 33.8284 32.163 39.215C29.5443 41.2558 19.8076 49.4157 16.8295 52.0755C15.4846 53.2623 14.7407 54.3914 14.9605 54.8506C15.0065 54.9465 15.2961 55.1327 15.5947 55.2244C16.2532 55.4681 17.4342 54.8955 19.7402 53.2146Z" fill="#80C11E"/>
<path fill-rule="evenodd" clip-rule="evenodd" d="M9.05819 40.9133C9.63244 39.8771 14.0426 30.5246 14.7583 28.8166C15.1373 27.8954 16.1634 25.5191 17.035 23.4938C18.8923 19.2673 19.0388 18.6323 18.2578 17.9834C17.5166 17.3676 16.9333 17.4668 16.25 18.308C15.6996 18.9857 11.4908 27.9217 10.2394 31.073C9.90946 31.9338 9.34455 33.2485 9.00438 33.9965C7.29871 37.6641 5.53414 42.3133 5.6335 42.7709C5.77436 43.2989 6.3963 43.646 6.93815 43.4766C7.28347 43.3884 8.48232 41.9123 9.05819 40.9133Z" fill="#80C11E"/>
<path fill-rule="evenodd" clip-rule="evenodd" d="M16.1168 45.2412C21.4752 39.8816 30.7261 30.2244 39.4647 20.9011C40.7566 19.5052 43.0637 17.0711 44.5922 15.4528C49.7962 9.91174 54.2124 5.05802 55.1539 3.80365C56.6011 1.84269 56.216 0.27782 54.3747 0.781072C53.5012 0.996964 53.1402 1.31459 50.8227 3.86018C47.9139 7.07666 41.96 13.3494 32.5998 23.0608C29.0756 26.7315 16.0032 41.0111 12.0137 45.5597C10.2114 47.598 9.2402 49.2472 9.57041 49.6351C9.6394 49.7161 10.0516 49.7648 10.4711 49.7043C11.3987 49.6168 13.007 48.3453 16.1168 45.2412Z" fill="#80C11E"/>
</svg>
