<svg width="106" height="104" viewBox="0 0 106 104" fill="none" xmlns="http://www.w3.org/2000/svg">
<path d="M67.5996 41.1577C71.1959 35.5285 74.8925 34.972 77.333 39.7495C78.1573 41.3884 81.5249 52.544 83.041 58.729L83.3047 59.8755H85.6133C86.8666 59.8755 90.266 59.7765 93.1699 59.646C98.2513 59.4161 103.728 59.81 104.853 60.4966C105.842 61.118 105.908 62.3611 105.084 64.1626C104.623 65.1726 103.857 65.9739 103.849 65.9829L103.437 66.3872C103.403 66.4223 97.119 73.0732 91.9854 76.5962C91.7505 76.7567 91.5315 76.9047 91.3291 77.0415C90.0455 77.9092 89.3982 78.347 89.1709 78.9419C88.9404 79.5462 89.1423 80.314 89.5498 81.8599L89.5537 81.8716C89.6219 82.1302 89.6949 82.4114 89.7734 82.7163C90.3029 84.7108 91.1591 87.7249 91.6885 89.3589C93.0729 93.4809 93.4357 95.8391 92.875 97.147C91.6876 99.896 89.178 100.222 84.8896 98.1938C82.2832 96.9822 75.3543 93.1861 72.5156 91.3872L70.9648 90.4399L66.6416 92.9282C64.2325 94.3014 60.7673 96.364 58.9189 97.5073C50.1759 102.972 47.2709 104.084 45.6543 102.581C43.9722 101.009 44.5986 97.9666 48.8213 86.8081C50.2391 83.0152 51.4255 79.7456 51.4277 79.5103C51.4277 79.2804 49.843 78.1025 47.8633 76.8599C43.8076 74.3069 40.3434 71.6915 39.8779 70.8394C39.2577 69.6588 39.4896 68.0557 40.4795 67.1392C41.5352 66.1234 42.5598 65.8966 51.6973 64.3589C54.8635 63.803 57.5358 63.2464 57.6689 63.1157C57.8007 62.9505 58.3954 61.5122 58.9873 59.8755C61.4276 53.33 65.4535 44.529 67.5996 41.1577ZM73.334 39.519C73.233 39.5338 72.869 39.6311 72.2559 40.1606C71.6496 40.6843 70.9243 41.5264 70.1279 42.7729L70.127 42.772C68.1507 45.8784 64.2154 54.4416 61.7988 60.9233L61.7979 60.9224C61.4926 61.7652 61.1865 62.5635 60.9326 63.1841C60.8054 63.4951 60.6829 63.7808 60.5771 64.0132C60.5253 64.1272 60.4672 64.2523 60.4062 64.3706C60.3833 64.4152 60.2384 64.7064 60.0127 64.9888L59.9043 65.1235L59.7812 65.2456C59.4759 65.5484 59.1756 65.7138 59.0811 65.7651C58.9463 65.8383 58.8298 65.8892 58.7588 65.9185C58.6155 65.9776 58.4849 66.0202 58.4014 66.0464C58.2251 66.1016 58.0303 66.1528 57.8496 66.1978C57.4765 66.2905 56.9876 66.3987 56.4326 66.5142C55.3141 66.7469 53.8224 67.0311 52.2168 67.313L52.1953 67.3169C47.5717 68.095 45.1682 68.5153 43.7734 68.8579C43.0924 69.0252 42.8136 69.1373 42.7031 69.1909C42.6601 69.2118 42.6516 69.2127 42.5596 69.3013L42.5508 69.3081C42.5476 69.3169 42.5433 69.3304 42.54 69.3481C42.5934 69.3993 42.6613 69.465 42.748 69.5425C43.1172 69.8721 43.6502 70.3038 44.3291 70.8159C45.6802 71.835 47.4879 73.0792 49.457 74.3188H49.458C50.4953 74.9699 51.4551 75.6197 52.1777 76.1567C52.5307 76.419 52.8777 76.6918 53.1602 76.9468C53.2934 77.0671 53.4817 77.2464 53.6602 77.4604C53.7474 77.5651 53.891 77.7466 54.0264 77.9878C54.1252 78.164 54.4277 78.7266 54.4277 79.5103C54.4277 79.7807 54.3912 79.9947 54.3799 80.0591C54.363 80.1553 54.3441 80.2375 54.3311 80.2915C54.3048 80.4005 54.2752 80.5049 54.251 80.5864C54.201 80.7551 54.1361 80.9556 54.0654 81.1665C53.9218 81.5952 53.7198 82.1687 53.4805 82.8354C52.9999 84.1743 52.3432 85.955 51.6318 87.8579L51.6279 87.8696C49.5006 93.4911 48.3824 96.8117 47.9648 98.8823C47.8522 99.4409 47.809 99.8342 47.7959 100.102C47.9841 100.052 48.2297 99.9745 48.542 99.855C50.038 99.2826 52.2749 98.0717 55.7578 95.936L57.3291 94.9634L57.3408 94.9565C59.2176 93.7957 62.7054 91.7182 65.1445 90.3276L69.4678 87.8394L71.0098 86.9517L72.5283 87.8794L74.0791 88.8276L74.1006 88.8403L74.1211 88.853C76.8578 90.5874 83.6735 94.3199 86.1543 95.4731L86.1631 95.478L86.1729 95.4819C88.169 96.4261 89.2195 96.5449 89.6562 96.4878C89.7414 96.4766 89.7836 96.4611 89.7969 96.4556C89.8082 96.4508 89.8149 96.4464 89.8252 96.438C89.8432 96.4232 89.9587 96.3196 90.1074 95.9839C90.1158 95.9316 90.1736 95.5972 90.0459 94.7612C89.8906 93.7453 89.5158 92.3149 88.8438 90.314L88.834 90.2827L88.6133 89.5835C88.0684 87.8232 87.3422 85.2497 86.874 83.4858L86.8711 83.4751L86.8691 83.4644L86.6523 82.6372L86.6494 82.6245C86.4619 81.9134 86.2602 81.1616 86.1582 80.5151C86.0575 79.8763 85.9912 79.0008 86.3018 78.0601L86.3691 77.8706C86.7484 76.8782 87.4139 76.2216 87.9336 75.7886C88.1803 75.583 88.4616 75.3744 88.7549 75.1675L89.6494 74.5562C89.8524 74.419 90.0651 74.2743 90.293 74.1187C92.6627 72.4916 95.3834 70.0754 97.5732 67.9927C98.6545 66.9643 99.5804 66.0429 100.234 65.3794C100.561 65.0481 100.819 64.7819 100.994 64.6001C101.082 64.5093 101.148 64.4393 101.192 64.3931C101.214 64.3702 101.231 64.3533 101.241 64.3423C101.246 64.3369 101.251 64.333 101.253 64.3306L101.255 64.3276L101.294 64.2866L101.335 64.2466L101.689 63.897C101.696 63.8893 101.706 63.8801 101.716 63.8687C101.76 63.8179 101.83 63.7354 101.91 63.6304C102.078 63.4105 102.24 63.1601 102.346 62.9341C101.782 62.8525 101.083 62.7778 100.277 62.7192C98.2552 62.5724 95.7337 62.5323 93.3057 62.6421H93.3047C90.3914 62.773 86.9367 62.8755 85.6133 62.8755H80.915L80.3809 60.5464L80.1172 59.3999C79.3755 56.3802 78.177 52.1222 77.0557 48.3989C76.4935 46.5322 75.9564 44.8189 75.5127 43.481C75.2906 42.8112 75.0955 42.2491 74.9365 41.8159C74.8571 41.5996 74.7909 41.4255 74.7373 41.2935L74.6533 41.0981C74.1815 40.1789 73.7719 39.7655 73.5469 39.605C73.3867 39.4909 73.3545 39.5159 73.334 39.519ZM7.7041 26.2759C8.32883 26.165 8.59498 26.3219 10.3213 27.7808C12.4892 29.6312 16.9163 33.1423 23.8701 38.5288C26.4888 40.5696 36.225 48.7304 39.2031 51.3901C40.5479 52.5768 41.2919 53.7053 41.0723 54.1646C41.0263 54.2605 40.737 54.4469 40.4385 54.5386C39.7799 54.7823 38.5989 54.2096 36.293 52.5288C32.3192 49.6228 25.4442 44.2468 18.9434 38.9897C17.9817 38.197 16.2665 36.8328 15.1299 35.9243C11.2588 32.8035 7.96789 30.0204 7.25879 29.2319C6.16765 27.9908 6.38528 26.4669 7.7041 26.2759ZM0.881836 3.11768C-0.565426 1.15672 -0.180229 -0.408027 1.66113 0.0952148C2.53457 0.311106 2.89542 0.628733 5.21289 3.17432C8.12173 6.39081 14.0764 12.6633 23.4365 22.3745C26.9611 26.0456 40.0331 40.325 44.0225 44.8735C45.8245 46.9115 46.7957 48.5606 46.4658 48.9487C46.3968 49.0298 45.984 49.0785 45.5645 49.0181C44.6368 48.9302 43.0283 47.6589 39.9189 44.5552C34.5605 39.1956 25.3099 29.5376 16.5713 20.2144C15.2793 18.8184 12.9717 16.3844 11.4434 14.7661C6.23962 9.22536 1.82338 4.37214 0.881836 3.11768ZM37.7764 17.2974C38.5174 16.6818 39.101 16.7814 39.7842 17.6226C40.3355 18.3024 44.5437 27.2363 45.7949 30.3872C46.1249 31.248 46.6891 32.5631 47.0293 33.311C48.7349 36.9785 50.4997 41.6278 50.4004 42.0854C50.2593 42.6133 49.6374 42.96 49.0957 42.7905C48.7502 42.702 47.5514 41.2259 46.9756 40.2271C46.4005 39.1889 41.991 29.8382 41.2754 28.1304C40.8962 27.2089 39.8704 24.8331 38.999 22.8081C37.1417 18.5816 36.9953 17.9463 37.7764 17.2974Z" fill="#C6C0C0"/>
</svg>
