<svg width="106" height="104" viewBox="0 0 106 104" fill="none" xmlns="http://www.w3.org/2000/svg">
<path d="M28.3193 39.7495C30.7598 34.972 34.4564 35.5286 38.0527 41.1577C40.1988 44.5288 44.2247 53.3298 46.665 59.8755C47.2568 61.5118 47.8514 62.9498 47.9834 63.1157C48.115 63.2462 50.788 63.8028 53.9551 64.3589C63.092 65.8965 64.1172 66.1236 65.1729 67.1392C66.1628 68.0556 66.3947 69.6588 65.7744 70.8394C65.3093 71.6913 61.845 74.3068 57.7891 76.8599C55.8093 78.1025 54.2246 79.2804 54.2246 79.5103C54.2255 79.7423 55.4124 83.0131 56.8311 86.8081C61.0538 97.9668 61.68 101.008 59.998 102.581C58.3814 104.084 55.4764 102.972 46.7334 97.5073C44.8849 96.364 41.4197 94.3013 39.0107 92.9282L34.6875 90.4399L33.1367 91.3872C30.2981 93.1861 23.3692 96.9822 20.7627 98.1938C16.4742 100.222 13.9646 99.8963 12.7773 97.147C12.2167 95.8391 12.5794 93.481 13.9639 89.3589C14.4933 87.7248 15.3495 84.7108 15.8789 82.7163C15.9574 82.4116 16.0305 82.131 16.0986 81.8726L16.1025 81.8599C16.5101 80.3137 16.7122 79.5463 16.4814 78.9419C16.2541 78.3469 15.607 77.9092 14.3232 77.0415C14.1209 76.9047 13.9018 76.7566 13.667 76.5962C8.51981 73.0638 2.21582 66.3872 2.21582 66.3872L1.80371 65.9829C1.78823 65.9667 1.02729 65.1681 0.568359 64.1626C-0.255311 62.3611 -0.189584 61.118 0.799805 60.4966C1.92445 59.81 7.40113 59.4161 12.4824 59.646C15.3862 59.7765 18.7855 59.8755 20.0391 59.8755H22.3477L22.6113 58.729C24.1275 52.5439 27.4951 41.388 28.3193 39.7495ZM32.3184 39.519C32.2979 39.5158 32.2649 39.4914 32.1055 39.605C31.8805 39.7656 31.4708 40.1789 30.999 41.0981L30.915 41.2935C30.8614 41.4256 30.7952 41.5996 30.7158 41.8159C30.5569 42.2491 30.3618 42.8111 30.1396 43.481C29.6959 44.8189 29.1589 46.5321 28.5967 48.3989C27.4737 52.1279 26.2737 56.393 25.5322 59.4136L25.2715 60.5464L24.7373 62.8755H20.0391C18.7154 62.8755 15.2607 62.773 12.3477 62.6421H12.3467C9.9187 62.5323 7.3971 62.5724 5.375 62.7192C4.56896 62.7778 3.87049 62.8525 3.30664 62.9341C3.41224 63.1602 3.57393 63.4105 3.74219 63.6304C3.82252 63.7353 3.89218 63.8178 3.93652 63.8687C3.9461 63.8796 3.95516 63.8885 3.96191 63.896L4.31836 64.2466L4.3584 64.2866L4.39746 64.3276L4.39941 64.3306C4.40166 64.3329 4.40596 64.3368 4.41113 64.3423C4.42156 64.3533 4.43818 64.3702 4.45996 64.3931C4.50398 64.4393 4.57083 64.5093 4.6582 64.6001C4.8332 64.7819 5.09146 65.0481 5.41797 65.3794C6.07193 66.0428 6.99784 66.9653 8.0791 67.9937C10.2688 70.0762 12.9899 72.4917 15.3594 74.1187C15.5871 74.2743 15.8 74.419 16.0029 74.5562L16.8975 75.1675C17.1907 75.3743 17.472 75.583 17.7188 75.7886C18.2385 76.2216 18.9039 76.8782 19.2832 77.8706L19.3506 78.0601C19.6613 79.0009 19.5949 79.8762 19.4941 80.5151C19.3921 81.1617 19.1904 81.9133 19.0029 82.6245V82.6255L19 82.6372L18.7832 83.4644L18.7812 83.4751L18.7783 83.4858C18.3101 85.2496 17.584 87.8231 17.0391 89.5835L16.8184 90.2837L16.8135 90.2983L16.8086 90.314C16.1365 92.315 15.7618 93.7453 15.6064 94.7612C15.4788 95.5965 15.5365 95.931 15.5449 95.9839C15.6933 96.3188 15.8086 96.4226 15.8271 96.438C15.8374 96.4464 15.8443 96.4508 15.8555 96.4556C15.8687 96.4611 15.9112 96.4766 15.9961 96.4878C16.4328 96.5449 17.4833 96.4261 19.4795 95.4819L19.4893 95.478L19.498 95.4741C21.9786 94.321 28.7944 90.5875 31.5312 88.853L31.5518 88.8403L31.5732 88.8276L33.124 87.8794L34.6426 86.9517L36.1846 87.8394L40.4971 90.3218L42.4824 91.4692C44.5828 92.6957 46.9018 94.0846 48.3115 94.9565L48.3232 94.9634L49.8945 95.936C53.3774 98.0717 55.6143 99.2836 57.1104 99.856C57.4224 99.9753 57.6683 100.052 57.8564 100.102C57.8433 99.8342 57.8001 99.441 57.6875 98.8823C57.2699 96.8116 56.1518 93.4912 54.0244 87.8696L54.0205 87.8589C53.3091 85.9557 52.6525 84.1744 52.1719 82.8354C51.9325 82.1685 51.7306 81.5952 51.5869 81.1665C51.5162 80.9555 51.4514 80.7552 51.4014 80.5864C51.3772 80.5048 51.3476 80.4006 51.3213 80.2915C51.3083 80.2374 51.2894 80.1554 51.2725 80.0591C51.2611 79.9946 51.2246 79.7807 51.2246 79.5103C51.2246 78.7271 51.527 78.1653 51.626 77.9888C51.7614 77.7473 51.9049 77.5651 51.9922 77.4604C52.1706 77.2465 52.3589 77.0681 52.4922 76.9478C52.7746 76.6927 53.1216 76.4191 53.4746 76.1567C54.1972 75.6197 55.1571 74.9699 56.1943 74.3188H56.1953C58.1644 73.0792 59.9722 71.835 61.3232 70.8159C62.0022 70.3038 62.5351 69.8721 62.9043 69.5425C62.9911 69.465 63.0589 69.3993 63.1123 69.3481C63.109 69.3302 63.1048 69.3169 63.1016 69.3081L63.0928 69.3013C63.0009 69.2129 62.9923 69.2118 62.9492 69.1909C62.8386 69.1372 62.5593 69.025 61.8789 68.8579C60.4841 68.5154 58.0803 68.0949 53.457 67.3169L53.4355 67.313C51.8301 67.0311 50.3382 66.7479 49.2197 66.5151C48.6649 66.3997 48.1758 66.2915 47.8027 66.1987C47.622 66.1538 47.4272 66.1016 47.251 66.0464C47.1674 66.0202 47.0367 65.9775 46.8936 65.9185C46.8225 65.8891 46.7059 65.8382 46.5713 65.7651C46.4764 65.7136 46.1762 65.5481 45.8711 65.2456L45.748 65.1235L45.6396 64.9888C45.4135 64.7057 45.2685 64.4141 45.2461 64.3706C45.1851 64.2522 45.1271 64.1272 45.0752 64.0132C44.9694 63.7808 44.847 63.4953 44.7197 63.1841C44.4658 62.5634 44.1597 61.7653 43.8545 60.9224L43.8535 60.9233C41.4369 54.4414 37.5016 45.8782 35.5254 42.772L35.5244 42.7729C34.728 41.5264 34.0027 40.6843 33.3965 40.1606C32.7835 39.6312 32.4194 39.5338 32.3184 39.519ZM97.9473 26.2759C99.2661 26.4669 99.4837 27.9908 98.3926 29.2319C97.6835 30.0204 94.3934 32.8036 90.5225 35.9243C89.3858 36.8328 87.6698 38.197 86.708 38.9897C80.2071 44.2468 73.3322 49.6228 69.3584 52.5288C67.0525 54.2096 65.8714 54.7823 65.2129 54.5386C64.9148 54.4469 64.6255 54.2615 64.5791 54.1655C64.3593 53.7063 65.1034 52.5769 66.4482 51.3901C69.4262 48.7305 79.1619 40.5711 81.7812 38.5298C88.7351 33.1432 93.1621 29.6312 95.3301 27.7808C97.0561 26.3221 97.3227 26.1651 97.9473 26.2759ZM103.993 0.0952148C105.834 -0.408013 106.219 1.15684 104.772 3.11768C103.831 4.37203 99.4149 9.2261 94.2109 14.7671C92.6825 16.3854 90.375 18.8195 89.083 20.2153C80.3444 29.5386 71.0938 39.1965 65.7354 44.5562C62.6259 47.66 61.0174 48.9314 60.0898 49.019C59.6708 49.0794 59.2592 49.0306 59.1895 48.9497C58.8592 48.5618 59.8305 46.9128 61.6328 44.8745C65.6224 40.3258 78.6945 26.0462 82.2188 22.3755C91.5789 12.6642 97.5326 6.39079 100.441 3.17432C102.759 0.628956 103.12 0.311101 103.993 0.0952148ZM65.8682 17.6226C66.5514 16.7813 67.1349 16.6826 67.876 17.2983C68.657 17.9473 68.5106 18.5816 66.6533 22.8081C65.7818 24.8334 64.756 27.2101 64.377 28.1313C63.661 29.8399 59.251 39.1919 58.6768 40.228C58.1008 41.227 56.9019 42.7033 56.5566 42.7915C56.0149 42.9608 55.3928 42.6133 55.252 42.0854C55.1527 41.6277 56.9174 36.9785 58.623 33.311C58.9632 32.563 59.5284 31.248 59.8584 30.3872C61.1098 27.236 65.3169 18.3022 65.8682 17.6226Z" fill="#C6C0C0"/>
</svg>
