<svg width="67" height="67" viewBox="0 0 67 67" fill="none" xmlns="http://www.w3.org/2000/svg">
<path d="M23.543 24.8594L23.8105 23.6953L24.0742 22.5479C24.8242 19.4917 26.0342 15.1952 27.1621 11.4502C27.7268 9.57502 28.2683 7.84754 28.7178 6.49219C29.1836 5.08758 29.5138 4.19806 29.6602 3.90723C30.7613 1.75593 31.806 1.41185 32.5361 1.51855C33.5292 1.66374 35.0376 2.7053 36.79 5.44824C38.851 8.6865 42.8321 17.3687 45.2607 23.8828C45.5614 24.7135 45.8628 25.4968 46.1094 26.0996C46.2329 26.4014 46.3467 26.668 46.4414 26.876C46.4882 26.9787 46.5356 27.0788 46.5811 27.167C46.6072 27.2177 46.6911 27.3842 46.8125 27.5361L46.8672 27.6035L46.9287 27.665C47.0834 27.8183 47.2363 27.9035 47.2881 27.9316C47.3599 27.9707 47.4244 27.9981 47.4668 28.0156C47.5521 28.0508 47.6355 28.0793 47.7002 28.0996C47.8343 28.1416 47.996 28.1843 48.166 28.2266C48.5118 28.3125 48.9789 28.4163 49.5264 28.5303C50.6259 28.7591 52.1017 29.0394 53.6963 29.3193V29.3203L53.707 29.3213C58.3037 30.0948 60.7758 30.5255 62.2383 30.8848C62.9612 31.0623 63.3566 31.2043 63.6055 31.3252C63.8207 31.4297 63.9558 31.5329 64.1338 31.7041L64.1553 31.7236C64.6173 32.1514 64.7664 32.9974 64.4561 33.6084C64.4212 33.6465 64.2717 33.8164 63.9043 34.1445C63.493 34.5118 62.925 34.972 62.2275 35.498C60.8359 36.5477 58.9908 37.8155 56.9912 39.0742C55.9781 39.7102 55.053 40.3372 54.3701 40.8447C54.0327 41.0955 53.7291 41.3363 53.498 41.5449C53.3866 41.6456 53.2573 41.769 53.1445 41.9043C53.0892 41.9707 53.0094 42.0745 52.9355 42.2061C52.8802 42.3047 52.7256 42.5948 52.7256 42.9941C52.7256 43.2125 52.7758 43.4051 52.7803 43.4238C52.798 43.4972 52.8199 43.5739 52.8408 43.6445C52.8835 43.7883 52.9421 43.9689 53.0107 44.1738C53.1493 44.5874 53.3457 45.1487 53.584 45.8125C54.0614 47.1426 54.7162 48.9166 55.4268 50.8174L55.4287 50.8223C57.5482 56.4231 58.7133 59.8591 59.1592 62.0703C59.5497 64.0073 59.3055 64.596 59.0723 64.8682L58.9746 64.9688C58.8409 65.0924 58.7029 65.1661 58.4229 65.1758C58.0749 65.1877 57.5033 65.0953 56.5752 64.7402C54.7098 64.0266 51.9148 62.4607 47.5293 59.7197L47.5234 59.7158C45.6609 58.5638 42.1848 56.4941 39.7607 55.1123L35.4375 52.624L34.666 52.1797L33.9072 52.6436L32.3564 53.5908L32.335 53.6045C29.5476 55.371 22.6759 59.1347 20.1318 60.3174H20.1309L20.1221 60.3223C18.0519 61.3015 16.677 61.5732 15.8027 61.459C15.1052 61.3677 14.5784 61.0159 14.1553 60.0361C14.0408 59.7658 13.9467 59.185 14.125 58.0186C14.2996 56.8765 14.7046 55.3513 15.3867 53.3203L15.3926 53.3047C15.9341 51.6332 16.7969 48.59 17.3291 46.585L17.332 46.5742L17.5508 45.7383L17.5537 45.7266C17.7494 44.9844 17.9263 44.3193 18.0137 43.7656C18.1037 43.1945 18.1349 42.5469 17.8838 41.8896C17.6374 41.2449 17.1948 40.7883 16.7598 40.4258C16.3376 40.074 15.7801 39.6987 15.1641 39.2822C14.9621 39.1457 14.7471 39.0003 14.5166 38.8428C12.0444 37.1462 9.25116 34.6618 7.0459 32.5645C5.95051 31.5227 5.01325 30.5893 4.35059 29.917C4.01968 29.5813 3.75782 29.3106 3.5791 29.125C3.48975 29.0322 3.42074 28.9601 3.375 28.9121C3.35238 28.8884 3.33549 28.8703 3.32422 28.8584C3.31858 28.8525 3.31418 28.8475 3.31152 28.8447C3.31022 28.8434 3.30916 28.8424 3.30859 28.8418H3.30762L3.28809 28.8203L3.26758 28.8008L2.89063 28.4307L2.88965 28.4297C2.88767 28.4276 2.88297 28.4227 2.87598 28.415C2.86197 28.3998 2.8384 28.3741 2.80762 28.3389C2.7457 28.2679 2.65556 28.1607 2.55273 28.0264C2.39396 27.8189 2.22019 27.5666 2.07227 27.2979L1.93359 27.0234C1.56726 26.2223 1.48616 25.7228 1.50195 25.4619C1.50866 25.3513 1.53161 25.3111 1.53418 25.3066C1.53613 25.3032 1.53855 25.2985 1.54492 25.292C1.55092 25.2859 1.5646 25.2749 1.58887 25.2588C1.6178 25.2468 1.69192 25.2194 1.82812 25.1807C2.02816 25.1238 2.29927 25.0633 2.64258 25.0039C3.32814 24.8853 4.22436 24.7828 5.26758 24.707C7.09057 24.5747 9.29389 24.5273 11.4805 24.5928L12.416 24.6279C15.3248 24.7586 18.7518 24.8594 20.04 24.8594H23.543Z" stroke="#80C11E" stroke-width="3"/>
</svg>
