<svg width="811" height="767" viewBox="0 0 811 767" fill="none" xmlns="http://www.w3.org/2000/svg">
<path d="M137.299 145.27C157.584 144.44 173.284 156.25 184.399 180.702C194.128 202.194 200.013 232.657 202.053 272.091C206.801 359.597 196.525 409.457 171.227 421.675L193.451 444.572L175.904 449.008C185.84 461.495 198.585 474.079 200.001 489.62C201.624 507.448 187.79 518.067 175.547 527.964C171.04 531.606 165.733 535.256 162.21 539.953C151.041 554.844 161.509 569.112 174.045 578.145C184.144 585.424 195.552 589.867 204.66 598.728C220.831 614.456 226.465 635.969 214.826 655.278C211.848 660.224 204.644 654.725 207.543 649.841C234.664 604.112 161.412 595.857 149.872 563.312C143.492 545.313 155.634 533.091 168.258 522.684C185.531 508.444 200.314 495.277 182.955 471.544C177.871 464.593 171.235 458.473 165.967 451.521L144.295 457.001L153.495 424.45C142.749 423.462 134.088 418.798 127.513 410.449C119.135 399.736 114.573 383.637 113.828 362.153C113.328 349.264 110.85 340.015 106.393 334.406C103.014 330.069 98.6637 328.171 93.3415 328.711C92.1708 328.744 90.2882 328.928 87.6941 329.261L85.9431 329.505L84.1931 329.75C82.7696 330.051 81.4743 330.283 80.3073 330.446C73.3015 331.294 67.0592 331.535 61.5808 331.167C44.6329 330.34 31.4382 324.194 21.9968 312.729C13.3619 302.154 7.36054 290.331 3.99191 277.262C-0.235527 261.48 -1.10532 242.476 1.38253 220.249C3.53612 199.987 8.46981 183.622 16.1843 171.154C24.0251 158.552 33.474 152.095 44.531 151.785C56.7587 151.441 65.5491 156.083 70.9021 165.707C76.7976 176.099 79.5819 193.746 79.2536 218.649C79.1543 228.818 80.4707 236.144 83.2028 240.629C85.8087 245.248 90.1702 247.537 96.2878 247.495C101.755 247.472 105.786 245.013 108.38 240.118C111.088 234.698 111.84 226.856 110.634 216.594C105.007 170.093 113.895 146.318 137.299 145.27ZM129.624 163.667C127.349 166.077 125.507 169.974 124.099 175.357C123.293 179.029 122.702 183.347 122.323 188.31C122.015 195.748 122.393 204.404 123.457 214.28C124.647 224.021 124.496 232.367 123.003 239.317C120.918 248.368 116.229 255.082 108.933 259.457C112.925 257.912 116.433 255.402 119.458 251.928C122.096 248.596 124.131 244.628 125.561 240.027C127.831 232.925 128.364 224.242 127.159 213.98C126.125 205.146 125.49 196.628 125.255 188.423C125.12 183.735 125.325 179.493 125.867 175.698C126.376 170.731 127.628 166.721 129.624 163.667ZM44.9567 166.631C42.4777 166.44 39.7642 167.168 36.8171 168.815C34.892 169.781 32.7328 171.667 30.3396 174.471C27.0619 178.212 24.2059 183.05 21.7722 188.983C19.8326 193.99 18.361 199.44 17.3581 205.333C16.448 209.921 16.0193 215.407 16.072 221.791L18.1901 213.912L20.1071 205.842C22.1245 199.008 23.8648 193.876 25.3288 190.447C27.5136 184.911 29.9161 180.152 32.5359 176.168C36.6719 170.578 40.8128 167.399 44.9567 166.631Z" fill="#80C11E"/>
<path d="M360.697 17.5935C386.797 -2.35841 416.742 -5.34044 450.53 8.64724C480.756 21.2244 499.277 44.6576 506.095 78.947C512 109.32 508.233 142.393 494.794 178.166C481.669 213.073 463.389 239.85 439.954 258.497C422.313 272.633 404.843 279.25 387.544 278.353L396.801 306.498L385.577 304.155C392.849 322.579 401.629 342.061 399.908 359.822C397.779 381.797 381.373 387.682 366.746 393.482C361.362 395.616 355.159 397.371 350.558 401.238C335.97 413.496 343.642 435.546 354.543 452.383C363.325 465.95 374.048 476.784 381.48 491.748C394.676 518.311 395.866 546.618 379.857 563.897C375.76 568.325 369.561 558.284 373.563 553.891C411.023 512.753 337.858 467.281 332.973 422.989C330.274 398.494 345.29 389.882 360.413 383.66C381.107 375.147 399.026 366.697 386.317 330.044C383.043 320.603 378.406 311.34 374.676 301.881L347.189 296.145L367.128 273.773C366.219 273.411 365.31 273.03 364.402 272.626C337.871 260.822 319.962 237.317 310.676 202.112C302.159 169.596 302.502 135.407 311.703 99.5467C321.245 62.6925 337.576 35.3747 360.697 17.5935ZM428.341 165.859C425.148 175.436 421.411 182.838 417.131 188.062C411.688 195.039 404.949 199.616 396.915 201.794C401.227 202.164 405.535 201.269 409.842 199.11C413.686 197.253 417.143 194.384 420.213 190.503C425.864 183.17 428.573 174.955 428.341 165.859ZM408.194 138.095C404.739 132.981 400.507 130.633 395.5 131.049C390.493 131.465 386.192 134.556 382.597 140.323C379.155 145.989 377.428 152.68 377.416 160.394C377.431 167.981 379.23 174.345 382.814 179.485C386.397 184.625 390.692 186.988 395.699 186.572C400.579 186.129 404.816 183.024 408.411 177.257C411.853 171.59 413.58 164.9 413.592 157.185C413.604 149.471 411.804 143.107 408.194 138.095ZM409.815 14.4978C403.969 14.4722 398.245 15.137 392.643 16.4929C381.975 19.184 372.024 24.8194 362.789 33.3982C354.686 41.0162 347.781 50.2159 342.077 60.9968C339.432 66.0315 337.029 71.1832 334.867 76.4519C332.44 82.9957 330.711 88.4222 329.68 92.7302C334.343 81.1994 339.315 71.0632 344.594 62.322C351.217 51.6001 358.142 42.9367 365.369 36.3328C373.834 28.2581 383.199 22.5672 393.463 19.2595C403.138 16.2278 414.248 15.5582 426.794 17.2517C421.522 15.7496 415.862 14.8317 409.815 14.4978Z" fill="#2DC0C2"/>
<path d="M655.059 170.353C667.867 164.595 678.858 164.528 688.016 170.182C693.233 173.403 697.065 177.207 699.505 181.596C701.946 185.985 702.992 190.952 702.646 196.495L702.611 197.062C701.798 208.655 695.073 224.242 682.454 243.815L681.194 245.753C675.827 254 673.013 260.713 672.732 265.899L672.713 266.396L672.713 266.399L672.693 266.892C672.568 271.948 674.971 276.078 679.925 279.284L680.353 279.555C682.493 280.862 684.652 281.547 686.832 281.613C689.012 281.678 691.218 281.126 693.451 279.949L693.898 279.706C698.887 276.736 703.573 270.849 707.95 262.025L708.372 261.162C718.502 240.016 728.624 225.638 738.743 218.047C743.803 214.25 748.866 212.148 753.93 211.749C758.995 211.349 764.054 212.654 769.103 215.657L769.104 215.657L769.915 216.153C778.206 221.347 784.003 228.456 787.3 237.477C790.704 246.787 791.443 258.129 789.527 271.497L789.361 272.602C785.763 295.88 774.38 324.432 755.219 358.256L752.885 362.373C728.844 404.519 707.217 434.02 688.004 450.866C678.088 459.56 668.808 464.89 660.166 466.842C658.496 467.219 656.85 467.467 655.228 467.592L660.09 504.003L637.82 494.76C632.436 501.404 626.714 507.85 621.878 514.684C599.498 546.303 614.344 559.388 631.834 573.305C644.616 583.476 656.631 595.911 647.235 618.652C630.241 659.772 547.405 683.04 571.917 732.908C574.537 738.233 565.799 746.14 563.098 740.755C552.538 719.733 561.545 692.916 581.588 671.109C592.877 658.825 606.176 651.415 618.372 640.845C633.51 627.729 646.998 608.715 636.406 592.904C633.065 587.916 627.601 584.508 623.028 580.965C610.606 571.336 596.499 561.132 600.562 539.464C603.774 522.336 617.081 506.423 628.981 491.092L613.288 484.579L639.052 464.253C638.313 463.867 637.578 463.45 636.851 462.998L636.16 462.555C625.816 455.723 619.937 446.535 618.532 434.996L618.409 433.871C617.189 420.636 621.692 405.116 631.898 387.317L632.903 385.588C639.198 374.805 642.097 365.896 641.625 358.855L641.568 358.178L641.568 358.177C641.073 352.699 638.471 348.74 633.761 346.288L633.755 346.286L633.756 346.285C632.764 345.672 631.094 344.794 628.746 343.65L628.746 343.651L627.15 342.896L625.558 342.141C624.206 341.612 622.997 341.096 621.932 340.592L621.93 340.59C615.611 337.455 610.255 334.225 605.864 330.901L605.864 330.9C592.33 321.034 584.605 308.813 582.701 294.239L582.614 293.543C581.068 279.872 582.396 266.596 586.598 253.717L587.076 252.249C592.138 237.046 601.461 221.029 615.042 204.2L616.231 202.724C628.534 187.61 641.061 177.009 653.814 170.927L653.814 170.926L655.059 170.353ZM751.643 227.466C748.752 228.459 745.514 230.608 741.93 233.924C739.289 236.571 736.479 239.88 733.501 243.851C729.255 249.945 724.928 257.443 720.519 266.345L719.719 267.986C715.703 276.078 711.356 282.492 706.678 287.223L706.677 287.225C700.371 293.417 693.219 296.514 685.225 296.517C689.003 297.136 692.875 296.881 696.841 295.739C700.824 294.385 704.644 292.164 708.303 289.079L708.304 289.078L708.835 288.629C714.142 284.064 718.921 277.49 723.173 268.902L723.597 268.037C727.476 260.021 731.52 252.49 735.73 245.444C738.137 241.415 740.587 237.947 743.082 235.042C745.844 231.552 748.698 229.026 751.643 227.466ZM679.65 182.64C677.775 181.411 675.348 180.689 672.363 180.483L672.359 180.482C670.25 180.241 667.446 180.64 663.944 181.687L663.942 181.687C659.205 183.036 654.23 185.54 649.015 189.198L649.015 189.196C644.711 192.346 640.56 196.127 636.562 200.538L636.56 200.541C633.469 203.769 630.302 207.941 627.059 213.058L632.512 208.082L638.446 202.336L638.45 202.333L640.405 200.648C644.842 196.858 648.405 194.047 651.092 192.219C655.894 188.752 660.464 186.056 664.801 184.135L664.805 184.134L665.409 183.911C671.206 181.81 675.957 181.379 679.65 182.64Z" fill="#DD5E8D"/>
</svg>
