<svg width="774" height="1006" viewBox="0 0 774 1006" fill="none" xmlns="http://www.w3.org/2000/svg">
<path d="M269.497 834.812C268.87 835.014 268.445 834.858 268.143 834.543C267.811 834.195 267.585 833.603 267.538 832.891C267.442 831.429 268.098 829.908 269.355 829.493L269.355 829.493C276.875 827.012 281.028 822.594 283.128 817.004C285.213 811.454 285.258 804.791 284.684 797.829C284.397 794.343 283.953 790.762 283.523 787.194C283.092 783.622 282.676 780.06 282.442 776.593C281.974 769.647 282.244 763.148 284.548 757.78C287.1 751.838 290.73 748.86 294.809 747.455C298.923 746.037 303.546 746.199 308.11 746.66C314.334 747.287 320.389 747.777 325.32 745.47C330.314 743.133 334.029 738.003 335.795 727.75C336.627 722.921 336.852 717.818 337.405 712.923C337.962 707.993 338.854 703.203 341.006 698.822C343.671 693.399 347.355 689.687 351.411 687.821C355.45 685.964 359.893 685.919 364.154 687.881C364.155 687.897 364.154 687.923 364.145 687.956C364.133 687.997 364.114 688.028 364.1 688.046C356.412 687.812 351.421 690.083 348.109 694C344.821 697.891 343.252 703.334 342.229 709.293C341.716 712.28 341.337 715.419 340.953 718.581C340.569 721.748 340.18 724.94 339.647 728.052C338.58 734.282 336.943 740.133 333.664 744.741C330.287 749.484 326.259 751.498 321.995 752.218C317.695 752.944 313.155 752.358 308.74 751.859C307.169 751.681 305.416 751.395 303.717 751.242C301.994 751.087 300.229 751.056 298.507 751.39C293.041 752.45 289.779 756.183 288.013 760.942C286.254 765.682 285.958 771.482 286.408 776.831C286.77 781.136 287.558 785.253 288.208 789.355C288.859 793.47 289.376 797.594 289.218 801.981L289.217 801.982C288.662 817.389 281.951 830.473 270.067 834.622L269.497 834.812Z" fill="#525151" stroke="#525151"/>
<path d="M228.686 870.319L229.75 871.844C230.088 872.33 229.959 872.978 229.46 873.291L222.613 877.596C222.114 877.91 221.435 877.771 221.096 877.285L220.033 875.76C219.694 875.274 219.824 874.626 220.323 874.313L227.17 870.007C227.668 869.694 228.347 869.833 228.686 870.319Z" fill="#E2E2E2"/>
<path d="M226.403 870.486L228.693 873.77L235.848 869.271L233.557 865.987L226.403 870.486Z" fill="#2D2D2D"/>
<path d="M237.005 863.448L239.588 867.153C239.641 867.229 239.621 867.33 239.543 867.379L234.46 870.575C234.382 870.624 234.276 870.602 234.223 870.526L231.639 866.821C231.586 866.745 231.606 866.644 231.684 866.595L236.767 863.399C236.845 863.35 236.951 863.372 237.005 863.448Z" fill="#1F1F1F"/>
<path d="M216.159 852.356L217.222 853.88C217.561 854.366 217.431 855.014 216.932 855.328L210.086 859.633C209.587 859.947 208.908 859.807 208.569 859.321L207.505 857.796C207.167 857.311 207.297 856.663 207.795 856.349L214.642 852.044C215.141 851.73 215.82 851.87 216.159 852.356Z" fill="#E2E2E2"/>
<path d="M213.87 852.523L216.16 855.807L223.315 851.308L221.024 848.024L213.87 852.523Z" fill="#2D2D2D"/>
<path d="M224.477 845.486L227.061 849.191C227.114 849.267 227.094 849.368 227.016 849.417L221.933 852.613C221.855 852.662 221.748 852.641 221.695 852.565L219.112 848.86C219.058 848.784 219.079 848.682 219.157 848.633L224.24 845.437C224.318 845.388 224.424 845.41 224.477 845.486Z" fill="#1F1F1F"/>
<path d="M220.296 842.619L225.201 839.535C225.616 839.274 226.179 839.392 226.459 839.793L245.985 867.791C246.265 868.193 246.16 868.731 245.745 868.992L240.84 872.077C240.427 872.336 239.861 872.22 239.581 871.818L220.055 843.82C219.775 843.419 219.883 842.879 220.296 842.619Z" fill="#666666"/>
<path d="M226.765 840.963L227.149 840.78L229.466 839.674L237.942 835.628C238.245 835.485 238.579 835.415 238.918 835.428L254.634 835.976C255.055 835.993 255.466 835.881 255.813 835.662L269.39 827.126C269.528 827.038 269.675 826.968 269.826 826.921C270.688 826.627 271.695 826.935 272.238 827.713L275.567 832.486C276.203 833.399 275.96 834.613 275.023 835.203L261.446 843.74C261.135 843.935 260.891 844.21 260.735 844.531C260.733 844.532 260.729 844.538 260.728 844.542C260.712 844.578 260.696 844.614 260.682 844.648L255.081 858.604C254.96 858.903 254.762 859.17 254.506 859.379L247.275 865.21L247.116 865.339L245.298 866.804L244.971 867.068C244.704 867.284 244.396 867.419 244.078 867.48C243.287 867.633 242.425 867.323 241.933 866.619L226.015 843.794C225.524 843.089 225.56 842.214 226.017 841.583C226.201 841.328 226.452 841.112 226.765 840.963Z" fill="#666666"/>
<path d="M260.727 844.541C260.711 844.577 260.695 844.613 260.681 844.647L255.08 858.603C254.959 858.902 254.761 859.169 254.505 859.378L247.273 865.209L247.115 865.338L245.67 863.513C245.562 863.376 245.476 863.223 245.417 863.062L245.026 861.987L252.16 856.663C252.282 856.572 252.388 856.467 252.478 856.346C253.462 855.028 259.548 846.848 260.727 844.541Z" fill="#4C4C4C"/>
<path d="M254.664 835.977C254.623 835.977 254.582 835.977 254.543 835.976L238.826 835.425C238.488 835.415 238.152 835.483 237.85 835.626L229.373 839.671L229.187 839.759L230.393 841.735C230.483 841.884 230.597 842.018 230.731 842.132L231.621 842.894L239.567 838.735C239.703 838.664 239.846 838.612 239.998 838.581C241.661 838.235 251.967 836.107 254.664 835.977Z" fill="#4C4C4C"/>
<path d="M227.147 840.779L229.464 839.673L247.273 865.209L245.296 866.803L227.147 840.779Z" fill="#2D2D2D"/>
<path d="M237.419 868.716L243.823 864.689L245.987 867.791C246.267 868.193 246.162 868.731 245.747 868.993L240.842 872.077C240.429 872.336 239.863 872.22 239.583 871.818L237.419 868.716Z" fill="#4C4C4C"/>
<path d="M220.295 842.62L225.2 839.535C225.616 839.274 226.163 839.369 226.424 839.743L228.518 842.746L222.114 846.773L220.02 843.771C219.759 843.396 219.883 842.879 220.295 842.62Z" fill="#4C4C4C"/>
<path d="M261.633 838.314C261.866 838.168 262.141 838.126 262.397 838.181C262.654 838.231 262.892 838.378 263.05 838.605L265.05 841.473L263.363 842.534L261.362 839.666C261.047 839.213 261.168 838.606 261.633 838.314Z" fill="#2D2D2D"/>
<path d="M260.899 832.465L262.79 831.275L265.208 834.742C265.563 835.25 265.427 835.929 264.904 836.257C264.643 836.421 264.335 836.469 264.048 836.408C263.761 836.347 263.494 836.185 263.317 835.931L260.899 832.465Z" fill="#2D2D2D"/>
<path d="M267.557 836.527C267.768 836.394 268.017 836.358 268.25 836.405C268.482 836.453 268.698 836.584 268.841 836.79L269.956 838.389L268.423 839.353L267.308 837.754C267.021 837.342 267.134 836.793 267.557 836.527Z" fill="#2D2D2D"/>
<path d="M264.323 830.312L266.112 829.187L268.912 833.203C269.248 833.683 269.119 834.324 268.626 834.634C268.377 834.79 268.088 834.833 267.816 834.777C267.542 834.723 267.29 834.567 267.123 834.328L264.323 830.312Z" fill="#2D2D2D"/>
<path d="M271.386 832.899C271.561 832.789 271.771 832.756 271.965 832.798C272.158 832.838 272.339 832.947 272.46 833.12L274.021 835.358C274.104 835.478 274.147 835.615 274.152 835.751L273.071 836.431C272.941 836.374 272.827 836.281 272.743 836.161L271.183 833.923C270.942 833.577 271.033 833.121 271.386 832.899Z" fill="#2D2D2D"/>
<path d="M267.976 828.015L269.389 827.126C269.527 827.039 269.674 826.969 269.825 826.922L271.437 829.234C271.777 829.722 271.645 830.372 271.143 830.688C270.892 830.845 270.599 830.887 270.322 830.831C270.048 830.777 269.792 830.619 269.621 830.375L267.976 828.015Z" fill="#2D2D2D"/>
<path d="M256.555 835.196L258.574 833.926L259.872 835.788C260.251 836.332 260.106 837.056 259.55 837.406C259.27 837.582 258.941 837.632 258.634 837.569C258.327 837.506 258.042 837.33 257.853 837.057L256.555 835.196Z" fill="#2D2D2D"/>
<path d="M254.992 850.627C254.992 850.627 252.168 855.361 251.21 855.534C250.252 855.706 246.443 850.526 243.358 845.54C243.358 845.54 249.553 854.142 250.854 854.04C252.155 853.938 254.992 850.627 254.992 850.627Z" fill="#919191"/>
<path d="M237.269 867.306L226.668 852.105C226.668 852.105 235.649 862.348 237.269 867.306Z" fill="#919191"/>
<path d="M220.977 875.726C220.977 875.726 222.07 877.4 224.165 876.083C224.165 876.083 222.061 878.229 220.977 875.726Z" fill="#FBFBFB"/>
<path d="M208.213 857.749C208.213 857.749 209.307 859.422 211.402 858.105C211.402 858.105 209.297 860.251 208.213 857.749Z" fill="#FBFBFB"/>
<path d="M167.192 897.072C167.386 897.141 167.554 897.267 167.695 897.451C167.984 897.832 168.14 898.448 168.103 899.166C168.066 899.876 167.842 900.622 167.454 901.219C167.067 901.813 166.538 902.232 165.892 902.371C158.121 904.047 153.48 908.005 150.742 913.329C148.022 918.619 147.194 925.229 146.947 932.208C146.823 935.702 146.845 939.307 146.854 942.899C146.862 946.494 146.857 950.078 146.682 953.549C146.332 960.502 145.301 966.938 142.376 972.038C139.138 977.683 135.177 980.26 130.964 981.227C126.715 982.202 122.147 981.556 117.666 980.619C111.554 979.341 105.586 978.216 100.408 979.994C95.1698 981.792 90.8805 986.494 87.9248 996.489C86.5315 1001.2 85.7088 1006.24 84.5838 1011.05C83.4514 1015.9 82.0026 1020.57 79.3466 1024.7C76.0588 1029.81 71.9589 1033.12 67.7116 1034.54C63.4859 1035.96 59.0754 1035.54 55.0805 1033.15C55.081 1033.13 55.0852 1033.1 55.1014 1033.06C55.1195 1033.01 55.1433 1032.98 55.1614 1032.96C62.7798 1034 68.0076 1032.27 71.754 1028.73C75.4741 1025.21 77.6702 1019.97 79.3861 1014.16C80.246 1011.25 80.9903 1008.17 81.7427 1005.06C82.4962 1001.96 83.258 998.826 84.1534 995.789C85.9462 989.707 88.2617 984.06 92.0653 979.821C95.9814 975.457 100.221 973.882 104.536 973.615C108.889 973.345 113.327 974.404 117.657 975.364C119.195 975.706 120.907 976.175 122.577 976.505C124.272 976.84 126.026 977.057 127.78 976.906C133.347 976.427 137.023 973.057 139.331 968.523C141.633 964.003 142.607 958.275 142.787 952.914C142.933 948.599 142.633 944.427 142.469 940.28C142.305 936.122 142.276 931.967 142.949 927.621C145.349 912.111 153.788 899.662 166.407 897.048L166.408 897.049C166.742 896.979 166.997 897.003 167.192 897.072Z" fill="#525151" stroke="#525151"/>
<path d="M215.52 888.775L210.574 891.886C210.155 892.15 209.589 892.034 209.308 891.633L189.745 863.657C189.464 863.256 189.572 862.716 189.99 862.452L194.936 859.341C195.352 859.079 195.921 859.193 196.202 859.595L215.765 887.57C216.046 887.972 215.936 888.513 215.52 888.775Z" fill="#666666"/>
<path d="M209.007 890.462L208.621 890.646L206.285 891.764L197.743 895.854C197.438 895.998 197.101 896.071 196.76 896.059L180.946 895.575C180.522 895.56 180.109 895.674 179.758 895.894L166.069 904.506C165.93 904.594 165.782 904.665 165.63 904.713C164.761 905.011 163.749 904.707 163.205 903.93L159.87 899.16C159.232 898.248 159.48 897.03 160.425 896.435L174.115 887.824C174.428 887.626 174.675 887.35 174.832 887.028C174.835 887.026 174.839 887.02 174.839 887.016C174.856 886.98 174.872 886.944 174.886 886.91L180.566 872.901C180.689 872.6 180.888 872.332 181.147 872.122L188.442 866.248L188.602 866.118L190.436 864.642L190.766 864.376C191.035 864.159 191.346 864.023 191.666 863.96C192.462 863.803 193.329 864.11 193.822 864.814L209.771 887.621C210.263 888.325 210.224 889.202 209.761 889.837C209.576 890.093 209.323 890.311 209.007 890.462Z" fill="#666666"/>
<path d="M174.837 887.017C174.853 886.981 174.87 886.945 174.884 886.91L180.563 872.902C180.687 872.601 180.886 872.333 181.145 872.123L188.44 866.249L188.599 866.119L190.048 867.942C190.157 868.079 190.242 868.231 190.301 868.393L190.691 869.468L183.496 874.833C183.373 874.925 183.266 875.031 183.175 875.152C182.18 876.478 176.031 884.7 174.837 887.017Z" fill="#4C4C4C"/>
<path d="M180.917 895.576C180.958 895.575 181 895.575 181.038 895.576L196.854 896.062C197.194 896.071 197.532 896.001 197.837 895.857L206.379 891.767L206.567 891.678L205.36 889.703C205.269 889.555 205.155 889.421 205.02 889.307L204.128 888.548L196.118 892.748C195.981 892.82 195.837 892.872 195.684 892.905C194.01 893.258 183.632 895.434 180.917 895.576Z" fill="#4C4C4C"/>
<path d="M208.62 890.646L206.285 891.764L188.442 866.248L190.436 864.643L208.62 890.646Z" fill="#2D2D2D"/>
<path d="M198.373 862.694L191.916 866.757L189.748 863.657C189.467 863.255 189.575 862.715 189.994 862.452L194.939 859.341C195.355 859.079 195.924 859.193 196.205 859.594L198.373 862.694Z" fill="#4C4C4C"/>
<path d="M215.522 888.775L210.577 891.887C210.158 892.15 209.607 892.057 209.346 891.683L207.248 888.683L213.705 884.621L215.803 887.621C216.065 887.995 215.938 888.514 215.522 888.775Z" fill="#4C4C4C"/>
<path d="M180.63 880.895C180.63 880.895 183.487 876.139 184.452 875.962C185.416 875.785 189.233 880.961 192.322 885.944C192.322 885.944 186.115 877.35 184.805 877.458C183.496 877.565 180.63 880.895 180.63 880.895Z" fill="#919191"/>
<path d="M198.518 864.106L209.139 879.295C209.139 879.295 200.133 869.068 198.518 864.106Z" fill="#919191"/>
<path d="M214.936 855.599C214.936 855.599 213.841 853.927 211.729 855.256C211.729 855.256 213.853 853.096 214.936 855.599Z" fill="#FBFBFB"/>
<path d="M227.729 873.562C227.729 873.562 226.634 871.89 224.522 873.218C224.522 873.218 226.647 871.059 227.729 873.562Z" fill="#FBFBFB"/>
<path d="M323.657 666.665C323.008 666.465 322.637 665.782 322.825 665.126C334.226 625.458 336.917 602.132 336.944 601.901C337.021 601.216 337.639 600.722 338.324 600.797C339.01 600.88 339.502 601.493 339.425 602.178C339.399 602.41 336.69 625.92 325.225 665.815C325.033 666.479 324.342 666.862 323.679 666.672C323.672 666.67 323.665 666.668 323.657 666.665Z" fill="#A5503D"/>
<path d="M337.065 669.297C337.044 669.291 337.021 669.282 336.999 669.274C336.352 669.036 336.023 668.317 336.263 667.669C345.745 642.029 353.954 605.916 354.238 603.712C354.267 603.081 354.768 602.56 355.412 602.521C356.099 602.482 356.692 603.006 356.731 603.695C356.794 604.76 348.271 642.396 338.604 668.535C338.372 669.161 337.694 669.491 337.065 669.297Z" fill="#A5503D"/>
<path d="M352.633 672.029C351.974 671.826 351.604 671.127 351.808 670.467L371.202 607.47C371.405 606.811 372.104 606.44 372.763 606.643C373.422 606.846 373.792 607.545 373.588 608.205L354.194 671.202C353.991 671.862 353.291 672.232 352.633 672.029Z" fill="#A5503D"/>
<path d="M367.195 676.679C366.603 676.497 366.226 675.899 366.335 675.273C370.727 649.938 387.274 613.502 388.283 612.613C388.803 612.156 389.591 612.206 390.045 612.727C390.452 613.19 390.454 613.87 390.08 614.335C388.624 616.669 373.05 651.157 368.795 675.699C368.677 676.379 368.031 676.835 367.351 676.717C367.298 676.707 367.246 676.695 367.195 676.679Z" fill="#A5503D"/>
<path d="M380.75 680.569C380.129 680.377 379.754 679.736 379.904 679.092C389.12 639.487 401.04 617.675 401.16 617.458C401.492 616.855 402.246 616.625 402.857 616.97C403.459 617.304 403.678 618.064 403.343 618.668C403.225 618.881 391.465 640.427 382.335 679.658C382.179 680.33 381.508 680.749 380.837 680.592C380.806 680.585 380.777 680.577 380.75 680.569Z" fill="#A5503D"/>
<path d="M371.78 77.2421C371.78 77.2421 324.405 63.7613 265.301 146.487C206.198 229.213 223.824 335.587 265.089 408.872C306.353 482.156 331.691 585.301 331.691 585.301C331.691 585.301 361.751 596.807 348.564 552.366C335.374 507.924 221.165 217.003 371.78 77.2421Z" fill="#D2B5D4"/>
<path d="M448.455 68.3476C451.525 66.0013 383.222 43.7555 331.924 112.063C280.625 180.372 277.939 287.215 303.744 396.111C329.555 505.006 344.13 581.282 344.13 581.282C344.13 581.282 357.18 604.371 361.231 558.513C365.281 512.656 313.613 171.471 448.455 68.3476Z" fill="#FDE2FF"/>
<path d="M670.69 169.369C670.69 169.369 717.434 184.897 719.71 286.541C721.989 388.186 648.855 457.612 572.179 503.52C500.013 546.727 417.809 611.843 417.809 611.843C417.809 611.843 386.488 604.431 422.407 575.124C458.326 545.818 716.495 369.67 670.69 169.369Z" fill="#FFF2C3"/>
<path d="M612.324 118.855C611.109 115.187 680.085 135.253 684.029 220.587C687.973 305.922 630.045 395.739 547.412 471.213C464.78 546.685 409.791 601.52 409.791 601.52C409.791 601.52 386.01 613.257 408.474 573.075C430.943 532.894 665.719 279.995 612.324 118.855Z" fill="#F3DF7C"/>
<path d="M514.964 74.2658C514.964 74.2658 447.154 25.3252 390.083 123.259C333.012 221.192 338.21 317.006 346.02 393.437C353.827 469.867 354.285 581.045 354.285 581.045C354.285 581.045 367.018 605.16 374.051 571.434C381.086 537.713 402.424 145.008 514.964 74.2658Z" fill="#82D8D9"/>
<path d="M554.021 86.3052C554.021 86.3052 637.617 84.0299 629.654 197.099C621.689 310.168 563.455 386.431 513.976 445.205C464.496 503.978 401.527 595.607 401.527 595.607C401.527 595.607 377.431 608.37 390.605 576.538C403.775 544.708 607.21 208.128 554.021 86.3052Z" fill="#E8FFC3"/>
<path d="M383.881 586.802C383.881 586.802 494.093 185.599 546.527 77.2646C546.527 77.2646 478.793 31.7129 423.404 189.608C368.018 347.503 394.459 454.353 366.489 581.441C366.489 581.441 369.305 601.376 383.881 586.802Z" fill="#D1FBFA"/>
<path d="M373.834 583.705C373.834 583.705 508.6 190.069 526.25 71.0141C526.25 71.0141 607.874 71.4969 564.765 233.177C521.656 394.856 439.656 468.282 391.224 589.065C391.224 589.065 377.674 603.955 373.834 583.705Z" fill="#BEE288"/>
<path opacity="0.2" d="M713.346 237.47C713.346 237.47 715.5 394.033 522.457 438.842C329.412 483.651 234.324 290.592 234.324 290.592C234.324 290.592 231.615 335.74 262.735 394.682C293.855 453.624 333.989 566.935 333.659 582.535C333.659 582.535 389.548 582.938 415.503 607.76C415.503 607.76 498.211 535.673 571.449 494.316C644.688 452.962 742.59 378.83 713.346 237.47Z" fill="#E6F3FA"/>
<path opacity="0.3" d="M518.814 79.9356C518.814 79.9356 382.991 33.5882 298.291 137.585C213.588 241.581 438.137 307.046 568.379 206.249C659.589 135.662 556.985 90.5787 518.814 79.9356Z" fill="#FBFBFB"/>
<path d="M330.3 580.076C330.3 580.076 380.546 570.911 422.637 607.927C422.637 607.927 408.87 621.033 401.64 634.629C401.64 634.629 363.975 614.804 331.658 616.104C331.658 616.104 334.874 599.747 330.3 580.076Z" fill="#FC795B"/>
<path d="M332.99 605.862C332.99 605.862 367.087 601.76 406.065 627.166L400.655 635.85C400.655 635.85 364.654 615.224 331.658 616.103L332.99 605.862Z" fill="#A5503D"/>
<path opacity="0.4" d="M329.299 575.788C329.299 575.788 381.082 564.552 425.485 605.958L422.323 608.356C422.323 608.356 385.583 572.158 330.393 580.444L329.299 575.788Z" fill="#BA3C1A"/>
<path d="M319.667 661.932C319.667 661.932 358.589 665.585 386.908 681.85C386.908 681.85 379.812 694.745 379.609 715.124C379.384 737.662 336.813 734.499 311.367 715.892C291.775 697.474 318.31 677.663 319.667 661.932Z" fill="#E3C327"/>
<path d="M319.667 661.933C319.667 661.933 358.213 663.318 386.908 681.851C386.908 681.851 391.191 688.014 383.201 690.396C383.201 690.396 350.783 672.602 317.05 672.16C317.05 672.16 312.182 665.276 319.667 661.933Z" fill="#FC795B"/>
<path opacity="0.2" d="M317.049 672.159C317.049 672.159 348.43 687.212 349.468 708.258C350.511 729.303 336.781 725.878 336.781 725.878C336.781 725.878 369.318 734.563 375.732 719.852C379.053 704.726 377.751 701.095 382.334 687.975C382.334 687.975 351.279 665.755 317.049 672.159Z" fill="#F15A29"/>
<path d="M366.368 682.276C366.368 682.276 365.401 688.57 359.57 695.412C353.738 702.256 357.574 714.292 366.654 709.742C377.463 704.328 365.236 695.641 368.829 683.525C371.293 675.239 367.144 678.643 366.368 682.276Z" fill="#A5503D"/>
<path d="M374.598 684.677C374.598 684.677 373.61 690.613 368.186 697.148C362.761 703.684 366.043 714.934 374.383 710.498C384.31 705.218 373.338 697.262 376.817 685.81C379.2 677.975 375.365 681.249 374.598 684.677Z" fill="#CC5236"/>
<path d="M330.476 672.624C330.476 672.624 328.827 678.773 331.409 687.383C333.988 695.995 325.634 705.47 319.152 697.652C311.437 688.345 326.129 685.314 327.719 672.776C328.806 664.201 331.229 668.986 330.476 672.624Z" fill="#A5503D"/>
<path d="M321.978 671.512C321.978 671.512 320.493 677.343 322.827 685.508C325.161 693.67 317.625 702.652 311.778 695.234C304.813 686.409 318.065 683.54 319.493 671.657C320.466 663.525 322.659 668.062 321.978 671.512Z" fill="#CC5236"/>
<path d="M370.205 295.78C371.642 294.656 372.755 293.364 373.546 291.905C374.437 290.34 374.966 288.732 375.135 287.08C373.19 290.296 371.185 292.71 369.122 294.322C367.139 295.891 364.276 297.223 360.533 298.317C362.021 298.572 363.718 298.481 365.623 298.047C367.241 297.66 368.769 296.904 370.205 295.78ZM328.538 286.412C329.859 286.547 331.41 286.82 333.19 287.233C334.994 287.789 336.619 288.153 338.065 288.326C336.873 287.55 335.392 286.719 333.621 285.833C332.124 285.167 330.487 284.731 328.711 284.524C326.629 284.427 324.855 284.766 323.39 285.541C321.844 286.359 320.73 287.65 320.05 289.416C321.544 288.106 322.863 287.252 324.007 286.855C325.295 286.434 326.805 286.287 328.538 286.412ZM352.167 210.41C353.752 209.468 355.688 208.6 357.977 207.807C361.553 206.593 365.758 205.879 370.593 205.666C373.967 205.548 378.275 205.718 383.516 206.175C381.942 205.758 379.8 205.302 377.091 204.808C375.128 204.543 372.941 204.346 370.529 204.216C365.934 204.094 361.551 204.719 357.382 206.091C354.868 206.951 352.841 207.893 351.299 208.917C350.365 209.515 349.453 210.153 348.562 210.832C347.753 211.469 346.949 212.311 346.149 213.359C343.668 216.545 341.708 220.472 340.27 225.138L341.873 222.259C342.404 221.197 342.929 220.269 343.446 219.474C344.697 217.407 345.985 215.658 347.312 214.228C348.035 213.429 348.791 212.742 349.581 212.168C350.472 211.489 351.334 210.903 352.167 210.41ZM378.708 245.978C381.742 247.185 384.709 248.611 387.609 250.254C396.414 255.284 403.016 261.713 407.416 269.541C411.577 276.819 413.411 284.571 412.919 292.799C412.446 300.965 409.805 308.428 404.997 315.189C399.967 322.223 393.201 327.598 384.699 331.313C376.402 335.023 367.173 336.232 357.011 334.94C347.654 333.691 338.884 330.647 330.702 325.809C322.663 320.947 316.84 315.303 313.234 308.878C309.37 301.964 308.89 295.344 311.793 289.018C318.128 275.096 330.824 274.241 349.883 286.451C353.477 288.717 356.32 290.104 358.411 290.612C359.632 290.852 361.01 290.8 362.547 290.456C365.515 289.668 367.402 287.524 368.208 284.026C369.052 280.403 368.216 277.147 365.699 274.26C363.944 272.22 361.34 270.498 357.89 269.094C356.665 268.648 355.035 268.078 353.001 267.383L350.482 266.606L347.962 265.83C343.832 264.42 340.563 262.868 338.156 261.172C334.893 258.94 332.427 256 330.758 252.352C328.009 246.463 328.283 238.168 331.581 227.467C334.841 216.89 339.306 209.478 344.975 205.23C353.944 198.457 365.937 196.124 380.957 198.233C392.917 199.875 403.097 203.319 411.495 208.565C416.51 211.745 419.708 215.626 421.089 220.208C422.317 224.401 421.903 228.396 419.848 232.19C417.956 235.899 415.037 238.406 411.092 239.711C406.841 241.125 402.464 240.628 397.961 238.218C386.916 232.498 378.204 230.153 371.823 231.184C369.75 231.499 368.043 232.506 366.702 234.204C365.299 235.884 364.872 237.489 365.422 239.021C365.952 240.615 368.189 242.088 372.133 243.44L373.504 243.965L375.155 244.576C376.442 245.041 377.627 245.508 378.708 245.978ZM474.376 328.807C476.377 328.061 478.232 326.793 479.942 325.004C483.098 321.617 484.83 317.654 485.139 313.117C483.102 317.735 480.896 321.245 478.521 323.646C475.485 326.866 471.916 328.832 467.813 329.543C469.943 329.927 472.131 329.681 474.376 328.807ZM461.831 317.787C463.376 320.511 465.404 321.886 467.917 321.911C470.368 321.917 472.623 320.568 474.683 317.865C476.661 315.204 477.833 311.955 478.198 308.116C478.564 304.278 477.965 301.027 476.401 298.365C474.918 295.66 472.92 294.295 470.408 294.27C467.895 294.245 465.608 295.584 463.549 298.287C461.571 300.948 460.399 304.197 460.033 308.036C459.687 311.812 460.286 315.062 461.831 317.787ZM448.261 257.707C452.059 252.678 455.912 248.688 459.819 245.736C464.411 242.11 469.34 239.712 474.606 238.542C479.565 237.482 485.129 237.664 491.298 239.088C488.743 238.096 485.967 237.377 482.971 236.93C480.061 236.647 477.179 236.712 474.326 237.127C468.888 237.972 463.67 240.315 458.671 244.156C454.28 247.572 450.413 251.83 447.069 256.931C445.517 259.314 444.08 261.766 442.758 264.288C441.244 267.432 440.13 270.052 439.416 272.148C442.276 266.626 445.224 261.812 448.261 257.707ZM458.366 236.194C472.294 227.474 487.346 227.379 503.52 235.906C517.986 243.567 526.117 256.088 527.914 273.468C529.438 288.858 526.02 305.143 517.659 322.322C509.495 339.086 499.143 351.564 486.603 359.757C472.928 368.759 460.167 369.935 448.318 363.286C435.656 356.182 427.834 343.654 424.851 325.703C422.126 309.126 423.89 292.127 430.145 274.707C436.616 256.808 446.022 243.971 458.366 236.194ZM578.526 360.907C580.527 360.161 582.382 358.894 584.092 357.104C587.248 353.717 588.98 349.754 589.288 345.217C587.252 349.835 585.046 353.345 582.671 355.747C579.635 358.967 576.065 360.932 571.963 361.643C574.093 362.027 576.28 361.782 578.526 360.907ZM565.981 349.887C567.525 352.611 569.554 353.986 572.067 354.011C574.518 354.017 576.773 352.668 578.832 349.965C580.811 347.305 581.982 344.055 582.348 340.216C582.714 336.378 582.114 333.127 580.55 330.465C579.068 327.76 577.07 326.395 574.557 326.37C572.044 326.345 569.758 327.684 567.699 330.388C565.721 333.048 564.549 336.297 564.183 340.136C563.837 343.912 564.436 347.163 565.981 349.887ZM552.411 289.807C556.209 284.778 560.061 280.788 563.969 277.837C568.561 274.211 573.49 271.812 578.755 270.642C583.715 269.582 589.279 269.764 595.448 271.189C592.893 270.197 590.117 269.477 587.121 269.031C584.21 268.747 581.329 268.813 578.476 269.228C573.038 270.072 567.82 272.415 562.821 276.256C558.43 279.672 554.562 283.93 551.219 289.031C549.667 291.414 548.23 293.866 546.908 296.388C545.394 299.532 544.279 302.152 543.565 304.249C546.425 298.726 549.374 293.912 552.411 289.807ZM562.516 268.294C576.444 259.575 591.495 259.479 607.67 268.007C622.136 275.667 630.267 288.188 632.063 305.569C633.588 320.958 630.169 337.243 621.809 354.423C613.644 371.186 603.292 383.664 590.753 391.858C577.078 400.86 564.316 402.036 552.468 395.386C539.806 388.282 531.984 375.754 529.001 357.803C526.275 341.226 528.04 324.227 534.295 306.807C540.765 288.909 550.172 276.071 562.516 268.294Z" fill="#1F1F1F"/>
</svg>
