<svg width="100" height="173" viewBox="0 0 100 173" fill="none" xmlns="http://www.w3.org/2000/svg">
<path fill-rule="evenodd" clip-rule="evenodd" d="M29.2755 9.58669C34.3338 8.3529 40.7579 8.90037 45.7111 10.9965C47.9581 11.9334 50.3247 13.4207 52.3593 15.16C53.6591 16.2736 54.9726 17.6344 54.8135 17.683C54.7604 17.6992 54.8004 17.7368 54.8934 17.7582C55.2038 17.8258 56.9506 20.0646 58.1326 21.9138C59.4892 24.0097 60.4693 25.9586 61.6661 28.8908C62.2742 30.3663 63.8344 35.8592 64.1519 37.6239C64.6051 40.0457 64.6592 40.379 64.8407 41.7845C66.0644 50.6163 65.6678 58.7183 63.6876 65.4815C63.2151 67.1248 62.4776 69.1491 61.9533 70.271C61.0591 72.1559 59.1838 75.2891 57.813 77.182C56.0681 79.5758 53.09 82.4093 51.3322 83.3342L50.6045 83.719L50.8562 84.2789C51.0876 84.7703 51.0789 84.8856 50.8666 85.3003C50.7383 85.5517 50.6456 85.8303 50.6693 85.9108C50.6962 86.0022 51.1438 86.3908 51.6647 86.7806C53.2209 87.9285 53.7726 88.5723 54.0527 89.5231C54.4269 90.8449 54.1449 91.7054 53.1484 92.2103C52.5803 92.4965 51.8346 92.4742 50.6412 92.1143C49.3215 91.7183 48.8983 91.8096 48.0305 92.6998C47.2945 93.4488 47.098 94.2583 47.2612 95.8449C47.5647 98.5994 49.4748 101.589 52.3273 103.74C54.2144 105.174 58.4476 107.191 64.2684 109.433C68.5697 111.092 71.2125 112.582 73.8856 114.863C76.3082 116.933 77.4909 119.032 77.4328 121.148C77.4016 122.369 77.2599 122.874 76.3109 125.213C75.2357 127.815 75.0559 128.382 74.8141 129.73C74.7063 130.35 74.593 130.946 74.5669 131.054C74.5269 131.166 74.6293 131.71 74.7753 132.252C75.2009 133.846 76.028 134.93 77.6436 135.985C78.4344 136.506 82.0533 138.11 83.0505 138.392C84.9136 138.909 86.147 139.306 86.3844 139.472C86.5309 139.577 86.6448 139.618 86.6314 139.572C86.5839 139.411 88.3639 139.991 90.0318 140.682C92.2927 141.614 94.339 143 95.3363 144.269C95.7779 144.834 97.2622 147.266 97.5479 147.89C97.6726 148.164 97.9302 148.697 98.1189 149.09C98.7797 150.399 99.44 152.346 99.4525 153.028C99.4627 153.75 99.1047 154.408 98.6261 154.555C98.2005 154.685 98.0934 154.517 97.9526 153.548C97.7742 152.354 97.0514 150.639 95.8516 148.533C94.598 146.342 93.3858 144.839 92.1742 143.974C91.1491 143.251 88.4885 142.041 86.6277 141.485C82.2677 140.169 80.9544 139.697 78.8099 138.715C76.3156 137.579 74.7482 136.347 73.7668 134.786C73.3046 134.053 72.8215 132.465 72.8111 131.593C72.7998 130.522 73.4997 128.123 74.4961 125.795C75.0034 124.615 75.502 123.402 75.5975 123.086C76.2875 120.802 75.4843 118.912 72.7704 116.493C70.9388 114.854 67.7953 112.893 65.6615 112.046C57.1124 108.662 54.2094 107.326 51.8201 105.658C48.3585 103.257 46.1115 99.9091 45.7413 96.5868C45.6757 95.9203 45.6327 95.2836 45.6426 95.1679C45.6589 94.9755 45.5057 94.9974 44.3482 95.3013C42.6119 95.7572 41.673 95.7192 40.9079 95.1406C40.4603 94.8031 40.3372 94.6284 40.1514 93.9974C39.9354 93.2641 39.8581 91.5766 40.0035 91.0329C40.0494 90.8944 40.152 90.7006 40.2446 90.6225C40.38 90.4933 40.3566 90.4139 40.0531 90.0192C39.5715 89.417 39.4518 88.5665 39.7286 87.8333C39.9103 87.3663 39.9029 87.2428 39.7121 87.0391C39.3579 86.673 39.2622 86.152 39.467 85.6649C39.5989 85.3743 39.5989 85.2249 39.4813 85.2229C39.0783 85.2334 36.5592 84.7046 35.1533 84.3101C33.5106 83.8503 30.9952 82.7453 29.5376 81.8293C28.419 81.1347 25.7407 79.0797 24.4446 77.9271C22.5765 76.2626 19.6812 72.9755 18.3705 71.0399C16.4013 68.1445 15.6035 66.8146 14.295 64.2416C12.8183 61.3451 12.0887 59.4572 10.8462 55.2904C9.32044 50.1108 9.14093 49.2537 8.77752 45.1182C8.21201 38.521 8.7998 32.2971 10.5065 27.1662C11.7462 23.4029 14.0853 19.5777 16.8702 16.7286C18.4325 15.14 20.9576 13.2312 23.053 12.0786C24.2625 11.409 27.3894 10.0669 28.1975 9.85681C28.4109 9.80107 28.8962 9.67768 29.2755 9.58669ZM26.9186 11.9683C20.9784 14.2459 16.132 18.6617 13.3059 24.3707C10.7726 29.504 9.66404 36.8618 10.2654 44.66C10.5295 48.1641 10.8455 49.7788 11.9827 53.6908C13.0927 57.5104 13.7194 59.2922 14.6567 61.2921C17.2231 66.8036 19.7384 70.6183 23.584 74.8139C26.807 78.3258 31.194 81.4062 34.458 82.4449C38.5349 83.7345 42.1652 84.0494 47.3924 83.5384C48.0281 83.4817 50.1457 82.6473 50.8092 82.1943C53.94 80.0755 57.5402 75.4664 59.811 70.6755C60.4739 69.2859 61.2916 67.3378 61.2647 67.2465C61.2544 67.2116 61.3994 66.7179 61.5931 66.1464C62.4217 63.5951 63.141 59.4904 63.4029 55.8516C63.7319 51.4548 63.3923 44.9889 62.6118 40.5682C62.0495 37.4303 60.5183 31.6903 59.7586 29.8495C59.5865 29.4148 59.3044 28.7515 59.1564 28.3473C58.0529 25.587 55.6806 21.7156 53.6207 19.2974C49.8171 14.8517 44.8855 11.9366 39.5382 10.9605C35.9828 10.3109 32.9048 10.3893 29.3155 11.1991C29.0158 11.2658 28.73 11.3282 28.686 11.3286C28.6434 11.3286 27.8452 11.6235 26.9186 11.9683ZM41.3049 85.9606C41.2831 86.2792 44.1763 86.307 46.6425 86.0159C47.3012 85.9391 48.6871 85.4291 49.0193 85.1271C49.2414 84.9466 49.2233 84.5905 49.0111 84.6553C48.4795 84.8178 44.5435 85.3339 43.6904 85.3443C42.5817 85.3701 41.3275 85.6916 41.3049 85.9606ZM41.3168 88.1176C41.2352 88.4295 41.3835 88.9842 41.5873 89.1342C41.8473 89.3299 42.8096 89.2979 43.5812 89.0621C44.9904 88.6315 46.8016 87.6915 46.5781 87.5214C46.5242 87.4881 45.7191 87.5586 44.7872 87.694C43.8427 87.8332 42.774 87.8965 42.4002 87.8613C41.5322 87.7648 41.4122 87.8015 41.3168 88.1176ZM48.9056 87.498C47.9004 88.4171 46.9606 89.0162 45.5417 89.662C44.2591 90.2282 42.6503 90.7708 42.4698 90.7003C42.4033 90.6708 42.1373 90.7023 41.8515 90.7647L41.3329 90.8733L41.4237 92.0694C41.4699 92.717 41.5621 93.3754 41.6095 93.5364C41.8053 94.2012 42.6318 94.3482 43.9476 93.9462C44.8518 93.6699 45.7979 92.9942 46.5831 92.0665C47.3778 91.124 47.7666 90.8178 48.6276 90.4421C49.4392 90.0945 50.4676 90.1419 51.6673 90.5746C52.4308 90.8535 52.4744 90.8521 52.5888 90.6049C52.7733 90.1986 52.4659 89.7436 51.068 88.2971C50.396 87.5905 49.8214 86.9668 49.8044 86.9091C49.7541 86.7383 49.6686 86.7893 48.9056 87.498Z" fill="#DD5E8D"/>
<path fill-rule="evenodd" clip-rule="evenodd" d="M18.7985 19.5083C19.3604 19.6483 19.3408 19.8306 18.4408 21.751C18.2167 22.2213 17.9396 22.858 17.827 23.169C17.7157 23.4795 17.5009 24.0851 17.3357 24.5123C16.8326 25.9092 15.6406 30.4523 15.3137 32.2593C15.0456 33.722 13.7329 33.8871 13.3329 32.5183C13.1513 31.8968 13.3234 30.703 13.9242 28.3985C14.81 24.9904 15.9581 22.329 17.417 20.3363C17.915 19.6554 18.3452 19.3967 18.7985 19.5083Z" fill="#DD5E8D"/>
<path fill-rule="evenodd" clip-rule="evenodd" d="M14.5249 36.9965C14.888 37.1478 14.9088 37.3175 14.8104 38.7138C14.6925 40.241 14.3464 40.7865 13.6937 40.4864C13.1312 40.2454 12.941 38.262 13.39 37.4718C13.6654 37.0229 14.1389 36.8142 14.5249 36.9965Z" fill="#DD5E8D"/>
<path fill-rule="evenodd" clip-rule="evenodd" d="M15.3136 45.0538C15.5753 45.249 15.6667 45.4576 15.8666 46.4175C17.1103 52.285 17.779 54.5217 20.1922 60.9324C22.3189 66.5839 22.179 66.1668 21.9967 66.4825C21.7747 66.8597 21.4663 66.9524 20.9499 66.7843C20.3593 66.6136 20.1472 66.2417 18.7725 62.9624C16.6562 57.9287 16.0917 56.3831 15.2575 53.3013C14.3761 50.0106 14.099 48.3527 14.1279 46.4044C14.1558 45.1789 14.6646 44.5903 15.3136 45.0538Z" fill="#DD5E8D"/>
</svg>
