<svg width="116" height="187" viewBox="0 0 116 187" fill="none" xmlns="http://www.w3.org/2000/svg">
<path d="M31.4177 0.602051C38.4889 -0.744722 47.2791 0.208897 53.906 3.05225C56.9135 4.32435 60.0363 6.29466 62.6794 8.56885C64.3676 10.0248 66.0521 11.7925 65.8289 11.8472C65.7544 11.8654 65.8063 11.9141 65.9324 11.9448C66.3536 12.0433 68.5555 14.9346 70.0154 17.312C71.6933 20.0076 72.8668 22.5032 74.2498 26.2456C74.9537 28.1295 76.6053 35.1109 76.8835 37.3472C77.2893 40.4162 77.3346 40.8389 77.4578 42.6167C78.3469 53.7911 77.072 63.9799 73.739 72.4175C72.941 74.4679 71.744 76.9876 70.9216 78.3794C69.5217 80.7169 66.6588 84.5874 64.6023 86.9155C61.9859 89.8592 57.6334 93.306 55.1316 94.3989L54.0955 94.854L54.3914 95.5688C54.6656 96.1972 54.6436 96.3424 54.3142 96.856C54.1153 97.1671 53.963 97.5139 53.988 97.6167C54.0169 97.7329 54.5974 98.241 55.2791 98.7534C57.3172 100.263 58.0183 101.097 58.3181 102.306C58.7139 103.986 58.2482 105.059 56.8318 105.654C56.0245 105.991 55.0005 105.932 53.3914 105.43C51.6112 104.877 51.0201 104.974 49.7458 106.06C48.6658 106.973 48.3223 107.986 48.4041 109.991C48.5739 113.473 50.9337 117.316 54.6648 120.142C57.1323 122.026 62.7754 124.74 70.5828 127.803C76.352 130.069 79.8549 132.054 83.3279 135.037C86.4749 137.744 87.9127 140.437 87.6423 143.099C87.4896 144.636 87.2492 145.266 85.7332 148.173C84.0196 151.406 83.7212 152.114 83.2673 153.801C83.0634 154.577 82.8542 155.323 82.8083 155.458C82.7432 155.598 82.835 156.287 82.9871 156.976C83.4292 159.002 84.4703 160.401 86.5984 161.796C87.6405 162.485 92.4747 164.653 93.821 165.049C96.3379 165.777 97.9993 166.328 98.3113 166.546C98.503 166.684 98.6561 166.741 98.6423 166.683C98.5916 166.478 100.989 167.282 103.221 168.22C106.248 169.487 108.939 171.317 110.197 172.956C110.754 173.685 112.578 176.809 112.915 177.607C113.062 177.957 113.368 178.639 113.593 179.142C114.384 180.818 115.117 183.297 115.073 184.158C115.022 185.067 114.47 185.882 113.799 186.046C113.201 186.193 113.068 185.977 112.962 184.751C112.824 183.24 111.984 181.049 110.522 178.347C108.995 175.537 107.462 173.594 105.873 172.455C104.527 171.502 100.975 169.868 98.4646 169.092C92.5839 167.256 90.8192 166.607 87.9568 165.283C84.6271 163.749 82.5817 162.132 81.3718 160.126C80.8018 159.185 80.2796 157.165 80.3435 156.066C80.4244 154.717 81.6039 151.722 83.1843 148.832C83.9882 147.367 84.7831 145.859 84.9431 145.464C86.098 142.616 85.1628 140.201 81.6462 137.043C79.2734 134.904 75.1251 132.305 72.2654 131.151C60.8065 126.539 56.9323 124.736 53.7947 122.538C49.2477 119.371 46.4574 115.063 46.2468 110.863C46.2166 110.02 46.2139 109.216 46.238 109.071C46.2775 108.83 46.0642 108.851 44.4451 109.186C42.0153 109.689 40.7269 109.603 39.7263 108.843C39.1407 108.4 38.9868 108.174 38.7878 107.372C38.5567 106.439 38.6023 104.31 38.8513 103.631C38.927 103.459 39.0852 103.219 39.2195 103.125C39.4174 102.967 39.3925 102.866 39.0105 102.357C38.4021 101.579 38.3138 100.503 38.7605 99.5903C39.0526 99.0095 39.0535 98.8538 38.8093 98.5894C38.3549 98.1137 38.27 97.4533 38.5955 96.8481C38.8031 96.4876 38.8167 96.2998 38.655 96.2925C38.0986 96.2889 34.6806 95.5198 32.782 94.9653C30.5631 94.3188 27.2013 92.8233 25.2781 91.6099C23.8013 90.6889 20.3015 87.9907 18.6218 86.4858C16.2011 84.3127 12.5128 80.0538 10.8835 77.562C8.43458 73.8343 7.45641 72.1262 5.88745 68.8315C4.11625 65.1229 3.28275 62.7148 1.948 57.4155C0.314691 50.8288 0.144303 49.7419 0.0163574 44.5181C-0.168166 36.185 1.20046 28.369 4.0105 21.9761C6.05481 17.2869 9.61772 12.5649 13.7058 9.09033C15.9984 7.15346 19.6447 4.85175 22.6316 3.48584C24.3558 2.69211 28.7784 1.13088 29.9099 0.898926C30.2086 0.837476 30.8877 0.701107 31.4177 0.602051ZM52.7078 98.8394C52.6539 98.6221 52.5314 98.6831 51.4177 99.5444C49.952 100.661 48.6046 101.377 46.5945 102.132C44.7788 102.793 42.5161 103.41 42.2742 103.314C42.1848 103.274 41.8161 103.303 41.4177 103.37L40.6951 103.485L40.7117 104.996C40.717 105.813 40.7849 106.646 40.8357 106.851C41.0453 107.696 42.1697 107.916 44.0164 107.463C45.2851 107.152 46.6475 106.34 47.8113 105.204C48.9895 104.049 49.5526 103.679 50.7712 103.241C51.9191 102.836 53.3296 102.939 54.9412 103.533C55.9666 103.915 56.0272 103.915 56.2068 103.608C56.4968 103.104 56.1146 102.518 54.322 100.639C53.4617 99.7224 52.7271 98.9138 52.7078 98.8394ZM48.2136 99.478C48.1425 99.4338 47.0284 99.4903 45.7341 99.6226C44.422 99.7592 42.9455 99.7945 42.4343 99.7349C41.249 99.5779 41.0804 99.6192 40.9207 100.013C40.7804 100.403 40.934 101.108 41.2009 101.305C41.541 101.562 42.8681 101.562 43.9509 101.296C45.9287 100.812 48.5057 99.7014 48.2136 99.478ZM51.8191 95.9673C51.073 96.1501 45.6115 96.6394 44.4363 96.6177C42.9084 96.6046 41.1537 96.9585 41.0984 97.2964C41.0419 97.6965 45.0187 97.85 48.4373 97.5845C49.3505 97.5148 51.3035 96.9287 51.7878 96.562C52.1096 96.3437 52.1167 95.8944 51.8191 95.9673ZM45.4158 2.75342C40.5821 1.78937 36.3395 1.76232 31.3279 2.63525C30.9096 2.70695 30.5104 2.77329 30.45 2.77197C30.3879 2.77133 29.2646 3.10968 27.9607 3.50537C19.5824 6.13078 12.5164 11.4946 8.11401 18.5698C4.16649 24.9318 1.97952 34.1543 2.10522 44.0015C2.15339 48.4261 2.44224 50.4735 3.65503 55.4478C4.83861 60.3042 5.54134 62.5739 6.65112 65.1313C9.68644 72.1788 12.8036 77.0874 17.7175 82.5298C21.8362 87.0853 27.5954 91.1451 31.9929 92.5874C37.4866 94.3788 42.4538 94.9241 49.6921 94.4946C50.5719 94.4493 53.5603 93.4853 54.5144 92.9419C59.0129 90.4014 64.3818 84.7429 67.9373 78.8013C68.9744 77.0781 70.2747 74.6577 70.2458 74.5415C70.2358 74.4952 70.4793 73.88 70.7966 73.1694C72.1663 69.9898 73.5258 64.8494 74.2136 60.2769C75.062 54.752 75.176 46.593 74.4998 40.9927C74.0083 37.0171 72.4185 29.7241 71.5388 27.3745C71.3411 26.8198 71.0127 25.9727 70.8455 25.4575C69.5754 21.9355 66.6594 16.9619 64.0427 13.8315C59.2091 8.07602 52.6856 4.20208 45.4158 2.75342ZM7.85815 46.1167C8.01126 44.5681 8.7652 43.8431 9.61304 44.4546C9.95409 44.7116 10.0595 44.9794 10.2439 46.2007C11.402 53.6689 12.1108 56.5243 14.824 64.7251C17.2149 71.9546 17.0619 71.4219 16.782 71.814C16.4418 72.2819 16.0094 72.3866 15.3162 72.1538C14.5215 71.9148 14.2645 71.4357 12.6843 67.2358C10.2499 60.7882 9.6192 58.8118 8.76245 54.8823C7.8604 50.6868 7.63585 48.5792 7.85815 46.1167ZM7.7605 34.73C8.17954 34.1774 8.84986 33.9342 9.36499 34.1792C9.85115 34.3842 9.86473 34.5991 9.60522 36.3491C9.30736 38.2627 8.78253 38.9336 7.91089 38.5298C7.15788 38.2037 7.07224 35.7044 7.7605 34.73ZM14.9011 13.2163C15.6464 12.3821 16.261 12.0751 16.8748 12.2339C17.6356 12.4331 17.5935 12.6614 16.1853 15.0356C15.8354 15.6169 15.397 16.4048 15.2146 16.7905C15.0339 17.176 14.6847 17.9271 14.4197 18.4565C13.6039 20.1898 11.5625 25.8453 10.9529 28.1011C10.4547 29.9266 8.63445 30.0795 8.20483 28.3442C8.00978 27.5561 8.35124 26.0639 9.38159 23.1948C10.9017 18.9519 12.7174 15.658 14.9011 13.2163Z" fill="#FC795B"/>
</svg>
