<svg width="109" height="211" viewBox="0 0 109 211" fill="none" xmlns="http://www.w3.org/2000/svg">
<path fill-rule="evenodd" clip-rule="evenodd" d="M69.009 6.41247C62.2338 5.64582 53.9634 7.30452 47.8512 10.6676C45.0762 12.1757 42.2328 14.3873 39.8608 16.8622C38.3459 18.4463 36.8524 20.3403 37.0671 20.3766C37.1386 20.3887 37.0925 20.4416 36.9749 20.4824C36.5819 20.6138 34.6633 23.6666 33.4179 26.1487C31.9845 28.9644 31.0174 31.5398 29.924 35.3723C29.3661 37.3018 28.2046 44.3776 28.0705 46.623C27.8636 49.7069 27.8459 50.1301 27.832 51.9075C27.6359 63.0891 29.4322 73.1155 33.077 81.2343C33.9515 83.2083 35.2308 85.6164 36.0901 86.9334C37.5512 89.1439 40.4859 92.7595 42.5683 94.9076C45.2166 97.6224 49.5385 100.697 51.9713 101.581L52.9787 101.95L52.7398 102.685C52.5164 103.332 52.5459 103.474 52.8877 103.958C53.0943 104.252 53.2589 104.584 53.2408 104.688C53.2202 104.806 52.6994 105.358 52.0834 105.923C50.2403 107.588 49.6245 108.474 49.4104 109.7C49.1325 111.402 49.6353 112.431 51.0114 112.908C51.7956 113.178 52.7622 113.037 54.2578 112.407C55.9119 111.713 56.4768 111.763 57.7465 112.739C58.8223 113.559 59.2058 114.537 59.2443 116.538C59.2848 120.013 57.2725 124.025 53.9017 127.137C51.6736 129.21 46.4854 132.364 39.2677 136.041C33.9344 138.76 30.7321 141.018 27.6151 144.264C24.7908 147.21 23.584 150.003 23.994 152.628C24.2276 154.144 24.4917 154.751 26.0959 157.519C27.9058 160.594 28.2293 161.273 28.7568 162.914C28.995 163.67 29.2367 164.395 29.2876 164.525C29.3574 164.658 29.3101 165.351 29.2059 166.048C28.9043 168.098 27.9995 169.573 26.0646 171.132C25.1182 171.901 20.6639 174.448 19.4114 174.951C17.0694 175.878 15.5277 176.561 15.2451 176.803C15.0711 176.956 14.9294 177.024 14.9397 176.965C14.9759 176.758 12.7521 177.751 10.6915 178.864C7.89773 180.369 5.45491 182.406 4.3581 184.137C3.87284 184.907 2.32622 188.16 2.05318 188.981C1.93424 189.341 1.68348 190.044 1.5001 190.562C0.847302 192.292 0.296122 194.816 0.387702 195.668C0.488478 196.568 1.05824 197.333 1.70394 197.442C2.27808 197.539 2.39103 197.314 2.42109 196.087C2.46436 194.573 3.13354 192.328 4.36151 189.523C5.64607 186.606 6.98545 184.55 8.42475 183.288C9.64401 182.232 12.9139 180.321 15.2467 179.346C20.7105 177.045 22.3443 176.257 24.9789 174.709C28.0441 172.915 29.8883 171.142 30.9183 169.05C31.4038 168.067 31.7812 166.016 31.657 164.929C31.5024 163.594 30.2127 160.713 28.5486 157.967C27.7023 156.576 26.8618 155.141 26.6877 154.761C25.4292 152.023 26.1753 149.548 29.3234 146.124C31.4471 143.805 35.2264 140.885 37.8683 139.506C48.4549 133.993 52.02 131.888 54.8647 129.448C58.9883 125.932 61.3822 121.422 61.3387 117.23C61.3187 116.39 61.2741 115.591 61.2428 115.448C61.1912 115.211 61.394 115.215 62.9478 115.418C65.2786 115.721 66.494 115.531 67.3977 114.694C67.9267 114.206 68.0592 113.97 68.2013 113.156C68.3664 112.21 68.2002 110.097 67.9251 109.443C67.8435 109.277 67.6794 109.052 67.5466 108.968C67.35 108.828 67.3679 108.726 67.7003 108.188C68.2316 107.365 68.253 106.288 67.7771 105.417C67.4668 104.864 67.457 104.709 67.673 104.426C68.0759 103.917 68.118 103.253 67.7747 102.678C67.5572 102.336 67.5335 102.15 67.6862 102.13C68.212 102.082 71.4055 101.04 73.1721 100.335C75.2363 99.513 78.3338 97.7547 80.0853 96.3926C81.4307 95.3577 84.5899 92.3919 86.0939 90.7598C88.261 88.4034 91.5079 83.8706 92.907 81.2614C95.0111 77.3573 95.8387 75.5803 97.1342 72.1778C98.5975 68.3472 99.2482 65.8859 100.206 60.5093C101.372 53.8287 101.47 52.7344 101.289 47.5305C100.983 39.2311 99.2343 31.5719 96.2032 25.4436C93.9958 20.9471 90.3484 16.5405 86.2753 13.417C83.9919 11.677 80.4054 9.68462 77.4974 8.56841C75.8182 7.91875 71.5384 6.7235 70.454 6.58478C70.1676 6.54786 69.5167 6.46805 69.009 6.41247ZM72.4514 9.01897C80.5387 10.951 87.5411 15.7115 92.1198 22.3892C96.2265 28.3947 98.8314 37.3863 99.2816 47.1864C99.4918 51.5891 99.3359 53.6473 98.4748 58.6907C97.6345 63.6149 97.1009 65.9285 96.1976 68.5609C93.7301 75.8129 91.061 80.9447 86.7214 86.7531C83.0837 91.6155 77.8636 96.1177 73.7818 97.9074C68.682 100.133 64.0094 101.077 57.1287 101.236C56.2927 101.262 53.4062 100.545 52.4715 100.082C48.0639 97.9208 42.652 92.7303 38.9409 87.111C37.859 85.4818 36.4873 83.181 36.5079 83.0631C36.5157 83.0182 36.2491 82.4256 35.9068 81.7436C34.4257 78.6932 32.8413 73.6924 31.9255 69.2021C30.8026 63.7781 30.2225 55.6767 30.5393 50.0543C30.7748 46.0621 31.8595 38.683 32.5569 36.2758C32.7121 35.7083 32.9742 34.8397 33.1028 34.3139C34.1021 30.7096 36.5763 25.5289 38.8737 22.205C43.1192 16.0918 49.0738 11.7124 55.8757 9.68386C60.3981 8.33424 64.4146 7.9637 69.2118 8.42594C69.6122 8.46336 69.9938 8.49762 70.0511 8.49141C70.1066 8.48491 71.1915 8.73063 72.4514 9.01897ZM65.4305 103.326C65.5092 103.719 61.7499 104.194 58.4957 104.207C57.6267 104.211 55.7433 103.787 55.2633 103.462C54.9459 103.271 54.9132 102.824 55.1995 102.873C55.9167 102.994 61.1185 103.038 62.2299 102.921C63.6762 102.785 65.3586 102.994 65.4305 103.326ZM65.756 106.013C65.9114 106.389 65.8062 107.102 65.5647 107.32C65.2574 107.603 64.0005 107.71 62.9595 107.533C61.0582 107.212 58.5536 106.317 58.8175 106.071C58.8823 106.021 59.9407 105.987 61.1744 106.013C62.4251 106.043 63.8254 105.959 64.306 105.859C65.42 105.607 65.5818 105.634 65.756 106.013ZM55.786 106.396C57.2389 107.387 58.5561 107.99 60.5039 108.578C62.2619 109.088 64.4406 109.519 64.6642 109.404C64.746 109.357 65.097 109.356 65.4787 109.39L66.1705 109.446L66.2414 110.949C66.2836 111.762 66.2678 112.596 66.2316 112.804C66.0819 113.661 65.03 113.97 63.2547 113.67C62.0349 113.463 60.6973 112.766 59.5292 111.73C58.3466 110.678 57.7924 110.356 56.6128 110.019C55.5022 109.71 54.1719 109.925 52.6796 110.646C51.7305 111.11 51.6735 111.114 51.4856 110.824C51.1814 110.346 51.5094 109.733 53.0993 107.72C53.8618 106.738 54.5107 105.874 54.5237 105.8C54.5622 105.579 54.6814 105.63 55.786 106.396Z" fill="#80C11E"/>
<path fill-rule="evenodd" clip-rule="evenodd" d="M83.3966 16.8153C82.6875 17.0751 82.7416 17.2984 84.2141 19.5456C84.5795 20.0953 85.0401 20.8436 85.2354 21.2124C85.4289 21.581 85.8035 22.3002 86.0855 22.8053C86.9595 24.4631 89.2237 29.9221 89.9328 32.116C90.5113 33.8912 92.2449 33.8956 92.5504 32.135C92.6891 31.3354 92.2777 29.8795 91.1342 27.1096C89.4464 23.0131 87.5348 19.8839 85.3238 17.6325C84.5691 16.8631 83.9687 16.6075 83.3966 16.8153Z" fill="#80C11E"/>
<path fill-rule="evenodd" clip-rule="evenodd" d="M91.7443 38.0391C91.2955 38.2824 91.2952 38.4965 91.6429 40.2161C92.0366 42.0955 92.5728 42.7204 93.375 42.2479C94.0692 41.8626 94.0047 39.3695 93.2961 38.4563C92.867 37.9407 92.2179 37.7537 91.7443 38.0391Z" fill="#80C11E"/>
<path fill-rule="evenodd" clip-rule="evenodd" d="M92.1056 48.281C91.7982 48.5643 91.7131 48.8386 91.6074 50.0679C90.9321 57.5855 90.423 60.4805 88.3218 68.8526C86.4703 76.2333 86.5849 75.6911 86.8708 76.0581C87.2179 76.4959 87.6315 76.5654 88.2726 76.2776C89.0091 75.9755 89.2243 75.479 90.4805 71.1752C92.4169 64.568 92.901 62.5521 93.4897 58.5764C94.1063 54.3326 94.201 52.2196 93.8537 49.7899C93.6228 48.263 92.8712 47.6042 92.1056 48.281Z" fill="#80C11E"/>
</svg>
