<svg width="180" height="244" viewBox="0 0 180 244" fill="none" xmlns="http://www.w3.org/2000/svg">
<path d="M68.0012 181.119C67.8092 181.071 67.6824 180.891 67.7165 180.714C69.7922 169.996 69.8624 163.728 69.8632 163.666C69.8645 163.482 70.027 163.345 70.2255 163.359C70.4248 163.375 70.5841 163.535 70.5827 163.719C70.5823 163.782 70.5126 170.099 68.4252 180.878C68.3902 181.057 68.2035 181.166 68.0079 181.121C68.0058 181.12 68.0037 181.12 68.0012 181.119Z" fill="#A5503D"/>
<path d="M71.4736 181.573C71.4671 181.572 71.46 181.57 71.4536 181.568C71.2576 181.509 71.1395 181.319 71.1897 181.144C73.1709 174.186 74.4603 164.431 74.4757 163.837C74.4647 163.668 74.595 163.524 74.7816 163.508C74.9809 163.492 75.1696 163.627 75.2022 163.812C75.253 164.096 73.9185 174.263 71.8989 181.356C71.8504 181.526 71.6628 181.62 71.4736 181.573Z" fill="#A5503D"/>
<path d="M75.5437 182.022C75.3427 181.973 75.2116 181.789 75.2513 181.61L79.0346 164.53C79.0743 164.351 79.2693 164.246 79.4707 164.295C79.6718 164.343 79.8029 164.528 79.7631 164.707L75.9799 181.787C75.9402 181.966 75.7448 182.071 75.5437 182.022Z" fill="#A5503D"/>
<path d="M79.4588 182.974C79.2821 182.93 79.1548 182.773 79.1675 182.604C79.6694 175.777 83.3509 165.871 83.6159 165.624C83.7524 165.497 83.9818 165.504 84.1291 165.64C84.2609 165.76 84.2821 165.943 84.1879 166.071C83.8375 166.709 80.3783 176.084 79.892 182.697C79.8785 182.881 79.7054 183.008 79.5053 182.982C79.4896 182.98 79.4741 182.977 79.4588 182.974Z" fill="#A5503D"/>
<path d="M83.0693 183.766C82.8833 183.72 82.7553 183.551 82.7793 183.377C84.2466 172.682 87.0384 166.734 87.0667 166.675C87.1447 166.51 87.3561 166.443 87.5436 166.53C87.7284 166.614 87.8149 166.816 87.7362 166.981C87.7085 167.039 84.9548 172.914 83.5011 183.508C83.4762 183.69 83.2945 183.807 83.0952 183.771C83.0861 183.769 83.0775 183.768 83.0693 183.766Z" fill="#A5503D"/>
<path d="M67.8754 25.6561C67.8754 25.6561 54.7398 22.4657 41.2343 44.6722C27.729 66.8789 35.5509 94.7299 48.7742 113.699C61.9976 132.668 71.8008 159.611 71.8008 159.611C71.8008 159.611 80.2212 162.412 75.3866 150.82C70.5514 139.228 31.4019 63.5545 67.8754 25.6561Z" fill="#D2B5D4"/>
<path d="M88.0718 21.6679C88.8537 21.0263 69.1475 15.5432 56.9862 33.9864C44.8248 52.4299 47.3936 80.8004 57.9579 109.54C68.5237 138.28 74.949 158.432 74.949 158.432C74.949 158.432 79.2988 164.479 79.0033 152.284C78.7074 140.09 53.7326 49.8648 88.0718 21.6679Z" fill="#FDE2FF"/>
<path d="M147.524 45.0063C147.524 45.0063 160.991 48.8596 164.841 75.6461C168.691 102.433 150.59 121.113 130.761 133.612C112.097 145.375 91.3419 162.966 91.3419 162.966C91.3419 162.966 82.4136 161.173 91.4556 153.261C100.498 145.35 166.58 97.5794 147.524 45.0063Z" fill="#FFF2C3"/>
<path d="M130.16 31.4448C129.707 30.4791 149.533 35.3794 153.28 58.0009C157.026 80.6228 143.687 104.815 123.025 125.353C102.363 145.89 88.7561 160.781 88.7561 160.781C88.7561 160.781 82.4998 164.042 87.5066 153.24C92.5146 142.439 150.026 73.8794 130.16 31.4448Z" fill="#F3DF7C"/>
<path d="M105.843 22.1872C105.843 22.1872 85.2342 9.58985 72.2077 36.0775C59.1816 62.5652 63.6189 88.0744 68.1901 108.399C72.7605 128.723 76.3406 158.36 76.3406 158.36C76.3406 158.36 80.6736 164.704 81.6066 155.666C82.5404 146.63 76.357 41.7939 105.843 22.1872Z" fill="#82D8D9"/>
<path d="M114.313 23.6425C114.313 23.6425 137.776 22.4811 139.044 52.6779C140.312 82.8746 126.286 103.593 114.181 119.59C102.076 135.587 87.1933 160.433 87.1933 160.433C87.1933 160.433 80.806 163.996 83.5266 155.422C86.246 146.849 133.068 55.767 114.313 23.6425Z" fill="#E8FFC3"/>
<path d="M83.9443 158.639C83.9443 158.639 102.673 51.4255 114.252 22.3438C114.252 22.3438 93.2959 10.6365 82.4694 52.9006C71.6437 95.1647 82.7041 123.394 78.7683 157.316C78.7683 157.316 80.223 162.595 83.9443 158.639Z" fill="#D1FBFA"/>
<path d="M79.794 157.302C79.794 157.302 105.83 51.9557 107.057 20.2278C107.057 20.2278 130.551 19.8827 123.379 63.081C116.207 106.279 94.9946 126.259 84.9694 158.624C84.9694 158.624 81.5533 162.658 79.794 157.302Z" fill="#BEE288"/>
<path opacity="0.2" d="M161.303 63.3465C161.303 63.3465 166.235 104.096 116.211 117.368C66.1869 130.641 35.5559 81.16 35.5559 81.16C35.5559 81.16 36.0935 92.9386 46.0002 108.028C55.907 123.117 69.7217 152.289 70.0686 156.354C70.0686 156.354 84.9236 155.994 92.5084 162.242C92.5084 162.242 112.468 142.784 130.768 131.406C149.068 120.029 173.007 99.9123 161.303 63.3465Z" fill="#E6F3FA"/>
<path opacity="0.3" d="M107.146 22.9933C107.146 22.9933 70.0087 12.1463 50.5277 39.6944C31.046 67.2423 92.1349 82.2942 123.726 55.197C145.851 36.221 117.517 25.4266 107.146 22.9933Z" fill="#FBFBFB"/>
<path d="M67.7449 157.892C67.7449 157.892 80.6847 154.93 92.6227 164.02C92.6227 164.02 89.3377 167.575 87.7771 171.181C87.7771 171.181 77.4215 166.49 68.9859 167.205C68.9859 167.205 69.4266 162.932 67.7449 157.892Z" fill="#FC795B"/>
<path d="M69.0554 164.708C69.0554 164.708 77.8473 163.271 88.6343 169.286L87.4358 171.558C87.4358 171.558 77.5423 166.725 68.9585 167.329L69.0554 164.708Z" fill="#A5503D"/>
<path opacity="0.4" d="M67.5545 156.691C67.5545 156.691 80.7665 153.263 93.3425 163.203L92.5776 163.845C92.5776 163.845 82.1247 155.131 67.953 157.853L67.5545 156.691Z" fill="#BA3C1A"/>
<path d="M66.4286 179.942C66.4286 179.942 76.7749 180.437 84.6391 184.357C84.6391 184.357 83.0879 187.816 83.538 193.153C84.0355 199.054 72.7398 198.731 65.5748 194.163C59.9574 189.575 66.4599 184.076 66.4286 179.942Z" fill="#E3C327"/>
<path d="M66.6382 179.889C66.6382 179.889 76.7213 179.797 84.6555 184.174C84.6555 184.174 85.9229 185.69 83.8979 186.387C83.8979 186.387 75.0113 182.241 66.2061 182.517C66.2061 182.517 64.7686 180.825 66.6382 179.889Z" fill="#FC795B"/>
<path opacity="0.2" d="M65.9825 182.66C65.9825 182.66 74.6198 186.226 75.4133 191.718C76.2078 197.21 72.5068 196.477 72.5068 196.477C72.5068 196.477 81.2912 198.363 82.6175 194.44C83.1185 190.444 82.6858 189.509 83.569 186.023C83.569 186.023 74.8404 180.579 65.9825 182.66Z" fill="#F15A29"/>
<path d="M79.2001 184.52C79.2001 184.52 79.099 186.201 77.7065 188.086C76.3138 189.971 77.6459 193.117 79.9681 191.801C82.7321 190.235 79.2325 188.079 79.8919 184.822C80.3444 182.595 79.3169 183.548 79.2001 184.52Z" fill="#A5503D"/>
<path d="M81.4019 185.011C81.4019 185.011 81.2859 186.597 79.9934 188.396C78.7009 190.196 79.866 193.141 81.9946 191.864C84.5284 190.344 81.3804 188.365 82.0264 185.284C82.4693 183.177 81.5215 184.092 81.4019 185.011Z" fill="#CC5236"/>
<path d="M69.6723 182.623C69.6723 182.623 69.3843 184.274 70.2941 186.527C71.2031 188.78 69.1994 191.393 67.2628 189.398C64.9575 187.022 68.8248 186.041 68.9361 182.697C69.0119 180.409 69.7829 181.649 69.6723 182.623Z" fill="#A5503D"/>
<path d="M67.4311 182.477C67.4311 182.477 67.1791 184.042 68.0119 186.18C68.8445 188.318 67.0463 190.792 65.2883 188.894C63.1948 186.636 66.6828 185.715 66.767 182.545C66.8236 180.376 67.5271 181.553 67.4311 182.477Z" fill="#CC5236"/>
<path d="M102.87 50.5701C119.556 54.4436 129.916 71.0545 126.033 87.6561C122.151 104.258 105.49 114.596 88.803 110.723C72.1165 106.849 61.757 90.2381 65.6393 73.6366C69.5217 57.0351 86.1833 46.6966 102.87 50.5701Z" fill="#FBFBFB" stroke="#80C11E" stroke-width="6"/>
<path d="M131.704 54.1837L93.227 90.4772L86.23 73.198" stroke="#80C11E" stroke-width="8" stroke-linecap="round" stroke-linejoin="round"/>
<path d="M12.3547 209.845C12.3547 209.845 4.32594 206.402 1.11444 210.533C-2.09706 214.664 1.75685 220.859 11.0699 218.794C11.0699 218.794 12.0332 230.152 24.5583 231.529C37.0829 232.906 40.2944 225.334 40.2944 225.334C40.2944 225.334 41.7047 240.364 58.6 243.577C74.5228 246.604 81.0806 231.185 81.0806 231.185C81.0806 231.185 87.9295 238.331 99.1698 235.233C110.41 232.135 111.911 224.99 111.911 224.99C111.911 224.99 128.025 229.96 131.501 217.417C135.242 203.919 116.728 200.551 116.728 200.551C116.728 200.551 117.288 187.824 105.167 184.03C96.2911 181.251 90.7151 190.914 90.7151 190.914C90.7151 190.914 83.8266 183.975 74.3599 188.349C66.1818 192.127 65.9869 199.174 65.9869 199.174C65.9869 199.174 64.628 182.886 48.5704 180.476C32.5129 178.067 28.4128 192.635 28.4128 192.635C28.4128 192.635 12.9971 190.913 12.3547 209.845Z" fill="#B5E4FE"/>
<path d="M130.929 218.967C123.548 225.773 112.717 221.937 112.717 221.937C116.961 219.663 117.777 212.315 117.777 212.315C117.777 212.315 115.328 217.738 108.963 219.313C102.597 220.887 98.5165 214.939 98.5165 214.939C100.149 220.538 105.208 222.462 105.208 222.462C105.208 222.462 99.659 229.285 91.661 230.16C83.6631 231.034 79.7459 227.01 79.7459 227.01C83.9895 225.261 85.9486 221.237 85.9486 221.237C90.1928 220.712 91.8245 217.213 91.8245 217.213C83.3368 220.887 77.9507 216.688 77.9507 216.688C79.2567 219.137 83.1739 220.712 83.1739 220.712C83.1739 220.712 82.5212 223.161 76.6448 224.736C70.769 226.31 65.3824 222.811 65.3824 222.811C68.4835 227.185 74.5228 228.409 74.5228 228.409C74.5228 228.409 66.8512 236.632 56.0785 234.357C45.3059 232.083 43.3472 221.587 43.3472 221.587C47.4279 220.712 50.8559 216.338 50.8559 216.338C36.9816 222.112 29.6369 212.84 29.6369 212.84C30.7794 218.438 33.8805 220.362 33.8805 220.362C33.8805 220.362 29.4735 225.96 21.4756 224.036C13.4776 222.112 12.9879 214.064 12.9879 214.064C12.9879 214.064 9.23352 217.738 4.17381 215.988C2.02793 215.246 0.856767 213.749 0.212734 212.271C-0.961678 216.169 2.99993 220.583 11.0709 218.793C11.0709 218.793 12.0343 230.151 24.5593 231.528C37.0839 232.906 40.2954 225.333 40.2954 225.333C40.2954 225.333 41.7058 240.363 58.6011 243.576C74.5238 246.603 81.0816 231.184 81.0816 231.184C81.0816 231.184 87.9305 238.33 99.1708 235.232C110.411 232.134 111.912 224.989 111.912 224.989C111.912 224.989 126.578 229.482 130.929 218.967Z" fill="#ABD4F4"/>
<path d="M116.728 200.55C116.728 200.55 117.288 187.823 105.167 184.029C96.2912 181.25 90.7151 190.913 90.7151 190.913C90.7151 190.913 83.8267 183.974 74.3599 188.348C66.1818 192.126 65.987 199.173 65.987 199.173C65.987 199.173 64.628 182.885 48.5705 180.475C32.513 178.066 28.4128 192.634 28.4128 192.634C28.4128 192.634 17.4129 191.407 13.6104 202.439C15.3216 200.604 19.1252 196.983 22.6284 196.808C27.3282 196.574 29.8416 198.682 29.8416 198.682C29.8416 198.682 32.4648 189.428 44.3778 189.428C56.2908 189.428 58.9134 204.422 58.9134 204.422C58.9134 204.422 63.176 200.205 68.3125 201.493C73.4491 202.781 74.433 204.422 74.433 204.422C74.433 204.422 74.105 196.808 80.5535 194.582C87.0019 192.357 90.3899 197.042 90.3899 197.042C90.3899 197.042 86.7833 198.097 85.144 202.43C85.144 202.43 92.3571 196.925 98.6963 200.556C98.6963 200.556 96.0731 197.159 93.4504 197.042C93.4504 197.042 96.2922 189.428 103.177 190.014C110.063 190.6 114.434 202.782 114.434 202.782C114.434 202.782 120.041 202.374 125.753 204.071C121.532 201.429 116.728 200.55 116.728 200.55Z" fill="#ABD4F4"/>
</svg>
