<svg width="94" height="94" viewBox="0 0 94 94" fill="none" xmlns="http://www.w3.org/2000/svg">
<path d="M67.6244 12.4824C66.3426 13.5908 65.3642 15.0076 64.782 16.5983C64.1997 18.1891 64.0329 19.9012 64.2974 21.5723C64.3614 22.0612 64.2299 22.5142 63.8705 22.8695L63.8052 22.9347C63.67 23.073 63.5086 23.183 63.3304 23.2581C63.1522 23.3332 62.9609 23.3719 62.7677 23.3719C62.5746 23.3719 62.3834 23.3332 62.2056 23.2581C62.0278 23.183 61.8669 23.073 61.7325 22.9347L42.8218 3.97586C42.5173 3.66673 42.1543 3.42129 41.7539 3.25378C41.3534 3.08626 40.9236 3 40.4891 3C40.0547 3 39.6244 3.08626 39.2231 3.25378C38.8219 3.42129 38.4577 3.66673 38.1517 3.97586L27.9846 14.1348C27.5675 14.5504 27.2361 15.044 27.0096 15.5873C26.783 16.1306 26.6656 16.713 26.6642 17.3011C26.6627 17.8893 26.7772 18.4717 27.0011 19.015C27.225 19.5583 27.5539 20.0519 27.969 20.4675L28.0666 20.5326C28.9379 21.4126 30.1686 21.8983 31.4332 21.8331C32.9413 21.7612 34.445 22.0338 35.8304 22.6302C37.2158 23.2265 38.4464 24.1309 39.4288 25.2748C40.9865 27.0903 41.84 29.4061 41.8341 31.8014C41.8282 34.1966 40.9633 36.5124 39.3965 38.3279C38.4995 39.3646 37.3991 40.2059 36.1638 40.7995C34.9285 41.3931 33.5849 41.7263 32.2166 41.7783C30.8483 41.8302 29.4847 41.5999 28.2106 41.1016C26.9366 40.6033 25.7794 39.8478 24.8112 38.882C23.8237 37.8703 23.0587 36.663 22.5653 35.3373C22.0719 34.0117 21.861 32.597 21.946 31.1837C22.0469 29.9159 21.5612 28.6513 20.6574 27.7746C20.2443 27.3576 19.7526 27.0266 19.2107 26.8007C18.6687 26.5749 18.0871 26.4586 17.4994 26.4586C16.9117 26.4586 16.3296 26.5749 15.7865 26.8007C15.2434 27.0266 14.7501 27.3576 14.335 27.7746L4.10586 38.002C3.7962 38.3081 3.55009 38.6723 3.38176 39.0737C3.21343 39.4751 3.12621 39.9056 3.12513 40.3405C3.12406 40.7754 3.20916 41.2059 3.37551 41.6073C3.54186 42.0087 3.78617 42.3729 4.09432 42.679L23.0732 61.7388C23.2114 61.8742 23.3211 62.0359 23.3958 62.2145C23.4706 62.393 23.5088 62.5848 23.5083 62.7785C23.5078 62.9722 23.4687 63.164 23.3931 63.3426C23.3174 63.5211 23.207 63.6828 23.0681 63.8182C22.9021 63.9877 22.696 64.1125 22.469 64.1809C22.242 64.2493 22.0015 64.2591 21.77 64.2093C20.0922 63.9223 18.3677 64.07 16.7609 64.6382C15.1542 65.2065 13.7187 66.1764 12.5913 67.4555C11.0144 69.2709 10.1405 71.5906 10.1285 73.9923C10.1166 76.394 10.9675 78.718 12.5264 80.5412C13.4179 81.5799 14.515 82.4225 15.7488 83.016C16.9826 83.6095 18.3264 83.9412 19.6958 83.9902C21.0653 84.0391 22.4307 83.8044 23.7065 83.3006C24.9822 82.7968 26.1406 82.0349 27.109 81.0627C28.2213 79.9495 29.0555 78.5899 29.5434 77.0946C30.0313 75.5993 30.1592 74.0107 29.9167 72.4584C29.8791 72.223 29.8983 71.982 29.9725 71.7553C30.0468 71.5285 30.174 71.3227 30.3436 71.1547L30.4089 71.0895C30.5441 70.9511 30.7055 70.8412 30.8837 70.7661C31.0618 70.691 31.2532 70.6523 31.4463 70.6523C31.6395 70.6523 31.8306 70.691 32.0084 70.7661C32.1863 70.8412 32.3471 70.9511 32.4816 71.0895L51.3304 90.0255C51.6349 90.3342 51.9977 90.5792 52.3978 90.7464C52.7979 90.9136 53.2274 90.9997 53.6615 90.9997C54.0955 90.9997 54.5254 90.9136 54.9264 90.7464C55.3273 90.5792 55.6913 90.3342 55.9973 90.0255L66.1643 79.8568C66.581 79.4412 66.9119 78.9479 67.1382 78.4049C67.3645 77.8619 67.4817 77.2799 67.4832 76.6921C67.4846 76.1043 67.3703 75.5223 67.1467 74.9793C66.9231 74.4363 66.5946 73.943 66.18 73.5274L66.1149 73.4622C65.6759 73.0227 65.1496 72.6799 64.5699 72.456C63.9902 72.2321 63.3697 72.1319 62.7484 72.1618C61.2403 72.2336 59.7365 71.961 58.3512 71.3647C56.9658 70.7683 55.7352 69.8639 54.7528 68.7201C53.195 66.9045 52.3416 64.5887 52.3475 62.1935C52.3534 59.7983 53.2183 57.4825 54.785 55.6669C55.6821 54.6303 56.7825 53.789 58.0178 53.1954C59.253 52.6017 60.5967 52.2686 61.965 52.2166C63.3333 52.1646 64.6969 52.3949 65.9709 52.8932C67.245 53.3915 68.4021 54.1471 69.3703 55.1129C71.4704 57.2248 72.4379 60.018 72.2356 62.7785C72.1673 64.0464 72.6205 65.2783 73.5243 66.1877C73.9373 66.6047 74.429 66.9357 74.971 67.1615C75.513 67.3874 76.0945 67.5037 76.6822 67.5037C77.2699 67.5037 77.852 67.3874 78.3951 67.1615C78.9382 66.9357 79.4316 66.6047 79.8467 66.1877L90.1117 55.9277C90.4214 55.6216 90.6675 55.2574 90.8358 54.856C91.0041 54.4546 91.0914 54.0241 91.0924 53.5892C91.0935 53.1543 91.0084 52.7238 90.8421 52.3224C90.6757 51.921 90.4314 51.5568 90.1233 51.2507L71.1769 32.2234C71.0387 32.088 70.929 31.9263 70.8542 31.7478C70.7795 31.5692 70.7413 31.3775 70.7418 31.1837C70.7422 30.99 70.7814 30.7983 70.857 30.6197C70.9326 30.4412 71.0431 30.2794 71.182 30.1441C71.5414 29.7855 72.0273 29.6552 72.4801 29.7529C74.0471 30.0247 75.6574 29.9161 77.1756 29.4363C78.6937 28.9565 80.0755 28.1195 81.2046 26.9957C82.1761 26.0239 82.9373 24.8628 83.4407 23.5847C83.9441 22.3067 84.1788 20.9392 84.1302 19.5678C84.0816 18.1963 83.7507 16.8503 83.1582 15.6138C82.5657 14.3773 81.7244 13.2769 80.6867 12.3814C76.9368 9.26555 71.3313 9.26555 67.6277 12.4791" stroke="#2DC0C2" stroke-width="5"/>
</svg>
