<svg width="104" height="88" viewBox="0 0 104 88" fill="none" xmlns="http://www.w3.org/2000/svg">
<path d="M5.57143 64.3077C4.09379 64.3077 2.67668 63.7728 1.63183 62.8207C0.586988 61.8686 0 60.5773 0 59.2308V6.76923C0 4.97392 0.78265 3.25214 2.17578 1.98266C3.56891 0.713184 5.45839 0 7.42857 0H48.2857C50.2559 0 52.1454 0.713184 53.5385 1.98266C54.9316 3.25214 55.7143 4.97392 55.7143 6.76923V10.1538H70.5714C72.5416 10.1538 74.4311 10.867 75.8242 12.1365C77.2173 13.406 78 15.1278 78 16.9231V23.6923H96.5714C98.5416 23.6923 100.431 24.4055 101.824 25.675C103.217 26.9444 104 28.6662 104 30.4615V81.2308H53.8571C53.3646 81.2308 52.8922 81.4091 52.5439 81.7264C52.1957 82.0438 52 82.4743 52 82.9231C52 83.3719 52.1957 83.8024 52.5439 84.1197C52.8922 84.4371 53.3646 84.6154 53.8571 84.6154H103.684C103.3 85.6057 102.588 86.463 101.647 87.0691C100.706 87.6753 99.5812 88.0005 98.4286 88H53.8571C52.3795 88 50.9624 87.4651 49.9175 86.513C48.8727 85.5609 48.2857 84.2696 48.2857 82.9231V74.4615H27.8571C26.3795 74.4615 24.9624 73.9267 23.9175 72.9745C22.8727 72.0224 22.2857 70.7311 22.2857 69.3846V64.3077H5.57143ZM55.3986 60.9231C55.0144 61.9133 54.3026 62.7706 53.3613 63.3768C52.42 63.983 51.2955 64.3082 50.1429 64.3077H74.2857V16.9231C74.2857 16.0254 73.8944 15.1645 73.1978 14.5298C72.5013 13.8951 71.5565 13.5385 70.5714 13.5385H55.7143V57.5385H5.57143C5.07888 57.5385 4.60651 57.7168 4.25823 58.0341C3.90995 58.3515 3.71429 58.7819 3.71429 59.2308C3.71429 59.6796 3.90995 60.11 4.25823 60.4274C4.60651 60.7448 5.07888 60.9231 5.57143 60.9231H55.3986ZM26 64.3077H27.8571C27.2034 64.31 26.5844 64.4058 26 64.5954V64.3077ZM52 54.1538V6.76923C52 5.87157 51.6087 5.01069 50.9121 4.37595C50.2155 3.74121 49.2708 3.38462 48.2857 3.38462H11.1429V54.1538H52ZM52 74.4615V78.1338C52.5844 77.9443 53.2034 77.8484 53.8571 77.8462H100.286V30.4615C100.286 29.5639 99.8944 28.703 99.1978 28.0683C98.5013 27.4335 97.5565 27.0769 96.5714 27.0769H78V67.6923H27.8571C27.3646 67.6923 26.8922 67.8706 26.5439 68.188C26.1957 68.5053 26 68.9358 26 69.3846C26 69.8334 26.1957 70.2639 26.5439 70.5813C26.8922 70.8986 27.3646 71.0769 27.8571 71.0769H77.6843C77.3001 72.0672 76.5883 72.9245 75.647 73.5307C74.7057 74.1369 73.5812 74.4621 72.4286 74.4615H52Z" fill="#B494C5"/>
</svg>
