<svg width="104" height="88" viewBox="0 0 104 88" fill="none" xmlns="http://www.w3.org/2000/svg">
<path d="M25.3232 60.4141C27.3006 60.4142 28.9049 61.5356 29.9375 62.9756C30.9725 64.4191 31.5508 66.3119 31.5508 68.3105V80.1035C31.5507 82.1022 30.9726 83.9949 29.9375 85.4385C28.9049 86.8785 27.3006 87.9998 25.3232 88H6.29688C4.3193 88 2.7143 86.8786 1.68164 85.4385C0.646589 83.995 0.0684065 82.1022 0.0683594 80.1035V68.3105C0.0683755 66.3119 0.646619 64.4191 1.68164 62.9756C2.71431 61.5355 4.31931 60.4141 6.29688 60.4141H25.3232ZM61.5459 60.4141C63.5232 60.4142 65.1276 61.5356 66.1602 62.9756C67.1952 64.4191 67.7734 66.3119 67.7734 68.3105V80.1035C67.7734 82.1022 67.1952 83.9949 66.1602 85.4385C65.1276 86.8785 63.5233 87.9998 61.5459 88H42.5195C40.542 88 38.937 86.8786 37.9043 85.4385C36.8692 83.995 36.2911 82.1022 36.291 80.1035V68.3105C36.291 66.3119 36.8693 64.4191 37.9043 62.9756C38.937 61.5355 40.542 60.4141 42.5195 60.4141H61.5459ZM97.7725 60.4141C99.7498 60.4142 101.354 61.5356 102.387 62.9756C103.422 64.4191 104 66.3119 104 68.3105V80.1035C104 82.1022 103.422 83.9949 102.387 85.4385C101.354 86.8785 99.7498 87.9998 97.7725 88H78.7461C76.7685 88 75.1635 86.8786 74.1309 85.4385C73.0958 83.995 72.5176 82.1022 72.5176 80.1035V68.3105C72.5176 66.3119 73.0958 64.4191 74.1309 62.9756C75.1635 61.5355 76.7685 60.4141 78.7461 60.4141H97.7725ZM6.29688 64.4141C5.93943 64.4141 5.42924 64.6127 4.93164 65.3066C4.43665 65.9972 4.06838 67.053 4.06836 68.3105V80.1035C4.06841 81.3609 4.43669 82.4169 4.93164 83.1074C5.42921 83.8013 5.93945 84 6.29688 84H25.3232C25.6806 83.9998 26.1901 83.801 26.6875 83.1074C27.1825 82.4169 27.5507 81.3609 27.5508 80.1035V68.3105C27.5508 67.053 27.1825 65.9972 26.6875 65.3066C26.1901 64.613 25.6807 64.4142 25.3232 64.4141H6.29688ZM42.5195 64.4141C42.1621 64.4141 41.6519 64.6127 41.1543 65.3066C40.6593 65.9972 40.291 67.053 40.291 68.3105V80.1035C40.2911 81.3609 40.6593 82.4169 41.1543 83.1074C41.6519 83.8013 42.1621 84 42.5195 84H61.5459C61.9033 83.9998 62.4128 83.801 62.9102 83.1074C63.4051 82.4169 63.7734 81.3609 63.7734 80.1035V68.3105C63.7734 67.053 63.4052 65.9972 62.9102 65.3066C62.4128 64.613 61.9033 64.4142 61.5459 64.4141H42.5195ZM78.7461 64.4141C78.3886 64.4141 77.8785 64.6127 77.3809 65.3066C76.8859 65.9972 76.5176 67.053 76.5176 68.3105V80.1035C76.5176 81.3609 76.8859 82.4169 77.3809 83.1074C77.8784 83.8013 78.3887 84 78.7461 84H97.7725C98.1299 83.9998 98.6394 83.801 99.1367 83.1074C99.6317 82.4169 100 81.3609 100 80.1035V68.3105C100 67.053 99.6317 65.9972 99.1367 65.3066C98.6393 64.613 98.1299 64.4142 97.7725 64.4141H78.7461ZM25.3232 30.2061C27.3005 30.2062 28.9049 31.3277 29.9375 32.7676C30.9726 34.2111 31.5507 36.1039 31.5508 38.1025V49.8955C31.5508 51.8942 30.9725 53.7869 29.9375 55.2305C28.9049 56.6705 27.3007 57.7918 25.3232 57.792H6.29688C4.31922 57.792 2.7143 56.6706 1.68164 55.2305C0.646619 53.7869 0.0683594 51.8942 0.0683594 49.8955V38.1025C0.0684225 36.1039 0.646589 34.2111 1.68164 32.7676C2.71431 31.3276 4.31938 30.2061 6.29688 30.2061H25.3232ZM61.5459 30.2061C63.5232 30.2062 65.1276 31.3277 66.1602 32.7676C67.1952 34.2111 67.7734 36.1039 67.7734 38.1025V49.8955C67.7734 51.8942 67.1952 53.7869 66.1602 55.2305C65.1276 56.6705 63.5233 57.7918 61.5459 57.792H42.5195C40.5419 57.792 38.937 56.6706 37.9043 55.2305C36.8693 53.7869 36.291 51.8942 36.291 49.8955V38.1025C36.2911 36.1039 36.8692 34.2111 37.9043 32.7676C38.937 31.3276 40.542 30.2061 42.5195 30.2061H61.5459ZM97.7725 30.2061C99.7497 30.2062 101.354 31.3277 102.387 32.7676C103.422 34.2111 104 36.1039 104 38.1025V49.8955C104 51.8942 103.422 53.7869 102.387 55.2305C101.354 56.6705 99.7499 57.7918 97.7725 57.792H78.7461C76.7684 57.792 75.1635 56.6706 74.1309 55.2305C73.0958 53.7869 72.5176 51.8942 72.5176 49.8955V38.1025C72.5176 36.1039 73.0958 34.2111 74.1309 32.7676C75.1635 31.3276 76.7686 30.2061 78.7461 30.2061H97.7725ZM6.29688 34.2061C5.93945 34.2061 5.42921 34.4048 4.93164 35.0986C4.43662 35.7891 4.06842 36.845 4.06836 38.1025V49.8955C4.06836 51.1529 4.43672 52.2089 4.93164 52.8994C5.42924 53.5934 5.93943 53.792 6.29688 53.792H25.3232C25.6807 53.7918 26.1901 53.5931 26.6875 52.8994C27.1824 52.2089 27.5508 51.153 27.5508 49.8955V38.1025C27.5507 36.845 27.1825 35.7891 26.6875 35.0986C26.1901 34.4051 25.6806 34.2062 25.3232 34.2061H6.29688ZM42.5195 34.2061C42.1621 34.2061 41.6519 34.4048 41.1543 35.0986C40.6593 35.7891 40.2911 36.845 40.291 38.1025V49.8955C40.291 51.1529 40.6594 52.2089 41.1543 52.8994C41.6519 53.5934 42.1621 53.792 42.5195 53.792H61.5459C61.9033 53.7918 62.4128 53.5931 62.9102 52.8994C63.4051 52.2089 63.7734 51.153 63.7734 49.8955V38.1025C63.7734 36.845 63.4052 35.7891 62.9102 35.0986C62.4128 34.4051 61.9033 34.2062 61.5459 34.2061H42.5195ZM78.7461 34.2061C78.3887 34.2061 77.8784 34.4048 77.3809 35.0986C76.8858 35.7891 76.5176 36.845 76.5176 38.1025V49.8955C76.5176 51.1529 76.8859 52.2089 77.3809 52.8994C77.8785 53.5934 78.3886 53.792 78.7461 53.792H97.7725C98.1299 53.7918 98.6393 53.5931 99.1367 52.8994C99.6317 52.2089 100 51.153 100 49.8955V38.1025C99.9999 36.845 99.6318 35.7891 99.1367 35.0986C98.6394 34.4051 98.1299 34.2062 97.7725 34.2061H78.7461ZM25.2549 0C27.2322 0.000174742 28.8366 1.12157 29.8691 2.56152C30.9042 4.00509 31.4824 5.89774 31.4824 7.89648V19.6895C31.4824 21.6882 30.9042 23.5808 29.8691 25.0244C28.8366 26.4645 27.2323 27.5858 25.2549 27.5859H6.22852C4.25086 27.5859 2.64594 26.4646 1.61328 25.0244C0.578188 23.5808 0 21.6882 0 19.6895V7.89648C1.60849e-05 5.89774 0.578187 4.00509 1.61328 2.56152C2.64595 1.12144 4.25095 0 6.22852 0H25.2549ZM61.4775 0C63.4549 0.000174742 65.0592 1.12157 66.0918 2.56152C67.1269 4.00509 67.7051 5.89774 67.7051 7.89648V19.6895C67.7051 21.6882 67.1269 23.5808 66.0918 25.0244C65.0592 26.4645 63.455 27.5858 61.4775 27.5859H42.4512C40.4735 27.5859 38.8686 26.4646 37.8359 25.0244C36.8008 23.5808 36.2227 21.6882 36.2227 19.6895V7.89648C36.2227 5.89774 36.8008 4.00509 37.8359 2.56152C38.8686 1.12144 40.4736 0 42.4512 0H61.4775ZM97.7021 0C99.6795 0.000174742 101.284 1.12157 102.316 2.56152C103.352 4.00509 103.93 5.89774 103.93 7.89648V19.6895C103.93 21.6882 103.352 23.5808 102.316 25.0244C101.284 26.4645 99.6796 27.5858 97.7021 27.5859H78.6758C76.6981 27.5859 75.0932 26.4646 74.0605 25.0244C73.0255 23.5808 72.4473 21.6882 72.4473 19.6895V7.89648C72.4473 5.89774 73.0255 4.00509 74.0605 2.56152C75.0932 1.12144 76.6982 0 78.6758 0H97.7021ZM6.22852 4C5.87107 4 5.36088 4.19861 4.86328 4.89258C4.36823 5.58312 4.00002 6.63887 4 7.89648V19.6895C4 20.947 4.3683 22.0028 4.86328 22.6934C5.36088 23.3873 5.87107 23.5859 6.22852 23.5859H25.2549C25.6123 23.5858 26.1218 23.387 26.6191 22.6934C27.1141 22.0028 27.4824 20.947 27.4824 19.6895V7.89648C27.4824 6.63885 27.1142 5.58312 26.6191 4.89258C26.1218 4.19891 25.6123 4.00017 25.2549 4H6.22852ZM42.4512 4C42.0937 4 41.5835 4.19861 41.0859 4.89258C40.5909 5.58312 40.2227 6.63887 40.2227 7.89648V19.6895C40.2227 20.947 40.591 22.0028 41.0859 22.6934C41.5835 23.3873 42.0937 23.5859 42.4512 23.5859H61.4775C61.835 23.5858 62.3444 23.387 62.8418 22.6934C63.3368 22.0028 63.7051 20.947 63.7051 19.6895V7.89648C63.7051 6.63885 63.3369 5.58312 62.8418 4.89258C62.3444 4.19891 61.835 4.00017 61.4775 4H42.4512ZM78.6758 4C78.3183 4 77.8082 4.19861 77.3105 4.89258C76.8155 5.58312 76.4473 6.63887 76.4473 7.89648V19.6895C76.4473 20.947 76.8156 22.0028 77.3105 22.6934C77.8082 23.3873 78.3183 23.5859 78.6758 23.5859H97.7021C98.0596 23.5858 98.569 23.387 99.0664 22.6934C99.5614 22.0028 99.9297 20.947 99.9297 19.6895V7.89648C99.9297 6.63885 99.5615 5.58312 99.0664 4.89258C98.569 4.19891 98.0596 4.00017 97.7021 4H78.6758Z" fill="#2DC0C2"/>
</svg>
