<svg width="168" height="88" viewBox="0 0 168 88" fill="none" xmlns="http://www.w3.org/2000/svg">
<path d="M51.1162 70.3408L62.625 73.2842L51.1162 76.2275L48.2383 88L45.3613 76.2275L33.8525 73.2842L45.3613 70.3408L48.2383 58.5684L51.1162 70.3408ZM147.344 17.9277C159.007 17.9279 168 28.0753 168 39.998C168 51.9205 159.007 62.0682 147.344 62.0684C139.242 62.0682 132.431 57.1708 129.025 50.1846L129.585 52.8545L104.157 59.0977C102.121 68.8138 94.0539 76.3523 84.001 76.3525C74.0011 76.3525 65.9652 68.8937 63.876 59.252L37.8115 52.8535L37.9932 51.9854C34.3549 57.9976 28.0421 62.0681 20.6562 62.0684C8.99263 62.0684 0.000261827 51.9206 0 39.998C0 28.0752 8.99246 17.9277 20.6562 17.9277C32.3197 17.9281 41.3115 28.0755 41.3115 39.998C41.3115 42.1743 41.01 44.2908 40.4492 46.2979L63.4609 51.9463C64.5443 41.0639 73.1074 32.212 84.001 32.2119C94.8464 32.2122 103.38 40.9863 104.524 51.8027L127.512 46.1592C126.976 44.1934 126.689 42.1242 126.688 39.998C126.688 28.0754 135.68 17.928 147.344 17.9277ZM84.001 39.2119C76.7152 39.212 70.3448 45.6931 70.3447 54.2822C70.3447 62.8715 76.7151 69.3525 84.001 69.3525C91.2867 69.3523 97.6562 62.8714 97.6562 54.2822C97.6561 45.6932 91.2866 39.2122 84.001 39.2119ZM20.6562 24.9277C13.3703 24.9277 7 31.4087 7 39.998C7.00026 48.5871 13.3705 55.0684 20.6562 55.0684C27.9418 55.068 34.3113 48.5869 34.3115 39.998C34.3115 31.409 27.9419 24.9281 20.6562 24.9277ZM147.344 24.9277C140.058 24.928 133.688 31.4089 133.688 39.998C133.689 48.587 140.058 55.0681 147.344 55.0684C154.629 55.0682 161 48.587 161 39.998C161 31.4088 154.63 24.9279 147.344 24.9277ZM117.935 12.6787L130.522 18.1123L117.935 23.5459L112.54 36.2246L107.146 23.5459L94.5576 18.1123L107.146 12.6787L112.54 0L117.935 12.6787Z" fill="#B494C5"/>
</svg>
