<svg width="104" height="88" viewBox="0 0 104 88" fill="none" xmlns="http://www.w3.org/2000/svg">
<path d="M96.6679 0.180763L53.7303 10.018C52.639 10.2652 50.2696 10.2625 49.1817 10.0042L7.35005 0.199992C3.61646 -0.669451 0 1.60786 0 4.859V71.6564C0 74.4117 2.46994 77.0462 5.61393 77.7865L47.4472 87.5922C48.5662 87.8544 50.0066 88 51.5007 88C52.5253 88 54.0388 87.9327 55.4307 87.6113L98.3665 77.7741C101.519 77.053 104 74.424 104 71.6578V4.859C104.002 1.61061 100.385 -0.674945 96.6679 0.180763ZM48.7528 82.1968L7.24764 72.4914C6.93421 72.4187 6.49574 71.9338 6.49574 71.6577V5.72561L47.4472 15.3006C47.8434 15.394 48.2884 15.4668 48.7528 15.5286V82.1968ZM97.5058 71.6578C97.5058 71.9284 96.9796 72.4008 96.6678 72.4736L55.2488 81.9619V15.3527C55.3089 15.3403 55.3706 15.3334 55.4307 15.3197L97.5043 5.69402V71.6577L97.5058 71.6578ZM65.1954 31.493C65.4878 31.493 65.7851 31.4615 66.0775 31.3913L88.8063 25.981C90.5343 25.5676 91.5412 24.0525 91.0555 22.5924C90.5698 21.1324 88.7657 20.2849 87.0492 20.6901L64.3202 26.1005C62.5923 26.514 61.5855 28.0289 62.071 29.489C62.4738 30.7018 63.7777 31.493 65.1954 31.493ZM65.1956 47.9754C65.488 47.9754 65.7853 47.9438 66.0777 47.8737L88.8065 42.4634C90.5345 42.0499 91.5414 40.5348 91.0557 39.0748C90.5702 37.6147 88.7659 36.7672 87.0494 37.1724L64.3204 42.5829C62.5925 42.9963 61.5857 44.5113 62.0712 45.9701C62.474 47.1828 63.7779 47.9754 65.1956 47.9754ZM40.0884 59.065L17.3596 53.6546C15.6431 53.2494 13.8388 54.0969 13.3532 55.5569C12.8677 57.017 13.8729 58.532 15.6024 58.9455L38.3314 64.3558C38.6183 64.424 38.9151 64.4582 39.2132 64.4575C40.6309 64.4575 41.9348 63.6664 42.3376 62.4536C42.8231 60.9935 41.8179 59.4784 40.0884 59.065Z" fill="#B494C5"/>
</svg>
