<svg width="106" height="90" viewBox="0 0 106 90" fill="none" xmlns="http://www.w3.org/2000/svg">
<path d="M98.76 1H7.24C5.58505 1 3.99788 1.66224 2.82765 2.84104C1.65743 4.01984 1 5.61864 1 7.28571V82.7143C1 84.3814 1.65743 85.9802 2.82765 87.159C3.99788 88.3378 5.58505 89 7.24 89H14.2028C14.5963 88.9994 14.9815 88.8864 15.3138 88.674C15.6461 88.4617 15.9118 88.1588 16.08 87.8005C18.2709 83.1384 21.7309 79.1987 26.0575 76.4399C30.3841 73.681 35.3994 72.2164 40.52 72.2164C45.6406 72.2164 50.6559 73.681 54.9825 76.4399C59.3091 79.1987 62.7691 83.1384 64.96 87.8005C65.1282 88.1588 65.3939 88.4617 65.7262 88.674C66.0584 88.8864 66.4437 88.9994 66.8372 89H98.76C100.415 89 102.002 88.3378 103.172 87.159C104.343 85.9802 105 84.3814 105 82.7143V7.28571C105 5.61864 104.343 4.01984 103.172 2.84104C102.002 1.66224 100.415 1 98.76 1ZM100.84 82.7143C100.84 83.27 100.621 83.8029 100.231 84.1958C99.8407 84.5888 99.3116 84.8095 98.76 84.8095H68.1216C64.2973 77.5709 57.8315 72.1113 50.088 69.5824C53.6123 67.4713 56.351 64.2531 57.8834 60.4221C59.4159 56.5911 59.6573 52.3592 58.5706 48.3766C57.4838 44.394 55.1291 40.8809 51.8681 38.3771C48.6071 35.8733 44.6203 34.5173 40.52 34.5173C36.4197 34.5173 32.4329 35.8733 29.1719 38.3771C25.9109 40.8809 23.5561 44.394 22.4694 48.3766C21.3827 52.3592 21.6241 56.5911 23.1566 60.4221C24.689 64.2531 27.4278 67.4713 30.952 69.5824C23.2085 72.1113 16.7427 77.5709 12.9184 84.8095H7.24C6.68835 84.8095 6.15929 84.5888 5.76922 84.1958C5.37914 83.8029 5.16 83.27 5.16 82.7143V7.28571C5.16 6.73002 5.37914 6.19709 5.76922 5.80416C6.15929 5.41122 6.68835 5.19048 7.24 5.19048H98.76C99.3116 5.19048 99.8407 5.41122 100.231 5.80416C100.621 6.19709 100.84 6.73002 100.84 7.28571V82.7143ZM40.52 68.0476C37.6403 68.0476 34.8253 67.1874 32.4309 65.5758C30.0365 63.9642 28.1703 61.6736 27.0683 58.9936C25.9663 56.3137 25.678 53.3647 26.2398 50.5196C26.8016 47.6746 28.1883 45.0612 30.2245 43.0101C32.2608 40.9589 34.8551 39.562 37.6795 38.9961C40.5038 38.4302 43.4314 38.7206 46.0919 39.8307C48.7524 40.9408 51.0263 42.8207 52.6262 45.2326C54.2261 47.6445 55.08 50.4802 55.08 53.381C55.08 55.307 54.7034 57.2142 53.9717 58.9936C53.24 60.7731 52.1675 62.3899 50.8155 63.7519C49.4635 65.1138 47.8584 66.1941 46.0919 66.9312C44.3254 67.6683 42.432 68.0476 40.52 68.0476ZM88.36 19.8571V70.1429C88.36 70.6986 88.1409 71.2315 87.7508 71.6244C87.3607 72.0173 86.8317 72.2381 86.28 72.2381H77.96C77.4083 72.2381 76.8793 72.0173 76.4892 71.6244C76.0991 71.2315 75.88 70.6986 75.88 70.1429C75.88 69.5872 76.0991 69.0542 76.4892 68.6613C76.8793 68.2684 77.4083 68.0476 77.96 68.0476H84.2V21.9524H21.8V28.2381C21.8 28.7938 21.5809 29.3267 21.1908 29.7197C20.8007 30.1126 20.2717 30.3333 19.72 30.3333C19.1683 30.3333 18.6393 30.1126 18.2492 29.7197C17.8591 29.3267 17.64 28.7938 17.64 28.2381V19.8571C17.64 19.3015 17.8591 18.7685 18.2492 18.3756C18.6393 17.9827 19.1683 17.7619 19.72 17.7619H86.28C86.8317 17.7619 87.3607 17.9827 87.7508 18.3756C88.1409 18.7685 88.36 19.3015 88.36 19.8571Z" fill="#2DC0C2" stroke="#2DC0C2" stroke-width="2"/>
</svg>
