<svg width="104" height="88" viewBox="0 0 104 88" fill="none" xmlns="http://www.w3.org/2000/svg">
<path d="M100.533 0C101.453 0 102.334 0.309292 102.984 0.859375C103.634 1.40948 104 2.15563 104 2.93359V85.0664C104 85.8444 103.634 86.5905 102.984 87.1406C102.334 87.6907 101.453 88 100.533 88H3.4668C2.5474 88 1.66575 87.6907 1.01562 87.1406C0.365499 86.5905 0 85.8444 0 85.0664V2.93359C0 2.15563 0.365499 1.40948 1.01562 0.859375C1.66575 0.309291 2.5474 0 3.4668 0H100.533ZM6.93359 82.1338H97.0664V5.86621H6.93359V82.1338ZM90.1338 76.2656H13.8672V11.7324H90.1338V76.2656ZM86.667 32.5361C83.1831 33.1316 80.2298 34.7802 76.2676 38.1328L60.667 51.333C57.2006 54.2662 55.4674 55.7321 52.001 54.2656L38.1338 48.3994C32.5873 46.0529 27.1554 46.9328 24.2676 48.3994L17.334 51.333V73.0596C26.1428 66.9818 38.4222 63.0664 52.001 63.0664C65.5796 63.0665 77.8583 66.9819 86.667 73.0596V32.5361ZM17.334 23.9648C19.2857 24.5515 20.9673 25.6136 22.1875 26.9863C22.7025 26.6595 23.3149 26.4601 23.9561 26.4111C24.5971 26.3623 25.2417 26.4654 25.8174 26.709C26.3932 26.9526 26.8774 27.3276 27.2158 27.791C27.5542 28.2544 27.7334 28.7883 27.7334 29.333C29.5722 29.333 31.3365 29.9506 32.6367 31.0508C33.9369 32.1509 34.6669 33.6434 34.667 35.1992C34.667 36.7551 33.9368 38.2475 32.6367 39.3477C31.3365 40.4479 29.5722 41.0664 27.7334 41.0664H17.334V48.0537L22.6064 45.8242C26.4614 43.9176 33.0761 42.9789 39.6836 45.7744L53.5498 51.6406C54.1149 51.8812 54.3856 51.9043 54.4619 51.9072C54.5035 51.9072 54.5798 51.9102 54.7842 51.8252C55.0442 51.7167 55.4329 51.4937 56.043 51.0391C56.6495 50.5815 57.3252 50.0124 58.2158 49.2588L68.2314 40.7842C66.9315 39.4453 66.127 37.8118 65.9199 36.0879C65.7129 34.364 66.1123 32.6265 67.0674 31.0938C68.0226 29.5609 69.4919 28.301 71.29 27.4717C73.0882 26.6424 75.1357 26.2803 77.1758 26.4316C77.9799 25.2353 79.2553 24.3159 80.7793 23.835C82.3034 23.354 83.979 23.3421 85.5127 23.8008C85.8643 23.4329 86.2502 23.0888 86.667 22.7734V14.666H17.334V23.9648ZM50.2666 17.5967C50.8524 17.5967 51.4255 17.74 51.917 18.0098C52.4084 18.2795 52.7973 18.6636 53.0361 19.1162C53.5106 18.825 54.0748 18.6566 54.6602 18.6309C55.2455 18.6052 55.8275 18.7236 56.335 18.9717C56.8426 19.22 57.2545 19.5881 57.5205 20.0303C57.7863 20.4723 57.8954 20.9697 57.834 21.4629C58.4166 21.4115 59.0045 21.5043 59.5264 21.7295C60.0482 21.9547 60.4824 22.3032 60.7754 22.7324C61.0684 23.1618 61.2082 23.6543 61.1777 24.1494C61.1473 24.6446 60.9475 25.1221 60.6035 25.5234C61.137 25.7272 61.5908 26.0561 61.9092 26.4717C62.2275 26.8872 62.3974 27.372 62.3994 27.8672C62.3976 28.362 62.2278 28.8463 61.9102 29.2617C61.5924 29.6771 61.1401 30.0068 60.6074 30.2109C60.9516 30.6124 61.1513 31.0896 61.1816 31.585C61.212 32.0803 61.0717 32.5725 60.7783 33.002C60.485 33.4314 60.0507 33.7798 59.5283 34.0049C59.0058 34.2299 58.4171 34.3225 57.834 34.2705C57.8954 34.7638 57.7864 35.262 57.5205 35.7041C57.2545 36.146 56.8424 36.5135 56.335 36.7617C55.8275 37.0098 55.2455 37.1282 54.6602 37.1025C54.0748 37.0768 53.5106 36.9084 53.0361 36.6172C52.7973 37.0698 52.4084 37.4539 51.917 37.7236C51.4255 37.9934 50.8524 38.1376 50.2666 38.1377C49.6807 38.1377 49.1068 37.9934 48.6152 37.7236C48.1239 37.4539 47.7349 37.0698 47.4961 36.6172C47.0216 36.9084 46.4574 37.0769 45.8721 37.1025C45.2866 37.1282 44.7048 37.0099 44.1973 36.7617C43.6898 36.5135 43.2777 36.1461 43.0117 35.7041C42.7458 35.2621 42.6369 34.7638 42.6982 34.2705C42.1153 34.3225 41.5273 34.2298 41.0049 34.0049C40.4823 33.7798 40.0473 33.4315 39.7539 33.002C39.4606 32.5725 39.3212 32.0803 39.3516 31.585C39.3819 31.0897 39.5808 30.6124 39.9248 30.2109C39.39 30.0089 38.936 29.6795 38.6172 29.2637C38.2984 28.8479 38.129 28.3628 38.1289 27.8672C38.1289 27.3714 38.2983 26.8856 38.6172 26.4697C38.9359 26.054 39.3901 25.7255 39.9248 25.5234C39.5805 25.1219 39.3819 24.6439 39.3516 24.1484C39.3213 23.6531 39.4606 23.1609 39.7539 22.7314C40.0473 22.3019 40.4823 21.9536 41.0049 21.7285C41.5272 21.5036 42.1154 21.4109 42.6982 21.4629C42.6369 20.9698 42.746 20.4722 43.0117 20.0303C43.2777 19.5881 43.6896 19.22 44.1973 18.9717C44.7048 18.7235 45.2866 18.6052 45.8721 18.6309C46.4574 18.6565 47.0216 18.825 47.4961 19.1162C47.7349 18.6637 48.1239 18.2795 48.6152 18.0098C49.1068 17.74 49.6807 17.5967 50.2666 17.5967ZM50.2666 20.5332C47.9681 20.5332 45.763 21.3064 44.1377 22.6816C42.5126 24.0569 41.5996 25.9224 41.5996 27.8672C41.5998 29.8118 42.5128 31.6766 44.1377 33.0518C45.763 34.427 47.9681 35.2002 50.2666 35.2002C52.565 35.2001 54.7693 34.427 56.3945 33.0518C58.0196 31.6766 58.9325 29.8119 58.9326 27.8672C58.9326 25.9223 58.0198 24.0569 56.3945 22.6816C54.7693 21.3064 52.565 20.5333 50.2666 20.5332Z" fill="#B494C5"/>
</svg>
