<svg width="104" height="88" viewBox="0 0 104 88" fill="none" xmlns="http://www.w3.org/2000/svg">
<path d="M98.3262 8.05859C101.298 8.05859 103.961 10.1874 103.961 13.0879V82.9248C103.96 85.8249 101.297 87.9531 98.3262 87.9531H17.9932C15.0222 87.9529 12.3589 85.8248 12.3584 82.9248V80.4619C12.3584 79.7919 12.6666 79.1819 13.1553 78.7568C13.6397 78.3359 14.2704 78.1183 14.9033 78.1182C15.5364 78.1182 16.1669 78.3358 16.6514 78.7568C17.1403 79.1819 17.4482 79.7917 17.4482 80.4619V82.9248C17.4485 82.9671 17.4669 83.041 17.5566 83.1191C17.6515 83.2016 17.8071 83.2675 17.9932 83.2676H98.3262C98.5121 83.2676 98.6678 83.2014 98.7627 83.1191C98.8524 83.0411 98.8709 82.9671 98.8711 82.9248V13.0879C98.8711 13.0457 98.8531 12.9712 98.7627 12.8926C98.6678 12.8101 98.5124 12.7441 98.3262 12.7441H95.4932C94.8601 12.744 94.2286 12.5266 93.7441 12.1055C93.2555 11.6805 92.9484 11.0712 92.9482 10.4014C92.9483 9.73158 93.2556 9.12228 93.7441 8.69727C94.2286 8.27613 94.8601 8.05869 95.4932 8.05859H98.3262ZM85.9678 0C88.9392 0 91.6025 2.12877 91.6025 5.0293V72.1797C91.6024 75.0801 88.9391 77.209 85.9678 77.209H5.63477C2.66345 77.2089 0.000149442 75.0801 0 72.1797V5.0293C0 2.1288 2.66336 3.66111e-05 5.63477 0H85.9678ZM5.63477 4.68555C5.4486 4.68556 5.29312 4.75151 5.19824 4.83398C5.10792 4.91257 5.08984 4.98714 5.08984 5.0293V72.1797C5.08991 72.2219 5.10796 72.2965 5.19824 72.375C5.29313 72.4574 5.44865 72.5224 5.63477 72.5225H85.9678C86.1539 72.5225 86.3094 72.4574 86.4043 72.375C86.4946 72.2965 86.5126 72.2219 86.5127 72.1797V5.0293C86.5127 4.98713 86.4947 4.91259 86.4043 4.83398C86.3094 4.75149 86.154 4.68555 85.9678 4.68555H5.63477ZM79.79 8.05859C80.423 8.05877 81.0537 8.27621 81.5381 8.69727C82.0267 9.12229 82.3349 9.73147 82.335 10.4014V61.4365C82.3347 62.1064 82.0269 62.7157 81.5381 63.1406C81.0537 63.5617 80.423 63.7791 79.79 63.7793H11.8154C11.1825 63.7793 10.5518 63.5615 10.0674 63.1406C9.57859 62.7157 9.27073 62.1064 9.27051 61.4365V10.4014C9.27058 9.73128 9.57849 9.1223 10.0674 8.69727C10.5519 8.27618 11.1823 8.05859 11.8154 8.05859H79.79ZM30.876 34.25C30.5365 34.25 30.2305 34.3636 30.0176 34.5381L14.3604 48.1504V59.0928H77.2451V50.0166L71.9922 44.8184C71.8515 44.7088 71.5696 44.5899 71.2217 44.5898H71.2188C71.0543 44.5894 70.8938 44.6182 70.748 44.6709C70.6023 44.7236 70.4785 44.7979 70.3809 44.8838L70.3691 44.8936L70.3564 44.9043L58.4131 54.7646L58.4141 54.7656C57.928 55.1692 57.3044 55.3742 56.6807 55.3682C56.1347 55.3627 55.5915 55.1948 55.1445 54.875L54.959 54.7295L31.7334 34.5381C31.5205 34.3639 31.215 34.2501 30.876 34.25ZM14.3604 41.7041L26.5342 31.1221C27.7309 30.0817 29.3263 29.5923 30.873 29.5918C32.3234 29.5915 33.8185 30.0208 34.9883 30.9326L35.2178 31.1211V31.1221L56.751 49.8428L66.9238 41.4443C67.4996 40.9502 68.1733 40.5637 68.9053 40.3027L69.1846 40.21C69.8403 40.0083 70.5294 39.907 71.2217 39.9092H71.2246C72.0224 39.9077 72.8158 40.0441 73.5586 40.3125L73.834 40.4189C74.3797 40.6444 74.8891 40.9411 75.3428 41.3018L75.5645 41.4873L75.5869 41.5068L75.6074 41.5273L77.2451 43.1445V12.7441H14.3604V41.7041ZM56.6152 18.8018C60.4392 18.8021 63.7949 21.5322 63.7949 25.1738C63.7949 28.8155 60.4392 31.5456 56.6152 31.5459C52.791 31.5459 49.4355 28.8157 49.4355 25.1738C49.4355 21.532 52.791 18.8018 56.6152 18.8018ZM56.6152 23.4883V23.4873C55.3266 23.4873 54.5254 24.3724 54.5254 25.1738V25.1748C54.525 25.475 54.6265 25.7828 54.8389 26.0596C55.0529 26.3385 55.3728 26.5756 55.7725 26.7197C56.1722 26.8637 56.6191 26.9027 57.0508 26.8281C57.4824 26.7535 57.8634 26.5719 58.1494 26.3232C58.434 26.0757 58.6082 25.7775 58.6768 25.4775C58.7448 25.1797 58.7114 24.8688 58.5723 24.5771C58.4317 24.2826 58.1823 24.0074 57.833 23.8047C57.483 23.6017 57.0588 23.487 56.6162 23.4873L56.6152 23.4883Z" fill="#2DC0C2"/>
</svg>
