<svg width="99" height="88" viewBox="0 0 99 88" fill="none" xmlns="http://www.w3.org/2000/svg">
<path d="M84.5479 0C92.2938 4.5356e-05 98.5732 6.27944 98.5732 14.0254C98.5732 21.7713 92.2938 28.0507 84.5479 28.0508C81.5906 28.0508 78.8479 27.1341 76.5859 25.5713C76.5273 25.6616 76.4654 25.7509 76.3975 25.8369L76.2822 25.9756L62.6445 41.5479C62.783 42.3081 62.8574 43.0932 62.8574 43.8994C62.8574 44.8416 62.7569 45.7554 62.5693 46.6338L76.2822 62.293C76.4316 62.4636 76.5604 62.6452 76.6709 62.834C78.9674 61.4303 81.6906 60.6289 84.5479 60.6289C92.2621 60.629 98.9998 66.4682 99 74.2441C98.9998 82.0202 92.2621 87.8583 84.5479 87.8584C76.8335 87.8584 70.0959 82.0202 70.0957 74.2441C70.0958 71.8093 70.756 69.5641 71.9004 67.6289C71.5766 67.442 71.2766 67.2011 71.0166 66.9043L58.9902 53.1719C56.308 55.872 52.4945 57.5135 48.4053 57.5137C44.3304 57.5137 40.5285 55.8842 37.8477 53.2012L26.2812 66.4082C27.9225 68.5942 28.9042 71.2777 28.9043 74.2441C28.9041 82.0202 22.1665 87.8584 14.4521 87.8584C6.73785 87.8583 0.000168573 82.0202 0 74.2441C0.000224763 66.4682 6.73789 60.629 14.4521 60.6289C16.7043 60.6289 18.8731 61.1272 20.8154 62.0254L34.25 46.6846C34.0553 45.7907 33.9531 44.8597 33.9531 43.8994C33.9531 43.075 34.0282 42.2723 34.1729 41.4961L20.9863 26.4375C19.0351 27.4667 16.8125 28.0507 14.4531 28.0508C6.70718 28.0508 0.427785 21.7713 0.427734 14.0254C0.427734 6.27941 6.70715 0 14.4531 0C22.1989 0.000247533 28.4785 6.27956 28.4785 14.0254C28.4785 16.8727 27.6289 19.5214 26.1709 21.7334L37.6299 34.8184C40.3203 32.0034 44.2193 30.2842 48.4053 30.2842C52.6053 30.2844 56.5158 32.0157 59.207 34.8477L71.0166 21.3643L71.1387 21.2314C71.4283 20.9328 71.7593 20.6957 72.1152 20.5225C71.0981 18.5801 70.5225 16.37 70.5225 14.0254C70.5225 6.27943 76.8019 2.9378e-05 84.5479 0ZM14.4521 67.6289C10.0693 67.629 7.00023 70.8479 7 74.2441C7.00018 77.6404 10.0692 80.8583 14.4521 80.8584C18.8352 80.8584 21.9041 77.6404 21.9043 74.2441C21.9041 70.8479 18.8352 67.6289 14.4521 67.6289ZM84.5479 67.6289C80.1648 67.6289 77.0959 70.8479 77.0957 74.2441C77.0959 77.6404 80.1648 80.8584 84.5479 80.8584C88.9308 80.8583 91.9998 77.6404 92 74.2441C91.9998 70.8479 88.9307 67.629 84.5479 67.6289ZM48.4053 37.2842C44.0222 37.2842 40.9533 40.5031 40.9531 43.8994C40.9533 47.2957 44.0222 50.5137 48.4053 50.5137C52.7879 50.5133 55.8572 47.2955 55.8574 43.8994C55.8572 40.5033 52.7879 37.2845 48.4053 37.2842ZM14.4531 7C10.5731 7 7.42773 10.1454 7.42773 14.0254C7.42778 17.9053 10.5732 21.0508 14.4531 21.0508C18.3329 21.0505 21.4785 17.9052 21.4785 14.0254C21.4785 10.1456 18.3329 7.00025 14.4531 7ZM84.5479 7C80.6679 7.00003 77.5225 10.1454 77.5225 14.0254C77.5225 17.9053 80.6679 21.0508 84.5479 21.0508C88.4278 21.0507 91.5732 17.9053 91.5732 14.0254C91.5732 10.1454 88.4278 7.00005 84.5479 7Z" fill="#2DC0C2"/>
</svg>
