<svg width="252" height="221" viewBox="0 0 252 221" fill="none" xmlns="http://www.w3.org/2000/svg">
<path d="M191.806 163.264C188.632 163.181 183.856 153.942 180.409 146.207C180.259 145.872 180.389 145.479 180.745 145.191C190.678 137.154 205.496 124.915 211.645 119.309C203.408 123.634 184.206 134.694 171.621 142.091C171.301 142.284 170.899 142.362 170.521 142.325C168.132 142.054 156.111 140.553 154.027 137.639C153.878 137.431 153.605 136.866 154.298 136.116C158.199 131.887 209.853 115.375 215.593 115.523C215.656 115.525 215.791 115.538 215.914 115.553C215.951 115.556 215.984 115.561 216.022 115.568C216.066 115.575 216.099 115.58 216.124 115.586L216.127 115.586C216.205 115.604 216.281 115.63 216.35 115.657C216.36 115.659 216.367 115.663 216.377 115.666C216.387 115.67 216.396 115.674 216.406 115.678C216.502 115.714 216.592 115.76 216.673 115.815L216.678 115.817C216.71 115.84 216.739 115.866 216.765 115.896C216.852 115.969 216.922 116.054 216.966 116.144C216.998 116.208 217.031 116.275 217.032 116.374C217.046 116.494 217.029 116.612 216.984 116.729C216.964 119.561 213.101 128.346 205.459 142.931C195.002 162.883 193.184 163.116 192.209 163.243C192.114 163.254 191.898 163.266 191.806 163.264ZM183.189 145.944C186.162 152.517 190.116 159.676 191.981 161.101C195.577 157.241 209.575 130.444 213.48 120.499C209.438 124.289 200.926 131.583 183.189 145.944ZM156.68 136.849C158.432 138.297 165.519 139.694 170.637 140.317C183.897 132.525 199.013 123.786 208.009 119.054C193.118 123.126 160.414 133.834 156.68 136.849Z" fill="#1F1F1F"/>
<path d="M177.201 160.231C176.756 160.217 176.42 160.104 176.195 159.991C174.176 158.99 171.477 149.299 170.05 143.611C169.918 143.087 170.4 142.536 171.13 142.379C171.861 142.218 172.553 142.519 172.685 143.045C174.332 149.597 176.617 156.817 177.756 158.188C178.875 157.742 181.573 155.337 183.805 152.765C184.226 152.282 185.059 152.098 185.666 152.359C186.277 152.616 186.431 153.219 186.01 153.7C184.806 155.084 180.673 159.64 177.94 160.169C177.666 160.221 177.42 160.237 177.201 160.231Z" fill="#1F1F1F"/>
<path d="M14.2889 77.4203C14.4906 78.6069 14.7788 79.7825 15.1461 80.9148L17.0336 80.114C16.6959 79.0722 16.4307 77.9909 16.2455 76.8996L14.2889 77.4203ZM17.4012 85.8984C18.0011 86.9119 18.6863 87.9071 19.438 88.8566L21.0143 87.4708C20.3133 86.5852 19.675 85.6583 19.1171 84.7158L17.4012 85.8984ZM23.1021 92.7101C23.9598 93.4699 24.8856 94.2083 25.8539 94.9052L27.075 93.1797C26.1547 92.5174 25.2759 91.8165 24.4626 91.0961L23.1021 92.7101ZM31.3414 95.8351L30.315 97.6824C31.3235 98.2244 32.3814 98.7411 33.4592 99.2186L34.3644 97.3124C33.3277 96.853 32.3104 96.3559 31.3414 95.8351ZM39.1001 99.1161L38.3676 101.088C39.47 101.445 40.6051 101.771 41.7418 102.059L42.3616 100.054C41.2628 99.7765 40.1654 99.4607 39.1001 99.1161ZM47.3853 101.12L46.8874 103.151C47.979 103.348 49.1093 103.535 50.3432 103.721L50.788 101.681C49.572 101.498 48.4592 101.314 47.3853 101.12ZM55.9406 102.382L55.5413 104.428C56.5875 104.559 57.6349 104.686 58.6815 104.813L59.0043 104.853L59.3966 102.805L59.0736 102.766C58.0292 102.64 56.9843 102.513 55.9406 102.382ZM64.5936 103.459L64.1783 105.503C65.4285 105.671 66.5489 105.832 67.6037 105.996L68.0568 103.958C66.9894 103.792 65.8566 103.629 64.5936 103.459ZM73.2286 104.887L72.6836 106.908C73.8388 107.149 74.9591 107.409 76.0136 107.681L76.6421 105.679C75.5603 105.4 74.4118 105.133 73.2286 104.887ZM81.6682 107.212L80.8839 109.167C81.0696 109.234 81.2547 109.301 81.4394 109.37C82.2957 109.688 83.1544 110.047 83.9914 110.436L84.9263 108.543C84.0471 108.134 83.1445 107.757 82.2437 107.422C82.052 107.351 81.8603 107.281 81.6682 107.212ZM89.5329 111.093L88.3804 112.866L88.4011 112.879C89.3308 113.484 90.2378 114.136 91.0968 114.818L92.384 113.142C91.4817 112.426 90.5294 111.741 89.5535 111.107L89.5329 111.093ZM94.7824 118.221C95.5515 119.049 96.2716 119.917 96.9233 120.798L98.5361 119.46C97.8447 118.525 97.0813 117.605 96.2671 116.728L94.7824 118.221ZM99.5302 125.113C100.023 126.145 100.44 127.205 100.769 128.265L102.664 127.487C102.308 126.339 101.857 125.192 101.324 124.077L99.5302 125.113ZM101.7 133.308C101.771 134.459 101.745 135.628 101.624 136.782L103.597 136.834C103.731 135.562 103.76 134.274 103.682 133.006L101.7 133.308ZM100.9 142.301C100.811 143.546 100.785 144.812 100.823 146.063L102.807 145.826C102.771 144.646 102.796 143.454 102.879 142.281L100.9 142.301ZM101.406 151.604C101.623 152.803 101.902 154.007 102.235 155.181L104.143 154.45C103.828 153.337 103.564 152.198 103.359 151.063L101.406 151.604ZM104.092 160.296C104.581 161.389 105.127 162.468 105.715 163.501L107.447 162.346C106.888 161.364 106.37 160.341 105.905 159.303L104.092 160.296ZM108.694 167.936C109.426 168.867 110.209 169.765 111.022 170.603L112.48 169.083C111.71 168.288 110.968 167.438 110.273 166.555L108.694 167.936ZM114.995 174.096C115.519 174.486 116.06 174.862 116.602 175.214C117.041 175.5 117.491 175.776 117.939 176.036L119.015 174.217C118.593 173.972 118.168 173.711 117.754 173.442C117.243 173.11 116.733 172.755 116.237 172.387L114.995 174.096ZM123.534 176.326L122.744 178.279C123.846 178.678 124.994 179.016 126.155 179.286L126.74 177.273C125.648 177.019 124.57 176.701 123.534 176.326ZM131.748 177.995L131.467 180.052C132.652 180.125 133.867 180.135 135.078 180.083L135.163 178.024C134.017 178.073 132.868 178.064 131.748 177.995ZM140.308 177.418L140.508 179.444C141.702 179.214 142.907 178.924 144.09 178.581L143.707 176.599C142.584 176.925 141.44 177.201 140.308 177.418ZM148.682 174.777L149.331 176.662C150.47 176.155 151.602 175.59 152.694 174.983L151.874 173.184C150.837 173.761 149.764 174.297 148.682 174.777ZM156.397 170.251L157.468 171.887C158.488 171.123 159.482 170.304 160.421 169.453L159.189 167.95C158.301 168.754 157.362 169.528 156.397 170.251ZM162.954 164.015L164.414 165.279C165.237 164.282 166.016 163.239 166.728 162.176L165.129 161.098C164.459 162.097 163.728 163.078 162.954 164.015Z" fill="#1F1F1F"/>
</svg>
