<svg width="251" height="220" viewBox="0 0 251 220" fill="none" xmlns="http://www.w3.org/2000/svg">
<path d="M59.5453 162.209C62.719 162.14 67.5321 152.92 71.0108 145.198C71.1613 144.864 71.0331 144.471 70.6782 144.181C60.7779 136.104 46.0089 123.807 39.8826 118.176C48.102 122.534 67.2592 133.67 79.8147 141.118C80.1342 141.312 80.5359 141.392 80.9138 141.356C83.3041 141.095 95.3306 139.643 97.4268 136.737C97.5768 136.529 97.8519 135.965 97.1618 135.212C93.2779 130.968 41.6901 114.248 35.9495 114.374C35.8865 114.375 35.7519 114.388 35.6282 114.403C35.5918 114.405 35.5585 114.41 35.5203 114.417C35.4768 114.424 35.4434 114.428 35.4184 114.435L35.4157 114.435C35.3375 114.452 35.2609 114.478 35.1925 114.505C35.1824 114.507 35.1754 114.511 35.1653 114.513C35.1556 114.517 35.1458 114.521 35.1361 114.526C35.0405 114.561 34.9495 114.607 34.8684 114.662L34.8636 114.664C34.8312 114.686 34.8023 114.712 34.7768 114.742C34.6888 114.815 34.6189 114.899 34.574 114.989C34.5422 115.053 34.5085 115.12 34.5076 115.219C34.4927 115.339 34.509 115.457 34.5542 115.574C34.5621 118.406 38.3905 127.207 45.9734 141.822C56.3507 161.816 58.168 162.056 59.1421 162.187C59.2369 162.198 59.4533 162.211 59.5453 162.209ZM68.231 144.924C65.2322 151.485 61.2498 158.629 59.379 160.047C55.7979 156.172 41.9083 129.318 38.0428 119.358C42.069 123.164 50.5517 130.492 68.231 144.924ZM94.7766 135.936C93.0188 137.377 85.9258 138.745 80.8055 139.348C67.5775 131.503 52.4966 122.704 43.52 117.935C58.3936 122.067 91.0545 132.906 94.7766 135.936Z" fill="#1F1F1F"/>
<path d="M74.1644 159.235C74.609 159.224 74.9457 159.111 75.1708 159C77.1936 158.007 79.9318 148.327 81.3811 142.644C81.5159 142.121 81.0354 141.568 80.3064 141.408C79.5765 141.244 78.8834 141.543 78.7491 142.068C77.0758 148.613 74.7617 155.824 73.617 157.19C72.5 156.739 69.8115 154.324 67.59 151.743C67.1711 151.258 66.3382 151.071 65.7302 151.329C65.1188 151.584 64.9624 152.186 65.381 152.669C66.5792 154.058 70.6942 158.631 73.4253 159.171C73.6992 159.223 73.9448 159.241 74.1644 159.235Z" fill="#1F1F1F"/>
<path d="M236.567 77.6212C236.361 78.807 236.068 79.9815 235.696 81.1123L233.812 80.3039C234.153 79.2635 234.423 78.1832 234.613 77.0927L236.567 77.6212ZM233.421 86.0868C232.817 87.0979 232.128 88.0904 231.372 89.0368L229.801 87.6447C230.506 86.7619 231.148 85.8376 231.71 84.8973L233.421 86.0868ZM227.693 92.8756C226.832 93.6319 225.903 94.3666 224.932 95.0596L223.718 93.3293C224.641 92.6707 225.522 91.9733 226.339 91.2561L227.693 92.8756ZM219.441 95.9674L220.46 97.8188C219.449 98.3568 218.389 98.8693 217.309 99.3424L216.412 97.4326C217.45 96.9774 218.47 96.4844 219.441 95.9674ZM211.669 99.2173L212.394 101.192C211.29 101.544 210.153 101.866 209.015 102.149L208.404 100.142C209.504 99.869 210.602 99.5577 211.669 99.2173ZM203.376 101.188L203.866 103.221C202.773 103.414 201.642 103.596 200.407 103.777L199.971 101.735C201.188 101.557 202.301 101.378 203.376 101.188ZM194.816 102.416L195.207 104.463C194.16 104.59 193.112 104.713 192.065 104.836L191.742 104.874L191.358 102.825L191.681 102.787C192.726 102.665 193.771 102.542 194.816 102.416ZM186.158 103.458L186.565 105.504C185.315 105.666 184.193 105.823 183.138 105.983L182.693 103.943C183.761 103.781 184.895 103.622 186.158 103.458ZM177.518 104.851L178.054 106.875C176.898 107.111 175.777 107.367 174.721 107.634L174.101 105.63C175.184 105.354 176.333 105.092 177.518 104.851ZM169.069 107.143L169.845 109.101C169.659 109.166 169.474 109.233 169.289 109.301C168.431 109.615 167.571 109.971 166.733 110.357L165.805 108.46C166.686 108.055 167.59 107.681 168.492 107.35C168.684 107.28 168.876 107.211 169.069 107.143ZM161.189 110.992L162.334 112.769L162.313 112.782C161.381 113.383 160.471 114.032 159.61 114.71L158.329 113.03C159.234 112.317 160.189 111.636 161.168 111.005L161.189 110.992ZM155.91 118.098C155.138 118.924 154.414 119.788 153.759 120.667L152.152 119.323C152.847 118.39 153.614 117.474 154.432 116.599L155.91 118.098ZM151.135 124.972C150.638 126.001 150.217 127.06 149.884 128.118L147.992 127.333C148.353 126.186 148.808 125.041 149.345 123.928L151.135 124.972ZM148.932 133.158C148.857 134.309 148.878 135.478 148.995 136.632L147.021 136.676C146.892 135.404 146.869 134.116 146.952 132.848L148.932 133.158ZM149.697 142.154C149.781 143.399 149.801 144.665 149.758 145.916L147.775 145.671C147.816 144.492 147.796 143.299 147.717 142.126L149.697 142.154ZM149.153 151.455C148.931 152.653 148.647 153.855 148.31 155.029L146.404 154.29C146.724 153.178 146.993 152.04 147.202 150.905L149.153 151.455ZM146.432 160.136C145.939 161.227 145.388 162.303 144.796 163.334L143.069 162.172C143.632 161.193 144.154 160.171 144.623 159.136L146.432 160.136ZM141.8 167.757C141.063 168.686 140.277 169.58 139.461 170.415L138.009 168.889C138.782 168.097 139.528 167.25 140.226 166.37L141.8 167.757ZM135.474 173.892C134.948 174.28 134.406 174.654 133.863 175.004C133.422 175.288 132.971 175.562 132.522 175.82L131.453 173.997C131.876 173.754 132.302 173.494 132.718 173.227C133.23 172.897 133.742 172.544 134.238 172.177L135.474 173.892ZM126.926 176.088L127.708 178.044C126.604 178.438 125.455 178.772 124.293 179.037L123.716 177.021C124.809 176.772 125.888 176.458 126.926 176.088ZM118.705 177.724L118.978 179.782C117.793 179.85 116.578 179.855 115.367 179.798L115.29 177.739C116.436 177.793 117.585 177.788 118.705 177.724ZM110.148 177.112L109.939 179.137C108.747 178.903 107.543 178.608 106.361 178.26L106.752 176.28C107.874 176.61 109.016 176.89 110.148 177.112ZM101.784 174.438L101.128 176.32C99.9905 175.809 98.8609 175.239 97.7714 174.628L98.5988 172.832C99.633 173.413 100.704 173.953 101.784 174.438ZM94.0873 169.881L93.01 171.513C91.9927 170.744 91.0025 169.921 90.0666 169.067L91.3047 167.569C92.189 168.376 93.1254 169.154 94.0873 169.881ZM87.5557 163.618L86.0901 164.876C85.2711 163.877 84.4971 162.83 83.7893 161.764L85.3927 160.693C86.0578 161.694 86.7857 162.679 87.5557 163.618Z" fill="#1F1F1F"/>
</svg>
