<svg width="46" height="46" viewBox="0 0 46 46" fill="none" xmlns="http://www.w3.org/2000/svg">
<path d="M0 37.0536V8.94679C0 4.00572 4.00572 0 8.94679 0H37.0532C41.9943 0 46 4.00572 46 8.94679V37.0532C46 41.9943 41.9943 46 37.0532 46H8.94679C4.00528 46.0004 0 41.9947 0 37.0536Z" fill="#DB0C0B"/>
<path d="M1.10083 35.9529V10.0484C1.10083 5.10728 5.10655 1.10156 10.0476 1.10156H35.9522C40.8933 1.10156 44.899 5.10728 44.899 10.0484V35.9529C44.899 40.894 40.8933 44.8997 35.9522 44.8997H10.0476C5.10655 44.8997 1.10083 40.894 1.10083 35.9529Z" fill="url(#paint0_linear_606_5702)"/>
<path d="M1.10083 35.9529V10.0484C1.10083 5.10728 5.10655 1.10156 10.0476 1.10156H35.9522C40.8933 1.10156 44.899 5.10728 44.899 10.0484V35.9529C44.899 40.894 40.8933 44.8997 35.9522 44.8997H10.0476C5.10655 44.8997 1.10083 40.894 1.10083 35.9529Z" fill="url(#paint1_linear_606_5702)"/>
<path d="M37.9293 1.10156H8.07005C4.22088 1.10156 1.10083 4.22162 1.10083 8.07078V25.343C9.27761 28.1139 19.143 29.733 29.7653 29.733C35.034 29.733 40.1162 29.3342 44.899 28.595V8.07078C44.899 4.22162 41.7785 1.10156 37.9293 1.10156Z" fill="url(#paint2_linear_606_5702)"/>
<path d="M34.1933 20.0652C32.9766 20.0652 31.7236 20.0652 30.7045 20.0652H22.8613V25.809H30.7519C29.6028 28.9779 26.5668 31.2423 23.0008 31.2423C18.4483 31.2423 14.7582 27.5516 14.7582 22.9997C14.7582 18.4478 18.4483 14.7571 23.0008 14.7571C25.083 14.7571 26.9835 15.5311 28.4341 16.8043L32.2251 12.7378C29.7809 10.5388 26.5472 9.19971 23.0002 9.19971C15.3784 9.19971 9.2002 15.378 9.2002 22.9997C9.2002 30.6215 15.3784 36.7997 23.0002 36.7997C30.6219 36.7997 36.8002 30.6215 36.8002 22.9997C36.8002 21.9925 36.6892 21.0119 36.4844 20.0658C35.79 20.0652 34.9994 20.0652 34.1933 20.0652Z" fill="#FBFBFB"/>
<defs>
<linearGradient id="paint0_linear_606_5702" x1="23.3079" y1="-18.5499" x2="23.0797" y2="12.2597" gradientUnits="userSpaceOnUse">
<stop stop-color="white"/>
<stop offset="0.2606" stop-color="white" stop-opacity="0.7394"/>
<stop offset="1" stop-color="white" stop-opacity="0"/>
</linearGradient>
<linearGradient id="paint1_linear_606_5702" x1="22.6018" y1="52.8704" x2="22.8299" y2="35.7629" gradientUnits="userSpaceOnUse">
<stop stop-color="white"/>
<stop offset="0.2606" stop-color="white" stop-opacity="0.7394"/>
<stop offset="1" stop-color="white" stop-opacity="0"/>
</linearGradient>
<linearGradient id="paint2_linear_606_5702" x1="19.038" y1="42.9334" x2="24.7473" y2="7.07914" gradientUnits="userSpaceOnUse">
<stop stop-color="white"/>
<stop offset="0.2606" stop-color="white" stop-opacity="0.7394"/>
<stop offset="1" stop-color="white" stop-opacity="0"/>
</linearGradient>
</defs>
</svg>
