<svg width="65" height="65" viewBox="0 0 65 65" fill="none" xmlns="http://www.w3.org/2000/svg">
<path d="M0 52.3582V12.642C0 5.66001 5.66025 -0.000244141 12.6422 -0.000244141H52.3578C59.3397 -0.000244141 65 5.66001 65 12.642V52.3582C65 59.3401 59.3397 65.0004 52.3578 65.0004H12.6422C5.66025 65.0004 0 59.3408 0 52.3582Z" fill="url(#paint0_linear_451_3658)"/>
<path d="M1.55566 50.8028V14.1985C1.55566 7.21659 7.21592 1.55634 14.1979 1.55634H50.8022C57.7841 1.55634 63.4444 7.21659 63.4444 14.1985V50.8028C63.4444 57.7848 57.7841 63.445 50.8022 63.445H14.1979C7.21592 63.445 1.55566 57.7848 1.55566 50.8028Z" fill="url(#paint1_linear_451_3658)"/>
<path d="M1.55566 50.8028V14.1985C1.55566 7.21659 7.21592 1.55634 14.1979 1.55634H50.8022C57.7841 1.55634 63.4444 7.21659 63.4444 14.1985V50.8028C63.4444 57.7848 57.7841 63.445 50.8022 63.445H14.1979C7.21592 63.445 1.55566 57.7848 1.55566 50.8028Z" fill="url(#paint2_linear_451_3658)"/>
<path d="M53.5965 1.55634H11.4035C5.96444 1.55634 1.55566 5.9651 1.55566 11.4041V35.8111C13.1098 39.7265 27.0501 42.0145 42.0598 42.0145C49.5047 42.0145 56.6861 41.4509 63.4444 40.4057V11.4041C63.4444 5.9651 59.0356 1.55634 53.5965 1.55634Z" fill="url(#paint3_linear_451_3658)"/>
<path fill-rule="evenodd" clip-rule="evenodd" d="M45.3901 32.5016C45.3901 25.3768 39.6174 19.609 32.5 19.609C25.3782 19.609 19.6105 25.3768 19.6105 32.5016C19.6105 39.6191 25.3789 45.3862 32.5 45.3862C39.6174 45.3862 45.3901 39.6191 45.3901 32.5016ZM45.1447 17.8554C43.9957 17.8554 43.0699 18.7913 43.0699 19.9328C43.0699 21.0817 43.9957 22.0051 45.1447 22.0051C46.2856 22.0051 47.222 21.0817 47.222 19.9328C47.222 18.7913 46.2856 17.8554 45.1447 17.8554ZM21.9668 14.8777H43.0345C46.9387 14.8777 50.122 18.0692 50.122 21.9597V43.0355C50.122 46.9366 46.9387 50.1175 43.0345 50.1175H21.9668C18.0682 50.1175 14.8798 46.9366 14.8798 43.0355V21.9597C14.8798 18.0692 18.0676 14.8777 21.9668 14.8777ZM43.0345 12.5177H21.9668C16.7738 12.5177 12.5186 16.7699 12.5186 21.9604V43.0361C12.5186 48.2365 16.7738 52.4837 21.9668 52.4837H43.0345C48.2374 52.4837 52.4827 48.2365 52.4827 43.0361V21.9604C52.4827 16.7693 48.2374 12.5177 43.0345 12.5177ZM22.2899 32.5016C22.2899 26.8594 26.8634 22.2841 32.5 22.2841C38.1429 22.2841 42.7107 26.86 42.7107 32.5016C42.7107 38.1364 38.1429 42.7123 32.5 42.7123C26.864 42.7123 22.2899 38.1364 22.2899 32.5016Z" fill="white"/>
<defs>
<linearGradient id="paint0_linear_451_3658" x1="4.03096" y1="66.2306" x2="47.3443" y2="14.9138" gradientUnits="userSpaceOnUse">
<stop stop-color="#FEC053"/>
<stop offset="0.3273" stop-color="#F2203E"/>
<stop offset="0.6485" stop-color="#B729A8"/>
<stop offset="1" stop-color="#5342D6"/>
</linearGradient>
<linearGradient id="paint1_linear_451_3658" x1="32.9351" y1="-26.2122" x2="32.6126" y2="17.323" gradientUnits="userSpaceOnUse">
<stop stop-color="white"/>
<stop offset="0.2606" stop-color="white" stop-opacity="0.7394"/>
<stop offset="1" stop-color="white" stop-opacity="0"/>
</linearGradient>
<linearGradient id="paint2_linear_451_3658" x1="31.9373" y1="74.7077" x2="32.2597" y2="50.5341" gradientUnits="userSpaceOnUse">
<stop stop-color="white"/>
<stop offset="0.2606" stop-color="white" stop-opacity="0.7394"/>
<stop offset="1" stop-color="white" stop-opacity="0"/>
</linearGradient>
<linearGradient id="paint3_linear_451_3658" x1="26.9021" y1="60.6663" x2="34.9695" y2="10.0027" gradientUnits="userSpaceOnUse">
<stop stop-color="white"/>
<stop offset="0.2606" stop-color="white" stop-opacity="0.7394"/>
<stop offset="1" stop-color="white" stop-opacity="0"/>
</linearGradient>
</defs>
</svg>
