<svg width="46" height="46" viewBox="0 0 46 46" fill="none" xmlns="http://www.w3.org/2000/svg">
<path d="M0 37.0533V8.9467C0 4.00568 4.00569 0 8.94672 0H37.0529C41.9939 0 45.9996 4.00568 45.9996 8.9467V37.0533C45.9996 41.9943 41.9939 46 37.0529 46H8.94672C4.00569 46 0 41.9948 0 37.0533Z" fill="#00ADED"/>
<path d="M1.10107 35.9521V10.0478C1.10107 5.10675 5.10675 1.10107 10.0478 1.10107H35.9521C40.8931 1.10107 44.8988 5.10675 44.8988 10.0478V35.9521C44.8988 40.8931 40.8931 44.8988 35.9521 44.8988H10.0478C5.10631 44.8988 1.10107 40.8931 1.10107 35.9521Z" fill="url(#paint0_linear_606_5710)"/>
<path d="M1.10107 35.9521V10.0478C1.10107 5.10675 5.10675 1.10107 10.0478 1.10107H35.9521C40.8931 1.10107 44.8988 5.10675 44.8988 10.0478V35.9521C44.8988 40.8931 40.8931 44.8988 35.9521 44.8988H10.0478C5.10631 44.8988 1.10107 40.8931 1.10107 35.9521Z" fill="url(#paint1_linear_606_5710)"/>
<path d="M37.9296 1.10107H8.07022C4.22109 1.10107 1.10107 4.22109 1.10107 8.07022V25.3427C9.27778 28.1136 19.1431 29.7327 29.7653 29.7327C35.0339 29.7327 40.1161 29.3339 44.8988 28.5942V8.07022C44.8988 4.22109 41.7783 1.10107 37.9296 1.10107Z" fill="url(#paint2_linear_606_5710)"/>
<path d="M14.8623 26.6144L17.4353 34.3276C17.6182 34.8756 18.2954 35.0682 18.7387 34.6974L26.2474 28.4231C26.2474 28.4231 18.2101 25.3435 18.211 25.5142C18.2119 25.6843 14.8623 26.6144 14.8623 26.6144Z" fill="#ABD3DD"/>
<path d="M34.6819 11.6421C29.7655 13.6205 13.8989 20.2339 7.89366 22.7396C7.1008 23.0703 7.15534 24.2106 7.97547 24.4665L14.8619 26.6152L17.4266 34.3037C17.5295 34.6129 17.7867 34.8112 18.0726 34.8631C18.3047 34.9053 18.6086 28.6208 18.6086 28.6208C18.6086 28.6208 25.8667 33.9365 29.309 36.4466C30.1573 37.0649 31.36 36.5891 31.554 35.5575C32.5434 30.2893 35.0174 17.1166 35.8635 12.6131C35.9906 11.9359 35.3208 11.3849 34.6819 11.6421Z" fill="#FBFBFB"/>
<path d="M18.0734 34.8621C18.3051 34.9043 18.6094 28.6198 18.6094 28.6198L30.4136 17.3983C30.4936 17.3222 30.3969 17.196 30.3023 17.2532L14.8623 26.6141L17.4269 34.3027C17.5307 34.6119 17.7875 34.8102 18.0734 34.8621Z" fill="#D3E4EC"/>
<defs>
<linearGradient id="paint0_linear_606_5710" x1="23.3076" y1="-18.5503" x2="23.0794" y2="12.2589" gradientUnits="userSpaceOnUse">
<stop stop-color="white"/>
<stop offset="0.2606" stop-color="white" stop-opacity="0.7394"/>
<stop offset="1" stop-color="white" stop-opacity="0"/>
</linearGradient>
<linearGradient id="paint1_linear_606_5710" x1="22.6015" y1="52.8693" x2="22.8296" y2="35.7619" gradientUnits="userSpaceOnUse">
<stop stop-color="white"/>
<stop offset="0.2606" stop-color="white" stop-opacity="0.7394"/>
<stop offset="1" stop-color="white" stop-opacity="0"/>
</linearGradient>
<linearGradient id="paint2_linear_606_5710" x1="19.0382" y1="42.9324" x2="24.7474" y2="7.07845" gradientUnits="userSpaceOnUse">
<stop stop-color="white"/>
<stop offset="0.2606" stop-color="white" stop-opacity="0.7394"/>
<stop offset="1" stop-color="white" stop-opacity="0"/>
</linearGradient>
</defs>
</svg>
