<svg width="46" height="46" viewBox="0 0 46 46" fill="none" xmlns="http://www.w3.org/2000/svg">
<path d="M0 37.0536V8.94679C0 4.00572 4.00573 0 8.9468 0H37.0532C41.9943 0 46 4.00572 46 8.94679V37.0532C46 41.9943 41.9943 46 37.0532 46H8.9468C4.00573 46.0004 0 41.9947 0 37.0536Z" fill="#3B5998"/>
<path d="M1.09985 35.9529V10.0484C1.09985 5.10728 5.10557 1.10156 10.0466 1.10156H35.9512C40.8923 1.10156 44.898 5.10728 44.898 10.0484V35.9529C44.898 40.894 40.8923 44.8997 35.9512 44.8997H10.0466C5.10513 44.8997 1.09985 40.894 1.09985 35.9529Z" fill="url(#paint0_linear_606_5685)"/>
<path d="M1.09985 35.9529V10.0484C1.09985 5.10728 5.10557 1.10156 10.0466 1.10156H35.9512C40.8923 1.10156 44.898 5.10728 44.898 10.0484V35.9529C44.898 40.894 40.8923 44.8997 35.9512 44.8997H10.0466C5.10513 44.8997 1.09985 40.894 1.09985 35.9529Z" fill="url(#paint1_linear_606_5685)"/>
<path d="M37.9288 1.10156H8.06907C4.2199 1.10156 1.09985 4.22162 1.09985 8.07078V25.343C9.27664 28.1139 19.1421 29.7331 29.7643 29.7331C35.033 29.7331 40.1153 29.3342 44.898 28.595V8.07078C44.898 4.22162 41.7775 1.10156 37.9288 1.10156Z" fill="url(#paint2_linear_606_5685)"/>
<path d="M39.0251 11.1148C39.087 10.8364 39.0826 10.5796 39.0748 10.3493C39.0547 9.68329 38.8952 9.19971 38.1116 9.19971H34.613C33.7292 9.19971 33.3222 9.93528 33.0843 10.6732C33.0843 10.6732 30.9035 16.853 28.3889 20.9292C27.574 22.1087 27.1591 22.3991 26.7181 22.3991C26.4819 22.3991 25.884 21.6852 25.884 20.6052V11.0656C25.884 9.78888 25.653 9.19971 24.906 9.19971H18.8589C18.315 9.19971 18.0317 9.78888 18.0317 10.3793C18.0317 11.6068 18.804 11.9008 18.9408 15.3398V22.0056C18.9408 23.6243 18.9975 23.5991 18.5564 23.5991C17.3667 23.5991 15.0256 18.3997 13.4576 11.1652C13.1185 9.74088 12.7786 9.19971 11.8957 9.19971H8.08939C7.06962 9.19971 6.89966 9.88728 6.89966 10.624C6.89966 11.9512 7.97521 19.1221 12.3524 27.3693C15.5268 33.3487 19.7078 36.7985 23.4104 36.7985C25.653 36.7985 25.8831 36.0125 25.8831 34.7862V29.318C25.8848 27.8445 26.1289 27.3201 26.8427 27.3201C27.3517 27.3201 28.3907 28.0605 30.3954 31.2799C32.7077 34.9926 33.127 36.7997 34.4527 36.7997H37.9513C38.7636 36.7997 39.0809 36.3305 39.0992 35.4198C39.1035 35.1882 39.0791 34.929 39.0242 34.6398C38.7653 33.5802 37.7247 30.9896 36.2412 28.5201C35.4193 27.1533 34.4753 25.7986 34.1023 25.063C33.8521 24.583 33.7571 24.2447 33.7693 23.9207C33.7815 23.5799 33.9097 23.2559 34.1023 22.8035C34.0692 22.8023 38.5841 14.0607 39.0251 11.1148Z" fill="#FEFDEF"/>
<path d="M37.5588 36.7986H34.1516C33.045 36.7986 32.4917 35.8165 31.4869 34.0318C31.0728 33.2958 30.5577 32.3816 29.8779 31.3087C27.7691 27.9738 26.9442 27.7139 26.7422 27.7139C26.4359 27.7139 26.2331 27.7139 26.2322 29.0548V34.2951C26.2322 36.1431 25.4914 36.7997 23.4003 36.7997C19.5756 36.7997 15.4233 33.3326 12.2918 27.5276C8.17769 19.9 6.89966 12.8462 6.89966 11.1408C6.89966 9.53779 7.76101 9.20086 8.48235 9.20086H12.1883C13.3356 9.20086 13.7617 10.0369 14.1121 11.4789C15.7177 18.7696 17.8851 22.8128 18.6243 22.9934C18.626 22.8634 18.6251 22.6967 18.6243 22.5254V15.659C18.5479 13.788 18.267 12.9888 18.0404 12.3471C17.8851 11.9067 17.7392 11.4916 17.7392 10.9039C17.7392 10.0771 18.1703 9.19971 18.9688 9.19971H24.8566C26.2331 9.19971 26.2331 10.9166 26.2331 11.5629V20.705C26.2331 21.3904 26.5878 21.8135 26.6786 21.8595C26.8509 21.8492 27.1428 21.7537 27.9397 20.6199C30.3065 16.8411 32.4145 10.9948 32.4357 10.9361C32.8133 9.79078 33.4447 9.19971 34.3077 9.19971H37.7141C38.5831 9.19971 39.0414 9.75513 39.0762 10.8522C39.0847 11.1155 39.0881 11.426 39.0091 11.7779C38.6391 14.2215 35.478 20.5083 34.4384 22.5748C34.3154 22.8186 34.2305 22.9865 34.194 23.0647L34.1771 23.1026C34.0252 23.4534 33.9174 23.7167 33.9106 23.9099C33.9063 24.018 33.9284 24.2112 34.1558 24.6424C34.3527 25.0253 34.7346 25.6095 35.175 26.2857C35.5103 26.7986 35.876 27.3609 36.2197 27.9232C37.7107 30.3669 38.7461 32.9301 39.004 33.972C39.0753 34.3365 39.1042 34.6424 39.0991 34.9172C39.0821 35.7751 38.8004 36.7986 37.5588 36.7986ZM26.7422 26.564C27.5849 26.564 28.8222 27.8715 30.5229 30.5612C31.2171 31.6583 31.7415 32.5886 32.1616 33.3349C33.1511 35.0932 33.4956 35.6486 34.1516 35.6486H37.5588C38.1911 35.6486 38.2428 35.36 38.2522 34.885C38.2556 34.7171 38.2352 34.5205 38.1928 34.2986C37.9704 33.4085 36.9733 30.9591 35.5671 28.6546C35.2294 28.1026 34.8695 27.5506 34.5403 27.0458C34.082 26.3443 33.6857 25.736 33.4634 25.3048C33.1663 24.7448 33.0467 24.3089 33.0637 23.8512C33.0798 23.397 33.2317 23.0129 33.4447 22.5196L33.4498 22.5231C33.5066 22.3839 33.6 22.1988 33.7375 21.9251C36.4616 16.5088 37.9585 12.9991 38.1877 11.495C38.2369 11.2662 38.2343 11.0937 38.2284 10.9016C38.2165 10.5222 38.2114 10.3497 37.7141 10.3497H34.3077C33.7824 10.3497 33.4523 10.6693 33.2062 11.4214C33.1129 11.6836 31.0253 17.4725 28.571 21.388C27.7317 22.584 27.2268 22.9991 26.6217 22.9991C26.1236 22.9991 25.3853 22.0355 25.3853 20.705V11.5629C25.3853 10.3497 25.1638 10.3497 24.8574 10.3497H18.9697C18.6065 10.3497 18.5886 10.8119 18.5886 10.9039C18.5886 11.2305 18.671 11.464 18.8076 11.8515C19.052 12.5461 19.388 13.4982 19.4729 15.6268L19.4755 22.5162C19.4788 23.3073 19.4805 23.6362 19.2811 23.9087C19.1038 24.1491 18.878 24.1491 18.7125 24.1491C17.011 24.1491 14.6374 17.8818 13.3034 11.8216C12.997 10.5555 12.7679 10.3497 12.19 10.3497H8.48404C7.74998 10.3497 7.74998 10.7153 7.74998 11.1397C7.74998 12.1286 8.65886 18.8398 12.9775 26.848C15.9494 32.3586 19.8455 35.6486 23.4012 35.6486C25.3844 35.6486 25.3844 35.0805 25.3844 34.294V29.0536C25.3853 27.822 25.5465 26.564 26.7422 26.564Z" fill="#3B5998"/>
<defs>
<linearGradient id="paint0_linear_606_5685" x1="23.3066" y1="-18.5499" x2="23.0784" y2="12.2597" gradientUnits="userSpaceOnUse">
<stop stop-color="white"/>
<stop offset="0.2606" stop-color="white" stop-opacity="0.7394"/>
<stop offset="1" stop-color="white" stop-opacity="0"/>
</linearGradient>
<linearGradient id="paint1_linear_606_5685" x1="22.6005" y1="52.8704" x2="22.8286" y2="35.7629" gradientUnits="userSpaceOnUse">
<stop stop-color="white"/>
<stop offset="0.2606" stop-color="white" stop-opacity="0.7394"/>
<stop offset="1" stop-color="white" stop-opacity="0"/>
</linearGradient>
<linearGradient id="paint2_linear_606_5685" x1="19.0371" y1="42.9334" x2="24.7464" y2="7.07913" gradientUnits="userSpaceOnUse">
<stop stop-color="white"/>
<stop offset="0.2606" stop-color="white" stop-opacity="0.7394"/>
<stop offset="1" stop-color="white" stop-opacity="0"/>
</linearGradient>
</defs>
</svg>
