<svg width="46" height="46" viewBox="0 0 46 46" fill="none" xmlns="http://www.w3.org/2000/svg">
<path d="M-0.000488281 37.0537V8.94679C-0.000488281 4.00572 4.00522 0 8.94629 0H37.0527C41.9938 0 45.9995 4.00572 45.9995 8.94679V37.0532C45.9995 41.9943 41.9938 46 37.0527 46H8.94629C4.00478 46.0004 -0.000488281 41.9947 -0.000488281 37.0537Z" fill="#FFC731"/>
<path d="M1.10059 35.9529V10.0484C1.10059 5.10728 5.10629 1.10156 10.0474 1.10156H35.952C40.893 1.10156 44.8987 5.10728 44.8987 10.0484V35.9529C44.8987 40.894 40.893 44.8997 35.952 44.8997H10.0474C5.10629 44.8997 1.10059 40.894 1.10059 35.9529Z" fill="url(#paint0_linear_606_5695)"/>
<path d="M1.10059 35.9529V10.0484C1.10059 5.10728 5.10629 1.10156 10.0474 1.10156H35.952C40.893 1.10156 44.8987 5.10728 44.8987 10.0484V35.9529C44.8987 40.894 40.893 44.8997 35.952 44.8997H10.0474C5.10629 44.8997 1.10059 40.894 1.10059 35.9529Z" fill="url(#paint1_linear_606_5695)"/>
<path d="M37.9295 1.10156H8.06981C4.22065 1.10156 1.10059 4.22162 1.10059 8.07078V25.343C9.27737 28.1139 19.1428 29.7331 29.7651 29.7331C35.0337 29.7331 40.116 29.3342 44.8987 28.595V8.07078C44.8992 4.22162 41.7787 1.10156 37.9295 1.10156Z" fill="url(#paint2_linear_606_5695)"/>
<path d="M35.5118 10.5057C34.0994 9.09323 33.5012 9.20163 33.5012 9.20163L23.0002 19.1456L12.4991 9.20163C12.4991 9.20163 11.901 9.09323 10.4886 10.5057C9.07622 11.9182 9.20314 12.497 9.20314 12.497L20.6372 23.3857V36.307C20.6372 36.307 20.9748 36.7997 23.0002 36.7997C25.0256 36.7997 25.3631 36.307 25.3631 36.307V23.3857L36.7972 12.4977C36.7972 12.4977 36.9248 11.9182 35.5118 10.5057Z" fill="#FBFBFB"/>
<defs>
<linearGradient id="paint0_linear_606_5695" x1="23.3076" y1="-18.5499" x2="23.0794" y2="12.2597" gradientUnits="userSpaceOnUse">
<stop stop-color="white"/>
<stop offset="0.2606" stop-color="white" stop-opacity="0.7394"/>
<stop offset="1" stop-color="white" stop-opacity="0"/>
</linearGradient>
<linearGradient id="paint1_linear_606_5695" x1="22.6016" y1="52.8704" x2="22.8297" y2="35.7629" gradientUnits="userSpaceOnUse">
<stop stop-color="white"/>
<stop offset="0.2606" stop-color="white" stop-opacity="0.7394"/>
<stop offset="1" stop-color="white" stop-opacity="0"/>
</linearGradient>
<linearGradient id="paint2_linear_606_5695" x1="19.0382" y1="42.9334" x2="24.7475" y2="7.07914" gradientUnits="userSpaceOnUse">
<stop stop-color="white"/>
<stop offset="0.2606" stop-color="white" stop-opacity="0.7394"/>
<stop offset="1" stop-color="white" stop-opacity="0"/>
</linearGradient>
</defs>
</svg>
