<svg width="35" height="35" viewBox="0 0 35 35" fill="none" xmlns="http://www.w3.org/2000/svg">
<path d="M18.6833 15.9517C18.6833 15.7822 18.6113 15.6196 18.4832 15.4997C18.3551 15.3798 18.1814 15.3125 18.0002 15.3125C17.8191 15.3125 17.6453 15.3798 17.5172 15.4997C17.3891 15.6196 17.3172 15.7822 17.3172 15.9517V16.5491L16.7643 16.2509C16.608 16.173 16.4255 16.1549 16.2553 16.2005C16.0851 16.2461 15.9404 16.3518 15.8518 16.4953C15.7632 16.6387 15.7376 16.8088 15.7804 16.9696C15.8232 17.1303 15.9311 17.2693 16.0812 17.3571L16.6341 17.6554L16.0812 17.9545C15.9242 18.0393 15.8096 18.179 15.7627 18.3428C15.7157 18.5066 15.7402 18.6812 15.8308 18.8281C15.9214 18.975 16.0706 19.0823 16.2457 19.1262C16.4207 19.1702 16.6073 19.1473 16.7643 19.0625L17.3172 18.7634V19.3608C17.3172 19.5303 17.3891 19.6929 17.5172 19.8128C17.6453 19.9327 17.8191 20 18.0002 20C18.1814 20 18.3551 19.9327 18.4832 19.8128C18.6113 19.6929 18.6833 19.5303 18.6833 19.3608V18.7642L19.2361 19.0625C19.3931 19.1473 19.5797 19.1702 19.7548 19.1262C19.9299 19.0823 20.0791 18.975 20.1697 18.8281C20.2603 18.6812 20.2848 18.5066 20.2378 18.3428C20.1908 18.179 20.0762 18.0393 19.9192 17.9545L19.3664 17.6563L19.9192 17.358C20.0762 17.2732 20.1908 17.1335 20.2378 16.9697C20.2848 16.8059 20.2603 16.6313 20.1697 16.4844C20.0791 16.3375 19.9299 16.2302 19.7548 16.1863C19.5797 16.1423 19.3931 16.1652 19.2361 16.25L18.6833 16.5483V15.9517ZM13.2032 15.3125C13.3844 15.3125 13.5581 15.3798 13.6862 15.4997C13.8143 15.6196 13.8863 15.7822 13.8863 15.9517V16.5483L14.4382 16.25C14.5952 16.1652 14.7818 16.1423 14.9569 16.1863C15.1319 16.2302 15.2812 16.3375 15.3718 16.4844C15.4623 16.6313 15.4868 16.8059 15.4399 16.9697C15.3929 17.1335 15.2783 17.2732 15.1213 17.358L14.5685 17.6563L15.1213 17.9545C15.199 17.9965 15.2672 18.0524 15.3218 18.119C15.3765 18.1856 15.4166 18.2617 15.4399 18.3428C15.4631 18.4239 15.4691 18.5085 15.4574 18.5918C15.4457 18.6751 15.4166 18.7554 15.3718 18.8281C15.3269 18.9009 15.2672 18.9646 15.196 19.0158C15.1248 19.0669 15.0435 19.1045 14.9569 19.1262C14.8702 19.148 14.7798 19.1536 14.6908 19.1426C14.6018 19.1317 14.516 19.1045 14.4382 19.0625L13.8863 18.7642V19.3608C13.8863 19.5303 13.8143 19.6929 13.6862 19.8128C13.5581 19.9327 13.3844 20 13.2032 20C13.0221 20 12.8483 19.9327 12.7202 19.8128C12.5921 19.6929 12.5201 19.5303 12.5201 19.3608V18.7634L11.9664 19.0616C11.8101 19.1395 11.6276 19.1576 11.4574 19.112C11.2871 19.0664 11.1425 18.9607 11.0539 18.8172C10.9653 18.6738 10.9397 18.5037 10.9825 18.3429C11.0253 18.1822 11.1332 18.0432 11.2833 17.9554L11.8362 17.6563L11.2833 17.358C11.2056 17.316 11.1374 17.2601 11.0828 17.1935C11.0281 17.1269 10.988 17.0508 10.9648 16.9697C10.9415 16.8886 10.9355 16.804 10.9472 16.7207C10.9589 16.6374 10.988 16.5571 11.0329 16.4844C11.0777 16.4116 11.1374 16.3479 11.2086 16.2967C11.2798 16.2456 11.3611 16.208 11.4478 16.1863C11.5344 16.1645 11.6249 16.1589 11.7139 16.1699C11.8028 16.1808 11.8887 16.208 11.9664 16.25L12.5201 16.5491V15.9517C12.5201 15.7822 12.5921 15.6196 12.7202 15.4997C12.8483 15.3798 13.0221 15.3125 13.2032 15.3125ZM23.4812 15.9517C23.4812 15.7822 23.4093 15.6196 23.2812 15.4997C23.1531 15.3798 22.9793 15.3125 22.7981 15.3125C22.617 15.3125 22.4432 15.3798 22.3151 15.4997C22.187 15.6196 22.1151 15.7822 22.1151 15.9517V16.5491L21.5622 16.2509C21.4059 16.173 21.2234 16.1549 21.0532 16.2005C20.883 16.2461 20.7383 16.3518 20.6497 16.4953C20.5611 16.6387 20.5356 16.8088 20.5784 16.9696C20.6212 17.1303 20.729 17.2693 20.8792 17.3571L21.432 17.6554L20.8783 17.9545C20.7212 18.0393 20.6067 18.179 20.5597 18.3428C20.5127 18.5066 20.5372 18.6812 20.6278 18.8281C20.7184 18.975 20.8676 19.0823 21.0427 19.1262C21.2178 19.1702 21.4043 19.1473 21.5613 19.0625L22.1151 18.7634V19.3608C22.1151 19.5303 22.187 19.6929 22.3151 19.8128C22.4432 19.9327 22.617 20 22.7981 20C22.9793 20 23.1531 19.9327 23.2812 19.8128C23.4093 19.6929 23.4812 19.5303 23.4812 19.3608V18.7642L24.0341 19.0625C24.1911 19.1473 24.3776 19.1702 24.5527 19.1262C24.7278 19.0823 24.877 18.975 24.9676 18.8281C25.0582 18.6812 25.0827 18.5066 25.0357 18.3428C24.9887 18.179 24.8741 18.0393 24.7171 17.9545L24.1643 17.6563L24.7171 17.358C24.8741 17.2732 24.9887 17.1335 25.0357 16.9697C25.0827 16.8059 25.0582 16.6313 24.9676 16.4844C24.877 16.3375 24.7278 16.2302 24.5527 16.1863C24.3776 16.1423 24.1911 16.1652 24.0341 16.25L23.4812 16.5483V15.9517Z" fill="#FBFBFB"/>
<path fill-rule="evenodd" clip-rule="evenodd" d="M16.0874 10C14.3777 10 13.0233 10 11.9637 10.1311C10.8735 10.2666 9.9907 10.5511 9.29395 11.1923C8.59814 11.8343 8.2893 12.6477 8.14233 13.6523C8 14.6294 8 15.8766 8 17.452V17.548C8 19.1234 8 20.3714 8.14233 21.3477C8.2893 22.3523 8.59814 23.1657 9.29395 23.8077C9.9907 24.4489 10.8735 24.7334 11.9637 24.8689C13.0242 25 14.3777 25 16.0874 25H19.9126C21.6223 25 22.9767 25 24.0363 24.8689C25.1265 24.7334 26.0093 24.4489 26.706 23.8077C27.4019 23.1657 27.7107 22.3523 27.8577 21.3477C28 20.3706 28 19.1234 28 17.548V17.452C28 15.8766 28 14.6286 27.8577 13.6523C27.7107 12.6477 27.4019 11.8343 26.706 11.1923C26.0093 10.5511 25.1265 10.2666 24.0363 10.1311C22.9758 10 21.6223 10 19.9126 10H16.0874ZM10.2809 12.1017C10.6744 11.7391 11.214 11.5214 12.1498 11.4057C13.106 11.2874 14.3656 11.2857 16.1395 11.2857H19.8605C21.6344 11.2857 22.8949 11.2874 23.8512 11.4057C24.786 11.5214 25.3256 11.7391 25.7191 12.1017C26.1126 12.4643 26.3488 12.9614 26.4744 13.8237C26.6028 14.7049 26.6047 15.8654 26.6047 17.5C26.6047 19.1346 26.6028 20.296 26.4744 21.1771C26.3488 22.0386 26.1126 22.5357 25.7191 22.8983C25.3256 23.2609 24.786 23.4786 23.8502 23.5943C22.8949 23.7126 21.6344 23.7143 19.8605 23.7143H16.1395C14.3656 23.7143 13.106 23.7126 12.1488 23.5943C11.214 23.4786 10.6744 23.2609 10.2809 22.8983C9.88744 22.5357 9.65116 22.0386 9.52558 21.1763C9.39721 20.2951 9.39535 19.1346 9.39535 17.5C9.39535 15.8654 9.39721 14.7049 9.52558 13.8229C9.65116 12.9614 9.88744 12.4643 10.2809 12.1017Z" fill="#FBFBFB"/>
</svg>
