<svg width="35" height="35" viewBox="0 0 35 35" fill="none" xmlns="http://www.w3.org/2000/svg">
<path d="M10.982 8.49087L18 15.5086L24.9816 8.52723C25.1358 8.3631 25.3216 8.23179 25.5278 8.14119C25.734 8.0506 25.9564 8.00257 26.1816 8C26.6638 8 27.1262 8.19154 27.4672 8.53249C27.8082 8.87345 27.9997 9.33587 27.9997 9.81805C28.0039 10.0409 27.9626 10.2624 27.8782 10.4687C27.7938 10.675 27.6681 10.8619 27.5088 11.018L20.4363 17.9993L27.5088 25.0715C27.8085 25.3646 27.9842 25.7616 27.9997 26.1805C27.9997 26.6627 27.8082 27.1251 27.4672 27.4661C27.1262 27.807 26.6638 27.9986 26.1816 27.9986C25.9499 28.0082 25.7187 27.9695 25.5027 27.885C25.2868 27.8005 25.0907 27.672 24.9271 27.5077L18 20.49L11.0002 27.4895C10.8466 27.6482 10.6631 27.7748 10.4602 27.8622C10.2574 27.9496 10.0393 27.9959 9.81842 27.9986C9.33623 27.9986 8.87378 27.807 8.53281 27.4661C8.19185 27.1251 8.0003 26.6627 8.0003 26.1805C7.99606 25.9576 8.03741 25.7362 8.12183 25.5299C8.20624 25.3235 8.33194 25.1366 8.49119 24.9806L15.5637 17.9993L8.49119 10.9271C8.19154 10.6339 8.01582 10.237 8.0003 9.81805C8.0003 9.33587 8.19185 8.87345 8.53281 8.53249C8.87378 8.19154 9.33623 8 9.81842 8C10.2548 8.00545 10.6729 8.18181 10.982 8.49087Z" fill="#1F1F1F"/>
</svg>
