<svg width="35" height="35" viewBox="0 0 35 35" fill="none" xmlns="http://www.w3.org/2000/svg">
<path d="M18.2126 15.6596C20.3277 15.6596 22.0424 13.9449 22.0424 11.8298C22.0424 9.71466 20.3277 8 18.2126 8C16.0975 8 14.3828 9.71466 14.3828 11.8298C14.3828 13.9449 16.0975 15.6596 18.2126 15.6596Z" stroke="#1F1F1F" stroke-width="2" stroke-linecap="round" stroke-linejoin="round"/>
<path d="M8 28C8 23.2995 12.3562 19.4894 17.7297 19.4894M25.8378 22.6809V21.0851C25.8378 20.6619 25.667 20.256 25.3629 19.9568C25.0588 19.6575 24.6463 19.4894 24.2162 19.4894C23.7861 19.4894 23.3737 19.6575 23.0696 19.9568C22.7654 20.256 22.5946 20.6619 22.5946 21.0851V22.6809M20.4324 22.6809H28V28H20.4324V22.6809Z" stroke="#1F1F1F" stroke-width="2" stroke-linecap="round" stroke-linejoin="round"/>
</svg>
