<svg width="35" height="35" viewBox="0 0 35 35" fill="none" xmlns="http://www.w3.org/2000/svg">
<path d="M18.2126 15.6596C20.3277 15.6596 22.0424 13.9449 22.0424 11.8298C22.0424 9.71466 20.3277 8 18.2126 8C16.0975 8 14.3828 9.71466 14.3828 11.8298C14.3828 13.9449 16.0975 15.6596 18.2126 15.6596Z" stroke="#FBFBFB" stroke-width="2" stroke-linecap="round" stroke-linejoin="round"/>
<path d="M8 27.9999C8 23.2994 12.3562 19.4893 17.7297 19.4893M25.8378 22.6808V21.085C25.8378 20.6618 25.667 20.2559 25.3629 19.9566C25.0588 19.6574 24.6463 19.4893 24.2162 19.4893C23.7861 19.4893 23.3737 19.6574 23.0696 19.9566C22.7654 20.2559 22.5946 20.6618 22.5946 21.085V22.6808M20.4324 22.6808H28V27.9999H20.4324V22.6808Z" stroke="#FBFBFB" stroke-width="2" stroke-linecap="round" stroke-linejoin="round"/>
</svg>
